<?xml version="1.0" encoding="UTF-8"?>
<svg version="1.1" xmlns="http://www.w3.org/2000/svg" width="1892" height="2000">
<path d="M0 0 C67.62914943 -0.25707099 135.2583572 -0.49556618 202.88786316 -0.63514709 C203.88866792 -0.63721795 204.88947269 -0.63928881 205.92060487 -0.64142242 C227.67035573 -0.68631517 249.42011178 -0.72786802 271.16987555 -0.76597994 C281.83582638 -0.78469013 292.50177581 -0.80413841 303.16772461 -0.82397461 C304.75981682 -0.82691669 304.75981682 -0.82691669 306.3840725 -0.8299182 C340.79216912 -0.89384804 375.19989644 -1.00652439 409.60776929 -1.14445831 C444.96392239 -1.28593639 480.3198711 -1.37827897 515.67630249 -1.40872485 C520.66918334 -1.41304723 525.66206349 -1.41793178 530.65494347 -1.42315865 C532.12896097 -1.42467566 532.12896097 -1.42467566 533.63275661 -1.42622333 C549.45664053 -1.44395502 565.27989277 -1.51354056 581.103519 -1.60248051 C597.00854487 -1.69077273 612.91294402 -1.72452443 628.81820641 -1.70252066 C638.27049043 -1.69110401 647.72048222 -1.72158575 657.17235261 -1.81196315 C663.48688412 -1.86822073 669.79991519 -1.86995475 676.11455039 -1.8274772 C679.71343388 -1.80482587 683.30798628 -1.80576184 686.90640447 -1.87324774 C707.67851955 -2.24071766 707.67851955 -2.24071766 713.20000099 1.48415177 C716.74144502 4.92984098 719.08939514 8.79438506 721.1598111 13.25185519 C722.2727145 15.5674253 723.72116635 17.54923349 725.27734375 19.5859375 C726.1655138 20.84793819 727.05226335 22.11093994 727.9375 23.375 C728.94657524 24.8099235 729.95569102 26.2448185 730.96484375 27.6796875 C731.46612793 28.39350586 731.96741211 29.10732422 732.48388672 29.84277344 C734.98343325 33.39929407 737.49213758 36.94934099 740 40.5 C741.00004474 41.91663508 742.00004472 43.33330177 743 44.75 C743.495 45.45125 743.99 46.1525 744.5 46.875 C749 53.25 749 53.25 750.49975586 55.37475586 C751.50044188 56.79232654 752.50125583 58.20980692 753.50219727 59.62719727 C755.99275451 63.15430572 758.48111592 66.68292217 760.96484375 70.21484375 C766.05522361 77.44840921 771.18210977 84.65210747 776.375 91.8125 C782.79576273 100.66972147 789.06429068 109.62980597 795.32421875 118.60107422 C801.94871213 128.08421407 808.63818501 137.51642081 815.4375 146.875 C819.94084567 153.07543421 824.32108142 159.34713359 828.625 165.6875 C832.88661736 171.96527788 837.24925147 178.14095555 841.77050781 184.23388672 C846.18578972 190.20292887 850.42353964 196.29140872 854.66552734 202.38427734 C858.57304129 207.98728385 862.5428874 213.53948899 866.5625 219.0625 C871.02596463 225.19942511 875.3632312 231.40892255 879.625 237.6875 C883.88660101 243.96528788 888.24925211 250.14095642 892.77050781 256.23388672 C897.18578972 262.20292887 901.42353964 268.29140872 905.66552734 274.38427734 C909.5730419 279.98728472 913.54292241 285.53946277 917.5625 291.0625 C922.08653932 297.28348502 926.48597438 303.5776203 930.8125 309.9375 C936.19866971 317.84809589 936.19866971 317.84809589 941.6875 325.6875 C942.28949219 326.53699219 942.89148438 327.38648438 943.51171875 328.26171875 C944.00285156 328.83535156 944.49398437 329.40898437 945 330 C945.66 330 946.32 330 947 330 C948.31998017 328.47161437 948.31998017 328.47161437 949.6171875 326.44140625 C950.13531006 325.6719165 950.65343262 324.90242676 951.18725586 324.10961914 C951.74421143 323.26906982 952.30116699 322.42852051 952.875 321.5625 C954.06011266 319.80135256 955.24633236 318.04094962 956.43359375 316.28125 C957.33247314 314.94513672 957.33247314 314.94513672 958.24951172 313.58203125 C960.76343383 309.87390848 963.34336593 306.2147677 965.9375 302.5625 C966.92856015 301.16418633 967.91944279 299.76574682 968.91015625 298.3671875 C969.66256592 297.30516113 969.66256592 297.30516113 970.43017578 296.22167969 C973.25814681 292.21941898 976.06625714 288.20326734 978.875 284.1875 C979.46015381 283.350979 980.04530762 282.51445801 980.64819336 281.65258789 C981.83814498 279.95123593 983.02800466 278.24981967 984.21777344 276.54833984 C987.72506556 271.53339256 991.23536713 266.52055142 994.74511719 261.50732422 C997.6878564 257.30376353 1000.62984094 253.09967859 1003.5703125 248.89453125 C1009.51694129 240.39189535 1015.47678902 231.89909294 1021.46582031 223.42626953 C1027.67394597 214.63859596 1033.83465946 205.81771441 1040 197 C1047.13553381 186.79470818 1054.27810781 176.59489545 1061.46582031 166.42626953 C1067.07585409 158.48520192 1072.64610235 150.51634681 1078.21777344 142.54833984 C1081.72506556 137.53339256 1085.23536713 132.52055142 1088.74511719 127.50732422 C1091.6878564 123.30376353 1094.62984094 119.09967859 1097.5703125 114.89453125 C1103.51694129 106.39189535 1109.47678902 97.89909294 1115.46582031 89.42626953 C1121.67394597 80.63859596 1127.83465946 71.81771441 1134 63 C1140.65043449 53.48850073 1147.30100566 43.97738939 1154 34.5 C1158.51351267 28.11361617 1163.01219219 21.71697573 1167.5 15.3125 C1168.0878125 14.47460938 1168.675625 13.63671875 1169.28125 12.7734375 C1169.838125 11.97808594 1170.395 11.18273437 1170.96875 10.36328125 C1171.45794922 9.66501221 1171.94714844 8.96674316 1172.45117188 8.24731445 C1174.13596528 5.95164097 1174.13596528 5.95164097 1175.36911464 2.90568578 C1178.35416831 -0.39116178 1178.85669 -0.45641273 1183.07498288 -0.74519098 C1185.26413442 -0.77378124 1187.45386679 -0.76868818 1189.64299393 -0.73828697 C1191.45816521 -0.74867157 1191.45816521 -0.74867157 1193.31000662 -0.75926596 C1196.68596455 -0.77246306 1200.05989334 -0.75859552 1203.43565867 -0.73359716 C1207.10143538 -0.71303249 1210.76710002 -0.72720884 1214.43289828 -0.7370621 C1220.86301127 -0.7495214 1227.29279165 -0.73961383 1233.72286606 -0.71523285 C1243.28413633 -0.67907976 1252.84519609 -0.67721264 1262.40652225 -0.68248478 C1278.48868144 -0.69037576 1294.57069294 -0.67029114 1310.65280914 -0.63438034 C1326.58103413 -0.59890417 1342.50919764 -0.57578994 1358.43746185 -0.56926346 C1359.4270385 -0.56885102 1360.41661514 -0.56843858 1361.43617895 -0.56801365 C1366.46153513 -0.56598371 1371.48689136 -0.56417538 1376.51224765 -0.56245239 C1412.12669658 -0.54984273 1447.74106512 -0.50939859 1483.35546875 -0.45263672 C1517.95898002 -0.39754957 1552.56246931 -0.35503838 1587.16601562 -0.32958984 C1588.23224544 -0.32880069 1589.29847526 -0.32801153 1590.39701507 -0.32719846 C1601.10432397 -0.31928749 1611.81163305 -0.31163258 1622.51894227 -0.3041653 C1644.33186357 -0.28894715 1666.14478343 -0.27201963 1687.95770264 -0.25405884 C1688.96067257 -0.2532351 1689.9636425 -0.25241136 1690.99700546 -0.25156266 C1757.99803708 -0.1963387 1824.9990241 -0.10126517 1892 0 C1892.37383124 170.81742294 1892.37383124 170.81742294 1892.55046082 305.39634705 C1892.55227367 306.917911 1892.55408654 308.43947495 1892.55589943 309.96103891 C1892.59389519 341.89979785 1892.6292124 373.8385593 1892.66143582 405.77732459 C1892.67762582 421.82147242 1892.69433046 437.86561969 1892.71152174 453.90976648 C1892.71411197 456.32994974 1892.71668751 458.75013302 1892.71926244 461.1703163 C1892.75903733 498.43314515 1892.80984256 535.69591879 1892.89263916 572.9586792 C1892.89441884 573.75972494 1892.89619853 574.56077068 1892.89803214 575.38609053 C1892.9267926 588.30113529 1892.95647966 601.21617792 1892.98628973 614.13122029 C1893.07214873 651.33527214 1893.15114407 688.53928148 1893.18481731 725.74342251 C1893.18551327 726.50866849 1893.18620923 727.27391447 1893.18692627 728.06234972 C1893.20208202 744.86229195 1893.21371474 761.6622347 1893.22201278 778.46218165 C1893.22541381 785.22215268 1893.22932188 791.9821234 1893.23340416 798.74209404 C1893.23383871 799.48193839 1893.23427327 800.22178275 1893.23472099 800.98404663 C1893.24896918 824.81288613 1893.30447368 848.64140993 1893.38166871 872.47012205 C1893.45925633 896.47841395 1893.49627777 920.48639967 1893.47711184 944.49482008 C1893.46526592 959.39077057 1893.48839781 974.285553 1893.57036806 989.18129195 C1893.61909509 998.68424111 1893.62064436 1008.18644097 1893.58381358 1017.68944173 C1893.56417401 1023.10545585 1893.56506425 1028.51930697 1893.62348137 1033.9350896 C1893.67628117 1038.86760587 1893.66864765 1043.79628234 1893.61381968 1048.7287428 C1893.60457236 1050.49703402 1893.61689779 1052.26561148 1893.65405818 1054.03353637 C1893.87708261 1065.36716326 1891.91637258 1071.82922663 1883.94953979 1080.11806154 C1882.82997408 1081.23329119 1881.70245913 1082.34061077 1880.56626586 1083.43889552 C1878.30414309 1085.69356382 1876.35816964 1088.12254612 1874.375 1090.625 C1868.88553342 1097.39667776 1863.22912587 1104.02421467 1857.58398438 1110.66601562 C1852.09729486 1117.12406926 1846.66222871 1123.61497616 1841.3125 1130.1875 C1838.27632634 1133.88014364 1835.1815003 1137.52121788 1832.0859375 1141.1640625 C1829.18755177 1144.5805954 1826.328449 1148.02504838 1823.5 1151.5 C1817.95807902 1158.30413786 1812.26691077 1164.97975878 1806.58398438 1171.66601562 C1801.09729486 1178.12406926 1795.66222871 1184.61497616 1790.3125 1191.1875 C1787.27632634 1194.88014364 1784.1815003 1198.52121788 1781.0859375 1202.1640625 C1778.18755177 1205.5805954 1775.328449 1209.02504838 1772.5 1212.5 C1766.95807902 1219.30413786 1761.26691077 1225.97975878 1755.58398438 1232.66601562 C1750.09729486 1239.12406926 1744.66222871 1245.61497616 1739.3125 1252.1875 C1736.27632634 1255.88014364 1733.1815003 1259.52121788 1730.0859375 1263.1640625 C1727.18755177 1266.5805954 1724.328449 1270.02504838 1721.5 1273.5 C1717.75147354 1278.1053325 1713.92915754 1282.64204444 1710.08374023 1287.16625977 C1707.2045468 1290.55954109 1704.36795763 1293.98267786 1701.5625 1297.4375 C1697.60556582 1302.30049424 1693.53564058 1307.05700203 1689.44384766 1311.80615234 C1685.64836633 1316.22031766 1681.94722087 1320.70333198 1678.27734375 1325.22265625 C1675.71795946 1328.34396367 1673.11406209 1331.4245003 1670.5 1334.5 C1667.12716411 1338.46903543 1663.78823355 1342.46017021 1660.5 1346.5 C1654.95807902 1353.30413786 1649.26691077 1359.97975878 1643.58398438 1366.66601562 C1638.09729486 1373.12406926 1632.66222871 1379.61497616 1627.3125 1386.1875 C1624.2756723 1389.8809391 1621.18039045 1393.52298486 1618.08374023 1397.16625977 C1615.2045468 1400.55954109 1612.36795763 1403.98267786 1609.5625 1407.4375 C1605.60556582 1412.30049424 1601.53564058 1417.05700203 1597.44384766 1421.80615234 C1593.64836633 1426.22031766 1589.94722087 1430.70333198 1586.27734375 1435.22265625 C1583.71795946 1438.34396367 1581.11406209 1441.4245003 1578.5 1444.5 C1575.12716411 1448.46903543 1571.78823355 1452.46017021 1568.5 1456.5 C1564.75147354 1461.1053325 1560.92915754 1465.64204444 1557.08374023 1470.16625977 C1554.2045468 1473.55954109 1551.36795763 1476.98267786 1548.5625 1480.4375 C1544.60556582 1485.30049424 1540.53564058 1490.05700203 1536.44384766 1494.80615234 C1532.64836633 1499.22031766 1528.94722087 1503.70333198 1525.27734375 1508.22265625 C1522.71795946 1511.34396367 1520.11406209 1514.4245003 1517.5 1517.5 C1514.12716411 1521.46903543 1510.78823355 1525.46017021 1507.5 1529.5 C1503.75147354 1534.1053325 1499.92915754 1538.64204444 1496.08374023 1543.16625977 C1493.2045468 1546.55954109 1490.36795763 1549.98267786 1487.5625 1553.4375 C1483.60556582 1558.30049424 1479.53564058 1563.05700203 1475.44384766 1567.80615234 C1471.64836633 1572.22031766 1467.94722087 1576.70333198 1464.27734375 1581.22265625 C1461.71795946 1584.34396367 1459.11406209 1587.4245003 1456.5 1590.5 C1453.12716411 1594.46903543 1449.78823355 1598.46017021 1446.5 1602.5 C1442.75147354 1607.1053325 1438.92915754 1611.64204444 1435.08374023 1616.16625977 C1432.2045468 1619.55954109 1429.36795763 1622.98267786 1426.5625 1626.4375 C1422.60556582 1631.30049424 1418.53564058 1636.05700203 1414.44384766 1640.80615234 C1410.64836633 1645.22031766 1406.94722087 1649.70333198 1403.27734375 1654.22265625 C1400.25580056 1657.90759143 1397.16964049 1661.53568321 1394.08349609 1665.16650391 C1391.20442157 1668.55973475 1388.36788508 1671.9827672 1385.5625 1675.4375 C1381.60556582 1680.30049424 1377.53564058 1685.05700203 1373.44384766 1689.80615234 C1369.64836633 1694.22031766 1365.94722087 1698.70333198 1362.27734375 1703.22265625 C1359.71795946 1706.34396367 1357.11406209 1709.4245003 1354.5 1712.5 C1351.12716411 1716.46903543 1347.78823355 1720.46017021 1344.5 1724.5 C1340.75147354 1729.1053325 1336.92915754 1733.64204444 1333.08374023 1738.16625977 C1330.2045468 1741.55954109 1327.36795763 1744.98267786 1324.5625 1748.4375 C1320.60556582 1753.30049424 1316.53564058 1758.05700203 1312.44384766 1762.80615234 C1308.64836633 1767.22031766 1304.94722087 1771.70333198 1301.27734375 1776.22265625 C1298.25580056 1779.90759143 1295.16964049 1783.53568321 1292.08349609 1787.16650391 C1289.20442157 1790.55973475 1286.36788508 1793.9827672 1283.5625 1797.4375 C1279.60556582 1802.30049424 1275.53564058 1807.05700203 1271.44384766 1811.80615234 C1267.64836633 1816.22031766 1263.94722087 1820.70333198 1260.27734375 1825.22265625 C1257.71795946 1828.34396367 1255.11406209 1831.4245003 1252.5 1834.5 C1249.12716411 1838.46903543 1245.78823355 1842.46017021 1242.5 1846.5 C1238.75147354 1851.1053325 1234.92915754 1855.64204444 1231.08374023 1860.16625977 C1228.2045468 1863.55954109 1225.36795763 1866.98267786 1222.5625 1870.4375 C1218.60556582 1875.30049424 1214.53564058 1880.05700203 1210.44384766 1884.80615234 C1206.64836633 1889.22031766 1202.94722087 1893.70333198 1199.27734375 1898.22265625 C1196.71795946 1901.34396367 1194.11406209 1904.4245003 1191.5 1907.5 C1188.12716411 1911.46903543 1184.78823355 1915.46017021 1181.5 1919.5 C1177.75147354 1924.1053325 1173.92915754 1928.64204444 1170.08374023 1933.16625977 C1167.2045468 1936.55954109 1164.36795763 1939.98267786 1161.5625 1943.4375 C1157.60556582 1948.30049424 1153.53564058 1953.05700203 1149.44384766 1957.80615234 C1145.64836633 1962.22031766 1141.94722087 1966.70333198 1138.27734375 1971.22265625 C1135.26305607 1974.89874294 1132.18476722 1978.51851082 1129.10546875 1982.14013672 C1125.26738272 1986.66262721 1121.50997321 1991.24536763 1117.77734375 1995.85546875 C1114.37701747 1999.95828002 1114.37701747 1999.95828002 1111.59929579 2000.26565701 C1110.58033841 2000.27302866 1109.56138102 2000.28040031 1108.51154613 2000.28799534 C1107.33819342 2000.30122792 1106.1648407 2000.3144605 1104.95593184 2000.32809407 C1103.65548456 2000.33250018 1102.35503727 2000.33690629 1101.0151825 2000.34144592 C1099.62853183 2000.35305018 1098.24188794 2000.36548926 1096.85525161 2000.37869543 C1093.0311629 2000.41241121 1089.2070937 2000.43332854 1085.38290584 2000.45201695 C1082.10591568 2000.46963658 1078.8289987 2000.49464345 1075.55205824 2000.51970071 C1063.8095475 2000.60928919 1052.06694155 2000.66907195 1040.32421875 2000.72265625 C1039.39734553 2000.72693873 1038.47047231 2000.73122121 1037.51551202 2000.73563346 C1019.11043478 2000.82025216 1000.70532078 2000.89248224 982.30011272 2000.94144535 C978.25142556 2000.95240385 974.20273891 2000.96353378 970.15405273 2000.97485352 C969.14776598 2000.97765717 968.14147923 2000.98046082 967.10469893 2000.98334944 C950.81749927 2001.03038396 934.53121929 2001.13621584 918.24448743 2001.26556296 C901.52132014 2001.39727861 884.79862708 2001.47208604 868.07494861 2001.49266809 C858.68579521 2001.50572686 849.29821868 2001.54411314 839.90958214 2001.64708138 C831.90963482 2001.73474782 823.91151056 2001.77122143 815.91110208 2001.74154706 C811.83111536 2001.72800163 807.75501806 2001.73836968 803.67564392 2001.81499863 C777.96984054 2002.27296744 777.96984054 2002.27296744 771.2784214 1996.74194145 C768.35765673 1993.72386154 766.11654794 1990.48864163 764.06885016 1986.83218753 C762.47140717 1984.09390369 760.43920294 1981.77048036 758.375 1979.375 C757.67117188 1978.50617188 756.96734375 1977.63734375 756.2421875 1976.7421875 C753.69746317 1973.62999852 751.10381775 1970.56273503 748.5 1967.5 C744.37886052 1962.65051278 740.33008388 1957.74838877 736.3125 1952.8125 C733.2756723 1949.1190609 730.18039045 1945.47701514 727.08374023 1941.83374023 C724.2045468 1938.44045891 721.36795763 1935.01732214 718.5625 1931.5625 C715.10725849 1927.31607618 711.57302166 1923.14703706 708 1919 C703.68071044 1913.98680512 699.44902881 1908.9146268 695.27734375 1903.77734375 C692.71795946 1900.65603633 690.11406209 1897.5754997 687.5 1894.5 C683.37892208 1889.65045949 679.33008517 1884.74839036 675.3125 1879.8125 C672.73853608 1876.68200334 670.12430914 1873.58827539 667.5 1870.5 C663.37898366 1865.65040619 659.33008646 1860.74839194 655.3125 1855.8125 C652.73853608 1852.68200334 650.12430914 1849.58827539 647.5 1846.5 C643.37898366 1841.65040619 639.33008646 1836.74839194 635.3125 1831.8125 C632.73853608 1828.68200334 630.12430914 1825.58827539 627.5 1822.5 C623.37898366 1817.65040619 619.33008646 1812.74839194 615.3125 1807.8125 C612.73853608 1804.68200334 610.12430914 1801.58827539 607.5 1798.5 C603.37898366 1793.65040619 599.33008646 1788.74839194 595.3125 1783.8125 C592.2756723 1780.1190609 589.18039045 1776.47701514 586.08374023 1772.83374023 C583.2045468 1769.44045891 580.36795763 1766.01732214 577.5625 1762.5625 C574.10725849 1758.31607618 570.57302166 1754.14703706 567 1750 C562.68071044 1744.98680512 558.44902881 1739.9146268 554.27734375 1734.77734375 C551.71795946 1731.65603633 549.11406209 1728.5754997 546.5 1725.5 C542.37892208 1720.65045949 538.33008517 1715.74839036 534.3125 1710.8125 C531.73853608 1707.68200334 529.12430914 1704.58827539 526.5 1701.5 C522.37898366 1696.65040619 518.33008646 1691.74839194 514.3125 1686.8125 C511.73853608 1683.68200334 509.12430914 1680.58827539 506.5 1677.5 C502.37898366 1672.65040619 498.33008646 1667.74839194 494.3125 1662.8125 C491.73853608 1659.68200334 489.12430914 1656.58827539 486.5 1653.5 C482.37898366 1648.65040619 478.33008646 1643.74839194 474.3125 1638.8125 C471.73853608 1635.68200334 469.12430914 1632.58827539 466.5 1629.5 C462.37898366 1624.65040619 458.33008646 1619.74839194 454.3125 1614.8125 C451.73853608 1611.68200334 449.12430914 1608.58827539 446.5 1605.5 C443.12721426 1601.53092065 439.78823483 1597.53983137 436.5 1593.5 C431.41824323 1587.26083244 426.21105894 1581.13108038 421 1575 C415.0399173 1567.98765442 409.12241205 1560.95039195 403.3125 1553.8125 C400.73853608 1550.68200334 398.12430914 1547.58827539 395.5 1544.5 C391.37898366 1539.65040619 387.33008646 1534.74839194 383.3125 1529.8125 C380.73853608 1526.68200334 378.12430914 1523.58827539 375.5 1520.5 C371.37898366 1515.65040619 367.33008646 1510.74839194 363.3125 1505.8125 C360.73853608 1502.68200334 358.12430914 1499.58827539 355.5 1496.5 C351.37898366 1491.65040619 347.33008646 1486.74839194 343.3125 1481.8125 C340.73853608 1478.68200334 338.12430914 1475.58827539 335.5 1472.5 C331.37898366 1467.65040619 327.33008646 1462.74839194 323.3125 1457.8125 C320.73853608 1454.68200334 318.12430914 1451.58827539 315.5 1448.5 C311.37898366 1443.65040619 307.33008646 1438.74839194 303.3125 1433.8125 C300.73853608 1430.68200334 298.12430914 1427.58827539 295.5 1424.5 C292.12721426 1420.53092065 288.78823483 1416.53983137 285.5 1412.5 C280.41824323 1406.26083244 275.21105894 1400.13108038 270 1394 C264.0399173 1386.98765442 258.12241205 1379.95039195 252.3125 1372.8125 C249.73853608 1369.68200334 247.12430914 1366.58827539 244.5 1363.5 C240.37898366 1358.65040619 236.33008646 1353.74839194 232.3125 1348.8125 C229.73853608 1345.68200334 227.12430914 1342.58827539 224.5 1339.5 C220.37898366 1334.65040619 216.33008646 1329.74839194 212.3125 1324.8125 C209.73853608 1321.68200334 207.12430914 1318.58827539 204.5 1315.5 C200.37898366 1310.65040619 196.33008646 1305.74839194 192.3125 1300.8125 C189.73853608 1297.68200334 187.12430914 1294.58827539 184.5 1291.5 C180.37898366 1286.65040619 176.33008646 1281.74839194 172.3125 1276.8125 C169.73853608 1273.68200334 167.12430914 1270.58827539 164.5 1267.5 C160.37898366 1262.65040619 156.33008646 1257.74839194 152.3125 1252.8125 C149.2756723 1249.1190609 146.18039045 1245.47701514 143.08374023 1241.83374023 C140.2045468 1238.44045891 137.36795763 1235.01732214 134.5625 1231.5625 C131.10725849 1227.31607618 127.57302166 1223.14703706 124 1219 C119.68071044 1213.98680512 115.44902881 1208.9146268 111.27734375 1203.77734375 C108.71795946 1200.65603633 106.11406209 1197.5754997 103.5 1194.5 C99.37892208 1189.65045949 95.33008517 1184.74839036 91.3125 1179.8125 C88.73853608 1176.68200334 86.12430914 1173.58827539 83.5 1170.5 C79.37898366 1165.65040619 75.33008646 1160.74839194 71.3125 1155.8125 C68.73853608 1152.68200334 66.12430914 1149.58827539 63.5 1146.5 C59.37898366 1141.65040619 55.33008646 1136.74839194 51.3125 1131.8125 C48.73853608 1128.68200334 46.12430914 1125.58827539 43.5 1122.5 C39.37898366 1117.65040619 35.33008646 1112.74839194 31.3125 1107.8125 C28.73853455 1104.68200149 26.12423097 1101.58834366 23.5 1098.5 C19.38401222 1093.65405527 15.29219299 1088.79286813 11.34137722 1083.81029643 C9.08564624 1081.00404325 9.08564624 1081.00404325 6.64293701 1078.70391412 C0.0744088 1071.9571649 -1.14885202 1066.09102433 -1.17907628 1057.05028877 C-1.15599088 1055.34547732 -1.13207874 1053.64067691 -1.10743046 1051.93588734 C-1.11409427 1050.09824107 -1.1247091 1048.26060566 -1.13889894 1046.42300209 C-1.16646872 1041.37145575 -1.13799271 1036.32154449 -1.10039574 1031.27012024 C-1.06944667 1025.77562747 -1.09083276 1020.28129803 -1.10559314 1014.78677243 C-1.1242502 1005.15667836 -1.10947502 995.52708485 -1.07284927 985.89704895 C-1.0185398 971.5776451 -1.01581129 957.2585453 -1.02372717 942.93905849 C-1.03638833 918.85172325 -1.00553932 894.76460161 -0.95157051 870.67733192 C-0.89825678 846.82541153 -0.86359241 822.9735826 -0.85389519 799.12160301 C-0.85358548 798.38067817 -0.85327577 797.63975333 -0.85295668 796.87637622 C-0.85013786 790.10910507 -0.84754865 783.34183386 -0.84523491 776.57456253 C-0.83948057 759.75236741 -0.8308468 742.93017444 -0.82025814 726.10798168 C-0.81953835 724.95895131 -0.81953835 724.95895131 -0.81880403 723.78670821 C-0.79521398 686.53005294 -0.73844745 649.27345803 -0.67895508 612.0168457 C-0.65833001 599.08901007 -0.63785169 586.16117422 -0.61798096 573.2333374 C-0.61613214 572.03064832 -0.61613214 572.03064832 -0.61424598 570.80366249 C-0.55714236 533.52578997 -0.52361673 496.24790709 -0.4961678 458.97000231 C-0.49438523 456.54969932 -0.49259249 454.12939634 -0.49079769 451.70909336 C-0.47891959 435.66953152 -0.46744776 419.62996939 -0.45624795 403.59040706 C-0.43395981 371.67604116 -0.40928469 339.76167725 -0.38296953 307.84731442 C-0.38171637 306.32749157 -0.38046488 304.80766872 -0.37921506 303.28784587 C-0.31269363 222.41521851 -0.20598794 141.54265262 0 0 Z M343 345 C343 497.79 343 650.58 343 808 C429.13 808 515.26 808 604 808 C577.53763132 908.09678589 577.53763132 908.09678589 569.7319603 937.30669785 C568.52271928 941.83290912 567.31477634 946.35946689 566.10668945 950.88598633 C564.58652826 956.58155852 563.06628269 962.2771081 561.54551697 967.97251892 C558.22536432 980.40697415 554.90833989 992.84226005 551.59371758 1005.27819061 C550.82131888 1008.17591196 550.04875087 1011.07358811 549.27613831 1013.97125244 C546.9973203 1022.51841231 544.71934273 1031.06579067 542.44616413 1039.61445236 C541.22146206 1044.21975505 539.99579501 1048.82480041 538.76953125 1053.4296875 C538.52991102 1054.32954124 538.29029079 1055.22939499 538.04340935 1056.15651703 C534.7084696 1068.67284149 531.32565651 1081.17537748 527.90683174 1093.66903496 C526.53695986 1098.68066365 525.17465965 1103.6943572 523.81229687 1108.70803165 C522.5436682 1113.37227614 521.26137592 1118.03247336 519.96832371 1122.69000244 C519.18747452 1125.51463033 518.41934333 1128.34259822 517.65477943 1131.17167282 C517.13314669 1133.08596411 516.59564832 1134.99591008 516.05766296 1136.90567017 C515.75359024 1138.03999481 515.44951752 1139.17431946 515.13623047 1140.34301758 C514.8666452 1141.32176346 514.59705994 1142.30050934 514.31930542 1143.30891418 C513.86137127 1147.16835413 515.04182309 1149.67250476 517.27758789 1152.77001953 C517.75446045 1153.30224121 518.23133301 1153.83446289 518.72265625 1154.3828125 C519.25648926 1154.98689941 519.79032227 1155.59098633 520.34033203 1156.21337891 C521.19280518 1157.15963135 521.19280518 1157.15963135 522.0625 1158.125 C523.24988504 1159.46770113 524.43607826 1160.81145714 525.62109375 1162.15625 C526.20101074 1162.81238281 526.78092773 1163.46851563 527.37841797 1164.14453125 C530.26102978 1167.44291272 533.00090193 1170.85459322 535.7578125 1174.2578125 C538.30253683 1177.37000148 540.89618225 1180.43726497 543.5 1183.5 C547.62113948 1188.34948722 551.66991612 1193.25161123 555.6875 1198.1875 C558.26146392 1201.31799666 560.87569086 1204.41172461 563.5 1207.5 C567.62101634 1212.34959381 571.66991354 1217.25160806 575.6875 1222.1875 C578.26146392 1225.31799666 580.87569086 1228.41172461 583.5 1231.5 C587.62101634 1236.34959381 591.66991354 1241.25160806 595.6875 1246.1875 C598.26146392 1249.31799666 600.87569086 1252.41172461 603.5 1255.5 C607.62101634 1260.34959381 611.66991354 1265.25160806 615.6875 1270.1875 C618.26146392 1273.31799666 620.87569086 1276.41172461 623.5 1279.5 C627.62101634 1284.34959381 631.66991354 1289.25160806 635.6875 1294.1875 C638.7243277 1297.8809391 641.81960955 1301.52298486 644.91625977 1305.16625977 C647.7954532 1308.55954109 650.63204237 1311.98267786 653.4375 1315.4375 C656.89274151 1319.68392382 660.42697834 1323.85296294 664 1328 C668.31928956 1333.01319488 672.55097119 1338.0853732 676.72265625 1343.22265625 C679.28204054 1346.34396367 681.88593791 1349.4245003 684.5 1352.5 C688.62107792 1357.34954051 692.66991483 1362.25160964 696.6875 1367.1875 C699.26146392 1370.31799666 701.87569086 1373.41172461 704.5 1376.5 C708.62101634 1381.34959381 712.66991354 1386.25160806 716.6875 1391.1875 C719.26146392 1394.31799666 721.87569086 1397.41172461 724.5 1400.5 C728.62101634 1405.34959381 732.66991354 1410.25160806 736.6875 1415.1875 C739.26146392 1418.31799666 741.87569086 1421.41172461 744.5 1424.5 C748.62101634 1429.34959381 752.66991354 1434.25160806 756.6875 1439.1875 C759.26146392 1442.31799666 761.87569086 1445.41172461 764.5 1448.5 C768.62101634 1453.34959381 772.66991354 1458.25160806 776.6875 1463.1875 C779.26146392 1466.31799666 781.87569086 1469.41172461 784.5 1472.5 C788.62101634 1477.34959381 792.66991354 1482.25160806 796.6875 1487.1875 C799.7243277 1490.8809391 802.81960955 1494.52298486 805.91625977 1498.16625977 C808.7954532 1501.55954109 811.63204237 1504.98267786 814.4375 1508.4375 C817.89274151 1512.68392382 821.42697834 1516.85296294 825 1521 C829.31928956 1526.01319488 833.55097119 1531.0853732 837.72265625 1536.22265625 C840.28204054 1539.34396367 842.88593791 1542.4245003 845.5 1545.5 C849.62107792 1550.34954051 853.66991483 1555.25160964 857.6875 1560.1875 C860.26146392 1563.31799666 862.87569086 1566.41172461 865.5 1569.5 C869.62101634 1574.34959381 873.66991354 1579.25160806 877.6875 1584.1875 C880.26146392 1587.31799666 882.87569086 1590.41172461 885.5 1593.5 C889.62101634 1598.34959381 893.66991354 1603.25160806 897.6875 1608.1875 C900.26146392 1611.31799666 902.87569086 1614.41172461 905.5 1617.5 C909.62101634 1622.34959381 913.66991354 1627.25160806 917.6875 1632.1875 C920.26146495 1635.31799791 922.87574336 1638.41167862 925.5 1641.5 C937.005168 1655.0435247 937.005168 1655.0435247 942.12890625 1661.8125 C942.74636719 1662.534375 943.36382813 1663.25625 944 1664 C944.66 1664 945.32 1664 946 1664 C947.35382149 1662.51261765 948.63139886 1660.95569449 949.875 1659.375 C953.50128705 1654.83922617 957.20272685 1650.39344443 961 1646 C965.3225243 1640.98478524 969.55481439 1635.90821941 973.73046875 1630.76953125 C978.54688939 1624.89200589 983.494943 1619.12388086 988.41601562 1613.33398438 C993.15403662 1607.75714362 997.87842789 1602.17417216 1002.5 1596.5 C1008.04192098 1589.69586214 1013.73308923 1583.02024122 1019.41601562 1576.33398438 C1024.1351961 1570.77931966 1028.84075049 1565.21940075 1033.4375 1559.5625 C1037.39443418 1554.69950576 1041.46435942 1549.94299797 1045.55615234 1545.19384766 C1049.35163367 1540.77968234 1053.05277913 1536.29666802 1056.72265625 1531.77734375 C1059.74419944 1528.09240857 1062.83035951 1524.46431679 1065.91650391 1520.83349609 C1068.79557843 1517.44026525 1071.63211492 1514.0172328 1074.4375 1510.5625 C1078.39508188 1505.69870975 1082.46542446 1500.94118769 1086.55834961 1496.19165039 C1089.58945289 1492.66701081 1092.56985316 1489.10960118 1095.5 1485.5 C1098.93208013 1481.2720752 1102.44551171 1477.1247211 1106 1473 C1110.32172863 1467.98408311 1114.55479196 1462.90824701 1118.73046875 1457.76953125 C1123.54688939 1451.89200589 1128.494943 1446.12388086 1133.41601562 1440.33398438 C1138.15403662 1434.75714362 1142.87842789 1429.17417216 1147.5 1423.5 C1153.04192098 1416.69586214 1158.73308923 1410.02024122 1164.41601562 1403.33398438 C1169.1351961 1397.77931966 1173.84075049 1392.21940075 1178.4375 1386.5625 C1182.39443418 1381.69950576 1186.46435942 1376.94299797 1190.55615234 1372.19384766 C1194.35163367 1367.77968234 1198.05277913 1363.29666802 1201.72265625 1358.77734375 C1204.74419944 1355.09240857 1207.83035951 1351.46431679 1210.91650391 1347.83349609 C1213.79557843 1344.44026525 1216.63211492 1341.0172328 1219.4375 1337.5625 C1223.39508188 1332.69870975 1227.46542446 1327.94118769 1231.55834961 1323.19165039 C1234.58945289 1319.66701081 1237.56985316 1316.10960118 1240.5 1312.5 C1244.4337857 1307.65403211 1248.48447759 1302.91901472 1252.55859375 1298.19140625 C1255.58958284 1294.66682097 1258.56992581 1291.10951168 1261.5 1287.5 C1264.93208013 1283.2720752 1268.44551171 1279.1247211 1272 1275 C1276.31934272 1269.98685227 1280.55097277 1264.91462485 1284.72265625 1259.77734375 C1287.74419944 1256.09240857 1290.83035951 1252.46431679 1293.91650391 1248.83349609 C1296.79557843 1245.44026525 1299.63211492 1242.0172328 1302.4375 1238.5625 C1306.39508188 1233.69870975 1310.46542446 1228.94118769 1314.55834961 1224.19165039 C1317.58945289 1220.66701081 1320.56985316 1217.10960118 1323.5 1213.5 C1326.93208013 1209.2720752 1330.44551171 1205.1247211 1334 1201 C1338.32172863 1195.98408311 1342.55479196 1190.90824701 1346.73046875 1185.76953125 C1349.24928818 1182.69579119 1351.80532898 1179.65622919 1354.375 1176.625 C1354.83366455 1176.08383545 1355.2923291 1175.5426709 1355.76489258 1174.98510742 C1358.13870951 1172.18714313 1360.51724453 1169.39325068 1362.8984375 1166.6015625 C1363.37619629 1166.04001465 1363.85395508 1165.4784668 1364.34619141 1164.89990234 C1365.66160947 1163.35388577 1366.97916576 1161.80968921 1368.296875 1160.265625 C1368.71203369 1159.74621338 1369.12719238 1159.22680176 1369.55493164 1158.69165039 C1371 1157 1371 1157 1373.00561523 1155.15014648 C1375.27972059 1152.83298437 1376.71262976 1150.99062707 1378 1148 C1377.89343564 1144.20458082 1377.08143366 1140.84112521 1375.97962952 1137.23751831 C1370.40541673 1118.85137969 1365.31129039 1100.33508614 1360.27984929 1081.79453373 C1359.30112177 1078.18985815 1358.32002183 1074.58582837 1357.33909607 1070.98175049 C1355.90772899 1065.72208165 1354.47693909 1060.46225657 1353.04692453 1055.20221984 C1350.52651377 1045.93177336 1348.00073306 1036.66280096 1345.47143555 1027.39477539 C1345.28776963 1026.72176809 1345.10410372 1026.04876078 1344.91487217 1025.35535932 C1343.99064668 1021.96883652 1343.0663249 1018.58234001 1342.14196396 1015.19585419 C1340.28707034 1008.40004416 1338.43326264 1001.60393785 1336.5793457 994.80786133 C1336.2069123 993.4426287 1335.83447832 992.07739623 1335.46204376 990.71216393 C1334.3288304 986.55811804 1333.19565588 982.40406156 1332.0625 978.25 C1331.86955841 977.54269226 1331.67661681 976.83538451 1331.4778285 976.1066432 C1320.91080724 937.36852844 1310.34774206 898.62938087 1299.84791565 859.87298584 C1295.25005891 842.91023653 1290.62428809 825.955723 1286 809 C1371.47 809 1456.94 809 1545 809 C1545 655.88 1545 502.76 1545 345 C1482.3 345 1419.6 345 1355 345 C1348.63189533 353.6837791 1342.29812216 362.33132915 1336.1875 371.1875 C1334.80884882 373.17726009 1333.42993775 375.16684013 1332.05078125 377.15625 C1331.37225098 378.1359375 1330.6937207 379.115625 1329.99462891 380.125 C1326.96755088 384.48814208 1323.92252719 388.8386266 1320.875 393.1875 C1320.02071411 394.40699341 1320.02071411 394.40699341 1319.14916992 395.65112305 C1318.00547631 397.28360237 1316.86167797 398.91600831 1315.71777344 400.54833984 C1312.8103791 404.69786428 1309.90531999 408.84902306 1307 413 C1305.83334425 414.66667431 1304.66667759 416.33334098 1303.5 418 C1302.9225 418.825 1302.345 419.65 1301.75 420.5 C1212.5 548 1212.5 548 1210.75048828 550.49926758 C1209.58215033 552.16834507 1208.41385616 553.83745322 1207.24560547 555.5065918 C1204.35486511 559.63662338 1201.46340146 563.76614446 1198.5703125 567.89453125 C1192.36438924 576.75207626 1186.17316719 585.61958929 1180 594.5 C1173.25927821 604.19686646 1166.4951861 613.87709183 1159.71777344 623.54833984 C1156.8103791 627.69786428 1153.90531999 631.84902306 1151 636 C1149.83334425 637.66667431 1148.66667759 639.33334098 1147.5 641 C1146.9225 641.825 1146.345 642.65 1145.75 643.5 C1126.5 671 1126.5 671 1124.7487793 673.50170898 C1123.58613792 675.16264843 1122.42354002 676.82361831 1121.26098633 678.48461914 C1118.28309486 682.73916729 1115.30437018 686.99312825 1112.32421875 691.24609375 C1111.71513672 692.11556641 1111.10605469 692.98503906 1110.47851562 693.88085938 C1109.3381802 695.50866644 1108.19758376 697.13629071 1107.05664062 698.76367188 C1106.52619141 699.52099609 1105.99574219 700.27832031 1105.44921875 701.05859375 C1104.90834216 701.78307646 1104.36746557 702.50755917 1103.81019878 703.2539959 C1101.88316603 705.98265322 1101.88316603 705.98265322 1100.67244434 709.26494026 C1098.68168506 713.41086157 1096.91475878 716.47619793 1093 719 C1084.77393828 721.46636487 1075.78464511 720.84215156 1067.27567899 720.75805688 C1063.69845588 720.73679866 1060.12221516 720.79045382 1056.54530334 720.83410645 C1049.54558294 720.90721276 1042.54755934 720.90972848 1035.54756375 720.88584219 C1029.85548948 720.86738953 1024.16391333 720.87291378 1018.47185707 720.89535904 C1017.66058495 720.89850596 1016.84931283 720.90165288 1016.01345671 720.90489516 C1014.36514116 720.91134107 1012.71682574 720.91781868 1011.06851045 720.92432763 C995.62216673 720.98204738 980.17677914 720.95707722 964.73046849 720.90578641 C950.61533782 720.86130769 936.50260314 720.91471617 922.38782402 721.01535915 C907.87786922 721.11803882 893.36902613 721.15769323 878.85871774 721.12821877 C870.71887662 721.11269057 862.58084451 721.12120099 854.44127464 721.19475937 C847.51061359 721.25659052 840.58306307 721.25807008 833.65247913 721.18319498 C830.11895604 721.14660649 826.59095539 721.13663505 823.05771255 721.20145035 C802.5195978 721.55124156 802.5195978 721.55124156 796.74334168 717.36422205 C792.9671528 713.46796175 790.47038442 709.10478856 788.14875185 704.23602509 C786.20332949 700.44929499 783.65303769 697.10089441 781.125 693.6875 C773.78526834 683.29526312 766.49942414 672.86531598 759.20898438 662.43847656 C753.1551148 653.78111226 747.09770479 645.12656637 741 636.5 C733.69956312 626.17190025 726.45641484 615.80380377 719.20898438 605.43847656 C713.1551148 596.78111226 707.09770479 588.12656637 701 579.5 C693.69956312 569.17190025 686.45641484 558.80380377 679.20898438 548.43847656 C673.1551148 539.78111226 667.09770479 531.12656637 661 522.5 C653.69956312 512.17190025 646.45641484 501.80380377 639.20898438 491.43847656 C633.1551148 482.78111226 627.09770479 474.12656637 621 465.5 C613.69956312 455.17190025 606.45641484 444.80380377 599.20898438 434.43847656 C593.1551148 425.78111226 587.09770479 417.12656637 581 408.5 C576.6928702 402.40660217 572.40308175 396.30132799 568.125 390.1875 C567.54194092 389.35452393 566.95888184 388.52154785 566.3581543 387.66333008 C563.36306133 383.38292024 560.37209595 379.09969212 557.38671875 374.8125 C556.48832275 373.52436401 556.48832275 373.52436401 555.57177734 372.21020508 C554.45731737 370.61213196 553.34419414 369.01312509 552.23291016 367.4128418 C546.94875076 359.84072098 541.46640505 352.45418871 536 345 C472.31 345 408.62 345 343 345 Z " fill="#FF0000" transform="translate(0,0)"/>
</svg>
