<?xml version="1.0" encoding="UTF-8"?>
<svg version="1.1" xmlns="http://www.w3.org/2000/svg" width="2000" height="1946">
<path d="M0 0 C6.4153887 2.28540793 12.94233182 4.24202522 19.44232178 6.27127075 C22.79999899 7.3223405 26.15381086 8.38544468 29.50765991 9.44865417 C40.17290838 12.82878656 50.86360129 16.1170789 61.57714844 19.34082031 C64.2117632 20.14155608 66.83968387 20.9616289 69.46679688 21.78662109 C84.4558249 26.46985366 99.59637509 30.49425967 114.78868103 34.45179749 C119.35591258 35.64453233 123.91218089 36.87178612 128.46289062 38.12646484 C199.29917053 57.59763133 272.59435127 70.94572147 346.16210938 72.12646484 C347.07025391 72.14306152 347.97839844 72.1596582 348.9140625 72.17675781 C354.33325257 72.26532811 359.74338731 72.22993692 365.16210938 72.12646484 C366.21946289 72.1085791 367.27681641 72.09069336 368.36621094 72.07226562 C412.50055808 71.23411681 455.64474036 64.84206398 498.40942383 54.07128906 C500.92622405 53.43762718 503.44566435 52.81436673 505.9675293 52.20117188 C515.90584621 49.78115793 525.72466453 47.0066398 535.54632568 44.15313721 C618.64692548 20.05489121 711.38327321 0.85565446 798.16210938 15.12646484 C799.42539063 15.3251416 800.68867187 15.52381836 801.99023438 15.72851562 C843.99891269 22.39330208 884.07958431 35.50729551 924.18286133 49.33349609 C1001.63167404 76.63897964 1001.63167404 76.63897964 1082.51757812 87.40771484 C1083.3729567 87.42558044 1084.22833527 87.44344604 1085.1096344 87.46185303 C1086.92238412 87.49967704 1088.73516557 87.53600688 1090.54797363 87.57092285 C1095.29334534 87.66499911 1100.03821961 87.78038776 1104.78320312 87.89208984 C1110.42109234 88.02330794 1116.0586082 88.14234528 1121.69726562 88.23583984 C1146.84440971 88.81259875 1172.62583512 92.68473729 1197.16210938 98.12646484 C1198.49121338 98.41312012 1198.49121338 98.41312012 1199.84716797 98.70556641 C1241.35564321 107.75439967 1281.32549228 122.06168977 1320.16210938 139.12646484 C1321.07508789 139.52317383 1321.98806641 139.91988281 1322.92871094 140.32861328 C1333.2255577 144.80697208 1343.24128572 149.61685482 1353.11523438 154.96240234 C1356.29803593 156.68099405 1359.51501703 158.30487992 1362.76635742 159.88916016 C1380.21190383 168.39962117 1397.14742957 178.02937046 1413.26074219 188.8515625 C1415.14494284 190.11495436 1417.03857608 191.36281639 1418.93554688 192.60693359 C1432.16223335 201.30551855 1445.23565385 210.13340814 1457.18164062 220.54833984 C1459.97531077 222.96488283 1462.83102925 225.26891413 1465.72460938 227.56396484 C1478.97548313 238.40383537 1489.9594515 251.02010371 1498.16210938 266.12646484 C1498.59136719 266.89474609 1499.020625 267.66302734 1499.46289062 268.45458984 C1509.76262784 288.73518695 1513.53118595 317.81372084 1510.16210938 340.12646484 C1510.03578125 340.96564453 1509.90945313 341.80482422 1509.77929688 342.66943359 C1508.76044503 348.05082378 1507.10469953 356.18387468 1503.16210938 360.12646484 C1502.87534575 364.52350706 1503.53912357 367.86167431 1504.97460938 372.00146484 C1507.44023488 379.61692518 1508.83012529 387.24485202 1510.16210938 395.12646484 C1510.33556885 396.04484131 1510.50902832 396.96321777 1510.68774414 397.90942383 C1513.35542919 416.00107896 1511.8894522 436.3336774 1508.16210938 454.12646484 C1507.92572754 455.29999512 1507.6893457 456.47352539 1507.44580078 457.68261719 C1503.86542627 475.4157722 1499.64153557 492.87333986 1494.16210938 510.12646484 C1493.81390137 511.23393066 1493.46569336 512.34139648 1493.10693359 513.48242188 C1485.09564696 538.79780444 1475.05561446 563.00875385 1460.16210938 585.12646484 C1459.54980469 586.06232422 1458.9375 586.99818359 1458.30664062 587.96240234 C1456.28556276 591.03637706 1454.23259841 594.08554983 1452.16210938 597.12646484 C1451.74461426 597.74086426 1451.32711914 598.35526367 1450.89697266 598.98828125 C1449.57931238 600.9169318 1448.24786401 602.8353121 1446.91210938 604.75146484 C1446.49985107 605.35579346 1446.08759277 605.96012207 1445.6628418 606.58276367 C1443.40308361 609.7884032 1441.64427979 611.44354507 1438.16210938 613.12646484 C1437.49150862 614.89376642 1437.49150862 614.89376642 1437.34960938 617.06396484 C1432.96455136 643.72050172 1416.90618306 670.70310532 1401.16210938 692.12646484 C1400.14117188 693.51671875 1400.14117188 693.51671875 1399.09960938 694.93505859 C1377.83262865 722.22491471 1345.27427454 748.67727863 1310.03710938 753.31396484 C1307.7464184 753.59293018 1305.45504557 753.86659874 1303.16210938 754.12646484 C1304.13535156 755.01720703 1305.10859375 755.90794922 1306.11132812 756.82568359 C1311.21208283 761.93669365 1315.03666295 767.92768632 1318.97460938 773.93896484 C1319.3705127 774.53872131 1319.76641602 775.13847778 1320.17431641 775.75640869 C1326.67734266 785.61686162 1332.81932326 795.58460313 1338.16210938 806.12646484 C1338.5683252 806.92117188 1338.97454102 807.71587891 1339.39306641 808.53466797 C1352.15960959 833.74455072 1361.63575027 860.72942943 1367.34179688 888.40893555 C1369.58615351 899.19808113 1372.43595206 907.59489926 1378.44335938 916.81005859 C1408.57309371 963.21992191 1413.51525828 1027.16323861 1402.58300781 1080.17822266 C1393.11785239 1123.99025298 1371.97585503 1162.77345715 1341.16210938 1195.12646484 C1340.59186035 1195.72539551 1340.02161133 1196.32432617 1339.43408203 1196.94140625 C1330.90030671 1205.83793016 1322.09060837 1213.82625285 1312.16210938 1221.12646484 C1311.53143555 1221.60148437 1310.90076172 1222.07650391 1310.25097656 1222.56591797 C1281.62769811 1244.0865404 1246.65260037 1259.66849379 1211.16210938 1265.12646484 C1210.2164209 1265.2730957 1209.27073242 1265.41972656 1208.29638672 1265.57080078 C1175.17675761 1270.48563325 1141.49962994 1269.12763036 1109.16210938 1260.12646484 C1108.14648926 1259.85431152 1108.14648926 1259.85431152 1107.11035156 1259.57666016 C1090.13752119 1255.0176151 1074.36841171 1248.68163323 1059.00878906 1240.14599609 C1057.37556106 1239.24430913 1055.72689628 1238.37070706 1054.07617188 1237.50146484 C1041.29387762 1230.76237561 1028.27667719 1222.50038056 1018.16210938 1212.12646484 C982.6379205 1181.20855586 935.53932669 1164.04810557 889.89526367 1155.64111328 C887.32889785 1155.15787084 884.77611242 1154.6289661 882.22070312 1154.09130859 C809.49428672 1139.53019019 731.96529611 1161.61354046 671.10400391 1202.07958984 C657.54337398 1211.27637272 644.99118733 1221.80403269 633.16210938 1233.12646484 C632.58106445 1233.67496094 632.00001953 1234.22345703 631.40136719 1234.78857422 C621.52875397 1244.14704293 613.11091978 1254.09927697 605.16210938 1265.12646484 C604.74767578 1265.69042969 604.33324219 1266.25439453 603.90625 1266.83544922 C580.30709219 1298.97299579 565.83385027 1336.99338815 559.16210938 1376.12646484 C558.94578857 1377.37919189 558.94578857 1377.37919189 558.72509766 1378.65722656 C558.29256112 1381.20719731 557.87900929 1383.75938946 557.47460938 1386.31396484 C557.35504883 1387.0484082 557.23548828 1387.78285156 557.11230469 1388.53955078 C555.0340191 1402.44900419 554.99696705 1416.58700511 555.03173828 1430.61987305 C555.03711256 1433.19048942 555.03174445 1435.76093173 555.02539062 1438.33154297 C555.01670118 1453.62039714 555.75019114 1468.52151856 558.34960938 1483.62646484 C558.56955566 1484.91601074 558.78950195 1486.20555664 559.01611328 1487.53417969 C569.86102769 1549.79170185 599.93437409 1604.82949022 644.28710938 1649.50146484 C645.64642578 1650.87492065 645.64642578 1650.87492065 647.03320312 1652.27612305 C653.1017545 1658.31558314 659.43446836 1663.83429444 666.16210938 1669.12646484 C667.21325928 1669.95863525 667.21325928 1669.95863525 668.28564453 1670.80761719 C677.48644967 1678.01362985 686.95293142 1684.44134395 697.16210938 1690.12646484 C697.83886719 1690.50399902 698.515625 1690.8815332 699.21289062 1691.27050781 C724.69336336 1705.3639511 752.49492686 1715.77786651 781.16210938 1721.12646484 C781.89429688 1721.28550293 782.62648438 1721.44454102 783.38085938 1721.60839844 C792.20707296 1723.41696618 801.06157025 1723.81442955 810.03710938 1724.25146484 C810.86113251 1724.29315796 811.68515564 1724.33485107 812.53414917 1724.37780762 C846.14204969 1726.0684533 879.3387721 1725.19749999 911.93164062 1716.00927734 C916.3027993 1714.81474063 920.70809446 1713.94310259 925.16210938 1713.12646484 C924.6806139 1720.01358602 923.54596726 1726.38219752 921.59960938 1733.00146484 C921.33712402 1733.90276123 921.07463867 1734.80405762 920.80419922 1735.73266602 C910.78212863 1769.13472079 893.20499458 1799.10006557 870.16210938 1825.12646484 C869.68128906 1825.67044922 869.20046875 1826.21443359 868.70507812 1826.77490234 C856.75869343 1840.20276482 843.59052991 1851.4624716 829.16210938 1862.12646484 C827.83759766 1863.11259766 827.83759766 1863.11259766 826.48632812 1864.11865234 C811.35786248 1875.04041166 794.82555341 1883.81983393 778.16210938 1892.12646484 C777.37239746 1892.52575195 776.58268555 1892.92503906 775.76904297 1893.33642578 C764.24245197 1899.10097118 752.23947674 1903.30623571 740.03710938 1907.37646484 C739.28628082 1907.62726807 738.53545227 1907.87807129 737.76187134 1908.13647461 C715.79759601 1915.43338859 693.55100817 1921.27056862 670.72460938 1925.12646484 C669.98121307 1925.25275269 669.23781677 1925.37904053 668.47189331 1925.50915527 C608.17613717 1935.68284439 546.0562788 1937.2323689 485.16210938 1932.12646484 C484.42778687 1932.06565735 483.69346436 1932.00484985 482.93688965 1931.94219971 C435.59362514 1927.97080847 388.70877454 1919.79466314 342.76049805 1907.77148438 C340.23870556 1907.14547895 337.71380127 1906.61472488 335.16210938 1906.12646484 C334.65421875 1906.83931641 334.14632812 1907.55216797 333.62304688 1908.28662109 C331.49260334 1911.25088991 329.33255358 1914.19138708 327.16210938 1917.12646484 C326.69675781 1917.77744141 326.23140625 1918.42841797 325.75195312 1919.09912109 C316.47921107 1931.09413605 299.83968426 1939.07760805 285.16210938 1941.12646484 C266.61948398 1942.59530088 248.41747969 1940.11629586 230.16210938 1937.12646484 C228.76930301 1936.90401243 227.376397 1936.68218318 225.98339844 1936.4609375 C154.62994521 1925.08371066 83.2194976 1905.20306794 19.16210938 1871.12646484 C18.31938477 1870.6857666 17.47666016 1870.24506836 16.60839844 1869.79101562 C-12.30875237 1854.64991115 -40.21284509 1837.38733418 -65.83789062 1817.12646484 C-67.43961175 1815.91238384 -69.04136295 1814.69833974 -70.64501953 1813.48681641 C-76.74130788 1808.86758624 -82.58725806 1804.00712353 -88.34545898 1798.97265625 C-91.38940973 1796.26079791 -91.38940973 1796.26079791 -94.83789062 1794.12646484 C-94.83789062 1793.46646484 -94.83789062 1792.80646484 -94.83789062 1792.12646484 C-95.71924683 1791.72729858 -95.71924683 1791.72729858 -96.6184082 1791.32006836 C-98.89309831 1790.096775 -100.47797883 1788.79957747 -102.34960938 1787.02880859 C-103.01686035 1786.40039062 -103.68411133 1785.77197266 -104.37158203 1785.12451172 C-105.43771729 1784.10454102 -105.43771729 1784.10454102 -106.52539062 1783.06396484 C-107.26708496 1782.35949219 -108.0087793 1781.65501953 -108.77294922 1780.92919922 C-114.22931926 1775.72215163 -119.61734484 1770.4470952 -124.96289062 1765.12646484 C-125.64826904 1764.44575928 -126.33364746 1763.76505371 -127.03979492 1763.0637207 C-132.334212 1757.75244449 -137.35557124 1752.24709493 -142.02539062 1746.37646484 C-143.76844423 1744.12564595 -143.76844423 1744.12564595 -145.69726562 1742.29052734 C-149.7460991 1738.19736357 -153.24015012 1733.61470796 -156.83789062 1729.12646484 C-157.25458008 1728.60793945 -157.67126953 1728.08941406 -158.10058594 1727.55517578 C-161.39230501 1723.4474529 -164.62885525 1719.29904597 -167.83789062 1715.12646484 C-168.58087402 1714.16232666 -168.58087402 1714.16232666 -169.33886719 1713.17871094 C-177.75746887 1702.18107731 -185.53262767 1690.77017434 -193.21289062 1679.25146484 C-193.68111237 1678.55008392 -194.14933411 1677.848703 -194.63174438 1677.12606812 C-211.83789062 1651.31288499 -211.83789062 1651.31288499 -211.83789062 1648.12646484 C-212.68351562 1648.43583984 -213.52914063 1648.74521484 -214.40039062 1649.06396484 C-231.07350282 1654.21747225 -249.94970862 1650.09960968 -265.08642578 1642.12548828 C-275.17505214 1636.37100556 -283.15607935 1627.01301847 -291.21679688 1618.78027344 C-294.24701783 1615.68890044 -297.3130823 1612.63696022 -300.41601562 1609.61865234 C-305.82645707 1604.31895093 -310.81848082 1598.91859525 -315.54101562 1592.98193359 C-317.54932135 1590.48521338 -319.6183985 1588.0579734 -321.72143555 1585.64111328 C-328.46871644 1577.85347087 -334.4333926 1569.56293568 -340.38671875 1561.16064453 C-341.65081064 1559.38870415 -342.93099585 1557.63179752 -344.22851562 1555.88427734 C-348.01230573 1550.78627006 -351.45444392 1545.63387878 -354.61132812 1540.12255859 C-355.80858435 1538.00093243 -355.80858435 1538.00093243 -357.83789062 1536.12646484 C-359.05953294 1534.10504231 -360.24044185 1532.05890934 -361.40039062 1530.00146484 C-361.75262695 1529.37747803 -362.10486328 1528.75349121 -362.46777344 1528.1105957 C-363.21691268 1526.78277115 -363.96476369 1525.45421909 -364.71142578 1524.125 C-365.7803205 1522.22860377 -366.85989135 1520.33878224 -367.94335938 1518.45068359 C-406.99102465 1450.15093889 -431.59120262 1376.4492884 -444.83789062 1299.12646484 C-445.0425293 1297.93956055 -445.24716797 1296.75265625 -445.45800781 1295.52978516 C-446.70643889 1288.09366776 -447.71961795 1280.64474294 -448.59637451 1273.15600586 C-448.85050606 1271.0204531 -449.11945344 1268.88705634 -449.38916016 1266.75341797 C-456.35475127 1210.53840429 -457.61468278 1148.05362884 -447.83789062 1092.12646484 C-450.1700321 1090.92018477 -452.33431201 1089.96099105 -454.83789062 1089.12646484 C-457.38604755 1086.65572028 -459.56846834 1083.85248405 -461.83789062 1081.12646484 C-462.505625 1080.38009766 -463.17335938 1079.63373047 -463.86132812 1078.86474609 C-476.94026653 1063.70620637 -480.91552538 1041.91528601 -484.58789062 1022.75146484 C-484.78648682 1021.73866455 -484.98508301 1020.72586426 -485.18969727 1019.68237305 C-488.92604901 999.09003444 -489.21007635 978.24383388 -489.15039062 957.37646484 C-489.14890015 956.08408905 -489.14740967 954.79171326 -489.14587402 953.46017456 C-489.10327362 932.85954126 -488.40199961 912.57157483 -485.83789062 892.12646484 C-485.68803711 890.9123291 -485.53818359 889.69819336 -485.38378906 888.44726562 C-484.35313036 880.31469014 -483.13431287 872.22040693 -481.83789062 864.12646484 C-481.66032227 862.98113281 -481.48275391 861.83580078 -481.29980469 860.65576172 C-467.8648357 774.48995349 -436.61931995 687.30837345 -387.37939453 603.69677734 C-385.94176172 601.29966011 -384.53002302 598.88993877 -383.13085938 596.47021484 C-359.22645126 555.14371436 -330.27203948 515.90957688 -298.10351562 480.63818359 C-296.21097655 478.54007562 -294.34879545 476.42193869 -292.49414062 474.29052734 C-283.36534819 463.84110294 -273.69339061 453.88861083 -263.90039062 444.06396484 C-263.12018555 443.27916748 -262.33998047 442.49437012 -261.53613281 441.68579102 C-257.39104792 437.55176322 -253.16127162 433.58750697 -248.72485352 429.76831055 C-245.74788924 427.17805504 -242.89534383 424.45891311 -240.02539062 421.75146484 C-234.9530858 417.00082169 -229.75461168 412.49813162 -224.32617188 408.15380859 C-222.04543745 406.29556501 -219.87757681 404.36731389 -217.71289062 402.37646484 C-212.2294251 397.44816368 -206.32607352 393.0790455 -200.45117188 388.63427734 C-196.56328603 385.69043869 -192.72008309 382.69357867 -188.88598633 379.68017578 C-181.70122051 374.04105436 -174.46589984 368.56278977 -166.86816406 363.48486328 C-164.38624667 361.82428267 -161.91349413 360.15031939 -159.43945312 358.47802734 C-125.87282396 335.86477692 -91.0506914 316.14205576 -54.83789062 298.12646484 C-57.4416769 294.08934429 -60.22873743 290.29326586 -63.2019043 286.52148438 C-93.83789062 247.52357908 -93.83789062 247.52357908 -93.83789062 235.12646484 C-94.49789063 234.79646484 -95.15789062 234.46646484 -95.83789062 234.12646484 C-96.75170898 232.31982422 -96.75170898 232.31982422 -97.67773438 229.97021484 C-98.01869141 229.11169922 -98.35964844 228.25318359 -98.7109375 227.36865234 C-99.2378418 226.01126953 -99.2378418 226.01126953 -99.77539062 224.62646484 C-100.29649414 223.31548828 -100.29649414 223.31548828 -100.828125 221.97802734 C-102.71219837 217.19510662 -104.47644016 212.39401693 -106.05932617 207.50317383 C-106.61964956 205.7926852 -107.20343403 204.08981744 -107.80200195 202.39233398 C-110.47697309 194.71806985 -112.34284298 187.02277032 -113.96289062 179.06396484 C-114.21425781 177.89414063 -114.465625 176.72431641 -114.72460938 175.51904297 C-117.97342094 159.77676492 -119.1817316 144.07493099 -119.09863281 128.01928711 C-119.087876 125.56062276 -119.09863583 123.1026861 -119.11132812 120.64404297 C-119.12427289 106.57553579 -118.15592256 92.51751959 -115.08789062 78.75146484 C-114.83519409 77.59457153 -114.83519409 77.59457153 -114.57739258 76.41430664 C-110.18629346 56.98980536 -104.60325393 37.76074485 -91.83789062 22.12646484 C-91.34675781 21.48451172 -90.855625 20.84255859 -90.34960938 20.18115234 C-84.12077989 12.35563699 -76.1085384 7.0263372 -67.40039062 2.31396484 C-66.72129639 1.94094238 -66.04220215 1.56791992 -65.3425293 1.18359375 C-45.86117329 -8.98239607 -20.14861759 -7.48665276 0 0 Z " fill="#000000" transform="translate(488.837890625,4.87353515625)"/>
<path d="M0 0 C6.4153887 2.28540793 12.94233182 4.24202522 19.44232178 6.27127075 C22.79999899 7.3223405 26.15381086 8.38544468 29.50765991 9.44865417 C40.17290838 12.82878656 50.86360129 16.1170789 61.57714844 19.34082031 C64.2117632 20.14155608 66.83968387 20.9616289 69.46679688 21.78662109 C84.4558249 26.46985366 99.59637509 30.49425967 114.78868103 34.45179749 C119.35591258 35.64453233 123.91218089 36.87178612 128.46289062 38.12646484 C199.29917053 57.59763133 272.59435127 70.94572147 346.16210938 72.12646484 C347.07025391 72.14306152 347.97839844 72.1596582 348.9140625 72.17675781 C354.33325257 72.26532811 359.74338731 72.22993692 365.16210938 72.12646484 C366.21946289 72.1085791 367.27681641 72.09069336 368.36621094 72.07226562 C412.50055808 71.23411681 455.64474036 64.84206398 498.40942383 54.07128906 C500.92622405 53.43762718 503.44566435 52.81436673 505.9675293 52.20117188 C515.90584621 49.78115793 525.72466453 47.0066398 535.54632568 44.15313721 C618.64692548 20.05489121 711.38327321 0.85565446 798.16210938 15.12646484 C799.42539063 15.3251416 800.68867187 15.52381836 801.99023438 15.72851562 C843.99891269 22.39330208 884.07958431 35.50729551 924.18286133 49.33349609 C1001.63167404 76.63897964 1001.63167404 76.63897964 1082.51757812 87.40771484 C1083.3729567 87.42558044 1084.22833527 87.44344604 1085.1096344 87.46185303 C1086.92238412 87.49967704 1088.73516557 87.53600688 1090.54797363 87.57092285 C1095.29334534 87.66499911 1100.03821961 87.78038776 1104.78320312 87.89208984 C1110.42109234 88.02330794 1116.0586082 88.14234528 1121.69726562 88.23583984 C1146.84440971 88.81259875 1172.62583512 92.68473729 1197.16210938 98.12646484 C1198.49121338 98.41312012 1198.49121338 98.41312012 1199.84716797 98.70556641 C1241.35564321 107.75439967 1281.32549228 122.06168977 1320.16210938 139.12646484 C1321.07508789 139.52317383 1321.98806641 139.91988281 1322.92871094 140.32861328 C1333.2255577 144.80697208 1343.24128572 149.61685482 1353.11523438 154.96240234 C1356.29803593 156.68099405 1359.51501703 158.30487992 1362.76635742 159.88916016 C1380.21190383 168.39962117 1397.14742957 178.02937046 1413.26074219 188.8515625 C1415.14494284 190.11495436 1417.03857608 191.36281639 1418.93554688 192.60693359 C1432.16223335 201.30551855 1445.23565385 210.13340814 1457.18164062 220.54833984 C1459.97531077 222.96488283 1462.83102925 225.26891413 1465.72460938 227.56396484 C1478.97548313 238.40383537 1489.9594515 251.02010371 1498.16210938 266.12646484 C1498.59136719 266.89474609 1499.020625 267.66302734 1499.46289062 268.45458984 C1509.76262784 288.73518695 1513.53118595 317.81372084 1510.16210938 340.12646484 C1510.03578125 340.96564453 1509.90945313 341.80482422 1509.77929688 342.66943359 C1508.76044503 348.05082378 1507.10469953 356.18387468 1503.16210938 360.12646484 C1502.87534575 364.52350706 1503.53912357 367.86167431 1504.97460938 372.00146484 C1507.44023488 379.61692518 1508.83012529 387.24485202 1510.16210938 395.12646484 C1510.33556885 396.04484131 1510.50902832 396.96321777 1510.68774414 397.90942383 C1513.35542919 416.00107896 1511.8894522 436.3336774 1508.16210938 454.12646484 C1507.92572754 455.29999512 1507.6893457 456.47352539 1507.44580078 457.68261719 C1503.86542627 475.4157722 1499.64153557 492.87333986 1494.16210938 510.12646484 C1493.81390137 511.23393066 1493.46569336 512.34139648 1493.10693359 513.48242188 C1485.09564696 538.79780444 1475.05561446 563.00875385 1460.16210938 585.12646484 C1459.54980469 586.06232422 1458.9375 586.99818359 1458.30664062 587.96240234 C1456.28556276 591.03637706 1454.23259841 594.08554983 1452.16210938 597.12646484 C1451.74461426 597.74086426 1451.32711914 598.35526367 1450.89697266 598.98828125 C1449.57931238 600.9169318 1448.24786401 602.8353121 1446.91210938 604.75146484 C1446.49985107 605.35579346 1446.08759277 605.96012207 1445.6628418 606.58276367 C1443.40308361 609.7884032 1441.64427979 611.44354507 1438.16210938 613.12646484 C1437.49150862 614.89376642 1437.49150862 614.89376642 1437.34960938 617.06396484 C1432.96455136 643.72050172 1416.90618306 670.70310532 1401.16210938 692.12646484 C1400.14117188 693.51671875 1400.14117188 693.51671875 1399.09960938 694.93505859 C1377.83262865 722.22491471 1345.27427454 748.67727863 1310.03710938 753.31396484 C1307.7464184 753.59293018 1305.45504557 753.86659874 1303.16210938 754.12646484 C1304.13535156 755.01720703 1305.10859375 755.90794922 1306.11132812 756.82568359 C1311.21208283 761.93669365 1315.03666295 767.92768632 1318.97460938 773.93896484 C1319.3705127 774.53872131 1319.76641602 775.13847778 1320.17431641 775.75640869 C1326.67734266 785.61686162 1332.81932326 795.58460313 1338.16210938 806.12646484 C1338.5683252 806.92117188 1338.97454102 807.71587891 1339.39306641 808.53466797 C1352.15960959 833.74455072 1361.63575027 860.72942943 1367.34179688 888.40893555 C1369.58615351 899.19808113 1372.43595206 907.59489926 1378.44335938 916.81005859 C1408.57309371 963.21992191 1413.51525828 1027.16323861 1402.58300781 1080.17822266 C1393.11785239 1123.99025298 1371.97585503 1162.77345715 1341.16210938 1195.12646484 C1340.59186035 1195.72539551 1340.02161133 1196.32432617 1339.43408203 1196.94140625 C1330.90030671 1205.83793016 1322.09060837 1213.82625285 1312.16210938 1221.12646484 C1311.53143555 1221.60148437 1310.90076172 1222.07650391 1310.25097656 1222.56591797 C1281.62769811 1244.0865404 1246.65260037 1259.66849379 1211.16210938 1265.12646484 C1210.2164209 1265.2730957 1209.27073242 1265.41972656 1208.29638672 1265.57080078 C1175.17675761 1270.48563325 1141.49962994 1269.12763036 1109.16210938 1260.12646484 C1108.14648926 1259.85431152 1108.14648926 1259.85431152 1107.11035156 1259.57666016 C1090.13752119 1255.0176151 1074.36841171 1248.68163323 1059.00878906 1240.14599609 C1057.37556106 1239.24430913 1055.72689628 1238.37070706 1054.07617188 1237.50146484 C1041.29387762 1230.76237561 1028.27667719 1222.50038056 1018.16210938 1212.12646484 C982.6379205 1181.20855586 935.53932669 1164.04810557 889.89526367 1155.64111328 C887.32889785 1155.15787084 884.77611242 1154.6289661 882.22070312 1154.09130859 C809.49428672 1139.53019019 731.96529611 1161.61354046 671.10400391 1202.07958984 C657.54337398 1211.27637272 644.99118733 1221.80403269 633.16210938 1233.12646484 C632.58106445 1233.67496094 632.00001953 1234.22345703 631.40136719 1234.78857422 C621.52875397 1244.14704293 613.11091978 1254.09927697 605.16210938 1265.12646484 C604.74767578 1265.69042969 604.33324219 1266.25439453 603.90625 1266.83544922 C580.30709219 1298.97299579 565.83385027 1336.99338815 559.16210938 1376.12646484 C558.94578857 1377.37919189 558.94578857 1377.37919189 558.72509766 1378.65722656 C558.29256112 1381.20719731 557.87900929 1383.75938946 557.47460938 1386.31396484 C557.35504883 1387.0484082 557.23548828 1387.78285156 557.11230469 1388.53955078 C555.0340191 1402.44900419 554.99696705 1416.58700511 555.03173828 1430.61987305 C555.03711256 1433.19048942 555.03174445 1435.76093173 555.02539062 1438.33154297 C555.01670118 1453.62039714 555.75019114 1468.52151856 558.34960938 1483.62646484 C558.56955566 1484.91601074 558.78950195 1486.20555664 559.01611328 1487.53417969 C569.86102769 1549.79170185 599.93437409 1604.82949022 644.28710938 1649.50146484 C645.64642578 1650.87492065 645.64642578 1650.87492065 647.03320312 1652.27612305 C653.1017545 1658.31558314 659.43446836 1663.83429444 666.16210938 1669.12646484 C667.21325928 1669.95863525 667.21325928 1669.95863525 668.28564453 1670.80761719 C677.48644967 1678.01362985 686.95293142 1684.44134395 697.16210938 1690.12646484 C697.83886719 1690.50399902 698.515625 1690.8815332 699.21289062 1691.27050781 C724.69336336 1705.3639511 752.49492686 1715.77786651 781.16210938 1721.12646484 C781.89429688 1721.28550293 782.62648438 1721.44454102 783.38085938 1721.60839844 C792.20707296 1723.41696618 801.06157025 1723.81442955 810.03710938 1724.25146484 C810.86113251 1724.29315796 811.68515564 1724.33485107 812.53414917 1724.37780762 C846.14204969 1726.0684533 879.3387721 1725.19749999 911.93164062 1716.00927734 C916.3027993 1714.81474063 920.70809446 1713.94310259 925.16210938 1713.12646484 C924.6806139 1720.01358602 923.54596726 1726.38219752 921.59960938 1733.00146484 C921.33712402 1733.90276123 921.07463867 1734.80405762 920.80419922 1735.73266602 C910.78212863 1769.13472079 893.20499458 1799.10006557 870.16210938 1825.12646484 C869.68128906 1825.67044922 869.20046875 1826.21443359 868.70507812 1826.77490234 C856.75869343 1840.20276482 843.59052991 1851.4624716 829.16210938 1862.12646484 C827.83759766 1863.11259766 827.83759766 1863.11259766 826.48632812 1864.11865234 C811.35786248 1875.04041166 794.82555341 1883.81983393 778.16210938 1892.12646484 C777.37239746 1892.52575195 776.58268555 1892.92503906 775.76904297 1893.33642578 C764.24245197 1899.10097118 752.23947674 1903.30623571 740.03710938 1907.37646484 C739.28628082 1907.62726807 738.53545227 1907.87807129 737.76187134 1908.13647461 C715.79759601 1915.43338859 693.55100817 1921.27056862 670.72460938 1925.12646484 C669.98121307 1925.25275269 669.23781677 1925.37904053 668.47189331 1925.50915527 C608.17613717 1935.68284439 546.0562788 1937.2323689 485.16210938 1932.12646484 C484.42778687 1932.06565735 483.69346436 1932.00484985 482.93688965 1931.94219971 C435.59362514 1927.97080847 388.70877454 1919.79466314 342.76049805 1907.77148438 C340.23870556 1907.14547895 337.71380127 1906.61472488 335.16210938 1906.12646484 C334.65421875 1906.83931641 334.14632812 1907.55216797 333.62304688 1908.28662109 C331.49260334 1911.25088991 329.33255358 1914.19138708 327.16210938 1917.12646484 C326.69675781 1917.77744141 326.23140625 1918.42841797 325.75195312 1919.09912109 C316.47921107 1931.09413605 299.83968426 1939.07760805 285.16210938 1941.12646484 C266.61948398 1942.59530088 248.41747969 1940.11629586 230.16210938 1937.12646484 C228.76930301 1936.90401243 227.376397 1936.68218318 225.98339844 1936.4609375 C154.62994521 1925.08371066 83.2194976 1905.20306794 19.16210938 1871.12646484 C18.31938477 1870.6857666 17.47666016 1870.24506836 16.60839844 1869.79101562 C-12.30875237 1854.64991115 -40.21284509 1837.38733418 -65.83789062 1817.12646484 C-67.43961175 1815.91238384 -69.04136295 1814.69833974 -70.64501953 1813.48681641 C-76.74130788 1808.86758624 -82.58725806 1804.00712353 -88.34545898 1798.97265625 C-91.38940973 1796.26079791 -91.38940973 1796.26079791 -94.83789062 1794.12646484 C-94.83789062 1793.46646484 -94.83789062 1792.80646484 -94.83789062 1792.12646484 C-95.71924683 1791.72729858 -95.71924683 1791.72729858 -96.6184082 1791.32006836 C-98.89309831 1790.096775 -100.47797883 1788.79957747 -102.34960938 1787.02880859 C-103.01686035 1786.40039062 -103.68411133 1785.77197266 -104.37158203 1785.12451172 C-105.43771729 1784.10454102 -105.43771729 1784.10454102 -106.52539062 1783.06396484 C-107.26708496 1782.35949219 -108.0087793 1781.65501953 -108.77294922 1780.92919922 C-114.22931926 1775.72215163 -119.61734484 1770.4470952 -124.96289062 1765.12646484 C-125.64826904 1764.44575928 -126.33364746 1763.76505371 -127.03979492 1763.0637207 C-132.334212 1757.75244449 -137.35557124 1752.24709493 -142.02539062 1746.37646484 C-143.76844423 1744.12564595 -143.76844423 1744.12564595 -145.69726562 1742.29052734 C-149.7460991 1738.19736357 -153.24015012 1733.61470796 -156.83789062 1729.12646484 C-157.25458008 1728.60793945 -157.67126953 1728.08941406 -158.10058594 1727.55517578 C-161.39230501 1723.4474529 -164.62885525 1719.29904597 -167.83789062 1715.12646484 C-168.58087402 1714.16232666 -168.58087402 1714.16232666 -169.33886719 1713.17871094 C-177.75746887 1702.18107731 -185.53262767 1690.77017434 -193.21289062 1679.25146484 C-193.68111237 1678.55008392 -194.14933411 1677.848703 -194.63174438 1677.12606812 C-211.83789062 1651.31288499 -211.83789062 1651.31288499 -211.83789062 1648.12646484 C-212.68351562 1648.43583984 -213.52914063 1648.74521484 -214.40039062 1649.06396484 C-231.07350282 1654.21747225 -249.94970862 1650.09960968 -265.08642578 1642.12548828 C-275.17505214 1636.37100556 -283.15607935 1627.01301847 -291.21679688 1618.78027344 C-294.24701783 1615.68890044 -297.3130823 1612.63696022 -300.41601562 1609.61865234 C-305.82645707 1604.31895093 -310.81848082 1598.91859525 -315.54101562 1592.98193359 C-317.54932135 1590.48521338 -319.6183985 1588.0579734 -321.72143555 1585.64111328 C-328.46871644 1577.85347087 -334.4333926 1569.56293568 -340.38671875 1561.16064453 C-341.65081064 1559.38870415 -342.93099585 1557.63179752 -344.22851562 1555.88427734 C-348.01230573 1550.78627006 -351.45444392 1545.63387878 -354.61132812 1540.12255859 C-355.80858435 1538.00093243 -355.80858435 1538.00093243 -357.83789062 1536.12646484 C-359.05953294 1534.10504231 -360.24044185 1532.05890934 -361.40039062 1530.00146484 C-361.75262695 1529.37747803 -362.10486328 1528.75349121 -362.46777344 1528.1105957 C-363.21691268 1526.78277115 -363.96476369 1525.45421909 -364.71142578 1524.125 C-365.7803205 1522.22860377 -366.85989135 1520.33878224 -367.94335938 1518.45068359 C-406.99102465 1450.15093889 -431.59120262 1376.4492884 -444.83789062 1299.12646484 C-445.0425293 1297.93956055 -445.24716797 1296.75265625 -445.45800781 1295.52978516 C-446.70643889 1288.09366776 -447.71961795 1280.64474294 -448.59637451 1273.15600586 C-448.85050606 1271.0204531 -449.11945344 1268.88705634 -449.38916016 1266.75341797 C-456.35475127 1210.53840429 -457.61468278 1148.05362884 -447.83789062 1092.12646484 C-450.1700321 1090.92018477 -452.33431201 1089.96099105 -454.83789062 1089.12646484 C-457.38604755 1086.65572028 -459.56846834 1083.85248405 -461.83789062 1081.12646484 C-462.505625 1080.38009766 -463.17335938 1079.63373047 -463.86132812 1078.86474609 C-476.94026653 1063.70620637 -480.91552538 1041.91528601 -484.58789062 1022.75146484 C-484.78648682 1021.73866455 -484.98508301 1020.72586426 -485.18969727 1019.68237305 C-488.92604901 999.09003444 -489.21007635 978.24383388 -489.15039062 957.37646484 C-489.14890015 956.08408905 -489.14740967 954.79171326 -489.14587402 953.46017456 C-489.10327362 932.85954126 -488.40199961 912.57157483 -485.83789062 892.12646484 C-485.68803711 890.9123291 -485.53818359 889.69819336 -485.38378906 888.44726562 C-484.35313036 880.31469014 -483.13431287 872.22040693 -481.83789062 864.12646484 C-481.66032227 862.98113281 -481.48275391 861.83580078 -481.29980469 860.65576172 C-467.8648357 774.48995349 -436.61931995 687.30837345 -387.37939453 603.69677734 C-385.94176172 601.29966011 -384.53002302 598.88993877 -383.13085938 596.47021484 C-359.22645126 555.14371436 -330.27203948 515.90957688 -298.10351562 480.63818359 C-296.21097655 478.54007562 -294.34879545 476.42193869 -292.49414062 474.29052734 C-283.36534819 463.84110294 -273.69339061 453.88861083 -263.90039062 444.06396484 C-263.12018555 443.27916748 -262.33998047 442.49437012 -261.53613281 441.68579102 C-257.39104792 437.55176322 -253.16127162 433.58750697 -248.72485352 429.76831055 C-245.74788924 427.17805504 -242.89534383 424.45891311 -240.02539062 421.75146484 C-234.9530858 417.00082169 -229.75461168 412.49813162 -224.32617188 408.15380859 C-222.04543745 406.29556501 -219.87757681 404.36731389 -217.71289062 402.37646484 C-212.2294251 397.44816368 -206.32607352 393.0790455 -200.45117188 388.63427734 C-196.56328603 385.69043869 -192.72008309 382.69357867 -188.88598633 379.68017578 C-181.70122051 374.04105436 -174.46589984 368.56278977 -166.86816406 363.48486328 C-164.38624667 361.82428267 -161.91349413 360.15031939 -159.43945312 358.47802734 C-125.87282396 335.86477692 -91.0506914 316.14205576 -54.83789062 298.12646484 C-57.4416769 294.08934429 -60.22873743 290.29326586 -63.2019043 286.52148438 C-93.83789062 247.52357908 -93.83789062 247.52357908 -93.83789062 235.12646484 C-94.49789063 234.79646484 -95.15789062 234.46646484 -95.83789062 234.12646484 C-96.75170898 232.31982422 -96.75170898 232.31982422 -97.67773438 229.97021484 C-98.01869141 229.11169922 -98.35964844 228.25318359 -98.7109375 227.36865234 C-99.2378418 226.01126953 -99.2378418 226.01126953 -99.77539062 224.62646484 C-100.29649414 223.31548828 -100.29649414 223.31548828 -100.828125 221.97802734 C-102.71219837 217.19510662 -104.47644016 212.39401693 -106.05932617 207.50317383 C-106.61964956 205.7926852 -107.20343403 204.08981744 -107.80200195 202.39233398 C-110.47697309 194.71806985 -112.34284298 187.02277032 -113.96289062 179.06396484 C-114.21425781 177.89414063 -114.465625 176.72431641 -114.72460938 175.51904297 C-117.97342094 159.77676492 -119.1817316 144.07493099 -119.09863281 128.01928711 C-119.087876 125.56062276 -119.09863583 123.1026861 -119.11132812 120.64404297 C-119.12427289 106.57553579 -118.15592256 92.51751959 -115.08789062 78.75146484 C-114.83519409 77.59457153 -114.83519409 77.59457153 -114.57739258 76.41430664 C-110.18629346 56.98980536 -104.60325393 37.76074485 -91.83789062 22.12646484 C-91.34675781 21.48451172 -90.855625 20.84255859 -90.34960938 20.18115234 C-84.12077989 12.35563699 -76.1085384 7.0263372 -67.40039062 2.31396484 C-66.72129639 1.94094238 -66.04220215 1.56791992 -65.3425293 1.18359375 C-45.86117329 -8.98239607 -20.14861759 -7.48665276 0 0 Z M-39.42773438 64.19677734 C-42.67098656 68.63491191 -44.18760743 73.93901553 -45.83789062 79.12646484 C-46.26908203 80.46644531 -46.26908203 80.46644531 -46.70898438 81.83349609 C-58.05558749 121.98753716 -52.35529401 169.43749982 -32.83789062 206.12646484 C-32.20774199 207.41301831 -31.58306163 208.70225967 -30.96289062 209.99365234 C-26.85687937 218.51395527 -22.37550204 226.42654802 -16.83789062 234.12646484 C-15.80728516 235.56892578 -15.80728516 235.56892578 -14.75585938 237.04052734 C15.52963436 278.40341788 57.5332923 305.78988998 108.16210938 315.12646484 C109.98742187 315.47064453 109.98742187 315.47064453 111.84960938 315.82177734 C137.18672497 319.76681069 164.2440576 317.71347197 189.16210938 312.12646484 C189.16210938 313.44646484 189.16210938 314.76646484 189.16210938 316.12646484 C188.50210938 316.35333984 187.84210937 316.58021484 187.16210938 316.81396484 C184.6978424 317.89208165 182.73743953 318.99688248 180.50585938 320.45458984 C168.69582597 327.90455503 155.7535115 332.3120836 142.16210938 335.12646484 C140.9065625 335.40103516 139.65101563 335.67560547 138.35742188 335.95849609 C134.63446062 336.74411058 130.90730384 337.4552688 127.16210938 338.12646484 C126.01871094 338.33400391 124.8753125 338.54154297 123.69726562 338.75537109 C102.51684786 342.10211114 78.32802017 341.63016651 57.84960938 334.93896484 C39.65333058 329.32826219 24.51417393 334.79771142 8.20507812 343.14208984 C5.37054786 344.57752056 2.51665898 345.81202858 -0.44335938 346.96630859 C-7.13994191 349.59104197 -13.63909408 352.64094289 -20.15039062 355.68896484 C-20.80951447 355.99704071 -21.46863831 356.30511658 -22.1477356 356.62252808 C-33.89415895 362.12307516 -45.46195464 367.89015411 -56.83789062 374.12646484 C-57.72927734 374.61405273 -58.62066406 375.10164063 -59.5390625 375.60400391 C-82.01841994 387.96370675 -103.87181605 401.34050058 -124.83789062 416.12646484 C-126.06440248 416.98330818 -127.29096238 417.84008274 -128.51757812 418.69677734 C-137.82736706 425.23840355 -146.84270654 432.16148113 -155.83789062 439.12646484 C-156.46228027 439.60760742 -157.08666992 440.08875 -157.72998047 440.58447266 C-169.35403521 449.54828034 -180.50935106 459.01083153 -191.36132812 468.89599609 C-193.42814939 470.75743922 -195.51548393 472.58771469 -197.61523438 474.41162109 C-201.83893748 478.1012079 -205.946415 481.90305239 -210.02539062 485.75146484 C-210.75935059 486.44369141 -211.49331055 487.13591797 -212.24951172 487.84912109 C-220.91159868 496.0503587 -229.58283812 504.27461373 -237.30664062 513.38037109 C-238.86738358 515.16009584 -240.51068095 516.79478504 -242.21289062 518.43896484 C-245.95773823 522.11708911 -249.17297207 526.16089355 -252.45898438 530.24755859 C-254.79166279 533.07052081 -257.22036267 535.75683096 -259.71289062 538.43896484 C-264.92649027 544.11849481 -269.66476576 550.08916163 -274.35644531 556.19921875 C-275.89824161 558.20497681 -277.44971817 560.20299594 -279.00195312 562.20068359 C-304.02698439 594.5268709 -325.51432965 629.13950326 -344.83789062 665.12646484 C-345.28696777 665.96000488 -345.73604492 666.79354492 -346.19873047 667.65234375 C-354.70153184 683.46685553 -362.91029311 699.54133861 -369.21289062 716.37646484 C-370.80479416 720.55939454 -372.49573611 724.63937632 -374.40039062 728.68896484 C-376.62343979 733.46157352 -378.27700759 738.3043242 -379.88085938 743.31396484 C-380.70164366 745.7260656 -381.622421 747.95384983 -382.71289062 750.25146484 C-388.0784516 761.88736767 -391.39158542 774.66454473 -395.14306641 786.89306641 C-395.89744537 789.31789381 -396.67772488 791.73360766 -397.45898438 794.14990234 C-404.30356508 815.59998487 -408.99458621 837.6045813 -413.01367188 859.74365234 C-413.53715571 862.62281342 -414.14323657 865.46292992 -414.81835938 868.31005859 C-416.23378743 874.58061554 -417.00138202 880.94538957 -417.83789062 887.31396484 C-418.08539063 889.1228418 -418.08539063 889.1228418 -418.33789062 890.96826172 C-418.87580467 895.01732564 -419.37141403 899.06864386 -419.83789062 903.12646484 C-419.92936371 903.9130246 -420.02083679 904.69958435 -420.11508179 905.50997925 C-421.79137613 920.36961694 -422.18001891 935.13648618 -422.15356445 950.08325195 C-422.15040878 953.79261849 -422.17395894 957.50118058 -422.19921875 961.21044922 C-422.25771771 982.5411304 -421.38393173 1004.17947479 -415.27539062 1024.75146484 C-414.8200293 1026.41628906 -414.8200293 1026.41628906 -414.35546875 1028.11474609 C-413.23368678 1032.16696275 -413.23368678 1032.16696275 -411.83789062 1036.12646484 C-411.17789063 1036.45646484 -410.51789063 1036.78646484 -409.83789062 1037.12646484 C-409.52561523 1036.11334229 -409.21333984 1035.10021973 -408.89160156 1034.05639648 C-407.71928435 1030.25826754 -406.53964695 1026.46244398 -405.35791016 1022.66723633 C-404.84975969 1021.03177805 -404.34353343 1019.39572049 -403.83935547 1017.7590332 C-398.86903273 1001.63255043 -398.86903273 1001.63255043 -395.65185547 994.86694336 C-394.46904522 992.33777292 -393.63863626 989.71661034 -392.77539062 987.06396484 C-379.68004675 949.86676109 -358.27653786 914.13331986 -332.83789062 884.12646484 C-332.02320313 883.13904297 -331.20851563 882.15162109 -330.36914062 881.13427734 C-322.89728501 872.11628063 -314.91266519 863.60456825 -306.83789062 855.12646484 C-307.768327 859.31630026 -309.63473236 862.89615226 -311.58789062 866.68896484 C-314.84163663 873.09849617 -317.92589309 879.55336896 -320.83789062 886.12646484 C-321.17304688 886.85736328 -321.50820313 887.58826172 -321.85351562 888.34130859 C-323.82715504 892.67235064 -325.59024232 897.0497335 -327.27539062 901.50146484 C-328.80541229 905.5410952 -330.42495841 909.47395076 -332.27539062 913.37646484 C-335.09591846 919.43570603 -337.23866966 925.6999229 -339.40820312 932.01318359 C-341.21743996 937.26692902 -343.18959414 942.45356185 -345.19726562 947.63427734 C-351.48222638 963.98223707 -356.54630492 980.65608264 -361.08789062 997.56396484 C-361.58168213 999.39241943 -361.58168213 999.39241943 -362.08544922 1001.2578125 C-364.0608801 1008.73053342 -365.72135811 1016.20572814 -367.16088867 1023.7956543 C-367.78587424 1026.87054721 -368.54059998 1029.85999736 -369.40039062 1032.87646484 C-370.60934228 1037.15141762 -371.49994334 1041.38975675 -372.24804688 1045.76708984 C-372.85518993 1049.22499069 -373.52390803 1052.66703338 -374.19946289 1056.11206055 C-375.10716044 1060.77830791 -375.9749893 1065.45175632 -376.83789062 1070.12646484 C-377.00579102 1071.02510254 -377.17369141 1071.92374023 -377.34667969 1072.84960938 C-387.57175699 1128.54726625 -390.88009101 1190.38841969 -382.94213867 1246.55151367 C-382.215521 1251.71422657 -381.73114952 1256.80041246 -381.47460938 1262.00927734 C-380.85972092 1271.93677097 -378.98403285 1281.61309953 -377.15039062 1291.37646484 C-376.78586273 1293.34439624 -376.42136102 1295.31233248 -376.05688477 1297.28027344 C-370.10334233 1329.20962666 -362.52648559 1360.42971784 -351.83789062 1391.12646484 C-351.56058105 1391.92938965 -351.28327148 1392.73231445 -350.99755859 1393.55957031 C-349.54478374 1397.76317211 -348.06709638 1401.95677504 -346.55566406 1406.13964844 C-346.06667538 1407.49318241 -345.58045708 1408.84771969 -345.09667969 1410.203125 C-342.32008395 1417.96423363 -339.33224716 1425.45349961 -335.51367188 1432.77490234 C-333.83472624 1436.13279361 -332.32134787 1439.53094354 -330.82055664 1442.97070312 C-325.51643096 1455.08940862 -319.37557406 1466.63256783 -312.83789062 1478.12646484 C-312.32210449 1479.03686523 -311.80631836 1479.94726562 -311.27490234 1480.88525391 C-300.47096278 1499.85194544 -288.51430735 1518.09758315 -274.83789062 1535.12646484 C-274.34611328 1535.74682617 -273.85433594 1536.3671875 -273.34765625 1537.00634766 C-262.92442207 1550.15398191 -251.76296718 1562.26834139 -239.96289062 1574.18896484 C-239.15384277 1575.01114502 -238.34479492 1575.8333252 -237.51123047 1576.68041992 C-233.51291206 1580.68413137 -229.71243579 1584.23465268 -224.83789062 1587.12646484 C-225.01964844 1586.40668457 -225.20140625 1585.6869043 -225.38867188 1584.9453125 C-226.73675009 1579.58324497 -228.06327123 1574.21744266 -229.33789062 1568.83740234 C-229.58539063 1567.79326172 -229.83289063 1566.74912109 -230.08789062 1565.67333984 C-230.58964027 1563.55135696 -231.08962845 1561.42895683 -231.58789062 1559.30615234 C-231.95914063 1557.74380859 -231.95914063 1557.74380859 -232.33789062 1556.14990234 C-232.55445313 1555.23128418 -232.77101563 1554.31266602 -232.99414062 1553.36621094 C-233.69954159 1550.6576835 -234.50204068 1548.02512659 -235.34716797 1545.35888672 C-236.84999006 1540.39040955 -237.62599353 1535.5343268 -238.18945312 1530.38427734 C-238.34599869 1529.04984085 -238.34599869 1529.04984085 -238.50570679 1527.68844604 C-238.83319895 1524.87701716 -239.14803533 1522.06433363 -239.46289062 1519.25146484 C-239.68085714 1517.37507158 -239.89960152 1515.49876851 -240.11914062 1513.62255859 C-240.71866094 1508.45995131 -241.28558253 1503.29431304 -241.83789062 1498.12646484 C-241.957854 1497.03205078 -242.07781738 1495.93763672 -242.20141602 1494.81005859 C-243.02486976 1486.36800203 -243.02400402 1477.91212174 -243.02319336 1469.4375 C-243.02537485 1466.89484778 -243.04358422 1464.35263429 -243.0625 1461.81005859 C-243.09366032 1452.62478869 -242.61009308 1443.76059391 -241.32592773 1434.66503906 C-240.78574597 1430.74838346 -240.47476645 1426.85217051 -240.20458984 1422.90991211 C-239.22852471 1408.77026556 -236.64311175 1395.00349301 -233.83789062 1381.12646484 C-233.72165848 1381.71573761 -233.60542633 1382.30501038 -233.485672 1382.91213989 C-231.51891983 1392.82168697 -229.38579496 1402.69493409 -227.26196289 1412.57177734 C-226.77482695 1414.84001921 -226.28912604 1417.1085698 -225.80493164 1419.37744141 C-220.27185901 1445.94298443 -220.27185901 1445.94298443 -212.77539062 1472.00146484 C-212.26470407 1473.57256933 -211.75560062 1475.14418924 -211.24804688 1476.71630859 C-211.00715332 1477.46122559 -210.76625977 1478.20614258 -210.51806641 1478.97363281 C-209.51371566 1482.15251468 -208.61153482 1485.35351442 -207.71289062 1488.56396484 C-204.72667592 1499.16257933 -201.03258473 1509.51508647 -197.34179688 1519.88427734 C-196.39640095 1522.54098996 -195.46871868 1525.20143969 -194.55273438 1527.86865234 C-192.14971287 1534.80728035 -189.43177204 1541.46360512 -186.26757812 1548.09130859 C-185.02881436 1550.72114314 -183.87257007 1553.3726682 -182.73583984 1556.04760742 C-168.68428378 1588.5786025 -152.13049089 1620.03297755 -131.83789062 1649.12646484 C-131.44859375 1649.68769043 -131.05929687 1650.24891602 -130.65820312 1650.82714844 C-120.99933964 1664.70387348 -110.71378566 1678.18248791 -99.83789062 1691.12646484 C-99.38591309 1691.66867676 -98.93393555 1692.21088867 -98.46826172 1692.76953125 C-92.36603861 1700.07793669 -86.08884752 1707.03049061 -79.27929688 1713.68505859 C-77.22003896 1715.74431651 -75.32818357 1717.83202955 -73.46289062 1720.06396484 C-68.94253065 1725.34848091 -63.69996564 1729.89799416 -58.55517578 1734.55761719 C-56.88729032 1736.08133513 -55.24039193 1737.62442508 -53.59960938 1739.17724609 C-46.61530905 1745.76991338 -39.36697563 1751.81800329 -31.74072266 1757.65185547 C-29.76098622 1759.1860623 -27.81177853 1760.75352459 -25.86523438 1762.32958984 C9.80014133 1791.00622755 54.3530987 1817.95980369 98.13476562 1832.06396484 C100.51599874 1832.89970085 102.66832891 1833.81339413 104.94335938 1834.88037109 C111.52126533 1837.8489113 118.3889551 1840.01751053 125.2331543 1842.28051758 C127.5652663 1843.0525951 129.8940612 1843.83408805 132.22265625 1844.61669922 C142.1688813 1847.9366396 152.17711303 1850.90329369 162.30258179 1853.62600708 C164.62701521 1854.25158573 166.94702115 1854.89292932 169.26757812 1855.53271484 C188.04546464 1860.60523487 207.03136123 1864.44920481 226.21337891 1867.63378906 C229.25941583 1868.14272287 232.30262985 1868.66652488 235.34570312 1869.19287109 C257.11777297 1873.16612682 257.11777297 1873.16612682 279.16210938 1874.12646484 C276.76020473 1871.53155 274.57821589 1870.38990753 271.29882812 1869.05615234 C253.2097491 1861.18558414 237.34721618 1848.32415763 223.10351562 1834.88037109 C220.72525551 1832.63596892 218.28429022 1830.48872379 215.78710938 1828.37646484 C211.83695429 1824.94368974 208.52439119 1821.12630509 205.16210938 1817.12646484 C203.96134766 1815.75748047 203.96134766 1815.75748047 202.73632812 1814.36083984 C182.79332035 1791.51047349 166.52713245 1765.24932587 155.16210938 1737.12646484 C158.5616801 1739.71512879 161.55738255 1742.47441245 164.51147461 1745.54125977 C171.53838362 1752.83174538 179.03857328 1759.10352798 187.16210938 1765.12646484 C187.97470215 1765.73820557 187.97470215 1765.73820557 188.80371094 1766.36230469 C215.61980798 1786.49463132 246.07395691 1802.67620354 277.16210938 1815.12646484 C278.60646112 1815.72459961 280.05044025 1816.32363459 281.49414062 1816.92333984 C293.51793628 1821.87625445 305.70384789 1826.13284475 318.07666016 1830.12646484 C321.11904636 1831.11250804 324.15455983 1832.11762513 327.18945312 1833.12646484 C338.73819667 1836.9333554 350.35297719 1840.36816004 362.09960938 1843.50146484 C363.3495166 1843.83533203 364.59942383 1844.16919922 365.88720703 1844.51318359 C371.86579185 1846.08313752 377.83046699 1847.53068578 383.90258789 1848.68798828 C386.79382845 1849.24905452 389.65746523 1849.90989174 392.52685547 1850.57226562 C401.69954016 1852.68452117 410.90059366 1854.34854227 420.19628906 1855.81494141 C422.85427194 1856.23615181 425.50818174 1856.68048802 428.16210938 1857.12646484 C429.10570312 1857.28244141 430.04929687 1857.43841797 431.02148438 1857.59912109 C433.3669053 1857.99294177 435.7103614 1858.39849708 438.05273438 1858.81005859 C457.8248289 1862.25844247 477.5602993 1864.39470251 497.59204102 1865.48022461 C498.26914627 1865.51695786 498.94625153 1865.5536911 499.64387512 1865.59153748 C501.47955546 1865.6895342 503.3154546 1865.78340828 505.15136719 1865.87695312 C508.37918181 1866.05594022 511.59086533 1866.34599561 514.81005859 1866.640625 C521.32528491 1867.19192022 527.80581792 1867.30464423 534.34179688 1867.32958984 C535.57614471 1867.33660416 536.81049255 1867.34361847 538.08224487 1867.35084534 C542.06721644 1867.36831301 546.05210767 1867.37528263 550.03710938 1867.37646484 C550.71727615 1867.3769067 551.39744293 1867.37734856 552.09822083 1867.3778038 C636.70796714 1867.40661738 727.89114661 1854.57943153 793.10742188 1796.22802734 C795.39513852 1794.37796936 795.39513852 1794.37796936 795.16210938 1792.12646484 C793.86402344 1791.97951172 792.5659375 1791.83255859 791.22851562 1791.68115234 C769.64127326 1789.07787829 748.85250287 1783.71792307 728.16210938 1777.12646484 C726.99035156 1776.75521484 725.81859375 1776.38396484 724.61132812 1776.00146484 C704.84202008 1769.57078777 685.53784445 1760.81905988 667.16210938 1751.12646484 C666.46875488 1750.76649414 665.77540039 1750.40652344 665.06103516 1750.03564453 C642.26499404 1738.13894459 622.04653432 1722.48585891 603.16210938 1705.12646484 C602.39125 1704.44712891 601.62039063 1703.76779297 600.82617188 1703.06787109 C590.58784326 1694.03892434 580.75602711 1684.53631653 572.28710938 1673.81005859 C570.06180933 1670.99979916 567.74299809 1668.28707041 565.41210938 1665.56396484 C548.68986696 1645.47656529 535.30457734 1623.20070181 523.16210938 1600.12646484 C522.5660791 1599.00232178 522.5660791 1599.00232178 521.95800781 1597.85546875 C516.86502651 1588.20197444 512.82104032 1578.40169276 509.16210938 1568.12646484 C508.17175856 1565.45615052 507.16762553 1562.79110034 506.16210938 1560.12646484 C494.85871191 1530.08435523 488.90700894 1498.90889505 485.16210938 1467.12646484 C485.0517334 1466.21453369 484.94135742 1465.30260254 484.82763672 1464.36303711 C483.81612107 1454.49492041 484.01203618 1444.55510273 484.03173828 1434.6472168 C484.03706777 1431.46381807 484.03178446 1428.28056224 484.02539062 1425.09716797 C484.01302722 1394.13045467 484.01302722 1394.13045467 487.34960938 1378.92333984 C488.05683567 1375.61841697 488.64631388 1372.32846769 489.18896484 1368.99487305 C492.52642591 1348.68691394 497.93019005 1327.10728721 506.99804688 1308.59130859 C508.30724001 1305.81915804 509.35582459 1303.00430197 510.41210938 1300.12646484 C524.69576098 1262.72527248 548.45494035 1227.76984007 575.16210938 1198.12646484 C576.00515625 1197.17255859 576.84820313 1196.21865234 577.71679688 1195.23583984 C583.8308032 1188.41710381 590.26182424 1181.92574335 596.72460938 1175.43896484 C597.61865479 1174.54024658 598.5127002 1173.64152832 599.43383789 1172.71557617 C600.69345337 1171.45910278 600.69345337 1171.45910278 601.97851562 1170.17724609 C603.1146228 1169.04283081 603.1146228 1169.04283081 604.27368164 1167.88549805 C606.16210938 1166.12646484 606.16210938 1166.12646484 608.16210938 1165.12646484 C608.16210938 1164.46646484 608.16210938 1163.80646484 608.16210938 1163.12646484 C603.32568633 1162.98547913 599.17239186 1163.44442489 594.47460938 1164.56396484 C585.09487839 1166.59511607 575.73208513 1166.92175948 566.16210938 1167.12646484 C564.77523926 1167.15933594 564.77523926 1167.15933594 563.36035156 1167.19287109 C531.81569436 1167.83861638 501.25622323 1164.02660818 470.6171875 1156.68676758 C468.08986697 1156.10997754 465.55572691 1155.60995456 463.00976562 1155.12255859 C458.73060594 1154.28218092 454.68733157 1153.15514191 450.53710938 1151.81396484 C449.15699635 1151.37095948 447.776785 1150.92826033 446.39648438 1150.48583984 C445.69974609 1150.26089844 445.00300781 1150.03595703 444.28515625 1149.80419922 C442.17081191 1149.12924293 440.05102406 1148.47580844 437.92773438 1147.82958984 C437.23373535 1147.61729736 436.53973633 1147.40500488 435.82470703 1147.1862793 C433.90894464 1146.60117526 431.99257834 1146.01804961 430.07617188 1145.43505859 C426.19234155 1144.18934926 422.43400854 1142.67028676 418.65771484 1141.13305664 C416.40481793 1140.2243603 414.14205461 1139.35968017 411.86523438 1138.51318359 C364.51534525 1120.61964023 320.92914906 1092.01959621 283.94726562 1057.68896484 C281.45104713 1055.39230379 278.90858361 1053.164893 276.34960938 1050.93896484 C238.39276139 1016.82662075 208.44539752 970.08181621 189.16210938 923.12646484 C188.78828125 922.22154297 188.41445313 921.31662109 188.02929688 920.38427734 C187.37820837 918.77962615 186.73846935 917.17031329 186.11132812 915.55615234 C185.45036844 913.86431315 184.76339193 912.18250481 184.05664062 910.50927734 C180.1298564 900.92741551 177.5240633 891.0165806 174.79882812 881.04052734 C173.59891511 876.65662561 172.31215817 872.32498716 170.91210938 868.00146484 C167.74010633 857.88901071 166.11018148 847.4000146 164.59179688 836.93115234 C164.32241584 835.17282885 164.00976018 833.42001598 163.63476562 831.68115234 C163.05993005 828.57418982 162.89339517 825.53172579 162.72460938 822.37646484 C162.41028859 817.09182201 161.89072542 811.92457586 161.16601562 806.67724609 C159.71466959 795.18275753 159.7028447 783.63349888 159.53710938 772.06396484 C159.49882315 769.82892537 159.45976574 767.59389897 159.41992188 765.35888672 C159.32511297 759.94819758 159.2397493 754.53742621 159.16210938 749.12646484 C159.82210937 749.12646484 160.48210938 749.12646484 161.16210938 749.12646484 C161.1392688 750.10981812 161.1392688 750.10981812 161.1159668 751.11303711 C161.02406531 758.19945432 161.570677 765.04050989 162.47460938 772.06396484 C162.61141113 773.15515625 162.74821289 774.24634766 162.88916016 775.37060547 C163.30272819 778.62407065 163.72929432 781.87550891 164.16210938 785.12646484 C164.2795752 786.0160791 164.39704102 786.90569336 164.51806641 787.82226562 C167.37794976 809.09863219 171.67453876 829.71037098 178.29492188 850.14599609 C179.58877119 854.15771392 180.68462469 858.16137865 181.65429688 862.26318359 C183.00176309 867.80797102 184.93876002 872.88318082 187.16210938 878.12646484 C187.98080676 880.1732083 188.79568886 882.22148062 189.60742188 884.27099609 C203.7210397 919.50896934 220.69232435 952.66027598 244.67431641 982.28466797 C245.96455183 983.88190067 247.23508937 985.49500694 248.50195312 987.11083984 C252.44182007 992.13514541 256.5880829 996.92303805 260.89257812 1001.63818359 C262.36643456 1003.25409848 263.82817687 1004.88117718 265.27539062 1006.52099609 C274.05630484 1016.4577162 283.22866376 1025.85394048 293.63476562 1034.09521484 C295.96241449 1035.96596818 298.1555421 1037.91494815 300.34960938 1039.93896484 C346.06131653 1080.80490799 418.28962705 1117.25488052 480.0144043 1122.88647461 C482.28750553 1123.14047694 484.47462659 1123.55907823 486.71289062 1124.02880859 C492.34515096 1125.17653201 497.99232093 1126.18272892 503.66210938 1127.12646484 C504.59152344 1127.29146484 505.5209375 1127.45646484 506.47851562 1127.62646484 C527.21200716 1131.05083506 548.3193316 1131.50547202 569.28710938 1131.43896484 C570.43210907 1131.4378067 571.57710876 1131.43664856 572.75680542 1131.43545532 C591.40765323 1131.39834711 609.65972015 1130.54665774 628.16210938 1128.12646484 C629.93416827 1127.91877967 631.70629772 1127.71169507 633.47851562 1127.50537109 C658.5554184 1124.36169235 683.37162604 1117.45827386 706.86914062 1108.29443359 C766.73845364 1085.0021691 828.68469619 1078.20524867 892.16210938 1087.12646484 C893.43207764 1087.29799072 894.7020459 1087.4695166 896.01049805 1087.64624023 C901.91703069 1088.4576908 907.7031833 1089.31515737 913.47460938 1090.81396484 C914.42134521 1091.0584436 914.42134521 1091.0584436 915.38720703 1091.30786133 C926.02018181 1094.09007749 936.5959449 1097.10215694 947.16210938 1100.12646484 C948.00676758 1100.35962402 948.85142578 1100.5927832 949.72167969 1100.83300781 C956.43806155 1102.74183193 962.76047207 1105.35362759 969.16210938 1108.12646484 C970.18369141 1108.56087891 971.20527344 1108.99529297 972.2578125 1109.44287109 C994.98216528 1119.14349711 1016.76743265 1130.12803474 1037.16210938 1144.12646484 C1037.7613623 1144.53429199 1038.36061523 1144.94211914 1038.97802734 1145.36230469 C1045.95900982 1150.13735051 1052.58290753 1155.236794 1059.09960938 1160.62646484 C1066.4497619 1166.6946656 1074.0858923 1172.07224219 1082.16210938 1177.12646484 C1083.18949219 1177.77357422 1084.216875 1178.42068359 1085.27539062 1179.08740234 C1111.4093809 1194.94086929 1140.78985351 1201.46832948 1171.03710938 1201.50146484 C1171.82086945 1201.5035495 1172.60462952 1201.50563416 1173.41213989 1201.50778198 C1184.40869269 1201.53453679 1184.40869269 1201.53453679 1195.19921875 1199.61401367 C1197.35493861 1199.07856932 1199.42669726 1198.86625295 1201.63867188 1198.67724609 C1206.50099254 1198.19312349 1210.9149576 1196.85357945 1215.53710938 1195.31396484 C1216.78971558 1194.90476807 1216.78971558 1194.90476807 1218.06762695 1194.48730469 C1219.71052926 1193.94738674 1221.3519623 1193.40297191 1222.99169922 1192.85351562 C1224.74905408 1192.2648314 1226.51149455 1191.69134315 1228.27539062 1191.12255859 C1250.24057705 1183.68972616 1270.04882136 1170.43624261 1286.70507812 1154.51611328 C1288.11743934 1153.16906904 1289.54580077 1151.83886313 1290.97460938 1150.50927734 C1302.63931195 1139.34165016 1311.21427156 1126.09249716 1319.16210938 1112.12646484 C1319.80148437 1111.02431641 1320.44085937 1109.92216797 1321.09960938 1108.78662109 C1329.03699836 1094.67380662 1332.74949452 1079.81602216 1336.16210938 1064.12646484 C1336.34902344 1063.28825195 1336.5359375 1062.45003906 1336.72851562 1061.58642578 C1337.92206263 1056.00140418 1338.56668826 1050.57993415 1338.78710938 1044.87646484 C1338.82070557 1044.01641846 1338.85430176 1043.15637207 1338.88891602 1042.27026367 C1338.95422958 1040.45834426 1339.01447595 1038.64623557 1339.06982422 1036.83398438 C1339.1585908 1034.22969486 1339.29379241 1031.63088167 1339.43164062 1029.02880859 C1340.7818866 995.19586798 1329.36885698 963.12333171 1309.79101562 935.87255859 C1305.79919811 929.14294777 1304.92667315 920.6845936 1303.28710938 913.12646484 C1300.23246358 899.23774899 1296.9803578 885.52721827 1292.16210938 872.12646484 C1291.88882812 871.3655957 1291.61554688 870.60472656 1291.33398438 869.82080078 C1286.99601397 857.84083379 1282.20619152 846.34425847 1276.16210938 835.12646484 C1275.81567383 834.47371582 1275.46923828 833.8209668 1275.11230469 833.1484375 C1269.50418512 822.62744101 1263.07000283 812.83625153 1256.16210938 803.12646484 C1252.23135293 803.70099231 1252.23135293 803.70099231 1249.16210938 806.12646484 C1248.76289142 808.28198018 1248.76289142 808.28198018 1248.66992188 810.80615234 C1248.60683838 811.78422852 1248.54375488 812.76230469 1248.47875977 813.77001953 C1248.41551514 814.83639648 1248.35227051 815.90277344 1248.28710938 817.00146484 C1247.61270906 826.68508904 1246.59852897 836.26681194 1245.22460938 845.87646484 C1245.06686035 847.0042334 1244.90911133 848.13200195 1244.74658203 849.29394531 C1243.75793288 856.03004734 1242.42602445 862.61219795 1240.8425293 869.23291016 C1240.0306995 872.68529865 1239.39306971 876.13235589 1238.78710938 879.62646484 C1237.80661142 885.17755985 1236.56120241 890.61526714 1235.16699219 896.0769043 C1230.81842691 911.55189199 1230.81842691 911.55189199 1234.22460938 926.68896484 C1237.69414989 931.93416245 1243.32506236 934.09923923 1249.22070312 935.39208984 C1251.01125681 935.73314769 1252.80435242 936.06109933 1254.59960938 936.37646484 C1255.9830957 936.63556641 1255.9830957 936.63556641 1257.39453125 936.89990234 C1259.64852862 937.32033709 1261.90399369 937.7288575 1264.16210938 938.12646484 C1260.04103189 942.24754233 1253.45892195 942.37194394 1247.86962891 942.40429688 C1246.80784424 942.39052002 1246.80784424 942.39052002 1245.72460938 942.37646484 C1244.9832373 942.37114746 1244.24186523 942.36583008 1243.47802734 942.36035156 C1236.88634365 942.24612848 1230.79641634 941.88266949 1225.16210938 938.12646484 C1224.71728516 936.12475586 1224.71728516 936.12475586 1224.60742188 933.63037109 C1224.55287842 932.69273926 1224.49833496 931.75510742 1224.44213867 930.7890625 C1224.36539917 929.25451416 1224.36539917 929.25451416 1224.28710938 927.68896484 C1222.84905076 906.22720215 1219.76946112 881.86887987 1210.17382812 862.29833984 C1208.92218108 859.61140642 1207.97194075 856.85513115 1206.97460938 854.06396484 C1199.58662363 834.72416118 1186.1347315 814.20313828 1169.16210938 802.12646484 C1165.98842056 801.29045815 1165.98842056 801.29045815 1163.16210938 802.12646484 C1159.92415 805.38163433 1159.60188101 808.42516872 1159.13476562 812.89208984 C1159.02442993 813.88455215 1159.02442993 813.88455215 1158.91186523 814.89706421 C1158.75465926 816.31715125 1158.60273346 817.73783095 1158.45559692 819.15899658 C1158.06439351 822.91452864 1157.62744281 826.66474956 1157.19335938 830.41552734 C1157.10740005 831.16486542 1157.02144073 831.91420349 1156.93287659 832.68624878 C1154.12801082 856.83449587 1148.74169864 880.45104094 1142.59960938 903.93896484 C1142.40992584 904.6708905 1142.22024231 905.40281616 1142.02481079 906.15692139 C1139.88852771 914.36834969 1137.55808415 922.32942012 1134.16210938 930.12646484 C1132.43769493 934.33257363 1131.03246029 938.42213943 1130.07617188 942.87255859 C1129.9029541 943.67234131 1129.72973633 944.47212402 1129.55126953 945.29614258 C1129.42284668 945.90014893 1129.29442383 946.50415527 1129.16210938 947.12646484 C1117.93631379 945.02895189 1106.9169753 942.6453473 1095.94335938 939.48193359 C1090.44036388 937.89982239 1084.89516961 936.48807295 1079.34960938 935.06396484 C1073.36653132 933.52240523 1067.42090241 931.95654678 1061.53710938 930.06396484 C1055.25745222 928.06139701 1048.88044454 926.60899895 1042.46264648 925.12890625 C1035.94132037 923.60441015 1029.52219555 921.83395489 1023.09960938 919.93896484 C1016.51576419 917.99854606 1010.0656909 916.35827183 1003.24414062 915.45068359 C1001.16210938 915.12646484 1001.16210938 915.12646484 999.16210938 914.12646484 C997.31338115 913.78325321 995.45786855 913.47612878 993.59960938 913.18896484 C990.02122915 912.6352233 986.50723693 911.98487243 982.98486328 911.15429688 C978.52567172 910.15726266 974.10554123 909.55377089 969.56445312 909.08349609 C967.88187834 908.89879219 966.1993444 908.71371598 964.5168457 908.52832031 C963.63558014 908.43274841 962.75431458 908.33717651 961.84634399 908.2387085 C944.33913816 906.32819491 926.89950634 904.05293294 909.47460938 901.50146484 C908.47025848 901.35552887 907.46590759 901.2095929 906.43112183 901.05923462 C819.99188297 888.46092154 819.99188297 888.46092154 796.16210938 860.12646484 C793.60409044 856.57563064 791.33554603 852.92288553 789.16210938 849.12646484 C788.76121094 848.46001953 788.3603125 847.79357422 787.94726562 847.10693359 C785.0733279 841.95553578 783.95688186 836.53566501 782.77539062 830.78662109 C782.43088467 828.2185132 782.43088467 828.2185132 781.16210938 827.12646484 C780.92923929 825.44462537 780.74946771 823.75522324 780.59960938 822.06396484 C780.47392578 820.6853125 780.47392578 820.6853125 780.34570312 819.27880859 C780.28511719 818.56853516 780.22453125 817.85826172 780.16210938 817.12646484 C781.48210937 817.12646484 782.80210938 817.12646484 784.16210938 817.12646484 C784.40703125 817.95662109 784.65195313 818.78677734 784.90429688 819.64208984 C786.3479464 823.64126804 788.19670213 827.18491339 790.28710938 830.87646484 C790.68526855 831.5809375 791.08342773 832.28541016 791.49365234 833.01123047 C794.86968255 838.85533829 798.7265313 844.03751324 803.16210938 849.12646484 C803.97035156 850.14933594 803.97035156 850.14933594 804.79492188 851.19287109 C821.28534272 871.54698958 848.61712855 880.05199119 872.9699707 886.53393555 C874.90680396 887.05745646 876.83241725 887.62211055 878.75585938 888.19287109 C882.59602163 889.24539263 886.43218993 889.99376083 890.34960938 890.68896484 C897.80920437 892.03210522 897.80920437 892.03210522 900.35351562 892.71240234 C902.57999771 893.2221369 904.63114538 893.22250843 906.91210938 893.18896484 C908.1109375 893.17542969 908.1109375 893.17542969 909.33398438 893.16162109 C909.93726563 893.15001953 910.54054688 893.13841797 911.16210938 893.12646484 C911.48062768 890.74734598 911.48062768 890.74734598 911.16210938 888.12646484 C909.59008546 886.45729814 909.59008546 886.45729814 907.34960938 885.25146484 C906.52460937 884.74486328 905.69960937 884.23826172 904.84960938 883.71630859 C903.96273438 883.19166016 903.07585937 882.66701172 902.16210938 882.12646484 C878.08463169 867.25718919 855.81214451 849.23161578 847.57250977 821.11450195 C845.7422743 813.25494029 845.89449485 805.40881221 845.95629883 797.38793945 C845.97444104 794.96147972 845.97680852 792.53540702 845.9765625 790.10888672 C846.00568654 775.55122829 846.50488594 761.69562127 850.41210938 747.56396484 C850.8835437 745.80862427 850.8835437 745.80862427 851.36450195 744.01782227 C854.18398495 733.68930069 857.16030871 723.49503629 862.22070312 714.00927734 C863.24310283 711.96447794 864.00446591 709.89918412 864.78710938 707.75146484 C874.17530233 683.93394809 891.06489914 662.4009316 908.53320312 643.96630859 C911.14628196 641.21586872 911.14628196 641.21586872 913.27539062 638.46240234 C915.02964236 636.29047162 916.77319415 634.59492111 918.91210938 632.81396484 C921.7397686 630.40290366 924.39001745 627.9209715 926.97460938 625.25146484 C931.72028188 620.46935724 936.84880404 616.25871714 942.16210938 612.12646484 C942.86384277 611.58070801 943.56557617 611.03495117 944.28857422 610.47265625 C954.52109519 602.56326386 964.87548471 595.07948586 975.97827148 588.42626953 C977.17335327 587.68618652 977.17335327 587.68618652 978.39257812 586.93115234 C979.09793701 586.50817871 979.8032959 586.08520508 980.5300293 585.64941406 C982.69932993 583.62516614 982.91619401 582.03403496 983.16210938 579.12646484 C982.00565112 577.75271115 982.00565112 577.75271115 978.84960938 577.87646484 C974.13943397 577.92666209 969.90962615 579.13069823 965.38476562 580.35302734 C962.23135662 581.1098455 959.19543298 581.52079107 955.97460938 581.87646484 C913.89396387 587.61053082 872.4311757 609.42746281 841.40820312 638.06787109 C839.45256662 639.86025447 837.4516668 641.55686428 835.41210938 643.25146484 C821.1815592 655.69960268 808.84980036 670.92520687 799.16210938 687.12646484 C805.128946 666.61546395 816.96771715 647.73361426 830.16210938 631.12646484 C830.79761719 630.28728516 831.433125 629.44810547 832.08789062 628.58349609 C858.33375292 594.89705925 895.24559713 572.58569758 935.78710938 560.43896484 C936.73457031 560.15339722 936.73457031 560.15339722 937.70117188 559.86206055 C949.13564092 556.55822517 960.820432 554.58553926 972.59960938 553.00146484 C973.79392578 552.83259766 974.98824219 552.66373047 976.21875 552.48974609 C991.2034876 550.4401374 1006.00670201 549.96260484 1021.10375977 549.99609375 C1023.95985265 550.00143724 1026.81578696 549.99612403 1029.671875 549.98974609 C1048.11587876 549.97998515 1066.11994856 551.17308965 1084.41210938 553.50146484 C1086.23628551 553.72958908 1088.06050473 553.95736903 1089.88476562 554.18481445 C1094.97846404 554.82238198 1100.07050387 555.47242189 1105.16210938 556.12646484 C1106.95358398 556.355354 1106.95358398 556.355354 1108.78125 556.58886719 C1119.37251396 557.9525856 1129.92672323 559.52338789 1140.47460938 561.18896484 C1141.50779297 561.35146729 1142.54097656 561.51396973 1143.60546875 561.68139648 C1148.07868309 562.40166602 1152.48918042 563.17707256 1156.89257812 564.24755859 C1161.06566282 565.22351046 1164.88578574 565.28196752 1169.16210938 565.12646484 C1172.50329036 589.14564625 1172.59219845 612.92240506 1172.16210938 637.12646484 C1172.14132324 638.37862793 1172.12053711 639.63079102 1172.09912109 640.92089844 C1171.88118489 651.66111737 1170.93690184 661.94855789 1168.86132812 672.48974609 C1167.9877259 677.03345376 1167.4312945 681.51073163 1167.16210938 686.12646484 C1167.09765625 687.01205078 1167.03320312 687.89763672 1166.96679688 688.81005859 C1166.79312878 692.79863587 1166.68984798 695.31417524 1168.72460938 698.81396484 C1172.23237651 700.70276253 1174.28922471 699.9316792 1178.16210938 699.12646484 C1180.93874579 698.13323353 1183.57293036 696.91326855 1186.22460938 695.62646484 C1186.96557861 695.27044189 1187.70654785 694.91441895 1188.4699707 694.54760742 C1195.75777466 690.96345434 1202.54965371 686.83357202 1209.16210938 682.12646484 C1209.72462402 681.72621094 1210.28713867 681.32595703 1210.86669922 680.91357422 C1235.79369034 662.87009817 1253.14434111 639.01369996 1266.43554688 611.58740234 C1268.16210937 608.12646484 1268.16210937 608.12646484 1269.65820312 605.80224609 C1271.9518166 601.72140134 1273.33852244 597.35865753 1274.84960938 592.93896484 C1275.33010742 591.56708008 1275.33010742 591.56708008 1275.8203125 590.16748047 C1277.51249668 585.74535695 1277.51249668 585.74535695 1278.16210938 581.12646484 C1278.91492187 581.2423999 1279.66773438 581.35833496 1280.44335938 581.4777832 C1297.39732079 584.05096864 1313.99538879 585.84752667 1331.16210938 586.12646484 C1323.84552621 587.21480659 1316.5493421 587.45104447 1309.16210938 587.68896484 C1307.28458984 587.75374023 1307.28458984 587.75374023 1305.36914062 587.81982422 C1302.30022414 587.92524501 1299.23123549 588.02736827 1296.16210938 588.12646484 C1296.36126953 589.810625 1296.36126953 589.810625 1296.56445312 591.52880859 C1296.74285449 593.04052546 1296.921239 594.55224432 1297.09960938 596.06396484 C1297.18662109 596.799375 1297.27363281 597.53478516 1297.36328125 598.29248047 C1297.54226308 599.81051151 1297.71877467 601.32883543 1297.89306641 602.84741211 C1298.06392304 604.2947321 1298.24590767 605.74081565 1298.44287109 607.18481445 C1299.37169613 614.37439056 1299.40087143 621.57381028 1299.41210938 628.81396484 C1299.4144458 629.50444916 1299.41678223 630.19493347 1299.41918945 630.90634155 C1299.43412406 642.7462585 1298.61296884 654.35826922 1297.22949219 666.11547852 C1296.40839047 673.10410735 1295.63839382 680.08266063 1296.16210938 687.12646484 C1297.23056467 688.40016267 1297.23056467 688.40016267 1299.70898438 688.43896484 C1304.27497035 688.02575344 1307.44044095 686.3196882 1311.41210938 684.12646484 C1312.54144897 683.51351563 1312.54144897 683.51351563 1313.69360352 682.88818359 C1319.72169616 679.53657706 1325.01312471 675.72217906 1330.16210938 671.12646484 C1331.38607422 670.11519531 1331.38607422 670.11519531 1332.63476562 669.08349609 C1358.69526842 646.97033375 1371.33241976 611.60226119 1378.16210938 579.12646484 C1378.16210938 578.13646484 1378.16210938 577.14646484 1378.16210938 576.12646484 C1380.8143975 575.0512129 1383.44579392 574.03190333 1386.16210938 573.12646484 C1387.64658249 571.44636301 1387.64658249 571.44636301 1389.01757812 569.32958984 C1389.55374756 568.54189209 1390.08991699 567.75419434 1390.64233398 566.94262695 C1391.20573486 566.09579346 1391.76913574 565.24895996 1392.34960938 564.37646484 C1392.9304126 563.51480713 1393.51121582 562.65314941 1394.10961914 561.76538086 C1398.0346406 555.90923356 1401.84050376 549.99703425 1405.46679688 543.95068359 C1406.52635697 542.18556389 1407.61113154 540.43506006 1408.73242188 538.70849609 C1413.25751401 531.63655891 1416.21259423 524.03746375 1419.28540039 516.26147461 C1420.18946181 514.05985469 1421.17060231 511.90534595 1422.16601562 509.74365234 C1424.34373333 504.8803264 1425.94935297 499.91465995 1427.47460938 494.81396484 C1427.76948242 493.83411621 1428.06435547 492.85426758 1428.36816406 491.84472656 C1433.67920682 473.88553385 1438.44698573 455.67343622 1441.16210938 437.12646484 C1441.46761719 435.18900391 1441.46761719 435.18900391 1441.77929688 433.21240234 C1445.23138046 410.05943776 1443.46296845 389.04378294 1430.21289062 369.20849609 C1422.61737373 359.27115654 1412.99431439 352.05107899 1402.53710938 345.37646484 C1387.93697655 335.84289638 1374.7660351 325.15503305 1362.16210938 313.12646484 C1361.28941406 312.29501953 1360.41671875 311.46357422 1359.51757812 310.60693359 C1353.57532225 304.81072394 1348.26058349 298.67254143 1343.16210938 292.12646484 C1342.37835937 291.14806641 1341.59460937 290.16966797 1340.78710938 289.16162109 C1340.04460937 288.20126953 1339.30210938 287.24091797 1338.53710938 286.25146484 C1337.86421875 285.38779297 1337.19132812 284.52412109 1336.49804688 283.63427734 C1335.16210938 281.12646484 1335.16210938 281.12646484 1335.45117188 278.30615234 C1335.68578125 277.58685547 1335.92039062 276.86755859 1336.16210938 276.12646484 C1341.59865076 276.59950565 1345.01444994 277.89220836 1349.59960938 280.81396484 C1350.91738436 281.63626051 1352.23649206 282.45642275 1353.55664062 283.27490234 C1354.28318848 283.72833008 1355.00973633 284.18175781 1355.75830078 284.64892578 C1360.38635943 287.4936354 1365.0908565 290.20886354 1369.78710938 292.93896484 C1370.81247803 293.53555908 1371.83784668 294.13215332 1372.89428711 294.74682617 C1375.98247163 296.54192255 1379.07226133 298.33423379 1382.16210938 300.12646484 C1383.58475098 300.95428467 1383.58475098 300.95428467 1385.03613281 301.79882812 C1396.23689743 308.30993786 1407.5070528 314.46994754 1419.16210938 320.12646484 C1421.01751479 321.06151084 1422.8718545 321.99867784 1424.72460938 322.93896484 C1430.82641217 325.96945887 1436.23190271 328.57204831 1443.16210938 329.12646484 C1444.36419275 328.15078805 1444.36419275 328.15078805 1444.23144531 326.33569336 C1443.56465385 308.04682995 1441.47756436 295.66822092 1427.83398438 282.50537109 C1423.06472755 278.2590591 1418.02885398 274.3714202 1412.95410156 270.49951172 C1411.22423457 269.17406595 1409.50777883 267.83316648 1407.79492188 266.48583984 C1400.80985064 261.0088853 1393.63649938 255.91784536 1386.16210938 251.12646484 C1385.47906738 250.6857666 1384.79602539 250.24506836 1384.09228516 249.79101562 C1359.64604023 234.04624763 1334.108988 218.91547665 1307.46875 207.15234375 C1304.47792865 205.82217532 1301.50050534 204.46331959 1298.52148438 203.10693359 C1263.17441533 187.04830687 1227.40067907 174.32787274 1189.59960938 165.31396484 C1188.81362366 165.12505676 1188.02763794 164.93614868 1187.21783447 164.74151611 C1175.93493735 162.04279663 1164.63458348 159.85020562 1153.16210938 158.12646484 C1152.07502686 157.96267334 1150.98794434 157.79888184 1149.86791992 157.63012695 C1130.38040656 154.89775497 1110.84899169 154.67208221 1091.20361328 154.50488281 C1071.51159829 154.30993811 1052.1164208 153.1720874 1032.77929688 149.26318359 C1031.86631836 149.07933105 1030.95333984 148.89547852 1030.01269531 148.70605469 C1029.07200195 148.51479004 1028.13130859 148.32352539 1027.16210938 148.12646484 C1026.16469727 147.92617676 1025.16728516 147.72588867 1024.13964844 147.51953125 C1017.13546137 146.1083058 1010.14509287 144.63896064 1003.16210938 143.12646484 C1002.39592285 142.96178711 1001.62973633 142.79710937 1000.84033203 142.62744141 C975.07978037 137.03426218 949.96959675 128.46005595 925.01245117 120.0703125 C920.46879861 118.54674962 915.90841029 117.11663337 911.31054688 115.76708984 C905.83305032 114.13379996 900.45607422 112.24215103 895.09960938 110.25146484 C889.95213876 108.36143391 884.73844943 106.73059913 879.49682617 105.12744141 C874.41470943 103.55746341 869.41320994 101.81123216 864.41210938 100.00146484 C858.78801313 97.97956597 853.21279467 96.25860489 847.38476562 94.90380859 C843.2803206 93.9137667 839.22582633 92.77056521 835.16210938 91.62646484 C824.30884417 88.59772482 813.52235723 85.81476479 802.39208984 83.99121094 C799.71216081 83.55186846 797.03480345 83.10406422 794.36016846 82.63343811 C776.02055024 79.42105622 758.19735261 78.48177124 739.59960938 78.62646484 C738.22235338 78.63170027 736.84509476 78.63628079 735.46783447 78.64022827 C712.54719611 78.71833633 689.87590343 79.93657516 667.13305664 82.87329102 C665.28372225 83.11084332 663.43291341 83.3368362 661.58203125 83.56201172 C652.60936249 84.65703687 643.83341738 86.00632918 635.09960938 88.39599609 C631.72206542 89.23589067 628.34992364 89.76987529 624.91210938 90.31396484 C599.70173196 94.48223802 574.32879405 101.89723298 550.03710938 109.68896484 C536.04502447 114.14298978 521.72919122 117.68972344 507.38891602 120.83374023 C504.86905895 121.40070009 502.54154113 121.92898677 500.24072266 123.12646484 C497.97717663 124.21543413 496.08362022 124.61295257 493.60351562 124.98583984 C492.68046631 125.12892578 491.75741699 125.27201172 490.80639648 125.41943359 C489.78940674 125.57025391 488.77241699 125.72107422 487.72460938 125.87646484 C485.44577322 126.22417814 483.16713924 126.57321814 480.88867188 126.92333984 C479.64762695 127.11347656 478.40658203 127.30361328 477.12792969 127.49951172 C472.97250223 128.14757502 468.82940905 128.8618474 464.68554688 129.57958984 C448.09660132 132.43072766 431.54308305 134.80160786 414.78710938 136.43896484 C413.95774872 136.52009521 413.12838806 136.60122559 412.27389526 136.68481445 C407.6001498 137.13612644 402.92474829 137.55941588 398.2456665 137.9515686 C396.34740559 138.11091086 394.44978411 138.27782485 392.55224609 138.44555664 C380.39756074 139.40379217 368.22218971 139.32277019 356.03710938 139.31396484 C354.31364288 139.31455399 354.31364288 139.31455399 352.55535889 139.31515503 C312.80155184 139.29886902 312.80155184 139.29886902 297.16210938 136.61083984 C293.38638298 136.00121735 289.62570261 135.78138251 285.81103516 135.53076172 C265.13375986 134.16152828 243.93599836 131.87185399 223.72460938 127.12646484 C220.22007127 126.31772528 216.71911366 125.7222951 213.16210938 125.18896484 C198.45993634 122.98194118 183.97101829 120.10204922 169.46435547 116.86083984 C165.97642578 116.08517132 162.48542582 115.32437822 158.99414062 114.56396484 C141.69862695 110.76465919 124.58121021 106.45646093 107.48883057 101.83282471 C102.55124531 100.49738782 97.60838462 99.18322743 92.66210938 97.88037109 C90.6243922 97.34237634 88.58673892 96.80414021 86.54910278 96.26583862 C84.66321643 95.76824756 82.77680738 95.27263889 80.89038086 94.77709961 C75.26961803 93.28550686 69.72817844 91.70751428 64.22973633 89.81445312 C60.70746284 88.64244147 57.1219375 87.71071211 53.53710938 86.75146484 C46.56406005 84.8521514 39.74131084 82.69802722 32.90039062 80.36474609 C29.0532628 79.09041013 25.1807167 77.93504163 21.28710938 76.81396484 C13.99716007 74.70742854 6.76355139 72.44110046 -0.46289062 70.12646484 C-1.53700195 69.78317139 -2.61111328 69.43987793 -3.71777344 69.08618164 C-8.33667751 67.60264748 -12.9468079 66.10558098 -17.52539062 64.50146484 C-18.2039209 64.26556641 -18.88245117 64.02966797 -19.58154297 63.78662109 C-21.30851803 63.18063348 -23.03050692 62.56048461 -24.75195312 61.93896484 C-30.25298471 60.49059197 -35.06082757 60.07441732 -39.42773438 64.19677734 Z " fill="#FEFEFE" transform="translate(488.837890625,4.87353515625)"/>
<path d="M0 0 C3.02982876 2.10068127 6.07843995 4.17368588 9.125 6.25 C9.9284082 6.80059082 10.73181641 7.35118164 11.55957031 7.91845703 C17.30713619 11.85719651 23.07977452 15.75674367 28.875 19.625 C29.61766113 20.12161133 30.36032227 20.61822266 31.12548828 21.12988281 C34.70139957 23.5105241 38.28930531 25.83179016 42 28 C40.93299726 42.93803842 36.56669542 55.21742716 29 68 C23.17236506 67.5601785 18.40637699 66.1573482 12.95849609 64.07861328 C7.83449527 62.21049679 2.58017875 60.83736294 -2.6875 59.4375 C-3.82509766 59.13376465 -4.96269531 58.8300293 -6.13476562 58.51708984 C-23.30589698 54.00491435 -39.89326457 51.95406066 -57.625 51.4375 C-59.02474932 51.39419373 -60.42448904 51.35057613 -61.82421875 51.30664062 C-65.21606451 51.20137645 -68.60797354 51.09923991 -72 51 C-77.56361815 36.45696092 -79.7622335 22.42088173 -73.4453125 7.765625 C-72.18171279 5.34770989 -70.87006182 3.32194986 -69.1875 1.1875 C-66.33874651 -2.96354079 -66.56860968 -5.0821504 -67 -10 C-72.82960417 -13.13901763 -78.14854129 -14.33852531 -84.75 -14.25 C-85.44867187 -14.24613281 -86.14734375 -14.24226562 -86.8671875 -14.23828125 C-92.40121954 -14.14638773 -97.64498832 -13.44173391 -103 -12 C-79.13402314 -38.17079082 -22.76788074 -16.62055294 0 0 Z " fill="#FCFCFC" transform="translate(1292,179)"/>
<path d="M0 0 C6.5594997 1.07844773 12.92040691 2.42889346 19.296875 4.31640625 C26.91848223 6.24383583 34.61415817 6.30214874 42.4375 6.5625 C43.64599609 6.60568359 44.85449219 6.64886719 46.09960938 6.69335938 C49.06630606 6.79889404 52.03307902 6.90100714 55 7 C50.852918 11.64338593 46.21654026 14.46932728 40.8125 17.5 C39.9575293 17.98412354 39.10255859 18.46824707 38.22167969 18.96704102 C36.54778492 19.91008257 34.87128642 20.8485213 33.19189453 21.78173828 C31.47384905 22.73663324 29.76449759 23.70717336 28.05859375 24.68359375 C16.43610514 30.99631599 3.05938571 33.17895328 -10 33.1875 C-11.47726562 33.20586914 -11.47726562 33.20586914 -12.984375 33.22460938 C-13.93828125 33.22654297 -14.8921875 33.22847656 -15.875 33.23046875 C-16.73867187 33.23457764 -17.60234375 33.23868652 -18.4921875 33.24291992 C-21.29323437 32.97159578 -23.44645161 32.15464548 -26 31 C-23.72045163 28.64691781 -21.45541403 26.38268631 -18.9453125 24.2734375 C-10.84146952 17.45947956 -4.96657353 9.31232536 0 0 Z " fill="#FBFBFB" transform="translate(1358,220)"/>
<path d="M0 0 C0.66 0.33 1.32 0.66 2 1 C-7.57 10.57 -17.14 20.14 -27 30 C-27.66 29.67 -28.32 29.34 -29 29 C-28.48050781 28.49210938 -27.96101563 27.98421875 -27.42578125 27.4609375 C-24.17111213 24.24838055 -20.9771111 21.08012745 -18.125 17.5 C-17.42375 16.675 -16.7225 15.85 -16 15 C-15.34 15 -14.68 15 -14 15 C-13.67 14.01 -13.34 13.02 -13 12 C-11.328125 10.3515625 -11.328125 10.3515625 -9.25 8.625 C-6.00331159 5.87465784 -2.96094821 3.05347784 0 0 Z " fill="#D9D9D9" transform="translate(1420,625)"/>
<path d="M0 0 C-0.99 0.33 -1.98 0.66 -3 1 C-0.03 1.33 2.94 1.66 6 2 C6 2.33 6 2.66 6 3 C5.24976563 3.04898438 4.49953125 3.09796875 3.7265625 3.1484375 C-2.98603585 3.63877844 -9.43761499 4.50458926 -16 6 C-13.75539393 3.50439964 -11.61479403 2.1294516 -8.5625 0.75 C-7.80066406 0.39421875 -7.03882813 0.0384375 -6.25390625 -0.328125 C-3.72027666 -1.08338373 -2.45814874 -0.87351072 0 0 Z " fill="#CACACA" transform="translate(1205,161)"/>
<path d="M0 0 C7.59 0 15.18 0 23 0 C23 0.33 23 0.66 23 1 C7.25512528 3.29612756 7.25512528 3.29612756 0 3 C0 2.01 0 1.02 0 0 Z " fill="#BBBBBB" transform="translate(1804,590)"/>
<path d="M0 0 C1.32 0 2.64 0 4 0 C2.44298069 4.67105792 -0.08447373 8.08705685 -3 12 C-4.21386936 8.35839192 -3.6674695 7.66834531 -2.0625 4.3125 C-1.49208984 3.10013672 -1.49208984 3.10013672 -0.91015625 1.86328125 C-0.60980469 1.24839844 -0.30945312 0.63351562 0 0 Z " fill="#BDBDBD" transform="translate(1291,681)"/>
<path d="M0 0 C0.33 0.66 0.66 1.32 1 2 C-1.25283313 5.31996462 -3.80800833 7.58443874 -7 10 C-7.66 9.67 -8.32 9.34 -9 9 C-6.03 6.03 -3.06 3.06 0 0 Z " fill="#C4C4C4" transform="translate(183,858)"/>
<path d="M0 0 C0.66 0.33 1.32 0.66 2 1 C-1.75 5.875 -1.75 5.875 -4 7 C-4.66 6.34 -5.32 5.68 -6 5 C-4.02 3.35 -2.04 1.7 0 0 Z " fill="#D6D6D6" transform="translate(1338,245)"/>
</svg>
