<?xml version="1.0" encoding="UTF-8"?>
<svg version="1.1" xmlns="http://www.w3.org/2000/svg" width="2000" height="1761">
<path d="M0 0 C0 347.49 0 694.98 0 1053 C-13.49827579 1058.62428158 -13.49827579 1058.62428158 -18.20361328 1060.25732422 C-19.27010605 1060.6295813 -20.33659882 1061.00183838 -21.43540955 1061.38537598 C-22.55242752 1061.77124878 -23.6694455 1062.15712158 -24.8203125 1062.5546875 C-26.6590123 1063.19522307 -28.49771112 1063.83576147 -30.33636761 1064.47642136 C-32.27021068 1065.14954964 -34.20464133 1065.82096273 -36.13925171 1066.49188232 C-42.25541909 1068.61329479 -48.36743921 1070.74660942 -54.47967339 1072.87932205 C-55.84580741 1073.35596338 -57.21198409 1073.83248247 -58.5782032 1074.30887985 C-69.96632378 1078.28003888 -81.33539375 1082.30200047 -92.6875 1086.375 C-110.48330873 1092.75571629 -128.30142553 1099.07237327 -146.125 1105.375 C-147.54185088 1105.87605481 -148.95870065 1106.37711275 -150.37554932 1106.87817383 C-155.96978424 1108.85650537 -161.56406628 1110.8347036 -167.15844727 1112.81262207 C-179.46132363 1117.16244228 -191.76228335 1121.51766448 -204.0625 1125.875 C-206.00585839 1126.56339796 -207.94921776 1127.25179316 -209.89257812 1127.94018555 C-212.76167335 1128.95650212 -215.63076632 1129.97282506 -218.49984741 1130.98918152 C-225.14678123 1133.34376145 -231.79403157 1135.69744629 -238.44140625 1138.05078125 C-260.96415776 1146.02478885 -283.4834159 1154.00859661 -306 1162 C-324.62309208 1168.60955678 -343.24715186 1175.21635554 -361.875 1181.8125 C-363.32975739 1182.32763657 -363.32975739 1182.32763657 -364.81390381 1182.85317993 C-372.49405931 1185.5726713 -380.17439225 1188.2916614 -387.85473633 1191.01062012 C-412.94795502 1199.89409538 -438.03848338 1208.78511602 -463.125 1217.6875 C-463.77586704 1217.91846878 -464.42673409 1218.14943756 -465.09732437 1218.3874054 C-478.29475782 1223.07070654 -491.49198831 1227.7545793 -504.68885612 1232.43947411 C-533.24614355 1242.57728975 -561.80666377 1252.7058562 -590.375 1262.8125 C-591.05928699 1263.05458191 -591.74357399 1263.29666382 -592.44859695 1263.54608154 C-598.51840616 1265.69339471 -604.58825471 1267.84059662 -610.65812683 1269.98773193 C-622.8560261 1274.30260332 -635.05348476 1278.61871783 -647.25 1282.9375 C-648.70743118 1283.45357315 -648.70743118 1283.45357315 -650.19430542 1283.98007202 C-664.85376606 1289.17157821 -679.5073259 1294.37954213 -694.15884399 1299.59341431 C-712.27060312 1306.03774833 -730.39347065 1312.45057555 -748.51738739 1318.86061096 C-769.70327362 1326.35364893 -790.8852184 1333.85767703 -812.0625 1341.375 C-830.33135188 1347.85976648 -848.60114942 1354.34182944 -866.875 1360.8125 C-868.33206863 1361.3284523 -868.33206863 1361.3284523 -869.818573 1361.85482788 C-877.49717217 1364.57376973 -885.17594812 1367.2922122 -892.85473633 1370.01062012 C-899.61157712 1372.40266989 -906.36834167 1374.79493488 -913.125 1377.1875 C-914.09371033 1377.53052155 -915.06242065 1377.87354309 -916.06048584 1378.22695923 C-933.70970618 1384.47698897 -951.35515417 1390.73763444 -969 1397 C-987.62309208 1403.60955678 -1006.24715186 1410.21635554 -1024.875 1416.8125 C-1026.32975739 1417.32763657 -1026.32975739 1417.32763657 -1027.81390381 1417.85317993 C-1035.49405931 1420.5726713 -1043.17439225 1423.2916614 -1050.85473633 1426.01062012 C-1057.61157712 1428.40266989 -1064.36834167 1430.79493488 -1071.125 1433.1875 C-1072.09371033 1433.53052155 -1073.06242065 1433.87354309 -1074.06048584 1434.22695923 C-1091.70970618 1440.47698897 -1109.35515417 1446.73763444 -1127 1453 C-1145.62309208 1459.60955678 -1164.24715186 1466.21635554 -1182.875 1472.8125 C-1184.32975739 1473.32763657 -1184.32975739 1473.32763657 -1185.81390381 1473.85317993 C-1193.49405931 1476.5726713 -1201.17439225 1479.2916614 -1208.85473633 1482.01062012 C-1215.61157712 1484.40266989 -1222.36834167 1486.79493488 -1229.125 1489.1875 C-1230.09371033 1489.53052155 -1231.06242065 1489.87354309 -1232.06048584 1490.22695923 C-1249.70970618 1496.47698897 -1267.35515417 1502.73763444 -1285 1509 C-1309.40506461 1517.66164757 -1333.81372547 1526.3130889 -1358.22558594 1534.95556641 C-1364.13231573 1537.04676498 -1370.03884014 1539.1385432 -1375.9453125 1541.23046875 C-1376.93813232 1541.58210083 -1377.93095215 1541.93373291 -1378.95385742 1542.29602051 C-1381.96924147 1543.36400467 -1384.98462153 1544.4320001 -1388 1545.5 C-1410.12025679 1553.33464906 -1410.12025679 1553.33464906 -1420.64068604 1557.05917358 C-1445.43572788 1565.83733097 -1470.22661876 1574.62713307 -1495.01470947 1583.42489624 C-1512.9595477 1589.79381344 -1530.90652383 1596.15665143 -1548.85644531 1602.51123047 C-1565.57131654 1608.42882949 -1582.28249666 1614.35680357 -1598.99269867 1620.28757095 C-1624.0668106 1629.18684551 -1649.14443677 1638.07614209 -1674.22558594 1646.95556641 C-1680.13231573 1649.04676498 -1686.03883995 1651.13854375 -1691.9453125 1653.23046875 C-1692.93890274 1653.58237274 -1693.93249298 1653.93427673 -1694.95619202 1654.29684448 C-1698.97107785 1655.71882768 -1702.98595547 1657.14083409 -1707.00082397 1658.56286621 C-1717.02604815 1662.1137111 -1727.051332 1665.66438618 -1737.07725525 1669.21325684 C-1757.20219393 1676.3368992 -1777.32457867 1683.46749188 -1797.4375 1690.625 C-1816.0550682 1697.25019529 -1834.68253449 1703.8472695 -1853.3125 1710.4375 C-1854.01040524 1710.68438442 -1854.70831047 1710.93126884 -1855.42736435 1711.18563461 C-1861.69220921 1713.40181937 -1867.95709788 1715.61788027 -1874.22203064 1717.83381653 C-1886.56538379 1722.19974318 -1898.90819748 1726.56719159 -1911.25 1730.9375 C-1912.20412781 1731.27535522 -1913.15825562 1731.61321045 -1914.14129639 1731.96130371 C-1931.63353969 1738.15599948 -1949.11906309 1744.36955853 -1966.6010437 1750.59315491 C-1968.30054891 1751.19763653 -1970.00035008 1751.80128681 -1971.70046997 1752.40403748 C-1975.77763439 1753.84974907 -1979.85006895 1755.3065684 -1983.91455078 1756.78759766 C-1984.69419693 1757.06924271 -1985.47384308 1757.35088776 -1986.27711487 1757.6410675 C-1987.73709736 1758.16864543 -1989.19535633 1758.70102848 -1990.651474 1759.23918152 C-1994.01777634 1760.4494377 -1996.36637508 1761 -2000 1761 C-2000 1413.84 -2000 1066.68 -2000 709 C-1990.36866574 705.38824965 -1980.75030747 701.80037912 -1971.0546875 698.375 C-1969.27808495 697.74529045 -1969.27808495 697.74529045 -1967.46559143 697.1028595 C-1964.92503194 696.20257709 -1962.3842985 695.30280717 -1959.8432312 694.40396118 C-1955.77391359 692.96449435 -1951.70538942 691.52279361 -1947.63696289 690.08081055 C-1941.93516562 688.06011015 -1936.23308753 686.04020449 -1930.53076172 684.02099609 C-1917.81171354 679.51707284 -1905.09370004 675.01023383 -1892.37680435 670.50023651 C-1890.42997287 669.80983065 -1888.48309979 669.1195422 -1886.53622437 668.42926025 C-1867.65832794 661.73528042 -1848.80015862 654.98750621 -1829.95147705 648.21170044 C-1811.38687576 641.54124715 -1792.78207632 634.98925157 -1774.16296387 628.47268677 C-1758.90440251 623.13208741 -1743.65705515 617.76332151 -1728.4375 612.3125 C-1727.59986115 612.01252106 -1726.76222229 611.71254211 -1725.89920044 611.4034729 C-1725.06242767 611.10379608 -1724.22565491 610.80411926 -1723.36352539 610.49536133 C-1721.67335317 609.8900995 -1719.98316762 609.28487491 -1718.29296875 608.6796875 C-1717.03774162 608.23024025 -1717.03774162 608.23024025 -1715.75715637 607.77171326 C-1705.5966359 604.1362531 -1695.4232744 600.53708053 -1685.25 596.9375 C-1681.21742819 595.51047241 -1677.18487774 594.08338445 -1673.15234375 592.65625 C-1672.11277527 592.28835358 -1671.07320679 591.92045715 -1670.00213623 591.54141235 C-1656.26965434 586.68078291 -1642.54105152 581.80921666 -1628.8125 576.9375 C-1628.14792282 576.70167583 -1627.48334564 576.46585167 -1626.79862976 576.22288132 C-1608.81141172 569.84011674 -1590.82624904 563.45159869 -1572.84387207 557.0552063 C-1549.58772433 548.78321116 -1526.32427186 540.53179804 -1503.06130981 532.2789917 C-1493.85194837 529.0118612 -1484.64271442 525.74437162 -1475.43359375 522.4765625 C-1474.79619829 522.25038616 -1474.15880283 522.02420982 -1473.50209236 521.79117966 C-1470.28735284 520.65044443 -1467.0726157 519.50970249 -1463.85787964 518.36895752 C-1458.05145664 516.3085594 -1452.24501245 514.24822101 -1446.43857002 512.18787766 C-1443.20904583 511.04192084 -1439.97952298 509.89596023 -1436.75 508.75 C-1435.45833334 508.29166665 -1434.16666667 507.83333332 -1432.875 507.375 C-1432.235625 507.148125 -1431.59625 506.92125 -1430.9375 506.6875 C-1367 484 -1303.0625 461.3125 -1237.18748379 437.93749428 C-1235.89587114 437.47918009 -1234.60425851 437.02086583 -1233.31264591 436.5625515 C-1230.08265302 435.41642463 -1226.85265967 434.27029903 -1223.62266541 433.12417603 C-1217.82003106 431.06518254 -1212.01739979 429.00618042 -1206.21478558 426.9471302 C-1202.99866138 425.80589297 -1199.78253452 424.66466326 -1196.56640625 423.5234375 C-1195.92909639 423.29729137 -1195.29178654 423.07114525 -1194.63516426 422.83814621 C-1185.39662483 419.5599151 -1176.15793147 416.28211811 -1166.91915512 413.00455475 C-1160.9252376 410.87812806 -1154.93135634 408.75159915 -1148.9375 406.625 C-1148.28357269 406.39298889 -1147.62964539 406.16097778 -1146.9559021 405.92193604 C-1130.1351496 399.9539103 -1113.31595649 393.98152767 -1096.5 388 C-1072.35858372 379.41276622 -1048.20991239 370.84598932 -1024.06130981 362.2789917 C-1014.85194837 359.0118612 -1005.64271442 355.74437162 -996.43359375 352.4765625 C-995.79619829 352.25038616 -995.15880283 352.02420982 -994.50209236 351.79117966 C-991.28735284 350.65044443 -988.0726157 349.50970249 -984.85787964 348.36895752 C-979.05145664 346.3085594 -973.24501245 344.24822101 -967.43857002 342.18787766 C-964.20904583 341.04192084 -960.97952298 339.89596023 -957.75 338.75 C-956.45833334 338.29166665 -955.16666667 337.83333332 -953.875 337.375 C-953.235625 337.148125 -952.59625 336.92125 -951.9375 336.6875 C-946.12499874 334.62499955 -946.12499874 334.62499955 -944.18749142 333.93749714 C-942.89585321 333.47917378 -941.60421515 333.02084998 -940.31257725 332.56252575 C-937.08297649 331.41653623 -933.85337304 330.27055431 -930.62376404 329.12458801 C-924.81644471 327.06396116 -919.00914402 325.00328185 -913.2019453 322.9423151 C-909.97969574 321.79874507 -906.7574302 320.65522005 -903.53515625 319.51171875 C-902.89687456 319.28520819 -902.25859287 319.05869762 -901.60096931 318.8253231 C-892.45581564 315.58003306 -883.30975473 312.33731024 -874.16316795 309.09606171 C-868.25441677 307.00209175 -862.34592609 304.90738706 -856.4375 302.8125 C-855.79115726 302.58335152 -855.14481453 302.35420303 -854.47888565 302.11811066 C-834.95314308 295.19530963 -815.44672559 288.21993691 -795.95147705 281.21170044 C-777.38687576 274.54124715 -758.78207632 267.98925157 -740.16296387 261.47268677 C-724.90440251 256.13208741 -709.65705515 250.76332151 -694.4375 245.3125 C-693.18104172 244.86253159 -693.18104172 244.86253159 -691.89920044 244.4034729 C-691.06242767 244.10379608 -690.22565491 243.80411926 -689.36352539 243.49536133 C-687.67335317 242.8900995 -685.98316762 242.28487491 -684.29296875 241.6796875 C-683.45615067 241.380056 -682.61933258 241.0804245 -681.75715637 240.77171326 C-671.5966359 237.1362531 -661.4232744 233.53708053 -651.25 229.9375 C-647.21742819 228.51047241 -643.18487774 227.08338445 -639.15234375 225.65625 C-638.11277527 225.28835358 -637.07320679 224.92045715 -636.00213623 224.54141235 C-622.26965434 219.68078291 -608.54105152 214.80921666 -594.8125 209.9375 C-594.14792282 209.70167583 -593.48334564 209.46585167 -592.79862976 209.22288132 C-574.81141172 202.84011674 -556.82624904 196.45159869 -538.84387207 190.0552063 C-515.58772433 181.78321116 -492.32427186 173.53179804 -469.06130981 165.2789917 C-459.85194837 162.0118612 -450.64271442 158.74437162 -441.43359375 155.4765625 C-440.79619829 155.25038616 -440.15880283 155.02420982 -439.50209236 154.79117966 C-436.28735284 153.65044443 -433.0726157 152.50970249 -429.85787964 151.36895752 C-424.05145664 149.3085594 -418.24501245 147.24822101 -412.43857002 145.18787766 C-409.20904583 144.04192084 -405.97952298 142.89596023 -402.75 141.75 C-401.45833334 141.29166665 -400.16666667 140.83333332 -398.875 140.375 C-398.235625 140.148125 -397.59625 139.92125 -396.9375 139.6875 C-267.12499988 93.62499996 -267.12499988 93.62499996 -265.18749142 92.93749714 C-263.89585321 92.47917378 -262.60421515 92.02084998 -261.31257725 91.56252575 C-258.08297649 90.41653623 -254.85337304 89.27055431 -251.62376404 88.12458801 C-245.81644471 86.06396116 -240.00914402 84.00328185 -234.2019453 81.9423151 C-230.97969574 80.79874507 -227.7574302 79.65522005 -224.53515625 78.51171875 C-223.89687456 78.28520819 -223.25859287 78.05869762 -222.60096931 77.8253231 C-213.45581564 74.58003306 -204.30975473 71.33731024 -195.16316795 68.09606171 C-189.25441677 66.00209175 -183.34592609 63.90738706 -177.4375 61.8125 C-176.4679859 61.46877728 -176.4679859 61.46877728 -175.47888565 61.11811066 C-155.95614725 54.19637475 -136.45233648 47.22314862 -116.96054077 40.21472168 C-98.207839 33.4750612 -79.41288899 26.85967104 -60.60083008 20.28765869 C-43.37584347 14.27062985 -43.37584347 14.27062985 -26.21484375 8.07421875 C-25.02246597 7.63687157 -25.02246597 7.63687157 -23.80599976 7.19068909 C-20.260636 5.88763378 -16.71905842 4.57536668 -13.18261719 3.24829102 C-11.41192871 2.59171509 -11.41192871 2.59171509 -9.60546875 1.921875 C-8.60668701 1.54643555 -7.60790527 1.17099609 -6.57885742 0.78417969 C-4 0 -4 0 0 0 Z " fill="#000000" transform="translate(2000,0)"/>
<path d="M0 0 C1.64648438 1.51196289 1.64648438 1.51196289 3.09375 3.47265625 C3.64281006 4.19976807 4.19187012 4.92687988 4.75756836 5.67602539 C5.3325708 6.46356201 5.90757324 7.25109863 6.5 8.0625 C7.73922309 9.70958534 8.98014635 11.35539271 10.22265625 13 C10.84930176 13.8353125 11.47594727 14.670625 12.12158203 15.53125 C14.97370123 19.27970715 17.94863498 22.92279848 20.9375 26.5625 C24.74726812 31.22319507 28.5247029 35.89930426 32.19921875 40.66796875 C34.59532007 43.77094595 37.01556453 46.85466488 39.4375 49.9375 C40.15317139 50.84846436 40.15317139 50.84846436 40.88330078 51.77783203 C44.20102446 55.99573973 47.54718282 60.1899327 50.90625 64.375 C53.93749586 68.17536794 56.93386898 72.00286289 59.93359375 75.828125 C62.60539964 79.2326422 65.29103421 82.62489508 68 86 C71.67847341 90.58301605 75.30728831 95.20384449 78.93359375 99.828125 C81.60539964 103.2326422 84.29103421 106.62489508 87 110 C90.67847341 114.58301605 94.30728831 119.20384449 97.93359375 123.828125 C100.60539964 127.2326422 103.29103421 130.62489508 106 134 C109.67847341 138.58301605 113.30728831 143.20384449 116.93359375 147.828125 C119.60539964 151.2326422 122.29103421 154.62489508 125 158 C128.67847341 162.58301605 132.30728831 167.20384449 135.93359375 171.828125 C138.60539964 175.2326422 141.29103421 178.62489508 144 182 C147.67847341 186.58301605 151.30728831 191.20384449 154.93359375 195.828125 C157.60539964 199.2326422 160.29103421 202.62489508 163 206 C166.67847341 210.58301605 170.30728831 215.20384449 173.93359375 219.828125 C176.60539964 223.2326422 179.29103421 226.62489508 182 230 C185.67847341 234.58301605 189.30728831 239.20384449 192.93359375 243.828125 C195.60539964 247.2326422 198.29103421 250.62489508 201 254 C204.67847341 258.58301605 208.30728831 263.20384449 211.93359375 267.828125 C214.60539964 271.2326422 217.29103421 274.62489508 220 278 C223.67847341 282.58301605 227.30728831 287.20384449 230.93359375 291.828125 C234.23844246 296.03928956 237.57424191 300.22430939 240.92578125 304.3984375 C243.36586167 307.45887735 245.77610961 310.5419477 248.1875 313.625 C252.20626895 318.76278642 256.30246014 323.8304975 260.4375 328.875 C265.36076917 334.88762998 270.06300506 341.03320195 274.68896484 347.27636719 C278.46212728 352.34471977 282.4262627 357.19078977 286.5078125 362.015625 C290.65613345 366.98320683 294.61672856 372.09672794 298.59570312 377.20019531 C300.9532908 380.22177673 303.32016236 383.23605506 305.6875 386.25 C306.1510791 386.84055176 306.6146582 387.43110352 307.09228516 388.03955078 C309.647535 391.29127257 312.21958192 394.52816137 314.8125 397.75 C318.49333402 402.33226276 322.08918224 406.97796553 325.6875 411.625 C330.82962954 418.26234401 336.06682292 424.8106556 341.38330078 431.30883789 C344.67707045 435.34423439 347.90367292 439.42071465 351.0625 443.5625 C355.12342779 448.88507526 359.27635829 454.12475401 363.46899414 459.34399414 C366.83942385 463.54207853 370.18093915 467.76120661 373.5 472 C377.80062995 477.49064394 382.14700163 482.9429731 386.51074219 488.38354492 C390.41713124 493.25892633 394.28324055 498.16477597 398.13671875 503.08203125 C401.36662245 507.20132873 404.62966992 511.29270351 407.90625 515.375 C410.93749586 519.17536794 413.93386898 523.00286289 416.93359375 526.828125 C419.60539964 530.2326422 422.29103421 533.62489508 425 537 C428.67553693 541.57935748 432.30166686 546.1963342 435.92480469 550.81713867 C438.68170737 554.33041497 441.45489617 557.82945395 444.25 561.3125 C445.5 562.875 446.75 564.4375 448 566 C448.67546875 566.83917969 449.3509375 567.67835938 450.046875 568.54296875 C451.01367188 569.75919922 451.01367188 569.75919922 452 571 C452.5775 571.721875 453.155 572.44375 453.75 573.1875 C455 575 455 575 455 577 C453.9378125 577.32613281 452.875625 577.65226562 451.78125 577.98828125 C450.35412798 578.4295624 448.92704683 578.87097576 447.5 579.3125 C446.80390625 579.52583984 446.1078125 579.73917969 445.390625 579.95898438 C441.19569715 581.26018885 437.07712481 582.68576968 432.97412109 584.25219727 C429.69049849 585.49604293 426.37572889 586.65035032 423.0625 587.8125 C421.56379453 588.33982229 420.06509684 588.86716667 418.56640625 589.39453125 C417.42969482 589.79406006 417.42969482 589.79406006 416.27001953 590.20166016 C413.38054223 591.2178562 410.49219252 592.23722814 407.60400391 593.25708008 C406.19881474 593.7532498 404.79354096 594.24917995 403.38818359 594.74487305 C399.78236388 596.0167576 396.1775131 597.29128961 392.57421875 598.5703125 C385.34186117 601.13482499 378.10623122 603.66825463 370.80859375 606.04296875 C367.87463746 607.04271742 364.98094581 608.12584903 362.08178711 609.22143555 C358.75816763 610.46443103 355.41082619 611.63803958 352.0625 612.8125 C350.56379453 613.33982229 349.06509684 613.86716667 347.56640625 614.39453125 C346.42969482 614.79406006 346.42969482 614.79406006 345.27001953 615.20166016 C341.67889827 616.46461633 338.08950362 617.73245523 334.5 619 C333.08334236 619.50002557 331.66667567 620.00002551 330.25 620.5 C329.54875 620.7475 328.8475 620.995 328.125 621.25 C320.33333333 624 312.54166667 626.75 304.75 629.5 C303.69752075 629.8714917 303.69752075 629.8714917 302.6237793 630.25048828 C301.21122974 630.74899698 299.79863229 631.24737002 298.38598633 631.74560547 C294.78091743 633.01729778 291.17678559 634.29154785 287.57421875 635.5703125 C280.34186117 638.13482499 273.10623122 640.66825463 265.80859375 643.04296875 C262.87463746 644.04271742 259.98094581 645.12584903 257.08178711 646.22143555 C253.75816763 647.46443103 250.41082619 648.63803958 247.0625 649.8125 C245.56379453 650.33982229 244.06509684 650.86716667 242.56640625 651.39453125 C241.42969482 651.79406006 241.42969482 651.79406006 240.27001953 652.20166016 C236.67889827 653.46461633 233.08950362 654.73245523 229.5 656 C228.08334236 656.50002557 226.66667567 657.00002551 225.25 657.5 C224.54875 657.7475 223.8475 657.995 223.125 658.25 C221 659 218.875 659.75 216.75 660.5 C216.0477832 660.74806396 215.34556641 660.99612793 214.62207031 661.25170898 C213.21573364 661.74761578 211.8088375 662.24193904 210.40136719 662.73461914 C206.69533073 664.03431151 203.00508358 665.36609 199.328125 666.74609375 C198.17860352 667.17051758 198.17860352 667.17051758 197.00585938 667.60351562 C195.53984531 668.14549658 194.07733038 668.69707278 192.61914062 669.25976562 C188.72352992 670.68702047 185.90345319 671.66723763 182 670 C179.7109375 667.76953125 179.7109375 667.76953125 177.375 664.8125 C176.94678955 664.27786133 176.5185791 663.74322266 176.07739258 663.19238281 C174.70482075 661.47175444 173.35142493 659.73727005 172 658 C171.12174247 656.88360393 170.24284026 655.76771472 169.36328125 654.65234375 C168.01232502 652.93655245 166.66350354 651.21924717 165.32006836 649.49755859 C161.75189138 644.92814878 158.10661798 640.42609189 154.4375 635.9375 C149.72308371 630.16586983 145.14439122 624.31561747 140.62890625 618.38671875 C136.9270857 613.57333624 133.05993601 608.89093745 129.20117188 604.203125 C128.66943359 603.55472656 128.13769531 602.90632813 127.58984375 602.23828125 C126.87622681 601.3726355 126.87622681 601.3726355 126.14819336 600.48950195 C125 599 125 599 124 597 C115.72871972 598.86331039 107.85930197 601.36179821 99.91113281 604.29980469 C96.51455921 605.5442315 93.10017339 606.7380944 89.6875 607.9375 C88.24344988 608.44650195 86.79943971 608.95561728 85.35546875 609.46484375 C84.63536621 609.71862793 83.91526367 609.97241211 83.17333984 610.23388672 C79.61517203 611.48815886 76.05760528 612.74413335 72.5 614 C68.21515054 615.51259039 63.93016199 617.02478068 59.64453125 618.53515625 C53.09210006 620.84500609 46.54171995 623.15993332 40 625.5 C32.73211919 628.09982479 25.45332733 630.66821648 18.17333984 633.23388672 C14.61517202 634.48815886 11.05761288 635.74415486 7.5 637 C6.08333634 637.50000852 4.66666967 638.00000851 3.25 638.5 C2.54875 638.7475 1.8475 638.995 1.125 639.25 C-22.25000002 647.50000001 -22.25000002 647.50000001 -24.37573242 648.25024414 C-25.78996971 648.74939627 -27.204195 649.24858238 -28.6184082 649.74780273 C-32.19714601 651.01105638 -35.77610135 652.27368754 -39.35546875 653.53515625 C-45.90789994 655.84500609 -52.45828005 658.15993332 -59 660.5 C-64.8084481 662.57776486 -70.62211548 664.64023803 -76.44189453 666.68603516 C-80.21811195 668.01402069 -83.98926764 669.35434412 -87.75390625 670.71484375 C-88.91442505 671.13165405 -88.91442505 671.13165405 -90.09838867 671.55688477 C-91.58560267 672.09132488 -93.07151047 672.62941774 -94.5559082 673.17163086 C-97.50742949 674.22835712 -99.8391379 675 -103 675 C-103 610.65 -103 546.3 -103 480 C-89.48073394 474.36697248 -89.48073394 474.36697248 -83.79296875 472.28125 C-83.17964188 472.05602661 -82.566315 471.83080322 -81.93440247 471.59875488 C-80.65717843 471.13046883 -79.37948484 470.66346144 -78.10131836 470.19775391 C-76.19835488 469.50395755 -74.29733797 468.80502209 -72.39648438 468.10546875 C-64.78731744 465.31663676 -57.14205067 462.68700451 -49.4309082 460.19335938 C-45.85872876 458.95086218 -42.46276215 457.51799029 -39 456 C-33.68999379 453.93803883 -28.34373519 451.97260407 -23 450 C-22.05817871 449.65146973 -21.11635742 449.30293945 -20.14599609 448.94384766 C-17.1405015 447.83342884 -14.13307409 446.72841014 -11.125 445.625 C-9.67081665 445.08806519 -9.67081665 445.08806519 -8.18725586 444.5402832 C-7.28241455 444.20988037 -6.37757324 443.87947754 -5.4453125 443.5390625 C-4.63594238 443.24209473 -3.82657227 442.94512695 -2.99267578 442.63916016 C-1 442 -1 442 1 442 C-3.19724102 435.9987872 -7.54460017 430.24059137 -12.3125 424.6875 C-17.60792988 418.51853086 -22.64461625 412.17526299 -27.63378906 405.75732422 C-34.38088106 397.07870231 -41.21335803 388.47834758 -48.16357422 379.96142578 C-52.11230493 375.11467162 -55.9885508 370.2164174 -59.8359375 365.2890625 C-63.87919062 360.12398193 -68.01847247 355.04000757 -72.16625977 349.95874023 C-75.63893604 345.69688942 -79.05821135 341.39865039 -82.4375 337.0625 C-92.22570521 324.09844731 -92.22570521 324.09844731 -103 312 C-103.09675527 310.5195715 -103.12371762 309.03452727 -103.12304783 307.55094051 C-103.12503888 306.58404889 -103.12702993 305.61715727 -103.12908131 304.6209659 C-103.12616847 303.54608606 -103.12325563 302.47120623 -103.12025452 301.36375427 C-103.12110894 300.23175584 -103.12196337 299.09975742 -103.12284368 297.933456 C-103.12450178 294.10853507 -103.11897174 290.28365719 -103.11352539 286.45874023 C-103.112688 283.72956311 -103.11335704 281.00038685 -103.1139679 278.27120972 C-103.11449333 272.37913498 -103.11134451 266.48707128 -103.10573006 260.59499931 C-103.09761767 252.07595678 -103.09500011 243.55691961 -103.09374207 235.03787363 C-103.09155113 221.21771025 -103.08488993 207.39755276 -103.07543945 193.57739258 C-103.0662664 180.14900746 -103.05918505 166.72062394 -103.05493164 153.29223633 C-103.05453756 152.05153375 -103.05453756 152.05153375 -103.05413551 150.78576647 C-103.05283051 146.63644938 -103.05156679 142.48713228 -103.05032361 138.33781517 C-103.03994971 103.89187254 -103.02233028 69.4459369 -103 35 C-99.21076314 33.56731144 -95.41996944 32.13878562 -91.62890625 30.7109375 C-90.56853149 30.3099585 -89.50815674 29.90897949 -88.41564941 29.49584961 C-81.26712398 26.80641396 -74.08685917 24.27175388 -66.81213379 21.9453125 C-62.4191725 20.52851726 -58.23822096 18.82114781 -54 17 C-50.25463716 15.70958087 -46.48907694 14.49647934 -42.71875 13.28125 C-39.05357186 12.01845753 -35.55439259 10.54418611 -32 9 C-27.34748634 7.17031887 -22.64546366 5.46798208 -17.95654297 3.734375 C-16.19362965 3.07267756 -14.44172038 2.38183949 -12.69140625 1.6875 C-11.26634766 1.130625 -11.26634766 1.130625 -9.8125 0.5625 C-8.99394531 0.23378906 -8.17539063 -0.09492188 -7.33203125 -0.43359375 C-4.46577561 -1.12975299 -2.82196397 -0.83347321 0 0 Z " fill="#FEED00" transform="translate(1069,488)"/>
<path d="M0 0 C0 243.87 0 487.74 0 739 C-11.87101357 743.31673221 -23.76268645 747.5677363 -35.67553711 751.7668457 C-42.45731844 754.15847356 -49.22957886 756.57640814 -56 759 C-64.22513012 761.94433064 -72.45623422 764.87073999 -80.69604492 767.77368164 C-85.01038995 769.29459378 -89.31950125 770.82917033 -93.625 772.375 C-101.00812309 775.01918827 -108.41809336 777.58536812 -115.83056641 780.14599609 C-121.25115945 782.02346285 -126.63514616 783.96897898 -132 786 C-141.57248553 789.48650374 -151.19935719 792.81884878 -160.82836914 796.14526367 C-166.24974052 798.0229456 -171.63390227 799.97004312 -177 802 C-185.20682516 804.97262861 -193.44270708 807.86485184 -201.67480469 810.76660156 C-208.45684264 813.15827543 -215.22933667 815.57632144 -222 818 C-234.78801494 822.57769588 -234.78801494 822.57769588 -240.09765625 824.4375 C-241.52348187 824.93737345 -242.94926267 825.43737479 -244.375 825.9375 C-245.07931152 826.18443604 -245.78362305 826.43137207 -246.50927734 826.68579102 C-252.37520942 828.7540366 -258.19761213 830.93014396 -263.99951172 833.17163086 C-268.78631356 835 -268.78631356 835 -271 835 C-271 591.13 -271 347.26 -271 96 C-263.44341379 92.85142241 -256.12771862 89.91860347 -248.375 87.4375 C-242.29157575 85.48081653 -236.34198735 83.37064992 -230.42431641 80.95727539 C-226.66863829 79.47429313 -222.84190969 78.23802344 -219 77 C-214.27784474 75.45428633 -209.58934905 73.91222877 -205 72 C-199.63398009 69.76415837 -194.11375326 68.02106844 -188.59375 66.2109375 C-184.67533431 64.91786032 -180.8111964 63.5879985 -177 62 C-171.63398009 59.76415837 -166.11375326 58.02106844 -160.59375 56.2109375 C-156.67533431 54.91786032 -152.8111964 53.5879985 -149 52 C-143.63398009 49.76415837 -138.11375326 48.02106844 -132.59375 46.2109375 C-128.67533431 44.91786032 -124.8111964 43.5879985 -121 42 C-115.63398009 39.76415837 -110.11375326 38.02106844 -104.59375 36.2109375 C-100.67533431 34.91786032 -96.8111964 33.5879985 -93 32 C-87.63398009 29.76415837 -82.11375326 28.02106844 -76.59375 26.2109375 C-72.67533431 24.91786032 -68.8111964 23.5879985 -65 22 C-59.63398009 19.76415837 -54.11375326 18.02106844 -48.59375 16.2109375 C-44.67533431 14.91786032 -40.8111964 13.5879985 -37 12 C-31.64445654 9.76852356 -26.13596351 8.02426434 -20.62451172 6.22412109 C-15.63134385 4.58145189 -10.75879782 2.78613667 -5.9453125 0.6640625 C-4 0 -4 0 0 0 Z " fill="#FEED00" transform="translate(415,719)"/>
<path d="M0 0 C1.32 0 2.64 0 4 0 C4 243.87 4 487.74 4 739 C-11.98459168 744.70878274 -11.98459168 744.70878274 -19.1796875 747.2265625 C-20.78386321 747.78903671 -22.38802962 748.35153745 -23.9921875 748.9140625 C-26.44714582 749.77443127 -28.90220032 750.63452332 -31.35742188 751.49414062 C-33.77761176 752.34168538 -36.1974218 753.19030757 -38.6171875 754.0390625 C-39.34130829 754.2922525 -40.06542908 754.5454425 -40.81149292 754.80630493 C-45.56586625 756.47487233 -50.28573479 758.22122055 -55 760 C-57.20635364 760.7971674 -59.4146503 761.58898065 -61.625 762.375 C-62.83414062 762.80554688 -64.04328125 763.23609375 -65.2890625 763.6796875 C-66.51367188 764.11539063 -67.73828125 764.55109375 -69 765 C-71.33345037 765.83300556 -73.66678531 766.66633453 -76 767.5 C-104 777.5 -104 777.5 -107.32763672 778.68798828 C-109.57965535 779.49255869 -111.83135829 780.29801423 -114.08251953 781.10498047 C-120.77378314 783.50140565 -127.47275238 785.87440886 -134.1796875 788.2265625 C-134.97022522 788.50381165 -135.76076294 788.78106079 -136.57525635 789.06671143 C-139.83576033 790.20981041 -143.09643797 791.35241141 -146.35742188 792.49414062 C-148.77761176 793.34168538 -151.1974218 794.19030757 -153.6171875 795.0390625 C-154.34130829 795.2922525 -155.06542908 795.5454425 -155.81149292 795.80630493 C-159.96413745 797.26369307 -164.09235341 798.77484977 -168.20974731 800.32894897 C-170.42068547 801.15768803 -172.64428405 801.94494628 -174.875 802.71875 C-175.71546875 803.01136719 -176.5559375 803.30398438 -177.421875 803.60546875 C-179.140625 804.20182292 -180.859375 804.79817708 -182.578125 805.39453125 C-187.12700075 806.9782656 -191.65430636 808.60276538 -196.15917969 810.30761719 C-198.96893548 811.36444311 -201.7966376 812.36921003 -204.625 813.375 C-206.43871094 814.02082031 -206.43871094 814.02082031 -208.2890625 814.6796875 C-209.51367188 815.11539063 -210.73828125 815.55109375 -212 816 C-214.33345037 816.83300556 -216.66678531 817.66633453 -219 818.5 C-220.16273437 818.91507813 -221.32546875 819.33015625 -222.5234375 819.7578125 C-224.77912091 820.56377579 -227.03435696 821.37099264 -229.2890625 822.1796875 C-232.16383989 823.20975996 -235.04004938 824.23566767 -237.91748047 825.25830078 C-239.45096267 825.80445775 -240.98373714 826.35260285 -242.51611328 826.90185547 C-245.23828487 827.87669051 -247.9627005 828.84503762 -250.6875 829.8125 C-251.56164551 830.12687012 -252.43579102 830.44124023 -253.33642578 830.76513672 C-254.15739746 831.05533691 -254.97836914 831.34553711 -255.82421875 831.64453125 C-256.55729248 831.90596924 -257.29036621 832.16740723 -258.0456543 832.43676758 C-260 833 -260 833 -263 833 C-263 589.46 -263 345.92 -263 95 C-256.60918428 92.44367371 -250.34124154 90.03824858 -243.8125 87.9375 C-239.63282493 86.59186593 -235.53916062 85.23106884 -231.5 83.5 C-227.46048954 81.76878123 -223.36647014 80.41095448 -219.1875 79.0625 C-213.58302223 77.22407771 -208.05917209 75.31532066 -202.60546875 73.0625 C-193.18477818 69.22077911 -183.68128603 65.8330585 -173.93359375 62.921875 C-170.46591595 61.83216533 -167.13959592 60.517585 -163.78125 59.1328125 C-154.29944175 55.27084004 -144.74316989 51.85154033 -134.93359375 48.921875 C-131.46591595 47.83216533 -128.13959592 46.517585 -124.78125 45.1328125 C-115.29752747 41.27006034 -105.73949276 37.84561811 -95.92578125 34.921875 C-92.50574622 33.84426717 -89.24547828 32.51322945 -85.9375 31.13671875 C-81.19207155 29.30038939 -76.3488273 27.75563544 -71.50708008 26.19384766 C-68.09392423 25.08182547 -64.80380416 23.91591607 -61.5 22.5 C-57.46048954 20.76878123 -53.36647014 19.41095448 -49.1875 18.0625 C-43.58302223 16.22407771 -38.05917209 14.31532066 -32.60546875 12.0625 C-23.01057837 8.1497411 -13.3287334 4.65510407 -3.37890625 1.76171875 C-1.06990244 1.22250167 -1.06990244 1.22250167 0 0 Z " fill="#FEED00" transform="translate(1853,208)"/>
<path d="M0 0 C3.90450432 1.30150144 5.3434956 3.74651372 7.6875 6.9375 C8.58773908 8.13601993 9.48878868 9.33393147 10.390625 10.53125 C10.83470703 11.12421875 11.27878906 11.7171875 11.73632812 12.328125 C13.42776454 14.56594504 15.17635406 16.75426123 16.9375 18.9375 C20.05398775 22.80817778 23.12661322 26.71041872 26.1875 30.625 C30.25327079 35.82023079 34.38859145 40.95384175 38.5625 46.0625 C42.98136659 51.47330399 47.30872162 56.94022251 51.54760742 62.49291992 C55.28829469 67.39185625 59.13372808 72.20001304 63 77 C69.3253122 84.87715296 75.62418255 92.77321147 81.85253906 100.72729492 C85.22599274 105.02995977 88.63844784 109.30003813 92.0625 113.5625 C96.15872277 118.66300021 100.17457423 123.81357728 104.14086914 129.01586914 C108.04978917 134.1163155 112.11554716 139.08436231 116.18334961 144.05834961 C120.36315969 149.1821662 124.3971482 154.39755803 128.40625 159.65625 C131.36211063 163.49886881 134.43107807 167.2475131 137.5 171 C142.24855577 176.80623873 146.85853224 182.69106177 151.40625 188.65625 C154.36211063 192.49886881 157.43107807 196.2475131 160.5 200 C165.24855577 205.80623873 169.85853224 211.69106177 174.40625 217.65625 C177.36211063 221.49886881 180.43107807 225.2475131 183.5 229 C188.24855577 234.80623873 192.85853224 240.69106177 197.40625 246.65625 C200.36211063 250.49886881 203.43107807 254.2475131 206.5 258 C211.24855577 263.80623873 215.85853224 269.69106177 220.40625 275.65625 C223.36211063 279.49886881 226.43107807 283.2475131 229.5 287 C234.24855577 292.80623873 238.85853224 298.69106177 243.40625 304.65625 C246.36211063 308.49886881 249.43107807 312.2475131 252.5 316 C256.40905125 320.7797448 260.25632024 325.58945901 264 330.5 C268.35145848 336.20729627 272.85302491 341.77905678 277.39233398 347.33764648 C280.69801491 351.3882696 283.95196719 355.46960464 287.140625 359.61328125 C289.66427181 362.85266823 292.24055348 366.04890962 294.8125 369.25 C298.9917656 374.45434406 303.09310431 379.70657692 307.13989258 385.01464844 C311.04921286 390.11544706 315.11521508 395.08395625 319.18334961 400.05834961 C323.36315969 405.1821662 327.3971482 410.39755803 331.40625 415.65625 C334.36211063 419.49886881 337.43107807 423.2475131 340.5 427 C345.24855577 432.80623873 349.85853224 438.69106177 354.40625 444.65625 C357.36211063 448.49886881 360.43107807 452.2475131 363.5 456 C368.24855577 461.80623873 372.85853224 467.69106177 377.40625 473.65625 C380.36211063 477.49886881 383.43107807 481.2475131 386.5 485 C391.24855577 490.80623873 395.85853224 496.69106177 400.40625 502.65625 C403.36211063 506.49886881 406.43107807 510.2475131 409.5 514 C414.23661216 519.79163482 418.84281673 525.65465744 423.36328125 531.6171875 C425.36142176 534.2181409 427.43711738 536.74334637 429.54296875 539.2578125 C430.14689453 539.98291016 430.75082031 540.70800781 431.37304688 541.45507812 C432.5648574 542.88037575 433.76516122 544.29862243 434.97460938 545.70898438 C435.51279297 546.35416016 436.05097656 546.99933594 436.60546875 547.6640625 C437.09168701 548.23592285 437.57790527 548.8077832 438.07885742 549.39697266 C438.38283447 549.92597168 438.68681152 550.4549707 439 551 C438.67 551.99 438.34 552.98 438 554 C435.37019025 555.12321031 432.83647107 556.06128276 430.125 556.9375 C428.55846133 557.4657533 426.99205487 557.99439883 425.42578125 558.5234375 C424.66217285 558.77706055 423.89856445 559.03068359 423.11181641 559.29199219 C420.49455391 560.16945591 417.90232316 561.10733284 415.3125 562.0625 C407.43016404 564.94281224 399.52543772 567.76069746 391.609375 570.546875 C390.86381348 570.80936035 390.11825195 571.0718457 389.35009766 571.34228516 C387.91255241 571.84796544 386.47474487 572.35290097 385.03662109 572.85693359 C381.68553721 574.03525695 378.3467756 575.23757434 375.0234375 576.4921875 C370.16260543 578.32644132 365.25933616 580.03498626 360.35546875 581.75 C356.18646401 583.21334353 352.04028274 584.72503096 347.90673828 586.28564453 C345.01228582 587.37004503 342.10020752 588.40330233 339.1875 589.4375 C334.95328655 590.94489799 330.72228926 592.45951928 326.5 594 C318.55330813 596.89602473 310.58755579 599.73883408 302.609375 602.546875 C301.86381348 602.80936035 301.11825195 603.0718457 300.35009766 603.34228516 C298.91255241 603.84796544 297.47474487 604.35290097 296.03662109 604.85693359 C292.68553721 606.03525695 289.3467756 607.23757434 286.0234375 608.4921875 C281.16260543 610.32644132 276.25933616 612.03498626 271.35546875 613.75 C267.89015548 614.96634396 264.43590003 616.20266902 261 617.5 C256.14722372 619.33231671 251.25157327 621.03770115 246.35546875 622.75 C242.18646401 624.21334353 238.04028274 625.72503096 233.90673828 627.28564453 C231.01228582 628.37004503 228.10020752 629.40330233 225.1875 630.4375 C220.95328655 631.94489799 216.72228926 633.45951928 212.5 635 C204.47331611 637.92517635 196.4311855 640.80763502 188.36328125 643.6171875 C187.19756592 644.02445068 187.19756592 644.02445068 186.00830078 644.43994141 C184.48018365 644.97331955 182.95122981 645.5043075 181.42138672 646.03271484 C177.94178123 647.04310617 177.94178123 647.04310617 175 649 C172.80859375 649.4921875 172.80859375 649.4921875 170 649 C167.67574538 646.98742703 165.91050969 644.57082832 164.0625 642.125 C163.50111328 641.40828125 162.93972656 640.6915625 162.36132812 639.953125 C160.5594866 637.64644859 158.77941891 635.32400117 157 633 C155.83348769 631.49626488 154.6655321 629.9936482 153.49609375 628.4921875 C151.74163609 626.23911773 149.98850551 623.98513839 148.24145508 621.72631836 C144.31433168 616.65439784 140.31173316 611.65210733 136.25 606.6875 C131.54392616 600.93406782 126.96095936 595.10589366 122.44921875 589.19921875 C115.92620239 580.66023596 109.23339391 572.26038236 102.4375 563.9375 C98.53327288 559.15602114 94.68125062 554.34577087 90.9375 549.4375 C87.37116242 544.76317404 83.74393535 540.14666279 80.0625 535.5625 C73.86430912 527.84444622 67.7488714 520.06362744 61.64550781 512.27050781 C53.81850465 502.27966792 45.92072528 492.34713328 37.95703125 482.46484375 C33.04228056 476.35546283 28.23654057 470.16419877 23.43212891 463.96801758 C19.03667732 458.30856457 14.5881952 452.69480588 10.08300781 447.12231445 C9.19948878 446.02613739 8.32742565 444.92058591 7.46941054 443.80433321 C6.05629766 441.99033407 6.05629766 441.99033407 4.44736326 440.52813673 C-1.9451249 433.80872219 -0.81495616 425.21051328 -0.7215271 416.56164551 C-0.72414477 414.76457215 -0.72940048 412.96750103 -0.7370621 411.1704421 C-0.75046604 406.23993952 -0.72649619 401.31022028 -0.69639373 396.37981749 C-0.67047246 391.06020884 -0.67925194 385.74064403 -0.68380737 380.42098999 C-0.68695283 371.20692995 -0.66813482 361.99312492 -0.63438034 352.77912903 C-0.58560903 339.45729746 -0.56999072 326.13558914 -0.56245239 312.81367797 C-0.54932204 291.19960865 -0.50939618 269.58567522 -0.45263672 247.97167969 C-0.39755898 226.97624389 -0.35509015 205.98084502 -0.32958984 184.98535156 C-0.3280135 183.69109727 -0.32643716 182.39684298 -0.32481305 181.06336886 C-0.3169828 174.57044724 -0.30940056 168.07752536 -0.30194163 161.58460331 C-0.2397457 107.72297495 -0.13407053 53.86149411 0 0 Z " fill="#FEED00" transform="translate(461,732)"/>
<path d="M0 0 C0 230.01 0 460.02 0 697 C-5.63022508 691.36977492 -5.63022508 691.36977492 -7.65625 688.828125 C-8.11467285 688.25489502 -8.5730957 687.68166504 -9.04541016 687.09106445 C-9.5254248 686.48351318 -10.00543945 685.87596191 -10.5 685.25 C-11.01481934 684.60313232 -11.52963867 683.95626465 -12.06005859 683.28979492 C-16.54184016 677.63453513 -20.90720491 671.89266462 -25.27001953 666.14550781 C-29.30984484 660.84589968 -33.50745608 655.71282938 -37.8046875 650.62109375 C-40.98000755 646.82991981 -43.99644848 642.92772121 -47 639 C-55.36176539 628.10087132 -63.77427166 617.24645441 -72.3840332 606.54150391 C-77.81333309 599.79021795 -83.11364156 592.95357446 -88.35498047 586.05541992 C-92.01001509 581.25798112 -95.77807971 576.5757828 -99.62890625 571.93359375 C-102.64470819 568.20234621 -105.53879673 564.38500266 -108.4375 560.5625 C-113.07989763 554.44450719 -117.85089199 548.49078393 -122.8046875 542.62109375 C-125.98000755 538.82991981 -128.99644848 534.92772121 -132 531 C-133.58271088 528.93701824 -135.16588032 526.87439925 -136.75 524.8125 C-137.17224854 524.26271484 -137.59449707 523.71292969 -138.02954102 523.14648438 C-142.51223554 517.31856137 -147.05817384 511.5409759 -151.60888672 505.76611328 C-153.90874237 502.84628952 -156.20415945 499.92298107 -158.5 497 C-159.4166451 495.83331639 -160.33331177 494.66664973 -161.25 493.5 C-166.75 486.5 -166.75 486.5 -168.12475586 484.75024414 C-169.04215009 483.5826959 -169.95963067 482.41521551 -170.87719727 481.24780273 C-173.15844245 478.3451721 -175.43821214 475.44140726 -177.71484375 472.53515625 C-181.91032505 467.1826387 -186.11894515 461.84276987 -190.38183594 456.54370117 C-195.23645059 450.50877062 -200.00083587 444.41644759 -204.6875 438.25 C-208.94336087 432.65090647 -213.28030596 427.14495885 -217.765625 421.7265625 C-221.7854045 416.8213071 -225.67310091 411.81152142 -229.57958984 406.81591797 C-231.94547465 403.79126153 -234.31601948 400.77027014 -236.6875 397.75 C-237.14809814 397.1631543 -237.60869629 396.57630859 -238.08325195 395.97167969 C-240.72380806 392.61123008 -243.38348132 389.26744491 -246.0625 385.9375 C-250.3216007 380.63322122 -254.54788132 375.27862915 -258.54383087 369.77187157 C-259.97690262 367.91265422 -259.97690262 367.91265422 -261.98052216 366.3656559 C-267.32434581 361.35748953 -268.49913898 357.05953725 -268.88811588 349.92714381 C-269.02338879 344.15875844 -268.97810052 338.39938248 -268.90820312 332.63037109 C-268.90594514 330.02794464 -268.90721591 327.42551309 -268.91174316 324.8230896 C-268.91592473 319.23207185 -268.89096654 313.64180475 -268.84584045 308.0509758 C-268.78064065 299.96785402 -268.75997044 291.88509277 -268.74993652 283.80173655 C-268.73245594 270.68516452 -268.67929448 257.56899201 -268.60351562 244.45263672 C-268.53000929 231.71632883 -268.47341845 218.98012971 -268.43945312 206.24365234 C-268.43735134 205.45771275 -268.43524955 204.67177315 -268.43308407 203.8620172 C-268.42264327 199.91892941 -268.41253373 195.97584086 -268.40258884 192.0327518 C-268.31974375 159.3548771 -268.17891691 126.67749214 -268 94 C-266.55726159 93.35065079 -265.1136533 92.70323406 -263.66967773 92.05664062 C-262.86586166 91.69590454 -262.06204559 91.33516846 -261.23387146 90.96350098 C-258.87638343 89.94668239 -256.54229271 89.16244023 -254.0625 88.5 C-250.75266463 87.56749929 -247.60582299 86.48061457 -244.43359375 85.15625 C-237.70854867 82.42959409 -230.82021868 80.24108627 -223.921875 78 C-219.22222688 76.45755139 -214.57925652 74.8726672 -210 73 C-203.42700248 70.31200102 -196.67218178 68.19299307 -189.921875 66 C-185.22222688 64.45755139 -180.57925652 62.8726672 -176 61 C-169.42700248 58.31200102 -162.67218178 56.19299307 -155.921875 54 C-151.22222688 52.45755139 -146.57925652 50.8726672 -142 49 C-135.42700248 46.31200102 -128.67218178 44.19299307 -121.921875 42 C-117.21936542 40.45661224 -112.57403026 38.87040091 -107.9921875 36.99609375 C-102.45989776 34.73348663 -96.80864721 32.90392947 -91.125 31.0625 C-81.88792229 28.05111407 -81.88792229 28.05111407 -72.875 24.4375 C-66.4622344 21.61282944 -59.78182031 19.6321447 -53.08935547 17.58569336 C-47.73448063 15.93408667 -42.54275386 14.07841137 -37.35791016 11.95288086 C-33.86160958 10.5399526 -30.31237914 9.29709356 -26.75 8.0625 C-25.28239141 7.55124224 -23.81494611 7.03951553 -22.34765625 6.52734375 C-21.62336426 6.27452637 -20.89907227 6.02170898 -20.15283203 5.76123047 C-18.07306212 5.02583439 -16.00232384 4.26974638 -13.93359375 3.50390625 C-12.07927734 2.82134766 -12.07927734 2.82134766 -10.1875 2.125 C-9.08792969 1.71507812 -7.98835938 1.30515625 -6.85546875 0.8828125 C-4 0 -4 0 0 0 Z " fill="#FEED00" transform="translate(922,540)"/>
<path d="M0 0 C0 230.01 0 460.02 0 697 C-0.66 697 -1.32 697 -2 697 C-3.87052715 694.68164306 -5.63283963 692.34995527 -7.375 689.9375 C-11.45575067 684.38651968 -15.60163833 678.91677996 -19.9375 673.5625 C-24.27819578 668.19146951 -28.51065975 662.74939485 -32.6875 657.25 C-36.9392087 651.65594206 -41.27121201 646.1543211 -45.75390625 640.7421875 C-48.88896778 636.9146863 -51.93386474 633.01886058 -54.98266602 629.12255859 C-57.65416903 625.70951792 -60.34416129 622.31350131 -63.0625 618.9375 C-66.00933223 615.26740875 -68.89096552 611.55110804 -71.75 607.8125 C-75.37479584 603.07297447 -79.06957511 598.39670581 -82.8125 593.75 C-87.19021183 588.31347297 -91.46480579 582.80770195 -95.6875 577.25 C-100.65686811 570.71232158 -105.76527126 564.32780429 -111 558 C-115.78911713 552.10351785 -120.46073315 546.12192584 -125.08227539 540.09375 C-131.42007153 531.8338452 -137.85908759 523.65429767 -144.3840332 515.54150391 C-149.23715118 509.50669502 -154.00145311 503.41563546 -158.6875 497.25 C-162.93941804 491.65609373 -167.27120355 486.1543313 -171.75390625 480.7421875 C-174.88896778 476.9146863 -177.93386474 473.01886058 -180.98266602 469.12255859 C-183.65416903 465.70951792 -186.34416129 462.31350131 -189.0625 458.9375 C-192.00933223 455.26740875 -194.89096552 451.55110804 -197.75 447.8125 C-201.37479584 443.07297447 -205.06957511 438.39670581 -208.8125 433.75 C-213.19020868 428.31347688 -217.46493198 422.80779418 -221.6875 417.25 C-225.89336475 411.71444394 -230.1897182 406.2850553 -234.62890625 400.93359375 C-237.64470819 397.20234621 -240.53879673 393.38500266 -243.4375 389.5625 C-248.06807296 383.46009035 -252.82296221 377.51831549 -257.76953125 371.66796875 C-260.50830098 368.39199726 -263.12689043 365.03429602 -265.72265625 361.64453125 C-266.89918 360.05925742 -266.89918 360.05925742 -268 359 C-268.0965762 357.58214294 -268.1237185 356.15949116 -268.12304783 354.73834896 C-268.12503888 353.81325808 -268.12702993 352.88816721 -268.12908131 351.93504328 C-268.12471205 350.39276059 -268.12471205 350.39276059 -268.12025452 348.81932068 C-268.12110894 347.73632488 -268.12196337 346.65332908 -268.12284368 345.53751522 C-268.12450169 341.878428 -268.11897189 338.21938579 -268.11352539 334.56030273 C-268.11324356 331.949351 -268.11340117 329.33839919 -268.1139679 326.72744751 C-268.11449332 321.09074366 -268.11134464 315.45405134 -268.10573006 309.81735039 C-268.09761749 301.66753691 -268.09500009 293.51772903 -268.09374207 285.36791194 C-268.09155116 272.14672003 -268.08489004 258.92553427 -268.07543945 245.7043457 C-268.06626633 232.85799185 -268.05918501 220.01163967 -268.05493164 207.1652832 C-268.05466892 206.3739921 -268.05440619 205.58270099 -268.05413551 204.76743137 C-268.05283051 200.79792313 -268.05156679 196.82841488 -268.05032361 192.85890663 C-268.0399498 159.90593327 -268.02233044 126.95296746 -268 94 C-266.67391724 93.59950439 -266.67391724 93.59950439 -265.32104492 93.19091797 C-264.15677979 92.83658691 -262.99251465 92.48225586 -261.79296875 92.1171875 C-260.64078857 91.76769043 -259.4886084 91.41819336 -258.30151367 91.05810547 C-255.57379214 90.18389522 -252.95167223 89.23150847 -250.3125 88.125 C-244.89815934 85.8741939 -239.34843138 84.07886159 -233.77075195 82.28173828 C-229.8166706 80.99387497 -225.94523943 79.60149589 -222.09375 78.03125 C-216.11036501 75.59905486 -209.99772176 73.63146391 -203.85546875 71.64453125 C-198.77344191 69.98063802 -193.80702823 68.15769651 -188.85400391 66.14404297 C-177.09562024 61.43063101 -165.16197379 57.3096309 -153.125 53.375 C-144.30896003 50.49237113 -135.57199059 47.55948849 -127 44 C-117.66298872 40.30108914 -108.24145538 37.07407032 -98.64892578 34.10986328 C-93.89918184 32.63218675 -89.30016078 30.99655288 -84.71484375 29.0625 C-80.13565745 27.27035802 -75.4487071 25.78898913 -70.76928711 24.28125 C-66.81569236 22.9935652 -62.94475899 21.60130001 -59.09375 20.03125 C-53.11036501 17.59905486 -46.99772176 15.63146391 -40.85546875 13.64453125 C-35.61701065 11.92942126 -30.49239674 10.04909433 -25.38818359 7.96826172 C-21.804751 6.51539996 -18.18554712 5.16281282 -14.5625 3.8125 C-13.86962891 3.55275391 -13.17675781 3.29300781 -12.46289062 3.02539062 C-4.37172965 0 -4.37172965 0 0 0 Z " fill="#FEED00" transform="translate(1544,319)"/>
</svg>
