<?xml version="1.0" encoding="UTF-8"?>
<svg version="1.1" xmlns="http://www.w3.org/2000/svg" width="1620" height="2000">
<path d="M0 0 C25.64035178 0.4434652 56.49956436 23.93808912 75.4375 39.4375 C76.36433594 40.17355469 77.29117187 40.90960938 78.24609375 41.66796875 C88.82853705 50.14893395 98.54393141 59.44467034 108.16220093 68.98696899 C109.58309002 70.39594151 111.00791788 71.80093847 112.43286133 73.20581055 C118.54080972 79.30612605 124.05040068 85.6990628 129.4375 92.4375 C130.36095469 93.52726335 131.2905619 94.61189421 132.23046875 95.6875 C188.68110563 160.51824774 224.61069785 246.87453616 255.640625 440.51953125 C255.64345238 441.37233862 255.64627975 442.22514599 255.64919281 443.10379601 C255.66410044 447.63406036 255.67337804 452.16429368 255.67773438 456.69458008 C255.68208131 460.36427967 255.69583696 464.03373915 255.71875 467.70336914 C255.86007145 490.81733187 255.21664336 513.47301133 252.4375 536.4375 C252.33507996 537.31135345 252.23265991 538.18520691 252.12713623 539.08554077 C251.58951799 543.61405028 250.95799341 548.11938863 250.25 552.625 C250.14934235 553.27608734 250.04868469 553.92717468 249.94497681 554.59799194 C239.50744645 621.60814851 216.9357628 686.31925529 184.0234375 745.55517578 C181.75046822 749.6861295 179.54002666 753.84969229 177.32324219 758.01098633 C171.6197088 768.70550685 165.70623548 779.24063491 159.54736328 789.67919922 C155.71138489 796.19789043 152.02527197 802.77927384 148.4375 809.4375 C143.77299785 818.08332746 138.90253468 826.58860131 133.92749023 835.05908203 C129.39553051 842.77855099 124.93218598 850.53546745 120.5 858.3125 C113.47129974 870.63997381 106.39229644 882.93771876 99.29199219 895.22412109 C97.4329586 898.44536913 95.57903837 901.66950815 93.7265625 904.89453125 C86.71290024 917.09644505 79.61060542 929.24006032 72.41601562 941.33618164 C67.25386834 950.0275904 62.18628153 958.77031904 57.14794922 967.53393555 C52.49071216 975.62848344 47.78967048 983.69618244 43.0625 991.75 C42.70842072 992.35326111 42.35434143 992.95652222 41.98953247 993.57806396 C40.19180781 996.6404157 38.39340768 999.70237012 36.59472656 1002.76416016 C33.39185371 1008.21693268 30.19486373 1013.67315306 26.99743652 1019.12911987 C25.9376655 1020.93721763 24.87757516 1022.74512778 23.81738281 1024.55297852 C20.6079826 1030.02599381 17.40005034 1035.49984711 14.19871521 1040.97758484 C6.50537472 1054.1412194 -1.23814824 1067.26953504 -9.10546875 1080.33032227 C-13.95628428 1088.39544814 -18.71409251 1096.51197805 -23.4453125 1104.64770508 C-33.22841264 1121.46996562 -43.18700025 1138.1892022 -53.12719727 1154.91894531 C-57.22490295 1161.81559363 -61.31967586 1168.71393635 -65.40625 1175.6171875 C-73.73329473 1189.67866047 -82.10901425 1203.70724141 -90.61694336 1217.66015625 C-93.79509158 1222.873875 -96.96221881 1228.09254208 -100.078125 1233.34375 C-100.61832275 1234.25286133 -101.15852051 1235.16197266 -101.71508789 1236.09863281 C-102.69219724 1237.74667918 -103.66574146 1239.39684832 -104.63452148 1241.04980469 C-107.63383472 1246.10491461 -110.94634901 1250.80418401 -114.5625 1255.4375 C-118.43585106 1254.16852418 -120.27699522 1253.06186298 -122.43359375 1249.6015625 C-123.1913208 1248.38968262 -123.1913208 1248.38968262 -123.96435547 1247.15332031 C-126.9442119 1242.0894763 -129.80412646 1236.96636015 -132.625 1231.8125 C-133.95784771 1229.392242 -135.29350538 1226.97353746 -136.62890625 1224.5546875 C-136.96221954 1223.95005676 -137.29553284 1223.34542603 -137.63894653 1222.72247314 C-140.73880107 1217.10386241 -143.89420868 1211.51771095 -147.0625 1205.9375 C-152.3962713 1196.53075653 -157.65927471 1187.08600033 -162.90405273 1177.62939453 C-168.84882382 1166.91277059 -174.83473889 1156.21949034 -180.82861328 1145.53027344 C-183.7418914 1140.33379255 -186.65202827 1135.13555304 -189.5625 1129.9375 C-190.7291518 1127.85415834 -191.89581846 1125.77082501 -193.0625 1123.6875 C-195.39583333 1119.52083333 -197.72916667 1115.35416667 -200.0625 1111.1875 C-200.63991943 1110.15641113 -201.21733887 1109.12532227 -201.81225586 1108.06298828 C-202.97979579 1105.97806064 -204.14727619 1103.89309966 -205.31469727 1101.80810547 C-208.21751752 1096.62389101 -211.12134467 1091.44024583 -214.02734375 1086.2578125 C-220.08310086 1075.45546688 -226.11858874 1064.64236987 -232.125 1053.8125 C-237.25549109 1044.562997 -242.43154068 1035.34099883 -247.64868164 1026.14013672 C-252.47654294 1017.61501252 -257.22951103 1009.0490798 -261.97875977 1000.47998047 C-265.95046588 993.32039718 -269.95871647 986.18300591 -274 979.0625 C-284.60340583 960.36054612 -295.01621876 941.5359533 -305.15844727 922.57958984 C-307.43050472 918.3336395 -309.71996895 914.12361431 -312.21484375 910.00390625 C-312.60607422 909.33794434 -312.99730469 908.67198242 -313.40039062 907.98583984 C-314.40016511 906.29394794 -315.43087145 904.62043044 -316.46484375 902.94921875 C-318.90782202 895.13342705 -315.02058697 886.07256834 -312.46484375 878.55078125 C-312.15919998 877.63254074 -311.85355621 876.71430023 -311.53865051 875.76823425 C-310.53398451 872.75932961 -309.51759866 869.75455339 -308.5 866.75 C-307.77949424 864.60681391 -307.05911918 862.46358388 -306.33886719 860.3203125 C-299.40130002 839.74018075 -292.16351481 819.26824674 -284.84570312 798.82080078 C-282.43694717 792.09007749 -280.03870794 785.3556255 -277.640625 778.62109375 C-269.83380535 756.70746927 -261.98948543 734.80795281 -254.0625 712.9375 C-237.42477856 667.03182617 -221.12923373 621.00305575 -204.81835938 574.98046875 C-203.26015581 570.58454144 -201.7010682 566.18892801 -200.141922 561.79333496 C-192.01190076 538.87145832 -183.91682116 515.9375142 -175.85165405 492.99273682 C-170.32055009 477.25755278 -164.76520602 461.53121953 -159.1875 445.8125 C-152.5106904 426.99607252 -145.90662897 408.15458462 -139.32080841 389.30617523 C-133.44826565 372.49978215 -127.54461582 355.7052521 -121.5625 338.9375 C-101.01870107 281.33469979 -81.00661844 223.53818131 -61.34672546 165.62831116 C-59.36127788 159.78209661 -57.36828292 153.93853225 -55.3671875 148.09765625 C-54.57553306 145.7859798 -53.78391112 143.47429222 -52.99230957 141.16259766 C-52.45525253 139.59435524 -51.91806151 138.02615871 -51.3807373 136.45800781 C-47.28883407 124.50904641 -43.2493363 112.54286912 -39.23078537 100.56908417 C-37.53337119 95.51314784 -35.83317836 90.45814471 -34.13331795 85.4030304 C-32.72906684 81.2257666 -31.32693368 77.04781759 -29.92999268 72.86810303 C-23.7978236 54.52337324 -17.49592288 36.25763398 -10.8125 18.10546875 C-10.3494194 16.84514045 -10.3494194 16.84514045 -9.87698364 15.55935097 C-9.01032222 13.20505265 -8.13912295 10.85250168 -7.265625 8.50073242 C-7.00585373 7.7964253 -6.74608246 7.09211819 -6.47843933 6.36646843 C-4.29522931 0.5274843 -4.29522931 0.5274843 0 0 Z " fill="#FCEE21" transform="translate(1364.5625,-0.4375)"/>
<path d="M0 0 C1.09272217 0.03311279 1.09272217 0.03311279 2.20751953 0.06689453 C3.15667236 0.09565674 3.15667236 0.09565674 4.125 0.125 C8.56077733 10.93292488 12.59951729 21.84176471 16.4375 32.875 C16.73124512 33.71604279 17.02499023 34.55708557 17.32763672 35.4236145 C23.32497538 52.60558326 29.07620931 69.86818959 34.80810547 87.14013672 C39.71558742 101.92492258 44.69681 116.68206742 49.74829102 131.41821289 C50.32179721 133.09130178 50.8952833 134.76439757 51.46875 136.4375 C51.75729355 137.27917221 52.0458371 138.12084442 52.34312439 138.98802185 C54.73318911 145.96616344 57.10323491 152.95100256 59.46875 159.9375 C68.28569716 185.97392837 77.20273001 211.97075472 86.29833984 237.91113281 C89.10281669 245.91194678 91.89220394 253.91802704 94.68310547 261.92358398 C95.93947251 265.52692802 97.19659584 269.13000802 98.45370483 272.73309326 C101.20391526 280.61573926 103.95246086 288.49896281 106.69921875 296.3828125 C126.78073233 354.02297141 126.78073233 354.02297141 147.20019531 411.54394531 C150.98899086 422.12128113 154.75197301 432.7075537 158.49609375 443.30078125 C158.73286142 443.97064308 158.9696291 444.64050491 159.21357155 445.33066559 C161.18302914 450.90299838 163.15185423 456.47555465 165.12070084 462.04810333 C172.07055004 481.7174637 179.06611478 501.36943606 186.125 521 C192.07799968 537.5565449 197.95335477 554.13709713 203.72683716 570.75708008 C208.45151537 584.35746149 213.23271018 597.93658134 218.0625 611.5 C218.56206207 612.90307907 218.56206207 612.90307907 219.07171631 614.33450317 C221.08902515 619.99924541 223.10804156 625.66337797 225.12756348 631.32733154 C228.06679717 639.57146659 231.00295779 647.81669397 233.9375 656.0625 C234.26390472 656.97926514 234.59030945 657.89603027 234.92660522 658.84057617 C238.86108315 669.8938106 242.77289189 680.95466901 246.65234375 692.02734375 C254.66097293 714.87895655 262.74944421 737.6946405 271.0625 760.4375 C281.34517914 788.57561987 291.28881285 816.82805356 301.125 845.125 C301.78254251 847.01416349 302.44009412 848.90332381 303.09765625 850.79248047 C304.52750145 854.90330905 305.95233429 859.01583399 307.37182617 863.13024902 C307.86052848 864.54621843 308.35021595 865.96184834 308.84106445 867.3770752 C318.92704539 896.49256386 318.92704539 896.49256386 315.99853516 904.02075195 C315.47565918 904.95878662 314.9527832 905.89682129 314.4140625 906.86328125 C313.83406494 907.92087646 313.25406738 908.97847168 312.65649414 910.06811523 C312.02735107 911.18001221 311.39820801 912.29190918 310.75 913.4375 C310.09951558 914.61133307 309.45035824 915.78590248 308.80249023 916.96118164 C306.92547094 920.35784757 305.02517837 923.74123484 303.125 927.125 C302.24694221 928.70996613 301.3703943 930.29577071 300.49609375 931.8828125 C298.51846989 935.46805584 296.52401209 939.04361548 294.52539062 942.6171875 C291.65336618 947.76039446 288.79719013 952.91242849 285.9375 958.0625 C284.64198263 960.39456214 283.3464159 962.72659678 282.05078125 965.05859375 C281.39403951 966.24072074 280.73730123 967.42284964 280.08056641 968.60498047 C278.17220052 972.04003906 276.26383464 975.47509766 274.35546875 978.91015625 C273.73937744 980.01915283 273.12328613 981.12814941 272.48852539 982.27075195 C271.24433252 984.51023393 270.0000288 986.74965432 268.75561523 988.98901367 C265.60270026 994.66310977 262.45179305 1000.33830442 259.3046875 1006.015625 C252.92877353 1017.51317478 246.52017303 1028.99017658 240.03637695 1040.42724609 C235.23727855 1048.90260738 230.50735108 1057.41566279 225.78344727 1065.93310547 C219.84184652 1076.64401424 213.85866539 1087.33130879 207.86767578 1098.01464844 C206.09549866 1101.17765439 204.32660601 1104.34247686 202.55859375 1107.5078125 C196.64430606 1118.09246814 190.69636938 1128.65526881 184.66357422 1139.17285156 C180.16434518 1147.02827031 175.74757239 1154.9288904 171.33374023 1162.83251953 C167.65627586 1169.4105833 163.9405788 1175.9648259 160.1875 1182.5 C155.61782567 1190.46185834 151.13728342 1198.47056268 146.6875 1206.5 C141.85273701 1215.21927698 137.0121636 1223.93495619 132.125 1232.625 C131.37005249 1233.97537354 131.37005249 1233.97537354 130.59985352 1235.35302734 C127.95620834 1240.04165745 125.23785427 1244.68444204 122.4375 1249.28125 C121.87675781 1250.20744141 121.31601562 1251.13363281 120.73828125 1252.08789062 C120.20589844 1252.76013672 119.67351562 1253.43238281 119.125 1254.125 C116.125 1254.125 116.125 1254.125 114.72265625 1252.82421875 C108.24341879 1244.33361495 102.73462018 1235.200676 97.125 1226.125 C96.21717773 1224.65933594 96.21717773 1224.65933594 95.29101562 1223.1640625 C90.90051697 1216.07067722 86.53277343 1208.96347948 82.17895508 1201.84753418 C81.47783239 1200.70165252 80.77649865 1199.55589996 80.07495117 1198.41027832 C71.42820857 1184.28967901 62.90247089 1170.1073251 54.56277466 1155.80307007 C49.34271444 1146.85248918 44.02537064 1137.96787202 38.625 1129.125 C32.01106827 1118.29411655 25.54930506 1107.38160839 19.15063477 1096.42236328 C15.16113336 1089.59061703 11.14512941 1082.77666166 7.0625 1076 C-3.59762522 1058.30082539 -14.08301919 1040.49889671 -24.51174927 1022.66271973 C-29.45040214 1014.21910309 -34.4479039 1005.81393629 -39.5 997.4375 C-45.17652801 988.02196842 -50.70815384 978.53098544 -56.18017578 968.99536133 C-60.67958518 961.16554687 -65.25724438 953.38553458 -69.875 945.625 C-77.02821171 933.5964875 -84.04541051 921.4938881 -91.01611328 909.35888672 C-94.12888221 903.9436336 -97.25255019 898.53467474 -100.375 893.125 C-101.62633499 890.95574815 -102.87763709 888.78647732 -104.12890625 886.6171875 C-106.61430902 882.30898349 -109.10141977 878.00177211 -111.58984375 873.6953125 C-124.01757259 852.18339689 -136.41195917 830.65926913 -148.43920898 808.92041016 C-152.39394101 801.77506485 -156.39932969 794.66095189 -160.4375 787.5625 C-171.17897981 768.63397693 -181.4063163 749.40995273 -191.36425781 730.05859375 C-192.38850783 728.06968163 -193.41662901 726.08275921 -194.44824219 724.09765625 C-235.70546577 644.54269382 -254.30632158 560.07721671 -254.13574219 470.91088867 C-254.12435495 464.899243 -254.13111663 458.88777447 -254.14261532 452.87613487 C-254.2409726 392.50873598 -254.2409726 392.50873598 -249.8125 367.875 C-249.60262451 366.66996826 -249.39274902 365.46493652 -249.17651367 364.22338867 C-232.546043 271.9524096 -199.14965413 177.80668812 -139.875 104.125 C-139.153125 103.22265625 -138.43125 102.3203125 -137.6875 101.390625 C-135.44096408 98.61454847 -133.15971823 95.8697031 -130.875 93.125 C-130.11058594 92.17367187 -129.34617187 91.22234375 -128.55859375 90.2421875 C-121.49865372 81.59930738 -113.6790495 73.71258019 -105.8125 65.8125 C-105.25805206 65.25287567 -104.70360413 64.69325134 -104.13235474 64.1166687 C-97.04856477 56.98084684 -89.78971392 50.34973942 -81.875 44.125 C-80.70551595 43.17243025 -79.5373102 42.21828619 -78.37109375 41.26171875 C-25.86452221 -0.7837734 -25.86452221 -0.7837734 0 0 Z " fill="#FCEE21" transform="translate(253.875,-0.125)"/>
<path d="M0 0 C4.42007872 1.48538023 6.04110829 4.83171045 8.23046875 8.66796875 C8.62518875 9.33983719 9.01990875 10.01170563 9.42658997 10.70393372 C10.69013672 12.85950929 11.93909304 15.02312785 13.1875 17.1875 C14.007483 18.5936712 14.82843794 19.99927611 15.65039062 21.40429688 C16.88251283 23.51149943 18.11351079 25.61930258 19.34030151 27.72961426 C22.06093202 32.40888567 24.82065938 37.0625854 27.61328125 41.69921875 C31.79523639 48.64361944 35.90856158 55.62687028 40 62.625 C40.73218277 63.87610262 41.46444389 65.1271594 42.19677734 66.37817383 C43.33106387 68.31584038 44.46529425 70.2535395 45.59921265 72.19142151 C48.17916058 76.60012105 50.76396272 81.00594413 53.3515625 85.41015625 C60.80099988 98.09244457 68.20992078 110.79612287 75.54736328 123.54370117 C79.67369523 130.71028645 83.82702236 137.86048394 88 145 C93.49950027 154.40987685 98.95449215 163.84470595 104.39453125 173.2890625 C108.57349128 180.5395149 112.77740506 187.77488269 117 195 C122.49945536 204.4099033 127.95449196 213.84470563 133.39453125 223.2890625 C137.57349128 230.5395149 141.77740506 237.77488269 146 245 C151.49945536 254.4099033 156.95449196 263.84470563 162.39453125 273.2890625 C167.13978593 281.52203025 171.92052551 289.73372212 176.71728516 297.93676758 C181.78093902 306.60392873 186.78349558 315.30574329 191.78344727 324.00976562 C195.64949119 330.71974274 199.60317835 337.35231267 203.77734375 343.875 C205 346 205 346 205 348 C207.64583597 345.60875126 209.25831255 343.06354927 211.01171875 339.96875 C211.59622803 338.94475098 212.1807373 337.92075195 212.78295898 336.86572266 C213.41145752 335.75503418 214.03995605 334.6443457 214.6875 333.5 C216.04397363 331.12073297 217.40451114 328.74380242 218.765625 326.3671875 C219.11515732 325.75612152 219.46468964 325.14505554 219.82481384 324.51547241 C223.45786202 318.17627987 227.19478636 311.8999431 230.9375 305.625 C236.7344059 295.88997485 242.40328338 286.09108561 247.99972534 276.24029541 C252.90842351 267.60449787 257.91402809 259.03313064 263 250.5 C268.46894535 241.3224219 273.84149347 232.09750217 279.125 222.8125 C285.76846103 211.1382599 292.50001247 199.51837049 299.28662109 187.92675781 C302.17381184 182.99491931 305.05639926 178.0603982 307.9375 173.125 C308.5140332 172.13765869 309.09056641 171.15031738 309.68457031 170.13305664 C313.94224304 162.83359744 318.16198883 155.51280095 322.375 148.1875 C328.17107516 138.11385358 334.07046211 128.10532295 340.01245117 118.1171875 C344.63125637 110.34145901 349.1801206 102.5282924 353.6875 94.6875 C359.75816052 84.13058054 365.90824515 73.62480651 372.12744141 63.15478516 C373.87100274 60.21732759 375.61153121 57.27810067 377.35108948 54.33827209 C402.98105588 11.02841618 402.98105588 11.02841618 409 2 C410.7265625 2.1015625 410.7265625 2.1015625 413 3 C414.65623291 5.10285751 416.00850359 7.09147538 417.375 9.375 C417.7992627 10.06835449 418.22352539 10.76170898 418.66064453 11.47607422 C424.05044552 20.47955723 428.72698657 29.87787383 433.50390625 39.21484375 C436.51569044 45.09131544 439.62662847 50.90390942 442.8125 56.6875 C447.40561367 65.0299034 451.88537992 73.42723198 456.33322144 81.8475647 C462.17889825 92.91097454 468.1187561 103.89961666 474.33007812 114.76367188 C478.13812663 121.4336994 481.80815299 128.16880061 485.4375 134.9375 C490.35979167 144.09810165 495.49677229 153.11048909 500.77148438 162.07226562 C504.73971748 168.81782246 508.61331795 175.60939864 512.4375 182.4375 C518.81077859 193.78749483 525.49675705 204.93897239 532.23486328 216.07519531 C533.86209977 218.77150141 535.47889415 221.47362768 537.08984375 224.1796875 C543.02518598 234.14473669 549.10053233 244.01238545 555.27319336 253.83227539 C560.3645858 261.9433542 565.34858963 270.11616771 570.25732422 278.33911133 C574.97759778 286.17567509 579.36722502 293.25655109 586.875 298.6875 C588.02122412 299.53417131 589.16567273 300.38325011 590.30859375 301.234375 C590.90784668 301.67845703 591.50709961 302.12253906 592.12451172 302.58007812 C595.46694815 305.11061838 598.69650093 307.77913049 601.9375 310.4375 C606.91923385 314.51017133 611.92752173 318.54088649 617 322.5 C622.07250515 326.45913449 627.07983044 330.49094716 632.0625 334.5625 C636.82173946 338.44981773 641.61374347 342.27339891 646.5 346 C653.53779069 351.36795464 660.38123427 356.96471604 667.23583984 362.56347656 C669.47910676 364.3901279 671.73732408 366.1974649 674 368 C691.57681896 382.02624284 709.04727019 396.22287938 726 411 C726.97324219 411.84820313 727.94648437 412.69640625 728.94921875 413.5703125 C740.31979064 423.62953376 740.31979064 423.62953376 740.89421844 431.78742313 C740.93895546 432.68885768 740.98369247 433.59029222 741.02978516 434.51904297 C741.09253883 435.48685164 741.15529251 436.45466032 741.21994781 437.45179653 C741.42705794 440.71443591 741.60783575 443.97801552 741.7890625 447.2421875 C741.93382467 449.60371279 742.08026431 451.96513575 742.22824097 454.32646179 C742.58818832 460.13436751 742.93138628 465.94309387 743.267681 471.75241309 C743.66472572 478.59444895 744.0821672 485.43519215 744.50167799 492.27588189 C744.72052059 495.84476106 744.93863428 499.41368467 745.15655518 502.98262024 C745.20065592 503.70483236 745.24475667 504.42704447 745.2901938 505.1711418 C745.61079814 510.4288194 745.92740705 515.68672965 746.24237061 520.94474792 C747.63249547 544.13739361 749.0863032 567.32561415 750.5667491 590.51266003 C750.85768862 595.07158112 751.14790498 599.63054823 751.43814087 604.18951416 C751.55369341 606.00430817 751.66924758 607.81910207 751.78480339 609.63389587 C751.87040728 610.97833362 751.87040728 610.97833362 751.95774055 612.34993172 C752.24430033 616.85025462 752.53092076 621.35057365 752.81756592 625.85089111 C752.90214619 627.1789365 752.90214619 627.1789365 752.98843515 628.53381109 C753.27279714 632.99815335 753.55739108 637.46248064 753.84241486 641.9267807 C754.44537049 651.3720881 755.04625498 660.81751851 755.64085138 670.26335627 C755.88911061 674.20610764 756.13862246 678.14876898 756.39156723 682.09122276 C756.62501403 685.73002188 756.85490768 689.36902828 757.08210444 693.00822282 C757.20365923 694.94096405 757.3289 696.87347239 757.45430946 698.80596733 C757.91246622 706.21504124 758.09674368 713.57714232 758 721 C754.32474514 722.99528247 751.72198095 723.25736206 747.51171875 723.265625 C746.24779297 723.26820313 744.98386719 723.27078125 743.68164062 723.2734375 C742.36357422 723.26570313 741.04550781 723.25796875 739.6875 723.25 C738.38103516 723.25773437 737.07457031 723.26546875 735.72851562 723.2734375 C733.82682617 723.26957031 733.82682617 723.26957031 731.88671875 723.265625 C730.73389404 723.26336914 729.58106934 723.26111328 728.39331055 723.25878906 C724.53643454 722.96464642 721.56104622 722.55350341 718 721 C715.60469013 716.307784 714.275361 711.61456403 713.20776367 706.46264648 C712.97121756 705.36503888 712.97121756 705.36503888 712.72989273 704.24525738 C712.20235162 701.78862246 711.68518996 699.3299205 711.16796875 696.87109375 C710.78396588 695.07180287 710.39934858 693.27264302 710.01417542 691.47360229 C708.95350828 686.50998968 707.90208743 681.54445755 706.8523407 676.57852554 C705.96041412 672.36463767 705.06330499 668.15186055 704.16610146 663.93909359 C701.63741742 652.06576918 699.12003897 640.19006843 696.60668373 628.31349087 C694.60555148 618.85770054 692.6013707 609.40255986 690.59569347 599.94773257 C686.82070099 582.15220093 683.05018541 564.35572462 679.28364784 546.55840153 C678.43035041 542.52653235 677.57686856 538.49470239 676.72295761 534.4629631 C674.91202801 525.91261287 673.10237631 517.36199634 671.29685575 508.81050205 C670.53974007 505.22465602 669.7819206 501.63896277 669.02215767 498.05367661 C668.19028533 494.12787193 667.36204959 490.20130886 666.53417969 486.2746582 C666.29020038 485.12577842 666.04622107 483.97689863 665.79484844 482.79320431 C664.69048558 477.54045393 663.66590319 472.32707682 663 467 C661.87335937 466.649375 660.74671875 466.29875 659.5859375 465.9375 C652.6159596 463.61145669 645.84851147 460.7677794 639.05020142 457.98873901 C636.58715109 456.98456924 634.12058168 455.98950501 631.65307617 454.99633789 C624.10889074 451.95205745 616.60549862 448.8632688 609.19921875 445.49609375 C608.02472168 444.97595703 606.85022461 444.45582031 605.64013672 443.91992188 C603.51294649 442.97228438 601.39928219 441.99327195 599.30517578 440.97460938 C593.51608819 438.43413675 588.78922762 437.78075494 582.56367493 438.62736511 C581.41597625 438.7691978 581.41597625 438.7691978 580.24509174 438.91389579 C577.49449179 439.26037564 574.74739051 439.62894086 572 440 C570.3893786 440.21386711 570.3893786 440.21386711 568.7462194 440.43205476 C560.12404637 441.57940857 551.50776136 442.76764321 542.89218891 443.96327055 C538.97993747 444.5056466 535.06729877 445.04521608 531.15470886 445.58514404 C524.3875597 446.51937117 517.62064995 447.45531588 510.85390282 448.39245033 C501.03038766 449.75290654 491.20648819 451.11057112 481.38249556 452.46757462 C465.385523 454.67732681 449.38883343 456.8891206 433.39233398 459.10229492 C417.95657518 461.23788267 402.520724 463.37280015 387.0847168 465.5065918 C385.66254937 465.7031853 385.66254937 465.7031853 384.21165129 465.9037504 C373.81430533 467.34100921 363.41693307 468.77807769 353.01954365 470.21502209 C350.24246597 470.59882346 347.4653883 470.98262484 344.68831065 471.36642639 C342.85464282 471.61984349 341.02097451 471.87325714 339.18730573 472.12666728 C328.50324835 473.60319775 317.81926752 475.08027948 307.1354327 476.55841949 C300.40932075 477.48899278 293.68315898 478.41920541 286.95696148 479.34916011 C283.10217882 479.88213843 279.24742124 480.41529626 275.39273834 480.94899559 C274.67859804 481.04785292 273.96445774 481.14671026 273.22867682 481.24856327 C271.80865392 481.44514441 270.38863877 481.6417816 268.96863154 481.83847591 C265.51947316 482.31587993 262.07003662 482.79107753 258.61992776 483.26156676 C251.95987532 484.17078617 245.30319067 485.09633027 238.65207016 486.06905535 C235.31222033 486.55553323 231.97084088 487.03095441 228.6292095 487.50502153 C227.0369404 487.73363966 225.44535842 487.96710846 223.85459503 488.20597861 C214.38801999 489.62533931 205.55849302 490.23942701 196 489 C195.17529758 488.90450833 194.35059516 488.80901667 193.50090176 488.71063131 C191.19673985 488.43216709 188.90029591 488.11860015 186.60238647 487.79275513 C185.7462092 487.67465384 184.89003193 487.55655256 184.00790989 487.43487245 C181.17971052 487.04379786 178.35232213 486.64715658 175.52490234 486.25048828 C173.47018877 485.9652176 171.41542602 485.68030094 169.36061859 485.39570713 C163.7740982 484.62098275 158.18826049 483.84143333 152.60252523 483.06107116 C146.64388003 482.2295103 140.68459602 481.40255265 134.72537231 480.57514954 C124.55154571 479.16203884 114.37807899 477.7463624 104.20483398 476.32907104 C88.38537142 474.12537785 72.56486628 471.92922568 56.74414062 469.73461914 C54.10736911 469.36881742 51.47059823 469.00301116 48.83382797 468.63720036 C44.88607012 468.08951192 40.93831192 467.54182602 36.99055076 466.99416143 C23.9374629 465.18327864 10.88454469 463.37117452 -2.16833544 461.55879509 C-5.95676271 461.03277811 -9.74519433 460.5067924 -13.53362656 459.98081112 C-24.91291816 458.40088126 -36.29215905 456.82058785 -47.67126465 455.23931885 C-66.84261375 452.57540868 -86.01440882 449.91489576 -105.18892097 447.27383423 C-113.25713249 446.16235058 -121.32451791 445.04524289 -129.39081824 443.91997057 C-135.38804744 443.08390381 -141.38658619 442.25768136 -147.385746 441.43556786 C-149.77385272 441.10673329 -152.16151635 440.77466075 -154.54867172 440.43898964 C-157.7350785 439.99138582 -160.92287424 439.55554412 -164.11132812 439.12280273 C-165.47965255 438.92621158 -165.47965255 438.92621158 -166.87561989 438.72564888 C-173.13848472 437.89406902 -178.87670122 437.8611288 -184.8137207 440.36352539 C-185.47645996 440.63822662 -186.13919922 440.91292786 -186.82202148 441.19595337 C-187.86338257 441.6422963 -187.86338257 441.6422963 -188.92578125 442.09765625 C-190.03711426 442.56261002 -190.03711426 442.56261002 -191.17089844 443.03695679 C-193.55504181 444.03714025 -195.93388151 445.04925562 -198.3125 446.0625 C-199.95253339 446.75507623 -201.59275204 447.44721391 -203.2331543 448.13891602 C-207.15629386 449.79647609 -211.07461213 451.46502507 -214.99023438 453.14025879 C-216.72580848 453.88270585 -218.46241753 454.62273274 -220.19921875 455.36230469 C-223.92928387 456.95598465 -227.62967056 458.57806108 -231.2890625 460.328125 C-233.87278016 461.55638252 -236.40084042 462.44275962 -239.1484375 463.234375 C-243.4713668 464.66555637 -247.03601233 466.4792232 -250 470 C-251.69039744 473.97560215 -252.5111129 478.07154038 -253.37890625 482.29296875 C-253.66183533 483.56147675 -253.9447644 484.82998474 -254.23626709 486.13693237 C-255.0228396 489.66896392 -255.77497343 493.20758555 -256.52157974 496.74824905 C-257.33703937 500.58632227 -258.18402998 504.41745643 -259.02612305 508.24975586 C-261.10777309 517.76010217 -263.13375059 527.28200077 -265.15213776 536.80594254 C-265.75909073 539.66786487 -266.36755199 542.52946254 -266.97650146 545.39096069 C-273.42309926 575.68473969 -279.79353754 605.99446429 -286.125 636.3125 C-286.3180925 637.23690132 -286.511185 638.16130264 -286.71012878 639.11371613 C-292.54703495 667.06094791 -298.29108321 695.02630774 -304 723 C-317.86 723 -331.72 723 -346 723 C-346 704.62572291 -346 704.62572291 -345.39257812 696.09155273 C-345.32723562 695.1104163 -345.26189312 694.12927986 -345.19457054 693.11841202 C-344.97839107 689.88978549 -344.75477045 686.66171963 -344.53125 683.43359375 C-344.37317725 681.09018976 -344.21565105 678.74674885 -344.05862427 676.40327454 C-343.72103551 671.37741932 -343.38043743 666.35178117 -343.03741455 661.32629395 C-342.1616383 648.48934126 -341.30416325 635.65115742 -340.4460454 622.81301451 C-340.30403943 620.68952784 -340.16182992 618.56605488 -340.01957321 616.44258499 C-338.55369126 594.55438597 -337.13624019 572.66340856 -335.7578125 550.76953125 C-335.71256848 550.05096978 -335.66732447 549.33240831 -335.62070942 548.59207225 C-334.73860793 534.57768659 -333.86289725 520.56290197 -332.98805594 506.54806155 C-329.89549354 457.00576067 -329.89549354 457.00576067 -328.8359375 441.328125 C-328.76275299 440.22370056 -328.68956848 439.11927612 -328.61416626 437.98138428 C-328.42996201 435.31865946 -328.22601209 432.65946296 -328 430 C-327.94441925 429.29998871 -327.8888385 428.59997742 -327.83157349 427.87875366 C-327.44042197 424.15738585 -326.81868492 422.07332356 -324.0078125 419.5703125 C-323.39091553 419.00747559 -322.77401855 418.44463867 -322.13842773 417.86474609 C-321.47399658 417.29062988 -320.80956543 416.71651367 -320.125 416.125 C-319.10224976 415.20775146 -319.10224976 415.20775146 -318.05883789 414.27197266 C-313.41923835 410.14194971 -308.66495769 406.15497735 -303.8125 402.27734375 C-300.4613805 399.56386782 -297.20011074 396.75618246 -293.9375 393.9375 C-289.27733656 389.92209976 -284.56950423 385.99405908 -279.7421875 382.1796875 C-276.21955773 379.37964846 -272.73681589 376.53192095 -269.25 373.6875 C-263.64263113 369.11928647 -257.99055816 364.61598552 -252.29003906 360.16479492 C-247.81624574 356.66276818 -243.40173978 353.09203052 -239 349.5 C-231.17655867 343.11846002 -223.24927935 336.87800891 -215.29101562 330.66601562 C-207.78876488 324.80621887 -200.3553239 318.87220845 -192.98120117 312.85180664 C-187.96355293 308.76242637 -182.89558618 304.74261862 -177.77929688 300.77734375 C-176.7163948 299.94991936 -175.65864601 299.1158318 -174.60620117 298.27514648 C-173.51198909 297.40646284 -172.40182725 296.55758461 -171.27856445 295.72680664 C-165.82776167 291.47471246 -162.74096313 286.24260233 -159.3125 280.3125 C-158.08085196 278.23483175 -156.84775783 276.15802013 -155.61328125 274.08203125 C-154.6998999 272.53636475 -154.6998999 272.53636475 -153.76806641 270.95947266 C-151.25665598 266.75575583 -148.63694283 262.62568998 -146 258.5 C-139.17387867 247.76361515 -132.57934365 236.88882333 -126 226 C-125.50032715 225.1745166 -125.0006543 224.3490332 -124.48583984 223.49853516 C-104.65851347 190.72138141 -85.61017035 157.48121925 -67 124 C-66.36594238 122.85950195 -65.73188477 121.71900391 -65.07861328 120.54394531 C-48.47680525 90.65842787 -32.52199853 60.46457805 -16.96728516 30.02294922 C-15.67253894 27.48916249 -14.37508087 24.95680309 -13.07446289 22.42602539 C-11.89583524 20.13201506 -10.72153283 17.83577497 -9.55249023 15.53686523 C-6.71263764 10.01972222 -3.77187307 4.93137479 0 0 Z " fill="#FCEE21" transform="translate(605,981)"/>
<path d="M0 0 C2.41156264 0.45408358 4.76476652 0.97591365 7.14672852 1.55688477 C7.89040869 1.73357885 8.63408886 1.91027294 9.40030479 2.0923214 C11.87380535 2.6818947 14.34510159 3.28020031 16.81640625 3.87890625 C18.55042737 4.29486993 20.28452366 4.71052035 22.01869202 5.12586975 C38.56875991 9.10002283 55.08659338 13.20339292 71.5943222 17.34937286 C74.81878401 18.15869834 78.04378044 18.96588333 81.26874924 19.77318573 C98.64418013 24.12338503 116.01206894 28.50275819 133.37109375 32.91796875 C134.1509646 33.11631065 134.93083546 33.31465256 135.73433876 33.51900482 C139.60160645 34.50261407 143.46882174 35.48642926 147.33602905 36.47027588 C148.08699734 36.66132149 148.83796562 36.8523671 149.61169052 37.04920197 C151.11788565 37.43238606 152.62407312 37.81560027 154.13025284 38.19884491 C177.03018338 44.0248762 199.93624096 49.85015749 223 55 C223.76004837 55.17462265 224.52009674 55.3492453 225.30317688 55.52915955 C234.48344389 57.13194953 243.71577752 55.86952459 252.74609375 54 C253.85238632 53.77852295 254.95867889 53.5570459 256.09849548 53.32885742 C270.08243521 50.46312209 283.93308733 47.02438688 297.78019714 43.56876755 C300.10127269 42.99033755 302.42302337 42.4146955 304.74499512 41.83987427 C334.1049425 34.56980535 363.3896838 27.01106384 392.64868164 19.34570312 C407.94696079 15.34050736 423.25540673 11.37896568 438.61066437 7.59710884 C440.18182788 7.20956891 441.75246684 6.8198944 443.32250214 6.42780876 C448.20001204 5.21206364 453.08616012 4.05974937 458 3 C459.00289314 2.77995363 459.00289314 2.77995363 460.02604675 2.55546188 C461.94774227 2.14913657 463.87965948 1.79210168 465.81152344 1.43725586 C466.91123474 1.22975204 468.01094604 1.02224823 469.14398193 0.80845642 C472 1 472 1 474.29550171 3.30290222 C476.01817577 6.02876027 477.46088655 8.71726254 478.8046875 11.6484375 C479.30331299 12.72955811 479.80193848 13.81067871 480.31567383 14.92456055 C481.08754028 16.63252808 481.08754028 16.63252808 481.875 18.375 C482.40440186 19.5400708 482.93380371 20.7051416 483.47924805 21.90551758 C484.99747239 25.26541507 486.50126578 28.63137167 488 32 C488.38140137 32.84771973 488.76280273 33.69543945 489.15576172 34.56884766 C490.06272356 36.6000689 490.94461762 38.6393409 491.8125 40.6875 C492.50279297 42.30205078 492.50279297 42.30205078 493.20703125 43.94921875 C495.30028202 52.00256284 491.13630719 58.12611906 487.3125 64.9375 C486.73089111 65.99163086 486.14928223 67.04576172 485.55004883 68.13183594 C480.39850693 77.41550897 475.05143579 86.58388664 469.66796875 95.734375 C465.71931447 102.45594267 461.85750068 109.22595121 458 116 C450.7522393 128.71706143 443.40212607 141.37215298 436 154 C434.99558038 155.71467015 433.99116138 157.42934066 432.98677063 159.14402771 C429.41464944 165.24190701 425.84007265 171.33834423 422.26448059 177.43418884 C419.75513508 181.71227746 417.24643605 185.99074444 414.73828125 190.26953125 C414.21325012 191.16520813 414.21325012 191.16520813 413.6776123 192.07897949 C412.61839564 193.88597897 411.55919467 195.69298764 410.5 197.5 C406.57918401 204.18900927 402.65832629 210.8779934 398.73550415 217.56582642 C391.24478125 230.33645185 383.76259601 243.11188077 376.30786133 255.90356445 C371.35521162 264.39875892 366.38210451 272.88187008 361.40673828 281.36376953 C356.59363337 289.56954221 351.79002738 297.78072491 347 306 C339.74681548 318.44460832 332.46102108 330.87001226 325.17333984 343.29443359 C321.96765731 348.75984483 318.76362141 354.22622131 315.55947876 359.6925354 C313.78972162 362.71173078 312.01985522 365.73086211 310.25 368.75 C309.54166614 369.95833303 308.83333281 371.16666636 308.125 372.375 C303.87499998 379.62500003 303.87499998 379.62500003 302.81256104 381.43739319 C302.10402112 382.64608072 301.39548434 383.8547701 300.68695068 385.0634613 C298.91930373 388.0788904 297.15160284 391.09428785 295.38378906 394.10961914 C291.79110737 400.23773574 288.19941243 406.36642765 284.609375 412.49609375 C269.77688334 437.81910906 269.77688334 437.81910906 262.54296875 450.00390625 C260.1419034 454.05327434 257.7660213 458.11651874 255.40155029 462.18730164 C253.68178968 465.14424778 251.95344943 468.09613213 250.22406006 471.04745483 C249.37138646 472.50720177 248.52241853 473.96912005 247.67730713 475.43325806 C246.49105786 477.4873089 245.29194697 479.53332336 244.08984375 481.578125 C243.55935173 482.50775307 243.55935173 482.50775307 243.0181427 483.4561615 C241.09126272 486.70157027 239.63869703 488.7512827 236 490 C230.05265697 482.48945805 225.21902309 474.47156321 220.40014648 466.21386719 C216.31754091 459.21906051 212.15558494 452.27831647 207.93667603 445.36486816 C200.51824316 433.20758584 193.21483017 420.98514077 185.95776367 408.73095703 C181.06426539 400.46897174 176.14083987 392.22630291 171.1875 384 C164.59797715 373.0452362 158.1402329 362.01696674 151.72070312 350.96191406 C148.88196132 346.07547598 146.03488509 341.19390509 143.1875 336.3125 C142.61765381 335.33531006 142.04780762 334.35812012 141.46069336 333.35131836 C136.45578352 324.77256299 131.43270904 316.20451252 126.40756226 307.63760376 C121.59418048 299.43137451 116.79029622 291.21973639 112 283 C106.90810982 274.26361962 101.80243494 265.5354009 96.6875 256.8125 C96.33255463 256.20717438 95.97760925 255.60184875 95.61190796 254.97817993 C93.0749769 250.65190198 90.53754371 246.32591863 88 242 C85.10382563 237.06269995 82.20786706 232.12527352 79.3125 227.1875 C78.95731293 226.58177155 78.60212585 225.97604309 78.23617554 225.35195923 C72.9116271 216.27063679 67.60228805 207.18052813 62.30126953 198.08544922 C57.7744281 190.32129262 53.23362914 182.56537163 48.6875 174.8125 C48.33255463 174.20717438 47.97760925 173.60184875 47.61190796 172.97817993 C45.0749769 168.65190198 42.53754371 164.32591863 40 160 C30.7784845 144.27947246 21.56247009 128.55590079 12.38671875 112.80859375 C9.54894386 107.9388117 6.70267787 103.07404645 3.85473633 98.21020508 C2.12662875 95.25278739 0.40652307 92.29083064 -1.3125 89.328125 C-3.61797037 85.35675006 -5.94772799 81.40136225 -8.30050659 77.45794678 C-9.80458899 74.92986754 -11.2941183 72.39339038 -12.78131104 69.85534668 C-13.5024372 68.63201986 -14.2296531 67.41225959 -14.96331787 66.19641113 C-22.16387732 54.25064112 -22.16387732 54.25064112 -21 47 C-17.76784454 34.2868552 -9.36686219 9.36686219 0 0 Z " fill="#FCEE21" transform="translate(575,1510)"/>
<path d="M0 0 C0.99 0 1.98 0 3 0 C5.00291051 2.39036901 6.78479008 4.75966068 8.5625 7.3125 C9.41787354 8.52087524 9.41787354 8.52087524 10.29052734 9.75366211 C17.93157274 20.63027954 25.24885208 31.72878533 32.56549072 42.8248291 C34.12147888 45.1842005 35.67860323 47.54281962 37.23583984 49.90136719 C40.76361844 55.24527866 44.28881464 60.59088873 47.8125 65.9375 C48.37205383 66.78651886 48.93160767 67.63553772 49.50811768 68.51028442 C57.23371002 80.23681737 64.91331215 91.99248643 72.55558777 103.77348328 C74.43466257 106.67001889 76.31528753 109.56554689 78.19593811 112.46105957 C102.0177422 149.18376694 124.99322425 186.41655919 146.98828125 224.25976562 C147.97833015 225.96272618 148.96962003 227.66496508 149.9609375 229.3671875 C159.51782485 245.78943065 168.94480863 262.29442621 178 279 C178.41145264 279.66789551 178.82290527 280.33579102 179.24682617 281.02392578 C180.27814551 283.72976006 179.8459834 285.25787444 179 288 C177.93115234 290.11450195 177.93115234 290.11450195 176.5859375 292.23828125 C176.0801416 293.04563721 175.5743457 293.85299316 175.05322266 294.68481445 C174.49940918 295.55195068 173.9455957 296.41908691 173.375 297.3125 C172.79669434 298.23184326 172.21838867 299.15118652 171.62255859 300.09838867 C170.38608866 302.06354582 169.14657449 304.02679027 167.90429688 305.98828125 C165.41448906 309.92600808 162.94931476 313.87885934 160.48413086 317.83203125 C158.60281693 320.84806282 156.71792252 323.86182877 154.83203125 326.875 C152.26456662 330.97769699 149.69949562 335.08187313 147.13671875 339.1875 C140.96746314 349.06945729 134.78435366 358.94193244 128.5534668 368.78515625 C124.55200008 375.11188053 120.58674289 381.46084495 116.625 387.8125 C110.583197 397.49528225 104.47679964 407.13513521 98.33984375 416.7578125 C93.69148478 424.04761989 89.07999678 431.36063971 84.46777344 438.67333984 C81.98016643 442.61660245 79.48993586 446.55820768 77 450.5 C75.99998776 452.0833256 74.99998775 453.66665893 74 455.25 C56 483.75 56 483.75 54.50073242 486.1237793 C53.49821757 487.71113526 52.49577646 489.29853779 51.4934082 490.88598633 C49.03248037 494.78315395 46.57038288 498.67957101 44.10546875 502.57421875 C39.17089722 510.37437298 34.2559713 518.1859666 29.3737793 526.01904297 C24.25458721 534.2306634 19.12417693 542.43315499 13.875 550.5625 C13.23776001 551.5517749 13.23776001 551.5517749 12.58764648 552.56103516 C9.83973376 556.79476667 6.95809127 560.9102546 4 565 C-8.20346303 560.93217899 -16.32638857 542.21209746 -23 532 C-23.73355713 530.87899902 -23.73355713 530.87899902 -24.48193359 529.73535156 C-31.8197184 518.50303682 -38.99984018 507.16903035 -46.19287109 495.84375 C-47.98748199 493.01969871 -49.78432842 490.19708392 -51.58203125 487.375 C-58.59415411 476.36682472 -65.58291787 465.34431491 -72.54541016 454.3046875 C-73.99081789 452.01454836 -75.43840684 449.72580343 -76.88671875 447.4375 C-83.10019892 437.6173685 -89.27218353 427.77200819 -95.42626953 417.91455078 C-100.77160393 409.35626365 -106.15209443 400.82068397 -111.54833984 392.29443359 C-114.03473533 388.36454042 -116.51712775 384.43211968 -119 380.5 C-119.99998164 378.91665507 -120.99998162 377.33332172 -122 375.75 C-124 372.58333333 -126 369.41666667 -128 366.25 C-128.4947583 365.46665283 -128.9895166 364.68330566 -129.49926758 363.8762207 C-130.50178243 362.28886474 -131.50422354 360.70146221 -132.5065918 359.11401367 C-134.96751963 355.21684605 -137.42961712 351.32042899 -139.89453125 347.42578125 C-144.1446673 340.70770906 -148.38818925 333.98584546 -152.59765625 327.2421875 C-153.5271106 325.75344116 -153.5271106 325.75344116 -154.4753418 324.23461914 C-155.73809543 322.20911752 -156.99868905 320.18226762 -158.25708008 318.15405273 C-161.47132672 312.98644697 -164.73385763 307.86214125 -168.1015625 302.79296875 C-169.08310303 301.30083862 -169.08310303 301.30083862 -170.08447266 299.77856445 C-171.33294308 297.8861277 -172.59505034 296.00259568 -173.87255859 294.12963867 C-174.70907959 292.85503784 -174.70907959 292.85503784 -175.5625 291.5546875 C-176.05878906 290.81718262 -176.55507813 290.07967773 -177.06640625 289.31982422 C-178.34851524 286.13399796 -177.89174182 284.28964132 -177 281 C-175.74755859 278.25292969 -175.74755859 278.25292969 -174.1484375 275.421875 C-173.55216553 274.35686768 -172.95589355 273.29186035 -172.34155273 272.19458008 C-171.36810913 270.48951294 -171.36810913 270.48951294 -170.375 268.75 C-169.69606483 267.54682402 -169.01777157 266.34328562 -168.34008789 265.1394043 C-166.24059955 261.41830209 -164.12213157 257.70822298 -162 254 C-161.35562988 252.87223145 -160.71125977 251.74446289 -160.04736328 250.58251953 C-155.72886014 243.03715039 -151.3701977 235.51551399 -147 228 C-145.87105895 226.0534056 -144.74215191 224.10679148 -143.61328125 222.16015625 C-140.09205251 216.09704212 -136.55078973 210.04584416 -133 204 C-132.6393042 203.38560059 -132.2786084 202.77120117 -131.90698242 202.13818359 C-122.10553069 185.44871614 -112.19308387 168.86698693 -101.68261719 152.61083984 C-99.30676527 148.92433949 -96.95814708 145.22075148 -94.60839844 141.51757812 C-88.57546935 132.01054794 -82.49506668 122.53554913 -76.35986328 113.09423828 C-75.00710535 111.0109425 -73.65756778 108.92559124 -72.30859375 106.83984375 C-60.64410207 88.82468437 -48.82546692 70.90971735 -37 53 C-36.42161377 52.12351807 -35.84322754 51.24703613 -35.24731445 50.34399414 C-31.75253945 45.04889515 -28.25179797 39.75781984 -24.74325562 34.47183228 C-23.63992658 32.80817436 -22.5381692 31.14347283 -21.43814087 29.47763062 C-5.78837252 5.78837252 -5.78837252 5.78837252 0 0 Z " fill="#FCEE21" transform="translate(810,604)"/>
<path d="M0 0 C1.02609375 -0.00257813 2.0521875 -0.00515625 3.109375 -0.0078125 C4.1715625 -0.00007812 5.23375 0.00765625 6.328125 0.015625 C7.37484375 0.00789062 8.4215625 0.00015625 9.5 -0.0078125 C15.83669411 0.00802924 21.44897823 0.64999217 27.578125 2.265625 C28.99724212 7.19081009 28.32678631 11.76523953 27.79296875 16.77587891 C27.69693643 17.73335305 27.6009041 18.6908272 27.50196171 19.67731571 C27.18027605 22.86637086 26.84796208 26.05422615 26.515625 29.2421875 C26.28585947 31.49845538 26.05674133 33.75478926 25.82823181 36.01118469 C25.21408545 42.05628611 24.590671 48.10039745 23.96512985 54.14432907 C23.32187095 60.37122311 22.68594536 66.59886623 22.04907227 72.82641602 C21.0363964 82.71859944 20.01829132 92.61021062 18.99658203 102.50146484 C17.94067301 112.72557321 16.89672418 122.95082361 15.86288452 133.17718506 C15.3025996 138.71901801 14.73743324 144.2603471 14.1699276 149.80144501 C13.80827077 153.33319 13.44844545 156.86509501 13.09350586 160.39752197 C12.70936573 164.21764463 12.31433253 168.03659396 11.91796875 171.85546875 C11.8100853 172.94402664 11.70220184 174.03258453 11.59104919 175.15412903 C10.29895864 187.38857856 10.29895864 187.38857856 7.0612793 190.92016602 C1.0639967 195.09994607 -5.19575737 198.70043173 -11.609375 202.203125 C-12.21679535 202.53654907 -12.8242157 202.86997314 -13.45004272 203.21350098 C-41.91996317 218.82004888 -71.08678937 233.19438657 -100.16723633 247.62011719 C-107.03878438 251.0340599 -113.87463137 254.48177181 -120.6171875 258.14453125 C-126.35350013 261.2462822 -132.18510755 264.0922428 -138.08203125 266.875 C-149.59311763 272.31814554 -160.97524745 278.00838274 -172.35546875 283.71875 C-173.29928028 284.19204239 -174.24309181 284.66533478 -175.21550369 285.15296936 C-184.10627982 289.61151529 -192.99457393 294.07499388 -201.88061523 298.54296875 C-206.78779992 301.01006978 -211.69700477 303.47311257 -216.60740852 305.93379974 C-218.45103959 306.85867873 -220.29391539 307.78506512 -222.1359539 308.71311188 C-233.09859528 314.23596117 -244.11425386 319.48487035 -255.421875 324.265625 C-254.84230739 320.48996738 -254.34423117 317.5900735 -252.3046875 314.33984375 C-251.86874268 313.63529053 -251.43279785 312.9307373 -250.98364258 312.20483398 C-250.50950928 311.46177002 -250.03537598 310.71870605 -249.546875 309.953125 C-249.05147217 309.16043213 -248.55606934 308.36773926 -248.0456543 307.55102539 C-246.51685617 305.1143899 -244.97277184 302.68824489 -243.421875 300.265625 C-242.75937744 299.23018555 -242.75937744 299.23018555 -242.08349609 298.17382812 C-239.89609676 294.76580801 -237.69195473 291.3689912 -235.48046875 287.9765625 C-232.56456282 283.49783924 -229.68807793 278.99448162 -226.8137207 274.48901367 C-217.7888446 260.34483368 -208.65338109 246.27578127 -199.421875 232.265625 C-199.03672729 231.68071289 -198.65157959 231.09580078 -198.25476074 230.49316406 C-195.8683267 226.87003644 -193.47654336 223.25052047 -191.07830811 219.63519287 C-189.96625975 217.9575828 -188.85733186 216.27790552 -187.74853516 214.59814453 C-186.35514256 212.50369825 -184.94825151 210.41816311 -183.52734375 208.34228516 C-182.10442277 206.26301218 -180.71172277 204.16278266 -179.34765625 202.04443359 C-173.84004726 193.94478731 -168.38066187 190.36461063 -159.421875 186.640625 C-158.12008136 186.07001857 -156.81966515 185.49626128 -155.52050781 184.91967773 C-152.69272512 183.67177265 -149.85700703 182.444952 -147.01367188 181.23291016 C-142.16759061 179.16443217 -137.34876086 177.03635104 -132.53125 174.90234375 C-125.61125894 171.84121783 -118.68277398 168.80045462 -111.74609375 165.77734375 C-104.92537442 162.80402357 -98.11567106 159.8072148 -91.31640625 156.78515625 C-90.51969513 156.4314949 -89.72298401 156.07783356 -88.90213013 155.7134552 C-84.32850196 153.68330155 -84.32850196 153.68330155 -79.75793457 151.64627075 C-77.71112639 150.73232459 -75.66242541 149.82275618 -73.61328125 148.9140625 C-71.88380249 148.14328369 -71.88380249 148.14328369 -70.11938477 147.35693359 C-67.421875 146.265625 -67.421875 146.265625 -65.421875 146.265625 C-65.16602882 145.3723349 -65.16602882 145.3723349 -64.90501404 144.46099854 C-63.01348183 137.99232027 -60.81820774 131.68560955 -58.45703125 125.375 C-58.07149582 124.33671555 -57.68596039 123.29843109 -57.28874207 122.22868347 C-56.02351872 118.82324471 -54.75396112 115.4194394 -53.484375 112.015625 C-52.59505963 109.62454858 -51.70606758 107.23335188 -50.81738281 104.84204102 C-49.43295954 101.11719921 -48.04835457 97.39242634 -46.66220093 93.66822815 C-43.40896347 84.92716773 -40.16763853 76.18177762 -36.93359375 67.43359375 C-36.4896376 66.23302338 -36.04568146 65.032453 -35.58827209 63.79550171 C-33.86919707 59.14659032 -32.15015145 54.49766855 -30.43240356 49.8482666 C-28.1362989 43.6347118 -25.83194692 37.42433432 -23.51782227 31.21746826 C-22.40589868 28.22259409 -21.30713361 25.22309301 -20.20898438 22.22314453 C-19.50434185 20.32177861 -18.79928301 18.42056692 -18.09375 16.51953125 C-17.78125305 15.65561264 -17.4687561 14.79169403 -17.14678955 13.90159607 C-15.13638071 8.5286668 -13.30903699 3.81737225 -8.01074219 0.96972656 C-5.23344116 0.21437611 -2.87633934 0.00703753 0 0 Z " fill="#FCEE21" transform="translate(1536.421875,977.734375)"/>
<path d="M0 0 C4.46729479 8.31845392 7.84422712 17.00183135 11.1875 25.8125 C11.81573343 27.45672598 12.44424432 29.10084596 13.07299805 30.74487305 C21.27878711 52.24091981 29.3592192 73.78547028 37.45112133 95.32460117 C38.77937786 98.85910635 40.10976241 102.3927825 41.4450531 105.92463684 C41.70267016 106.60607034 41.96028723 107.28750383 42.22571087 107.98958683 C42.73789485 109.34430307 43.25016757 110.69898577 43.76253223 112.05363369 C45.24232724 115.97237948 46.70333059 119.89746909 48.14788151 123.82933903 C49.24942536 126.82067996 50.36682359 129.80611586 51.48046875 132.79296875 C51.86672928 133.86162674 52.25298981 134.93028473 52.6509552 136.03132629 C55.40684034 143.36163138 58.67358831 147.59244473 65.16015625 152.05859375 C65.94334229 152.60201416 66.72652832 153.14543457 67.53344727 153.70532227 C68.78532837 154.56275024 68.78532837 154.56275024 70.0625 155.4375 C71.86470363 156.68472203 73.66678351 157.93212288 75.46875 159.1796875 C76.38785156 159.81358398 77.30695313 160.44748047 78.25390625 161.10058594 C81.70940877 163.49068281 85.14742475 165.90511161 88.5847168 168.32128906 C95.14696657 172.93277447 101.72689828 177.51703331 108.34765625 182.04418945 C109.93972189 183.13323354 111.52959901 184.22548442 113.1171875 185.32104492 C116.82955895 187.87563218 120.55704062 190.36727805 124.39453125 192.73046875 C133.6234249 198.50652736 139.12149235 204.26430451 144.58886719 213.63085938 C146.82368887 217.38288526 149.21067657 221.03506312 151.57885742 224.70385742 C153.65550745 227.9222809 155.71830646 231.14919014 157.77734375 234.37890625 C161.91009453 240.85931162 166.04643755 247.33740235 170.1875 253.8125 C170.85475098 254.85583496 171.52200195 255.89916992 172.20947266 256.97412109 C176.2805747 263.33303263 180.3772843 269.67444816 184.5 276 C191.45226792 286.66877285 198.32535813 297.38747095 205.16552734 308.12841797 C206.84670155 310.76003508 208.54028757 313.38312466 210.23828125 316.00390625 C211.15919479 317.43988578 212.07979518 318.87606621 213 320.3125 C213.62297974 321.26237793 213.62297974 321.26237793 214.25854492 322.23144531 C216.36544835 325.54683501 217 326.94004901 217 331 C213.24382525 330.42110327 210.53965487 329.37721547 207.28125 327.4375 C206.3641626 326.89681885 205.4470752 326.3561377 204.50219727 325.79907227 C203.01610962 324.90853149 203.01610962 324.90853149 201.5 324 C199.33210318 322.71732633 197.16413115 321.43477978 194.99609375 320.15234375 C193.84352409 319.46739141 192.69101853 318.78233119 191.53857422 318.09716797 C187.98450106 315.98711775 184.41766195 313.89935812 180.84765625 311.81640625 C168.33167786 304.51089808 155.85920993 297.14052177 143.44677734 289.65991211 C135.56395158 284.91710982 127.63275477 280.26196333 119.6875 275.625 C109.55155273 269.70784374 99.48528937 263.68764898 89.46624756 257.5748291 C79.95503305 251.77318641 70.39807885 246.05289929 60.8125 240.375 C60.13606445 239.97431305 59.45962891 239.5736261 58.76269531 239.16079712 C57.75287598 238.56263687 57.75287598 238.56263687 56.72265625 237.95239258 C55.38018357 237.1571056 54.03773542 236.36177722 52.6953125 235.56640625 C52.03952209 235.17785965 51.38373169 234.78931305 50.70806885 234.38899231 C43.51744804 230.12570534 36.35324611 225.81866607 29.19018555 221.50927734 C23.75143698 218.2406262 18.30293112 214.98946991 12.83984375 211.76171875 C11.93479347 211.22675529 11.93479347 211.22675529 11.01145935 210.6809845 C8.10709958 208.964742 5.20142675 207.25082283 2.29370117 205.5402832 C0.18797528 204.29746204 -1.9036964 203.03047235 -3.97949219 201.73828125 C-6.93142308 199.92770002 -6.93142308 199.92770002 -10.09082031 198.85546875 C-13.72153746 197.30168056 -15.43749367 196.0479185 -18 193 C-19.1477431 189.50233154 -19.60261414 185.95420795 -20.08276367 182.31225586 C-20.24182347 181.21679412 -20.40088327 180.12133238 -20.56476307 178.99267483 C-22.53870757 164.94500823 -23.96857663 150.82765136 -25.40158057 136.7166779 C-25.80305964 132.77848217 -26.21266804 128.84113087 -26.62129211 124.90367126 C-27.39054974 117.47963295 -28.15275613 110.05488934 -28.91227323 102.6298489 C-29.77497525 94.19966907 -30.64592607 85.77034754 -31.51743257 77.34107411 C-32.87447281 64.21367302 -34.2271239 51.08582604 -35.57299805 37.95727539 C-35.70337967 36.68599792 -35.83376129 35.41472046 -35.96809387 34.10491943 C-36.20595663 31.78254702 -36.44331718 29.46012309 -36.68005943 27.13763618 C-36.88729912 25.10525011 -37.09575913 23.07298794 -37.3056736 21.04087639 C-37.39649397 20.1530755 -37.48731434 19.26527462 -37.58088684 18.35057068 C-37.65928205 17.58976417 -37.73767725 16.82895765 -37.81844807 16.0450964 C-38.07345647 13.17254771 -38.13251715 10.32032731 -38.125 7.4375 C-38.12757812 6.42558594 -38.13015625 5.41367187 -38.1328125 4.37109375 C-38 2 -38 2 -37 1 C-35.45891078 0.84200219 -33.91107276 0.74886812 -32.36328125 0.68359375 C-30.91707397 0.6206311 -30.91707397 0.6206311 -29.44165039 0.55639648 C-28.40903076 0.51716064 -27.37641113 0.4779248 -26.3125 0.4375 C-24.75293579 0.37381226 -24.75293579 0.37381226 -23.16186523 0.30883789 C-15.43474065 0.01083363 -7.73259257 -0.0949877 0 0 Z " fill="#FCEE21" transform="translate(96,978)"/>
</svg>
