<?xml version="1.0" encoding="UTF-8"?>
<svg version="1.1" xmlns="http://www.w3.org/2000/svg" width="2000" height="1776">
<path d="M0 0 C1.64844562 -0.00529263 1.64844562 -0.00529263 3.33019316 -0.01069218 C4.55506552 -0.0094944 5.77993788 -0.00829663 7.04192758 -0.00706255 C8.33487768 -0.00971438 9.62782779 -0.01236621 10.9599582 -0.01509839 C14.58152107 -0.0223698 18.20306329 -0.02332765 21.82463248 -0.02332116 C25.75228033 -0.02438646 29.67991884 -0.03117184 33.60756159 -0.03722787 C41.41226708 -0.04832736 49.21696807 -0.05395802 57.02168007 -0.05793675 C66.36402957 -0.06293664 75.7063703 -0.07366268 85.04871463 -0.08441848 C107.63293424 -0.11007617 130.21715726 -0.12508887 152.80138726 -0.13792895 C160.27892454 -0.14218103 167.75646157 -0.14674668 175.23399854 -0.15151227 C214.96099846 -0.17676913 254.68799878 -0.19882543 294.41500497 -0.21124041 C303.62374649 -0.21416192 312.832488 -0.2171294 322.04122949 -0.22014582 C323.18534231 -0.22051673 324.32945513 -0.22088764 325.50823804 -0.22126979 C362.61901533 -0.23343046 399.72974524 -0.26438178 436.84050028 -0.30606735 C474.96743711 -0.34881649 513.09434892 -0.37547651 551.22131038 -0.38071512 C556.60189878 -0.38145562 561.98248714 -0.38236632 567.36307549 -0.3833729 C568.42208515 -0.38356352 569.4810948 -0.38375413 570.57219565 -0.38395052 C587.64384632 -0.38746978 604.71543783 -0.40779383 621.78706673 -0.43416954 C638.93406396 -0.46026304 656.08099256 -0.46806331 673.22800681 -0.45706825 C683.42504261 -0.45107414 693.62184629 -0.45909354 703.81884713 -0.48689909 C710.6222438 -0.50408377 717.42548126 -0.50325937 724.22888114 -0.4875314 C728.11068484 -0.47907763 731.99204397 -0.47868382 735.8738074 -0.50014286 C740.04774289 -0.52303276 744.22063666 -0.50758452 748.39458871 -0.48808062 C749.6100964 -0.50092984 750.82560409 -0.51377906 752.07794535 -0.52701765 C761.10929112 -0.43342293 761.10929112 -0.43342293 764.17119837 2.56114173 C764.76478325 3.40884906 765.35836812 4.2565564 765.96994042 5.12995183 C766.41716455 5.6972199 766.86438867 6.26448797 767.32516503 6.84894598 C767.67071435 7.36577947 768.01626367 7.88261297 768.37228417 8.41510808 C768.77986962 9.01718084 769.18745507 9.61925359 769.6073916 10.23957098 C770.03640771 10.88402166 770.46542382 11.52847234 770.90744042 12.19245183 C771.88048618 13.63056972 772.85448937 15.06804013 773.82931542 16.50495183 C774.34042871 17.26034246 774.85154199 18.01573308 775.37814355 18.79401433 C778.09925487 22.78720346 780.87993949 26.73837609 783.65744042 30.69245183 C793.01522563 44.03581584 802.32976951 57.40959783 811.59494042 70.81745183 C818.87692219 81.34661712 826.24324513 91.81737879 833.59494042 102.29792058 C838.95995838 109.94967951 844.31394681 117.60739249 849.59494042 125.31745183 C853.24049975 130.63941207 856.92931308 135.92800828 860.65744042 141.19245183 C867.46264857 150.80249421 874.179269 160.47357103 880.89669824 170.14508855 C883.62463221 174.07251681 886.35350109 177.99929177 889.08444238 181.92462957 C890.41598388 183.84052942 891.74528038 185.75799164 893.07223535 187.67707098 C896.36556987 192.43183549 899.69867629 197.14760233 903.12228417 201.80963933 C903.78018945 202.7162531 904.43809472 203.62286687 905.11593652 204.55695379 C906.3610222 206.26914487 907.61978834 207.97150037 908.89425683 209.66193426 C909.44645898 210.42610662 909.99866113 211.19027898 910.56759667 211.97760808 C911.05752099 212.63768865 911.54744531 213.29776922 912.05221581 213.97785223 C914.37700583 219.42957448 910.63945084 226.66985611 908.89962792 232.03620183 C908.58691949 233.01174016 908.27421105 233.98727849 907.95202661 234.99237859 C906.92049344 238.20625769 905.88281128 241.41811433 904.84494042 244.62995183 C904.11745998 246.89158475 903.3902503 249.15330478 902.6632998 251.41510808 C897.66817828 266.93975146 892.61849977 282.44656156 887.54855371 297.9469074 C882.24114804 314.17373368 877.01924281 330.42689066 871.82794213 346.69120061 C867.09439575 361.52018031 862.31559393 376.33335155 857.48651147 391.13147771 C853.10867221 404.55253415 848.83617166 418.00505989 844.5912478 431.46866643 C840.55270085 444.26591347 836.37365539 457.00953422 832.09716821 469.72904241 C828.39027911 480.76306107 824.81475663 491.83163298 821.34494042 502.94245183 C821.11571893 503.67619024 820.88649743 504.40992864 820.65032983 505.16590154 C820.19072757 506.63726893 819.73114791 508.10864339 819.27159142 509.58002508 C819.04700753 510.29903997 818.82242364 511.01805486 818.59103417 511.75885808 C818.36810189 512.47271673 818.14516961 513.18657537 817.91548181 513.92206609 C812.67419366 530.68668118 807.20426036 547.37853814 801.72775292 564.06745183 C800.16250817 568.83823906 798.59742904 573.60908058 797.03244042 578.37995183 C796.63835992 579.58096532 796.24427941 580.78197881 795.83825707 582.01938665 C790.9425358 596.94673263 786.11350657 611.89002107 781.45019555 626.89154851 C777.8560046 638.4446356 774.0658469 649.92455647 770.20904565 661.39240301 C766.47767231 672.49502287 762.88844655 683.6339062 759.40744042 694.81745183 C755.98258939 705.81722098 752.45926548 716.77431985 748.78244042 727.69245183 C744.08417515 741.6495514 739.56981175 755.662238 735.09494042 769.69245183 C730.25981559 784.85153214 725.40422674 800.00283978 720.46994042 815.12995183 C715.23809526 831.17355485 710.08508398 847.24166825 704.95227075 863.31720769 C699.70359849 879.75322716 694.40378572 896.17181374 689.04220605 912.57135808 C686.59506076 920.06467224 684.16729463 927.55854409 681.96994042 935.12995183 C678.46507239 934.57545146 675.96594481 933.75834951 672.99337792 931.82917058 C672.25047509 931.35302312 671.50757226 930.87687566 670.74215722 930.38629949 C669.55553491 929.6097199 669.55553491 929.6097199 668.34494042 928.81745183 C666.63023384 927.71437401 664.91538626 926.61151532 663.20040917 925.50885808 C662.32819726 924.94440984 661.45598535 924.3799616 660.55734277 923.79840887 C656.61008842 921.25306671 652.63309174 918.75560205 648.65744042 916.25495183 C640.81232912 911.30465235 632.9859799 906.32510923 625.1620791 901.34137762 C619.27277966 897.59134259 613.37540261 893.85447604 607.46994042 890.12995183 C600.62583886 885.81343584 593.79463177 881.47708923 586.96994042 877.12995183 C574.13461842 868.95665228 561.28136934 860.81384018 548.36788964 852.76447332 C537.97626077 846.28628052 527.63732112 839.73265213 517.33346581 833.11579168 C509.19334096 827.89540459 501.00423182 822.75747216 492.7961123 817.64484441 C485.08188671 812.83616638 477.4072462 807.96777574 469.74411035 803.07819402 C461.85082246 798.04470896 453.92002872 793.07312994 445.96994042 788.12995183 C446.53387934 780.63233777 448.79191889 773.92549955 451.15744042 766.81745183 C451.60333419 765.45872768 452.04845957 764.09975116 452.49288964 762.74054754 C453.46225719 759.77930365 454.43560062 756.81940767 455.41183496 753.86042058 C457.86868378 746.40905798 460.29597293 738.94803596 462.72534204 731.48767889 C463.30801438 729.69849956 463.89092283 727.9093971 464.4740603 726.12036932 C474.20786116 696.25589762 483.82764008 666.35254856 493.14196801 636.3543781 C495.73675163 628.00091313 498.42140249 619.68717866 501.22482324 611.40168035 C504.03081681 603.05732863 506.65434779 594.65653443 509.28244042 586.25495183 C513.14744644 573.90041534 517.06922145 561.56722587 521.06124902 549.25299871 C523.43469411 541.92369556 525.78072447 534.58632975 528.09884667 527.23932683 C528.36829598 526.38551427 528.63774529 525.53170171 528.91535974 524.65201604 C529.46734072 522.90278039 530.0193172 521.15354332 530.5712893 519.40430486 C534.74141954 506.19120632 538.97688928 493.00807313 543.40744042 479.87995183 C547.91271087 466.52284913 552.16214598 453.09131832 556.34494042 439.62995183 C556.64012567 438.68100042 556.93531091 437.732049 557.23944116 436.75434148 C558.90996226 431.37825516 560.56795899 425.99852806 562.21054101 420.61383855 C562.70751412 418.9883107 563.20716548 417.36359866 563.70980859 415.73981512 C574.15188656 381.98108209 572.02857018 347.71870186 555.59494042 316.25495183 C549.7161039 305.38543949 542.43697412 296.10922601 533.96994042 287.12995183 C533.06888574 286.13221746 533.06888574 286.13221746 532.14962792 285.11432683 C509.79910486 261.31247111 477.28789307 250.3986091 445.34837152 249.01651034 C438.67851661 248.83218432 432.00833276 248.84456134 425.3364718 248.85147893 C423.10917871 248.84646495 420.88188743 248.84058596 418.65459865 248.8339262 C412.58627326 248.8182456 406.51799432 248.81470216 400.44965112 248.8132776 C394.56185472 248.80994498 388.67408295 248.79727564 382.78629973 248.78487773 C370.75622346 248.75986349 358.72615159 248.74392988 346.6960547 248.7332958 C334.79659929 248.72274708 322.89716045 248.70808611 310.99771714 248.68801534 C310.25594132 248.68676647 309.5141655 248.68551761 308.74991162 248.68423089 C304.98231767 248.67786654 301.21472383 248.67142951 297.44713005 248.66496451 C270.80899019 248.61938531 244.17084496 248.58290204 217.53268456 248.55182683 C191.66516352 248.52162967 165.79765341 248.48727578 139.9301455 248.44733465 C138.73267304 248.44548814 138.73267304 248.44548814 137.51100922 248.44360433 C129.49349952 248.43123675 121.47598995 248.41878509 113.45848047 248.40627185 C97.12804725 248.38078623 80.79761319 248.3558615 64.46717858 248.3312763 C63.71644503 248.33014539 62.96571148 248.32901448 62.19222842 248.3278493 C12.11814505 248.25248169 -37.95595601 248.19022715 -88.03005958 248.12995183 C-87.89374244 246.71634941 -87.75138177 245.30332915 -87.60656714 243.89057195 C-87.52795636 243.10363706 -87.44934558 242.31670217 -87.36835265 241.50592077 C-86.82792603 237.71028626 -85.57532369 234.2470472 -84.25662208 230.66120183 C-83.97736884 229.87636922 -83.69811561 229.09153661 -83.41040015 228.2829212 C-82.81160919 226.60269178 -82.20856068 224.92397448 -81.60159278 223.24668157 C-79.97694953 218.7552889 -78.38492026 214.25230741 -76.78787208 209.75104558 C-76.46510291 208.84410451 -76.14233375 207.93716344 -75.8097837 207.00273931 C-72.94355124 198.93363234 -70.21182236 190.82439558 -67.53005958 182.69245183 C-66.64447027 180.01369169 -65.75762339 177.33535035 -64.86990333 174.65729558 C-64.64543021 173.98009466 -64.4209571 173.30289373 -64.18968177 172.60517156 C-61.21045785 163.63709623 -58.15023268 154.69651464 -55.09255958 145.75495183 C-54.79593421 144.8872315 -54.49930884 144.01951116 -54.19369483 143.12549627 C-51.10210757 134.08368102 -48.00224097 125.04473455 -44.89334083 116.00885808 C-39.99876518 101.77866385 -35.14654992 87.53695789 -30.40505958 73.25495183 C-25.51148086 58.5193309 -20.56150399 43.80304109 -15.5799253 29.09693182 C-14.75623792 26.66422418 -13.93360279 24.23116 -13.11202979 21.79773748 C-11.95872379 18.38273753 -10.80157058 14.96906573 -9.64334083 11.55573308 C-9.11763747 9.99594984 -9.11763747 9.99594984 -8.58131385 8.40465581 C-8.09828551 6.98537534 -8.09828551 6.98537534 -7.60549903 5.53742254 C-7.32414603 4.70668722 -7.04279304 3.8759519 -6.75291419 3.02004278 C-5.35724321 -0.62930112 -3.6939777 0.00372549 0 0 Z " fill="#00C7B1" transform="translate(88.03005957603455,840.8700481653214)"/>
<path d="M0 0 C3.50486803 0.55450037 6.00399562 1.37160232 8.9765625 3.30078125 C9.71946533 3.77692871 10.46236816 4.25307617 11.2277832 4.74365234 C12.41440552 5.52023193 12.41440552 5.52023193 13.625 6.3125 C15.33970659 7.41557783 17.05455417 8.51843651 18.76953125 9.62109375 C19.64174316 10.18554199 20.51395508 10.74999023 21.41259766 11.33154297 C25.359852 13.87688513 29.33684868 16.37434979 33.3125 18.875 C41.1576113 23.82529949 48.98396053 28.80484261 56.80786133 33.78857422 C62.69716077 37.53860925 68.59453782 41.27547579 74.5 45 C81.34410156 49.31651599 88.17530865 53.6528626 95 58 C107.835322 66.17329956 120.68857109 74.31611166 133.60205078 82.36547852 C143.99367965 88.84367132 154.3326193 95.3972997 164.63647461 102.01416016 C172.77659946 107.23454725 180.96570861 112.37247967 189.17382812 117.48510742 C196.88805371 122.29378545 204.56269422 127.1621761 212.22583008 132.05175781 C220.11911797 137.08524288 228.04991171 142.05682189 236 147 C235.43606109 154.49761406 233.17802153 161.20445229 230.8125 168.3125 C230.36660624 169.67122416 229.92148085 171.03020067 229.47705078 172.3894043 C228.50768324 175.35064818 227.53433981 178.31054416 226.55810547 181.26953125 C224.10125664 188.72089385 221.67396749 196.18191588 219.24459839 203.64227295 C218.66192604 205.43145228 218.0790176 207.22055473 217.49588013 209.00958252 C207.59555406 239.38497355 197.76403663 269.78886452 188.35644531 300.32104492 C186.22744942 307.20059851 183.9993156 314.03924073 181.7109375 320.8671875 C177.76293513 332.64834111 173.96652241 344.47623754 170.1875 356.3125 C169.83894958 357.40261383 169.49039917 358.49272766 169.13128662 359.61587524 C164.91827753 372.79274113 160.73307783 385.97753742 156.625 399.1875 C150.42082917 419.13364598 143.96628438 438.99689922 137.47167969 458.84991455 C134.26784419 468.64580422 131.07750567 478.4460501 127.89428711 488.24865723 C127.03744824 490.88478761 126.17816296 493.5201088 125.31835938 496.15527344 C111.9105796 537.31280729 104.85445089 576.20727522 125.22583008 616.67480469 C131.34873608 628.39769164 138.9311654 638.38251704 148 648 C148.90105469 648.99773437 148.90105469 648.99773437 149.8203125 650.015625 C172.17083556 673.81748073 204.68204736 684.73134273 236.6215689 686.1134415 C243.29142381 686.29776751 249.96160767 686.28539049 256.63346863 686.2784729 C258.86076172 686.28348689 261.08805299 686.28936587 263.31534177 686.29602563 C269.38366716 686.31170624 275.4519461 686.31524968 281.5202893 686.31667423 C287.40808571 686.32000686 293.29585747 686.33267619 299.18364069 686.3450741 C311.21371696 686.37008834 323.24378883 686.38602196 335.27388573 686.39665604 C347.17334114 686.40720476 359.07277997 686.42186572 370.97222328 686.44193649 C371.7139991 686.44318536 372.45577492 686.44443423 373.2200288 686.44572094 C376.98762276 686.4520853 380.75521659 686.45852233 384.52281038 686.46498732 C411.16095023 686.51056652 437.79909547 686.5470498 464.43725586 686.578125 C490.3047769 686.60832216 516.17228701 686.64267605 542.03979492 686.68261719 C543.23726738 686.68446369 543.23726738 686.68446369 544.4589312 686.6863475 C552.4764409 686.69871509 560.49395047 686.71116675 568.51145995 686.72367998 C584.84189317 686.74916561 601.17232724 686.77409034 617.50276184 686.79867554 C618.25349539 686.79980645 619.00422895 686.80093736 619.777712 686.80210253 C669.85179538 686.87747014 719.92589644 686.93972468 770 687 C769.86368286 688.41360243 769.72132219 689.82662268 769.57650757 691.23937988 C769.45859139 692.41978222 769.45859139 692.41978222 769.33829308 693.62403107 C768.79786645 697.41966557 767.54526411 700.88290463 766.2265625 704.46875 C765.80768265 705.64599892 765.80768265 705.64599892 765.38034058 706.84703064 C764.78154961 708.52726006 764.1785011 710.20597736 763.5715332 711.88327026 C761.94688996 716.37466294 760.35486069 720.87764442 758.7578125 725.37890625 C758.27365875 726.73931786 758.27365875 726.73931786 757.77972412 728.12721252 C754.91349167 736.19631949 752.18176279 744.30555625 749.5 752.4375 C748.61441069 755.11626015 747.72756382 757.79460149 746.83984375 760.47265625 C746.50313408 761.48845764 746.50313408 761.48845764 746.15962219 762.52478027 C743.18039827 771.49285561 740.1201731 780.43343719 737.0625 789.375 C736.76587463 790.24272034 736.46924927 791.11044067 736.16363525 792.00445557 C733.07204799 801.04627082 729.97218139 810.08521729 726.86328125 819.12109375 C721.9687056 833.35128799 717.11649035 847.59299395 712.375 861.875 C707.48142129 876.61062093 702.53144441 891.32691074 697.54986572 906.03302002 C696.72617834 908.46572766 695.90354321 910.89879183 695.08197021 913.33221436 C693.92866422 916.7472143 692.771511 920.16088611 691.61328125 923.57421875 C691.26281235 924.61407425 690.91234344 925.65392975 690.55125427 926.72529602 C690.22923538 927.671483 689.90721649 928.61766998 689.57543945 929.5925293 C689.29408646 930.42326462 689.01273346 931.25399994 688.72285461 932.10990906 C688 934 688 934 687 935 C685.32570853 935.09950962 683.64718555 935.12826028 681.96994042 935.12995183 C680.87097668 935.13348025 679.77201294 935.13700867 678.63974726 935.14064401 C677.41487491 935.13944624 676.19000255 935.13824846 674.92801285 935.13701439 C673.63506274 935.13966622 672.34211264 935.14231804 671.00998223 935.14505023 C667.38841935 935.15232164 663.76687713 935.15327949 660.14530795 935.153273 C656.21766009 935.15433829 652.29002159 935.16112367 648.36237884 935.1671797 C640.55767334 935.1782792 632.75297236 935.18390986 624.94826036 935.18788858 C615.60591085 935.19288848 606.26357013 935.20361451 596.92122579 935.21437032 C574.33700619 935.240028 551.75278316 935.2550407 529.16855316 935.26788078 C521.69101589 935.27213286 514.21347886 935.27669852 506.73594189 935.2814641 C467.00894196 935.30672097 427.28194164 935.32877726 387.55493546 935.34119225 C378.34619393 935.34411376 369.13745243 935.34708124 359.92871094 935.35009766 C358.78459812 935.35046857 357.64048529 935.35083947 356.46170239 935.35122162 C319.3509251 935.3633823 282.24019518 935.39433361 245.12944015 935.43601918 C207.00250331 935.47876833 168.8755915 935.50542835 130.74863004 935.51066696 C125.36804164 935.51140746 119.98745328 935.51231815 114.60686493 935.51332474 C113.54785528 935.51351535 112.48884562 935.51370597 111.39774477 935.51390236 C94.32609411 935.51742161 77.2545026 935.53774566 60.18287369 935.56412137 C43.03587646 935.59021488 25.88894786 935.59801515 8.74193361 935.58702008 C-1.45510219 935.58102597 -11.65190586 935.58904538 -21.84890671 935.61685092 C-28.65230338 935.6340356 -35.45554084 935.63321121 -42.25894071 935.61748323 C-46.14074442 935.60902947 -50.02210354 935.60863566 -53.90386698 935.63009469 C-58.07780247 935.65298459 -62.25069623 935.63753635 -66.42464828 935.61803246 C-68.24790982 935.63730629 -68.24790982 935.63730629 -70.10800493 935.65696949 C-79.1393507 935.56337476 -79.1393507 935.56337476 -82.20125794 932.56881011 C-82.79484282 931.72110277 -83.3884277 930.87339544 -84 930 C-84.44722412 929.43273193 -84.89444824 928.86546387 -85.35522461 928.28100586 C-85.70077393 927.76417236 -86.04632324 927.24733887 -86.40234375 926.71484375 C-86.8099292 926.112771 -87.21751465 925.51069824 -87.63745117 924.89038086 C-88.06646729 924.24593018 -88.4954834 923.60147949 -88.9375 922.9375 C-89.91054575 921.49938212 -90.88454895 920.06191171 -91.859375 918.625 C-92.62604492 917.49191406 -92.62604492 917.49191406 -93.40820312 916.3359375 C-96.12931445 912.34274837 -98.90999906 908.39157575 -101.6875 904.4375 C-111.04528521 891.09413599 -120.35982909 877.72035401 -129.625 864.3125 C-136.90698177 853.78333471 -144.27330471 843.31257305 -151.625 832.83203125 C-156.99001796 825.18027232 -162.34400638 817.52255934 -167.625 809.8125 C-171.27055932 804.49053976 -174.95937266 799.20194356 -178.6875 793.9375 C-185.49270814 784.32745763 -192.20932858 774.65638081 -198.92675781 764.98486328 C-201.65469179 761.05743502 -204.38356067 757.13066006 -207.11450195 753.20532227 C-208.44604345 751.28942242 -209.77533995 749.3719602 -211.10229492 747.45288086 C-214.39562945 742.69811634 -217.72873586 737.9823495 -221.15234375 733.3203125 C-221.81024902 732.41369873 -222.4681543 731.50708496 -223.14599609 730.57299805 C-224.39108178 728.86080697 -225.64984791 727.15845146 -226.92431641 725.46801758 C-227.47651855 724.70384521 -228.0287207 723.93967285 -228.59765625 723.15234375 C-229.08758057 722.49226318 -229.57750488 721.83218262 -230.08227539 721.15209961 C-232.4070654 715.70037735 -228.66951042 708.46009573 -226.9296875 703.09375 C-226.61697906 702.11821167 -226.30427063 701.14267334 -225.98208618 700.13757324 C-224.95055302 696.92369414 -223.91287085 693.71183751 -222.875 690.5 C-222.14751956 688.23836708 -221.42030987 685.97664706 -220.69335938 683.71484375 C-215.69823786 668.19020037 -210.64855935 652.68339027 -205.57861328 637.18304443 C-200.27120761 620.95621815 -195.04930238 604.70306118 -189.85800171 588.43875122 C-185.12445532 573.60977152 -180.34565351 558.79660029 -175.51657104 543.99847412 C-171.13873178 530.57741768 -166.86623124 517.12489194 -162.62130737 503.6612854 C-158.58276042 490.86403837 -154.40371496 478.12041762 -150.12722778 465.40090942 C-146.42033869 454.36689076 -142.8448162 443.29831886 -139.375 432.1875 C-139.1457785 431.4537616 -138.91655701 430.72002319 -138.6803894 429.96405029 C-138.22078715 428.4926829 -137.76120748 427.02130845 -137.301651 425.54992676 C-136.96477516 424.47140442 -136.96477516 424.47140442 -136.62109375 423.37109375 C-136.39816147 422.65723511 -136.17522919 421.94337646 -135.94554138 421.20788574 C-130.70425325 404.44327068 -125.23432097 387.75141334 -119.7578125 371.0625 C-118.19256509 366.29171365 -116.62748344 361.52087295 -115.0625 356.75 C-114.66875183 355.54998352 -114.27500366 354.34996704 -113.86932373 353.11358643 C-108.95089753 338.11677008 -104.09948283 323.1037483 -99.41186523 308.03323364 C-96.0377771 297.19226545 -92.50042713 286.41444418 -88.87796021 275.65411377 C-85.11817212 264.4768548 -81.52607833 253.25302293 -78 242 C-74.35748881 230.37873793 -70.63719428 218.79174605 -66.75 207.25 C-62.07240606 193.35548179 -57.58001385 179.40486823 -53.125 165.4375 C-48.28982515 150.27843546 -43.43428643 135.12711239 -38.5 120 C-33.26815484 103.95639699 -28.11514355 87.88828358 -22.98233032 71.81274414 C-17.73365807 55.37672468 -12.4338453 38.95813809 -7.07226562 22.55859375 C-4.62512034 15.06527959 -2.1973542 7.57140774 0 0 Z " fill="#00C7B1" transform="translate(1230,0)"/>
</svg>
