<?xml version="1.0" encoding="UTF-8"?>
<svg version="1.1" xmlns="http://www.w3.org/2000/svg" width="320" height="320">
<path d="M0 0 C1.32791868 0.22506139 2.65598597 0.44924746 3.98419189 0.67260742 C7.43792493 1.25577591 10.88954299 1.85061371 14.34082031 2.44812012 C17.87963158 3.05857733 21.42036354 3.65767933 24.9609375 4.2578125 C31.87689289 5.4317622 38.7906725 6.61808228 45.703125 7.8125 C45.703125 10.8125 45.703125 10.8125 44.453125 12.390625 C43.875625 12.94234375 43.298125 13.4940625 42.703125 14.0625 C42.05730469 14.68125 41.41148437 15.3 40.74609375 15.9375 C38.21153627 18.2636713 35.63237526 20.53056804 33.02734375 22.77734375 C30.08819618 25.35095028 27.20642597 27.98372546 24.328125 30.625 C23.80387939 31.10549805 23.27963379 31.58599609 22.73950195 32.08105469 C20.69358704 33.96117477 18.66812901 35.84749599 16.703125 37.8125 C25.73796179 64.03186919 34.81039557 90.23689622 44.078125 116.375 C44.43574921 117.38393311 44.79337341 118.39286621 45.16183472 119.43237305 C46.18254184 122.31069344 47.20430103 125.18863757 48.2265625 128.06640625 C48.53833939 128.94503326 48.85011627 129.82366028 49.17134094 130.72891235 C51.09153504 136.12918296 53.05295459 141.51174703 55.09619141 146.86694336 C55.703125 148.8125 55.703125 148.8125 55.703125 151.8125 C56.6825708 151.36036133 57.6620166 150.90822266 58.67114258 150.44238281 C75.23042482 142.80143047 91.79057672 135.16374812 108.453125 127.75 C109.5872583 127.24436523 110.7213916 126.73873047 111.88989258 126.21777344 C112.91622803 125.76305664 113.94256348 125.30833984 115 124.83984375 C115.89041992 124.44531006 116.78083984 124.05077637 117.69824219 123.64428711 C119.703125 122.8125 119.703125 122.8125 120.703125 122.8125 C120.14384395 129.13674806 118.63444762 134.60596205 116.5 140.5703125 C116.18033264 141.47699677 115.86066528 142.38368103 115.53131104 143.31784058 C114.85628657 145.22363871 114.17699337 147.12792973 113.49365234 149.03076172 C112.45557523 151.93065522 111.44007109 154.83780798 110.42578125 157.74609375 C109.76437822 159.60465028 109.10166162 161.46273998 108.4375 163.3203125 C108.13833679 164.18294708 107.83917358 165.04558167 107.53094482 165.93435669 C104.61097297 173.95104813 100.29154436 178.68122703 93.453125 183.8125 C92.20429458 184.77157238 90.95696579 185.73260239 89.7109375 186.6953125 C89.05770508 187.1996582 88.40447266 187.70400391 87.73144531 188.22363281 C84.21127104 190.9811309 80.77153325 193.83513333 77.328125 196.6875 C71.78393592 201.27292424 66.22770289 205.84189342 60.640625 210.375 C59.66210571 211.16898193 59.66210571 211.16898193 58.66381836 211.97900391 C57.34567174 213.04817632 56.02739361 214.1171866 54.70898438 215.18603516 C51.9545163 217.41951451 49.20118859 219.65438776 46.44995117 221.8918457 C45.09106313 222.99426074 43.72929771 224.09313965 42.36450195 225.18823242 C39.36328363 227.60326657 36.42107616 230.03370454 33.60546875 232.6640625 C32.68894531 233.49679688 31.77242187 234.32953125 30.828125 235.1875 C30.06757813 235.91710937 29.30703125 236.64671875 28.5234375 237.3984375 C21.99605503 240.67116943 12.66423426 237.3217006 5.79174805 235.80639648 C4.85485641 235.60452225 3.91796478 235.40264801 2.9526825 235.19465637 C-0.12775869 234.52954537 -3.20643354 233.85661048 -6.28515625 233.18359375 C-8.46898549 232.71045633 -10.65292225 232.23781497 -12.83695984 231.76564026 C-18.59576678 230.51924804 -24.35311362 229.26623648 -30.11016846 228.01177979 C-35.83106675 226.76633611 -41.55328204 225.52697811 -47.27539062 224.28710938 C-49.52750496 223.79875599 -51.77961071 223.310363 -54.03170776 222.82192993 C-57.37158776 222.09760272 -60.71151686 221.37350615 -64.05160904 220.65015793 C-84.71223865 216.17577926 -84.71223865 216.17577926 -94.90845585 213.88812542 C-98.37556914 213.11074768 -101.84430952 212.34078899 -105.31322289 211.57148933 C-106.89289736 211.21871438 -108.47169052 210.86196549 -110.04949379 210.50091362 C-112.18742869 210.01170517 -114.32792902 209.53581622 -116.46948242 209.06274414 C-117.65281662 208.79514786 -118.83615082 208.52755157 -120.05534363 208.25184631 C-125.75622867 207.47916743 -129.95681528 208.9073053 -135.046875 211.375 C-140.10140758 213.8125 -140.10140758 213.8125 -142.296875 213.8125 C-141.636875 229.6525 -140.976875 245.4925 -140.296875 261.8125 C-135.56278845 247.713754 -135.56278845 247.713754 -130.87426758 233.59985352 C-130.27329794 231.83814043 -129.67078319 230.07695333 -129.06640625 228.31640625 C-128.76810913 227.39307495 -128.46981201 226.46974365 -128.16247559 225.51843262 C-127.85853882 224.64553589 -127.55460205 223.77263916 -127.24145508 222.87329102 C-126.98608475 222.11162125 -126.73071442 221.34995148 -126.46760559 220.56520081 C-125.296875 218.8125 -125.296875 218.8125 -122.94604492 218.00842285 C-120.34137933 217.81579138 -118.48539247 217.98503896 -115.96557617 218.61694336 C-115.145103 218.81722641 -114.32462982 219.01750946 -113.47929382 219.22386169 C-112.6082753 219.44776077 -111.73725677 219.67165985 -110.83984375 219.90234375 C-109.93688065 220.12571915 -109.03391754 220.34909454 -108.10359192 220.57923889 C-105.22796646 221.29300735 -102.35624415 222.02128092 -99.484375 222.75 C-97.53214083 223.23728982 -95.57966915 223.72362911 -93.62695312 224.20898438 C-88.84743709 225.39915529 -84.07136868 226.60234572 -79.296875 227.8125 C-77.38372113 234.13636831 -80.29056647 241.13208991 -83.296875 246.8125 C-86.14903928 250.06013243 -89.51574638 251.77444486 -93.296875 253.8125 C-95.60040269 255.17818571 -97.88909203 256.56726108 -100.17919922 257.95532227 C-102.77336407 259.52357002 -105.37814391 261.0729973 -107.984375 262.62109375 C-113.11968662 265.68780711 -118.18557887 268.85580458 -123.234375 272.0625 C-124.40782471 272.80681274 -124.40782471 272.80681274 -125.60498047 273.56616211 C-127.11927655 274.5269668 -128.63344132 275.48797848 -130.14746094 276.44921875 C-133.37789198 278.49814275 -136.6130754 280.53880876 -139.859375 282.5625 C-140.87128906 283.19671875 -141.88320312 283.8309375 -142.92578125 284.484375 C-145.296875 285.8125 -145.296875 285.8125 -147.296875 285.8125 C-150.0105643 275.22230937 -152.49741817 264.60826995 -154.75 253.91015625 C-155.0581662 252.45242812 -155.36633272 250.99470005 -155.67449951 249.53697205 C-156.31203708 246.51659136 -156.9468183 243.49564548 -157.58007812 240.47436523 C-158.38767984 236.62438061 -159.20658069 232.77688922 -160.02800369 228.92983341 C-160.66552108 225.93436274 -161.29488687 222.93722073 -161.92208099 219.93957329 C-162.22048865 218.52012627 -162.52185475 217.10129749 -162.82639313 215.68315315 C-166.94791496 196.45352524 -166.94791496 196.45352524 -163.27734375 190.58203125 C-162.36717751 189.57709427 -161.43480508 188.59194549 -160.484375 187.625 C-159.4635687 186.50755715 -158.44541755 185.38768404 -157.4296875 184.265625 C-156.90665039 183.69779297 -156.38361328 183.12996094 -155.84472656 182.54492188 C-153.3660402 179.77066975 -151.1216994 176.82609117 -148.859375 173.875 C-145.07078572 168.98770621 -141.15451959 164.23951947 -137.109375 159.5625 C-133.74092375 155.66747765 -130.39648914 151.76616933 -127.171875 147.75 C-126.54796875 146.97914063 -125.9240625 146.20828125 -125.28125 145.4140625 C-123.74344587 143.39796497 -122.33314473 141.38488391 -120.9375 139.2734375 C-120.31125732 138.36670288 -120.31125732 138.36670288 -119.67236328 137.44165039 C-118.8593308 136.26051516 -118.07436438 135.05938745 -117.32373047 133.83764648 C-116.1796875 132.20703125 -116.1796875 132.20703125 -113.296875 129.8125 C-106.43365394 129.51886914 -99.26475419 131.50423873 -92.58642578 132.9296875 C-91.56726578 133.14280579 -90.54810577 133.35592407 -89.49806213 133.57550049 C-86.16169516 134.27448686 -82.82694949 134.98089979 -79.4921875 135.6875 C-77.16202829 136.1773577 -74.83177571 136.66677139 -72.50143433 137.15576172 C-66.3897503 138.43955606 -60.27943998 139.72977713 -54.16937256 141.02124023 C-49.17295663 142.076201 -44.17559673 143.1266471 -39.17817879 144.17684937 C-28.86145026 146.34497346 -18.54532304 148.51597524 -8.23095703 150.6953125 C-6.80335304 150.99613739 -6.80335304 150.99613739 -5.34690857 151.30303955 C-4.47237534 151.48808044 -3.5978421 151.67312134 -2.69680786 151.86376953 C-1.93917711 152.02378448 -1.18154636 152.18379944 -0.40095711 152.34866333 C1.6443731 152.79954837 3.67396269 153.29408929 5.703125 153.8125 C3.3067872 146.86385428 0.90776139 139.9161404 -1.49291992 132.96899414 C-2.30502621 130.61795841 -3.11657243 128.26672913 -3.92749023 125.9152832 C-5.11024796 122.48594657 -6.2948037 119.05723875 -7.48046875 115.62890625 C-7.87301849 114.49329254 -8.26556824 113.35767883 -8.67001343 112.18765259 C-10.70748374 106.31560421 -12.77804223 100.45776235 -14.90283203 94.61669922 C-15.32089615 93.46709213 -15.73896027 92.31748505 -16.16969299 91.13304138 C-16.96961681 88.9414847 -17.77390114 86.75151334 -18.58311462 84.56336975 C-18.93990799 83.58718185 -19.29670135 82.61099396 -19.66430664 81.60522461 C-19.98049454 80.74900009 -20.29668243 79.89277557 -20.62245178 79.01060486 C-21.296875 76.8125 -21.296875 76.8125 -21.296875 73.8125 C-21.956875 73.8125 -22.616875 73.8125 -23.296875 73.8125 C-23.46435745 74.46720779 -23.6318399 75.12191559 -23.80439758 75.79646301 C-25.6885013 82.95250336 -27.9924451 89.87507268 -30.52734375 96.82421875 C-30.92262772 97.91845657 -31.31791168 99.0126944 -31.72517395 100.14009094 C-32.97421685 103.59486645 -34.22918821 107.04745258 -35.484375 110.5 C-36.33828536 112.85858109 -37.19180472 115.21730377 -38.04492188 117.57617188 C-40.1243914 123.32325837 -42.20871733 129.06856496 -44.296875 134.8125 C-52.92485686 133.14145745 -61.43220621 131.13705072 -69.94995117 128.98120117 C-71.57097343 128.57335861 -73.19341219 128.17110951 -74.81713867 127.77416992 C-77.17954578 127.19639832 -79.53723625 126.60214748 -81.89453125 126.00390625 C-82.98810692 125.74124718 -82.98810692 125.74124718 -84.10377502 125.47328186 C-86.12915039 124.94750977 -86.12915039 124.94750977 -89.296875 123.8125 C-90.43398439 120.40117184 -90.17503656 119.73313721 -89.02783203 116.46020508 C-88.72163437 115.57254456 -88.41543671 114.68488403 -88.09996033 113.77032471 C-87.58255028 112.31586945 -87.58255028 112.31586945 -87.0546875 110.83203125 C-86.69963638 109.81155701 -86.34458527 108.79108276 -85.97877502 107.73968506 C-84.80198477 104.36495843 -83.61211806 100.99500307 -82.421875 97.625 C-81.60323797 95.2872676 -80.7852931 92.94929272 -79.96801758 90.61108398 C-77.84490295 84.54547499 -75.70994521 78.48410898 -73.57098389 72.42407227 C-72.32913038 68.90393066 -71.09006943 65.38282006 -69.85205078 61.86132812 C-67.56756676 55.36420851 -65.27792994 48.86892282 -62.984375 42.375 C-62.63111145 41.37433502 -62.2778479 40.37367004 -61.91387939 39.34268188 C-60.28358723 34.72971451 -58.64201785 30.12195199 -56.96801758 25.5246582 C-55.92113251 22.63408879 -54.96252679 19.74884034 -54.1159668 16.79370117 C-52.22614306 10.71207617 -50.72585278 7.41268583 -44.98046875 4.35546875 C-42.9174643 3.52159999 -40.83398376 2.73686331 -38.734375 2 C-37.20200195 1.37254883 -37.20200195 1.37254883 -35.63867188 0.73242188 C-23.63147352 -3.88106948 -12.42549721 -2.17348635 0 0 Z " fill="#00FFFF" transform="translate(182.296875,18.1875)"/>
<path d="M0 0 C6.22088347 16.6985752 12.27100314 33.45476376 18.16500854 50.27157593 C18.84695093 52.21632784 19.53048541 54.1605222 20.21560669 56.10415649 C21.18373993 58.85292513 22.14553603 61.60382724 23.10546875 64.35546875 C23.39870026 65.1854538 23.69193176 66.01543884 23.99404907 66.87057495 C26 72.65622469 26 72.65622469 26 76 C22.08768344 75.38100474 18.95482625 74.18132003 15.40283203 72.44311523 C14.30464142 71.90843124 13.20645081 71.37374725 12.07498169 70.82286072 C10.89781586 70.24065262 9.72065002 69.65844452 8.5078125 69.05859375 C7.90331142 68.76058428 7.29881035 68.46257481 6.67599106 68.15553474 C3.47456836 66.57726166 0.27663589 64.9921693 -2.91845703 63.40112305 C-6.19747571 61.76981632 -9.48701086 60.1610512 -12.77966118 58.5574789 C-15.32875604 57.31106015 -17.86950971 56.04831265 -20.40835953 54.78117561 C-22.19894796 53.89255243 -23.99794367 53.02093409 -25.79708862 52.14976501 C-32.29454682 48.87455389 -38.28974533 45.50761247 -42 39 C-42 35 -42 35 -39.98046875 32.73828125 C-39.05878906 31.93777344 -38.13710937 31.13726562 -37.1875 30.3125 C-36.69048584 29.87607178 -36.19347168 29.43964355 -35.68139648 28.98999023 C-31.49018521 25.33796048 -27.16242134 21.85298096 -22.8359375 18.36328125 C-18.69500261 14.91250217 -14.76442101 11.25493038 -10.82421875 7.578125 C-2.52272727 0 -2.52272727 0 0 0 Z " fill="#00FFFF" transform="translate(259,228)"/>
</svg>
