<?xml version="1.0" encoding="UTF-8"?>
<svg version="1.1" xmlns="http://www.w3.org/2000/svg" width="1091" height="2000">
<path d="M0 0 C1.32 0 2.64 0 4 0 C4.21725235 0.57738419 4.4345047 1.15476837 4.65834045 1.74964905 C18.4476098 38.40165466 18.4476098 38.40165466 32.44546509 74.9743042 C36.24529495 84.81619589 40.02008384 94.66706553 43.76171875 104.53125 C44.17486832 105.62025101 44.58801788 106.70925201 45.01368713 107.83125305 C47.02541112 113.13548908 49.03485147 118.44057725 51.04125977 123.74682617 C56.8988837 139.21589845 62.92269078 154.6162066 69 170 C81.93305703 170.69526122 94.866247 171.38802168 107.79953384 172.07899475 C109.92626298 172.19262877 112.05298978 172.30630647 114.1797142 172.42002869 C138.36406527 173.71309156 162.54889177 174.99190685 186.73828125 176.1875 C188.12948496 176.25636539 188.12948496 176.25636539 189.54879379 176.32662201 C198.37542961 176.76334185 207.2021959 177.19713336 216.02938557 177.62252045 C219.24435441 177.77791495 222.4592177 177.93542033 225.67406273 178.09335327 C227.14744269 178.16518084 228.62087216 178.23600154 230.09435463 178.30569458 C237.43371351 178.65288232 244.70893073 179.07742183 252 180 C251.15374785 184.66151644 248.33620036 186.6732908 244.8125 189.5625 C244.1839209 190.0891626 243.5553418 190.6158252 242.90771484 191.15844727 C237.57091473 195.60178907 232.11501114 199.89077606 226.6328125 204.15234375 C222.70879081 207.21162336 218.85343632 210.35257207 215 213.5 C209.93471589 217.63456483 204.83933152 221.72375484 199.6875 225.75 C194.72850347 229.62693327 189.82702555 233.56423009 184.96484375 237.5625 C175.81604143 245.08404499 166.6248003 252.54601604 157.28979492 259.83544922 C152.12886254 263.87520095 147.04926163 268.01125631 141.97192383 272.15527344 C138.15931975 275.26153175 134.32638756 278.33751538 130.45336914 281.36816406 C129.29000535 282.27852478 128.1289692 283.1918691 126.97045898 284.10839844 C124.23231217 286.27283452 121.47649457 288.39160081 118.6484375 290.4375 C117.63007812 291.200625 116.61171875 291.96375 115.5625 292.75 C114.65628906 293.40484375 113.75007812 294.0596875 112.81640625 294.734375 C110.64220186 296.91722303 110.64220186 296.91722303 111.23693848 300.06509399 C112.01529806 304.52052943 113.19721644 308.86558893 114.39257812 313.22412109 C114.63495712 314.12086548 114.87733612 315.01760986 115.12705994 315.94152832 C115.92429466 318.88664499 116.72758841 321.83006867 117.53125 324.7734375 C118.08820055 326.82362683 118.64487791 328.87389039 119.20129395 330.92422485 C120.36540229 335.21014618 121.53245228 339.49525227 122.70166016 343.77978516 C124.20331869 349.28331418 125.69815575 354.78866841 127.19089508 360.29462242 C128.33789414 364.52275675 129.48818018 368.74999119 130.63951111 372.97694778 C131.19229013 375.00776861 131.7440991 377.03885372 132.29493713 379.07020187 C133.06246154 381.89846324 133.83432396 384.72550396 134.60742188 387.55224609 C134.83602402 388.39792145 135.06462616 389.2435968 135.30015564 390.11489868 C136.06917022 393.85775817 136.06917022 393.85775817 138 397 C140.16822636 397.10310237 142.33988107 397.13401992 144.51055241 397.1386652 C145.54810043 397.14292853 145.54810043 397.14292853 146.60660902 397.14727798 C148.95357642 397.15568307 151.30049485 397.1568977 153.6474762 397.15821838 C155.33538381 397.16277979 157.02329028 397.16777918 158.71119541 397.17318195 C163.37217726 397.18682053 168.03315178 397.19419787 172.69414842 397.20060861 C177.71190975 397.20858756 182.7296557 397.22229389 187.74740601 397.23532104 C196.44855329 397.25711949 205.14970211 397.2752516 213.8508625 397.29092598 C226.43143473 397.31359403 239.01198994 397.34174104 251.59254777 397.37124526 C272.00138828 397.41895885 292.41023573 397.46221278 312.8190918 397.50268555 C332.64982646 397.54202134 352.48055495 397.58344294 372.3112793 397.62768555 C373.53269776 397.63040982 374.75411623 397.63313409 376.01254738 397.63594092 C382.13976197 397.64962008 388.26697646 397.66334041 394.39419091 397.67708123 C445.26278107 397.79110516 496.1313846 397.89790138 547 398 C547.06858062 488.28430961 547.13218003 578.56862242 547.16937256 668.85295105 C547.16993036 670.20338828 547.17048817 671.55382552 547.17104598 672.90426275 C547.1827382 701.25396937 547.1936049 729.60367625 547.20351871 757.95338354 C547.20850007 772.19562833 547.21363995 786.43787305 547.21892977 800.68011773 C547.21972677 802.82842756 547.22051924 804.9767374 547.22131152 807.12504724 C547.23354293 840.18289723 547.24916203 873.24074132 547.2746582 906.29858398 C547.2752058 907.0086703 547.27575339 907.71875661 547.27631758 908.45036069 C547.28516642 919.89812677 547.2943011 931.34589263 547.30347376 942.79365846 C547.3299085 975.79049817 547.35420891 1008.78733331 547.36455917 1041.78418255 C547.36488038 1042.80329373 547.36488038 1042.80329373 547.36520808 1043.84299302 C547.36987253 1058.76223515 547.3734513 1073.68147734 547.37600393 1088.60071998 C547.37705033 1094.60488866 547.37825502 1100.6090573 547.37950897 1106.61322594 C547.37977866 1107.92678162 547.38004836 1109.24033731 547.38032622 1110.59369771 C547.38504707 1131.71047064 547.40358307 1152.82720977 547.42732814 1173.94396894 C547.45092252 1195.19029764 547.45986056 1216.43659293 547.45400551 1237.68293426 C547.45097079 1250.29482205 547.45900608 1262.90658729 547.48319017 1275.51845288 C547.49826586 1283.95963773 547.49860149 1292.40074297 547.48732725 1300.84193347 C547.48132828 1305.64107952 547.48138017 1310.43999493 547.49953273 1315.23911557 C547.57306958 1335.89709793 546.8957772 1355.63319592 543 1376 C542.70872626 1377.5776845 542.70872626 1377.5776845 542.41156819 1379.18724141 C534.43189326 1422.34303439 518.20206653 1464.30051009 494 1501 C493.55060059 1501.68449219 493.10120117 1502.36898438 492.63818359 1503.07421875 C483.66704084 1516.64390755 473.871362 1529.2637441 462.71484375 1541.1015625 C460.52129105 1543.44345617 458.39798853 1545.8129164 456.3125 1548.25 C453.19013098 1551.86617434 449.83432024 1555.20551021 446.40625 1558.53125 C444.44519492 1560.54324158 442.61365724 1562.5844084 440.783391 1564.7121582 C437.34795017 1568.64985067 433.75826485 1572.38492043 430.05949402 1576.07421875 C429.06646136 1577.07064974 429.06646136 1577.07064974 428.05336744 1578.08721066 C425.8571866 1580.28966997 423.65750027 1582.48859249 421.45776367 1584.6875 C419.87359053 1586.2746682 418.2896217 1587.86204035 416.70584106 1589.44960022 C412.42149868 1593.74274465 408.1339474 1598.0326702 403.84552169 1602.32173538 C401.16726474 1605.00070419 398.48972151 1607.68038419 395.81243324 1610.36032104 C386.95684737 1619.22466707 378.09921483 1628.08696076 369.23887213 1636.94655168 C368.76244911 1637.42293474 368.2860261 1637.89931781 367.79516602 1638.39013672 C367.31816017 1638.86710168 366.84115432 1639.34406665 366.34969375 1639.8354851 C358.59727193 1647.58749935 350.84986704 1655.34450638 343.10468634 1663.10375476 C335.14615659 1671.07662559 327.18383558 1679.04569369 319.21779042 1687.0110569 C314.74754627 1691.4810455 310.27888558 1695.95259013 305.81404686 1700.42797852 C301.62335659 1704.62830193 297.42795683 1708.82386186 293.2287941 1713.01571465 C291.68465809 1714.55879931 290.14224644 1716.10361161 288.60164452 1717.65022469 C286.50752059 1719.75199312 284.4074101 1721.84758487 282.30558777 1723.94165039 C281.68974561 1724.56263611 281.07390346 1725.18362183 280.43939942 1725.82342529 C276.22827272 1730 276.22827272 1730 274 1730 C273.34 1731.32 272.68 1732.64 272 1734 C271.34 1734 270.68 1734 270 1734 C269.67 1734.99 269.34 1735.98 269 1737 C267.52642071 1738.45295006 267.52642071 1738.45295006 265.60252571 1740.02746677 C260.23482042 1744.58760164 255.31846016 1749.56540273 250.35958862 1754.56053162 C249.3012386 1755.62274827 248.24265402 1756.68473127 247.18385708 1757.74650246 C244.89407346 1760.0436968 242.6059108 1762.34248926 240.31900024 1764.64254379 C236.5972885 1768.38561369 232.87200856 1772.12511961 229.14627075 1775.86418152 C224.43829064 1780.58948953 219.73122359 1785.31570388 215.02522208 1790.04298241 C205.78501988 1799.32483954 196.53796418 1808.59984213 187.2883606 1817.87232971 C185.83095912 1819.33340055 184.37356004 1820.79447378 182.91616333 1822.25554937 C180.70798266 1824.46928276 178.49979288 1826.68300704 176.29158302 1828.8967113 C167.97744881 1837.23153674 159.66381715 1845.56686311 151.35107422 1853.90307617 C150.21182496 1855.04553448 150.21182496 1855.04553448 149.04956056 1856.21107275 C136.72186314 1868.57407129 124.40332489 1880.94616115 112.08764826 1893.32113301 C99.4399811 1906.02917786 86.78093206 1918.72580478 74.11160481 1931.41225582 C66.29772138 1939.237491 58.49316266 1947.0717987 50.700238 1954.91790731 C45.36545582 1960.28746295 40.01983087 1965.64606074 34.66543613 1970.99605893 C31.57445247 1974.08517864 28.48863657 1977.17904808 25.4156723 1980.28610229 C22.60467776 1983.12807732 19.78029624 1985.95598098 16.94445194 1988.77315415 C15.91913417 1989.79662391 14.898918 1990.82523438 13.88430403 1991.85931628 C12.50807186 1993.2604758 11.11151968 1994.64159096 9.71398735 1996.02150631 C8.94293502 1996.79537904 8.17188268 1997.56925177 7.37746513 1998.36657518 C4.3203204 2000.46697027 2.64014214 2000.54659678 -1 2000 C-3.01543146 1998.72860885 -3.01543146 1998.72860885 -4.83217716 1996.9033165 C-5.53423568 1996.21258757 -6.23629419 1995.52185865 -6.95962721 1994.81019855 C-7.71303827 1994.03862831 -8.46644934 1993.26705808 -9.24269104 1992.47210693 C-10.05691668 1991.66230228 -10.87114232 1990.85249762 -11.71004146 1990.01815343 C-13.96680668 1987.76762971 -16.20957564 1985.50415384 -18.44715345 1983.23458123 C-20.8636987 1980.79008291 -23.2975651 1978.36294046 -25.72940063 1975.93367004 C-29.94125309 1971.72155303 -34.1420245 1967.49863993 -38.33554268 1963.2682724 C-44.4035912 1957.14702534 -50.48862748 1951.0428986 -56.57803451 1944.94290724 C-66.46357799 1935.03934802 -76.33601409 1925.12283008 -86.19995117 1915.19775391 C-95.77106618 1905.56738443 -105.3470006 1895.94185666 -114.93041992 1886.32373047 C-115.52042869 1885.73157996 -116.11043745 1885.13942945 -116.71832526 1884.52933499 C-123.16050952 1878.06398735 -129.60373271 1871.59967543 -136.04718685 1865.13559341 C-137.75682055 1863.4204462 -139.46644523 1861.70529 -141.17605907 1859.990123 C-142.30309637 1858.85943417 -143.43014933 1857.72876093 -144.55721819 1856.59810355 C-151.72671444 1849.40559636 -158.89173943 1842.2086745 -166.05190861 1835.00688219 C-169.66579569 1831.37206942 -173.28133554 1827.73890264 -176.89736075 1824.10621706 C-179.29528753 1821.69701639 -181.6922865 1819.28690881 -184.08701515 1816.87452888 C-186.68382147 1814.25934254 -189.28369259 1811.64724064 -191.8842926 1809.03582764 C-192.63993439 1808.27318029 -193.39557617 1807.51053295 -194.17411619 1806.72477508 C-197.03612991 1803.85576788 -199.82414189 1801.13901715 -203.00723171 1798.62276077 C-203.99365201 1797.81949419 -203.99365201 1797.81949419 -205 1797 C-205 1796.34 -205 1795.68 -205 1795 C-205.66 1795 -206.32 1795 -207 1795 C-207 1794.34 -207 1793.68 -207 1793 C-207.99 1792.67 -208.98 1792.34 -210 1792 C-210 1791.34 -210 1790.68 -210 1790 C-210.54056534 1789.78475174 -211.08113068 1789.56950348 -211.63807678 1789.34773254 C-214.83668024 1787.52258347 -217.22537074 1785.03652071 -219.79077148 1782.4362793 C-220.35878479 1781.86855804 -220.9267981 1781.30083679 -221.51202393 1780.71591187 C-223.3864942 1778.84004976 -225.25377906 1776.95720172 -227.12109375 1775.07421875 C-228.42575539 1773.76582404 -229.73086148 1772.45787237 -231.03639221 1771.15034485 C-234.47315713 1767.70594659 -237.90387975 1764.25559057 -241.33337402 1760.80395508 C-244.81306219 1757.30387772 -248.29834671 1753.8093834 -251.78320312 1750.31445312 C-257.41864217 1744.66144537 -263.05067256 1739.00506874 -268.67811584 1733.34410095 C-271.78012155 1730.22407457 -274.88784093 1727.10989651 -278 1724 C-279.44206118 1722.55802797 -280.88407172 1721.11600531 -282.3260498 1719.6739502 C-283.57502296 1718.42497704 -283.57502296 1718.42497704 -284.84922791 1717.15077209 C-314.12413534 1687.87586466 -343.39904277 1658.60095723 -372.6739502 1629.3260498 C-373.82434312 1628.17568757 -373.82434312 1628.17568757 -374.9979763 1627.00208569 C-376.55683664 1625.44317708 -378.11550738 1623.88407888 -379.67410278 1622.3249054 C-382.71075173 1619.28955135 -385.75065348 1616.25746563 -388.79052734 1613.2253418 C-395.54168467 1606.49055372 -402.29027098 1599.75319529 -409.03742027 1593.0143919 C-413.11248892 1588.9445433 -417.18848798 1584.87563556 -421.26660156 1580.80883789 C-425.2232788 1576.86306544 -429.17747248 1572.91481948 -433.12999344 1568.9648838 C-434.63050583 1567.46620965 -436.13189356 1565.96841135 -437.63419724 1564.47153282 C-439.74205607 1562.37098724 -441.84670935 1560.26727736 -443.95068359 1558.1628418 C-444.5628624 1557.55425827 -445.1750412 1556.94567474 -445.80577087 1556.31864929 C-449.52790238 1552.58774092 -453.05347846 1548.73118522 -456.49532509 1544.74003315 C-458.36746888 1542.57505237 -460.30811686 1540.47743254 -462.25 1538.375 C-476.33731561 1522.71448163 -488.60894221 1505.30447293 -499 1487 C-499.45874512 1486.19997559 -499.91749023 1485.39995117 -500.39013672 1484.57568359 C-518.83478356 1452.25346204 -531.81525122 1417.152319 -538.75 1380.5625 C-539.02976685 1379.10312012 -539.02976685 1379.10312012 -539.31518555 1377.61425781 C-539.94525839 1374.08539761 -540.47728215 1370.54591168 -541 1367 C-541.12125356 1366.20049703 -541.24250711 1365.40099406 -541.36743502 1364.57726373 C-544.29769127 1344.65139928 -544.42422855 1324.96213178 -544.36679858 1304.87340665 C-544.35635467 1300.0279589 -544.36363483 1295.18252938 -544.36853105 1290.33707726 C-544.37471086 1281.86990918 -544.3698924 1273.40280477 -544.35761642 1264.93564415 C-544.33941398 1252.34555382 -544.338618 1239.75550311 -544.34124239 1227.16540202 C-544.34517254 1205.98067697 -544.33520391 1184.79598012 -544.31719017 1163.61126328 C-544.29941176 1142.6493605 -544.28788682 1121.68746949 -544.28463173 1100.72555923 C-544.28442551 1099.42002145 -544.28421929 1098.11448367 -544.28400682 1096.76938414 C-544.28299176 1090.13865472 -544.28208763 1083.50792529 -544.2812262 1076.87719585 C-544.27944409 1063.39779108 -544.27663261 1049.91838651 -544.27341938 1036.43898201 C-544.27325943 1035.7647513 -544.27309948 1035.09052059 -544.27293468 1034.39585864 C-544.26508134 1001.64573733 -544.24616329 968.89562368 -544.22631836 936.14550781 C-544.21944301 924.78892014 -544.21261675 913.43233245 -544.20599365 902.07574463 C-544.2055828 901.371351 -544.20517196 900.66695737 -544.20474866 899.94121848 C-544.18569543 867.15921391 -544.17453289 834.37720803 -544.16538927 801.59519938 C-544.16479508 799.46540907 -544.1641975 797.33561877 -544.16359923 795.20582846 C-544.15963968 781.09089248 -544.15581577 766.97595646 -544.15208265 752.86102042 C-544.1446543 724.77887626 -544.1364293 696.69673236 -544.12765651 668.61458859 C-544.12723879 667.27742329 -544.12682163 665.94025799 -544.12640502 664.60309269 C-544.11357661 623.43818257 -544.09715404 582.27327508 -544.07695007 541.10836792 C-544.0763874 539.95906055 -544.07582473 538.80975317 -544.075245 537.6256183 C-544.05240415 491.08374435 -544.02571899 444.54187243 -544 398 C-341.05 397.505 -341.05 397.505 -134 397 C-125.16955257 365.22012789 -125.16955257 365.22012789 -116.46459961 333.40625 C-115.58609477 330.17204916 -114.7048656 326.93861404 -113.82243252 323.70548439 C-112.96109711 320.54653796 -112.10386379 317.38647859 -111.24609375 314.2265625 C-110.93264511 313.07991119 -110.61919647 311.93325989 -110.29624939 310.75186157 C-110.00826981 309.68728729 -109.72029022 308.62271301 -109.42358398 307.52587891 C-109.17172836 306.59965729 -108.91987274 305.67343567 -108.66038513 304.71914673 C-107.9582314 301.82801709 -107.45509959 298.93928409 -107 296 C-107.58700684 295.72687988 -108.17401367 295.45375977 -108.77880859 295.17236328 C-110.9433128 294.02991997 -112.65517261 292.79646144 -114.5390625 291.2421875 C-115.19648438 290.70335937 -115.85390625 290.16453125 -116.53125 289.609375 C-117.2221875 289.03703125 -117.913125 288.4646875 -118.625 287.875 C-120.07529199 286.68461697 -121.52581198 285.49451167 -122.9765625 284.3046875 C-123.67426758 283.73073242 -124.37197266 283.15677734 -125.09082031 282.56542969 C-127.37799424 280.69006406 -129.68503047 278.84091434 -132 277 C-135.57879245 274.14777448 -139.13262718 271.26647524 -142.6796875 268.375 C-148.976228 263.24272548 -155.30742843 258.16414533 -161.70996094 253.16479492 C-166.87540869 249.12135016 -171.95967735 244.98178473 -177.04125977 240.83374023 C-181.30310909 237.36106518 -185.60131101 233.94173694 -189.9375 230.5625 C-195.94295251 225.87934896 -201.81850309 221.04918345 -207.68334961 216.19165039 C-212.61809699 212.11347121 -217.616989 208.13200037 -222.66943359 204.20117188 C-228.30464392 199.79932222 -233.8137651 195.24755766 -239.31640625 190.68164062 C-239.99832031 190.11638672 -240.68023437 189.55113281 -241.3828125 188.96875 C-241.98496582 188.46794922 -242.58711914 187.96714844 -243.20751953 187.45117188 C-245.02867884 185.93321018 -245.02867884 185.93321018 -247.22607422 184.50195312 C-247.81146973 184.00630859 -248.39686523 183.51066406 -249 183 C-249 182.01 -249 181.02 -249 180 C-229.1046519 178.54237728 -209.20798596 177.38567927 -189.28347635 176.41664004 C-185.48419279 176.23115965 -181.6850841 176.04216028 -177.88595581 175.85353088 C-170.7260787 175.49849786 -163.56607679 175.14605995 -156.40601242 174.79482561 C-143.56935034 174.16508711 -130.73286833 173.5317041 -117.89650142 172.89597851 C-113.41403187 172.6740985 -108.93149487 172.45365487 -104.44889283 172.23446834 C-101.65332592 172.09754391 -98.85781215 171.95955578 -96.06230927 171.82133102 C-94.18449677 171.72881222 -92.30662054 171.63758963 -90.42874146 171.5464325 C-81.94498115 171.1255536 -73.47358632 170.587924 -65 170 C-64.78617487 169.42738025 -64.57234974 168.85476049 -64.35204506 168.26478863 C-55.8799874 145.57825114 -47.39246599 122.89910492 -38.66778564 100.30831909 C-33.16449058 86.05829761 -27.73017493 71.78277917 -22.3125 57.5 C-16.86888149 43.15287159 -11.41405844 28.81059623 -5.875 14.5 C-5.6245694 13.85216553 -5.37413879 13.20433105 -5.11611938 12.53686523 C-1.17865038 2.35730077 -1.17865038 2.35730077 0 0 Z " fill="#000000" transform="translate(544,0)"/>
<path d="M0 0 C216.15 0 432.3 0 655 0 C655.33 219.78 655.66 439.56 656 666 C669.43173402 653.40774936 680.99942889 641.42971465 692 627 C692.46728516 626.38962891 692.93457031 625.77925781 693.41601562 625.15039062 C708.50339746 605.34689774 720.87584191 583.41526388 729.28881836 559.95507812 C729.97240978 558.07584706 730.70595766 556.21501762 731.44140625 554.35546875 C747.49928158 511.48397141 747.3042465 465.34718108 747.31667423 420.25856149 C747.32042453 414.5991884 747.33560653 408.93984327 747.34928894 403.28048706 C747.37139181 393.51254646 747.38650623 383.74461603 747.39665604 373.97665596 C747.41134077 359.85442442 747.43690389 345.73222839 747.46498732 331.61001789 C747.51027904 308.68883229 747.54698283 285.76764403 747.578125 262.84643555 C747.60836895 240.60163467 747.64274407 218.35684633 747.68261719 196.11206055 C747.68446369 195.08055468 747.68446369 195.08055468 747.6863475 194.02821032 C747.69871611 187.12130423 747.71116768 180.21439829 747.72367998 173.30749246 C747.82832478 115.53834408 747.91741168 57.76918501 748 0 C809.71 0 871.42 0 935 0 C935.06039235 64.84465463 935.06039235 64.84465463 935.07695007 84.91772461 C935.07783807 85.99155354 935.07783807 85.99155354 935.07874402 87.08707599 C935.0986329 111.20331243 935.1143792 135.31954973 935.12702942 159.43579102 C935.12744359 160.22334041 935.12785776 161.0108898 935.12828448 161.82230432 C935.13726484 178.94109782 935.14557516 196.05989157 935.15319599 213.17868572 C935.15693774 221.57469028 935.16082744 229.97069477 935.16479492 238.36669922 C935.1651872 239.20216775 935.16557948 240.03763629 935.16598364 240.89842205 C935.17874981 267.94019253 935.20127034 294.98194411 935.22889166 322.02370316 C935.25724289 349.83079837 935.2756687 377.63788314 935.28174497 405.44499256 C935.28260934 409.37960851 935.28358624 413.31422442 935.28463173 417.24884033 C935.284834 418.0231696 935.28503627 418.79749887 935.28524467 419.59529266 C935.28877902 432.02057732 935.3026639 444.44582953 935.3204961 456.871101 C935.33823395 469.38648054 935.344885 481.90182816 935.34050413 494.41721982 C935.33843427 501.18867276 935.3414508 507.96002554 935.35761642 514.73146248 C935.37234437 520.94648841 935.3728697 527.16135713 935.36269668 533.3763907 C935.36144161 535.60964595 935.36513702 537.8429115 935.37464955 540.07614684 C935.65113855 609.0708364 910.44394811 675.03770513 862.77968043 725.01698446 C860.36745342 727.55295855 857.96862872 730.10011671 855.58639175 732.66427851 C846.57361367 742.36079418 837.33888447 751.8056797 827.97319031 761.16052246 C826.41466213 762.72092417 824.85634873 764.28154041 823.29822856 765.84234953 C819.06261562 770.08401852 814.82394753 774.32262241 810.58471262 778.56067109 C805.99620326 783.1489749 801.41056546 787.74014719 796.82452393 792.33091736 C787.86256814 801.30135707 778.89766286 810.26884446 769.93173739 819.23531628 C762.6492603 826.51825423 755.36758589 833.80199381 748.08646584 841.08628845 C745.98519856 843.18845332 743.8839274 845.2906143 741.78265506 847.39277411 C741.26021284 847.91543737 740.73777062 848.43810064 740.19949681 848.97660219 C725.53108261 863.65115936 710.86157644 878.32462419 696.18986797 892.99588776 C695.63803605 893.5477041 695.08620413 894.09952044 694.51765003 894.6680585 C691.72110828 897.46451714 688.92455856 900.26096782 686.12800708 903.05741674 C685.29497475 903.89041914 685.29497475 903.89041914 684.44511349 904.74024988 C683.32206047 905.86326246 682.19900678 906.98627436 681.0759524 908.10928559 C663.56162682 925.62299696 646.05138277 943.14078022 628.54418945 960.66162109 C608.8551175 980.36603532 589.16269025 1000.06708792 569.46548015 1019.76336718 C567.36828491 1021.86048779 565.27110263 1023.95762136 563.17392921 1026.05476379 C562.65758014 1026.57110122 562.14123106 1027.08743864 561.60923504 1027.61942266 C553.28872558 1035.9399013 544.97143244 1044.26358789 536.65524211 1052.58838317 C528.31411506 1060.93796315 519.96919786 1069.28373963 511.62063309 1077.62588286 C507.09532259 1082.14791218 502.57167635 1086.67157525 498.05231667 1091.19955254 C493.92261735 1095.33704606 489.78840492 1099.4699714 485.65041361 1103.59917146 C484.14773832 1105.10029616 482.64678105 1106.60314286 481.14764401 1108.10780114 C479.12320765 1110.13920392 477.09282456 1112.16446169 475.06070995 1114.18817902 C474.46862215 1114.785235 473.87653435 1115.38229098 473.2665045 1115.99743956 C469.22829675 1120 469.22829675 1120 467 1120 C466.505 659.155 466.505 659.155 466 189 C374.59 189 283.18 189 189 189 C188.67 219.03 188.34 249.06 188 280 C201.41527344 279.98839844 214.83054687 279.97679687 228.65234375 279.96484375 C237.12434915 279.95973742 245.59635344 279.95488243 254.06835938 279.95117188 C267.53117247 279.94522826 280.99397934 279.93822487 294.45678711 279.92456055 C304.2597854 279.91461553 314.06277865 279.90814701 323.86578184 279.90591151 C329.05980367 279.90460409 334.25381107 279.90151629 339.44782829 279.89426994 C344.33063221 279.88751259 349.21341568 279.88538245 354.09622383 279.88689232 C355.89380631 279.88661586 357.69138944 279.88460905 359.4889679 279.88079453 C361.93215962 279.87586172 364.37527287 279.87700017 366.81846619 279.87974548 C367.53926973 279.87683264 368.26007327 279.8739198 369.00271934 279.87091869 C373.88587879 279.88587879 373.88587879 279.88587879 375 281 C375.09766516 283.40327901 375.12997042 285.7777994 375.12025452 288.18153381 C375.12111053 288.94008667 375.12196655 289.69863953 375.12284851 290.48017883 C375.12451372 293.04939059 375.11896392 295.61853826 375.11352539 298.18774414 C375.1132193 300.0501553 375.11335213 301.91256658 375.11389065 303.77497768 C375.11411721 308.78056486 375.10830455 313.78612833 375.10128021 318.7917099 C375.09560216 323.48186827 375.09531801 328.17202075 375.09460449 332.86218262 C375.08934879 346.59562491 375.07538775 360.32906275 375.0625 374.0625 C375.041875 404.731875 375.02125 435.40125 375 467 C282.93 467.495 282.93 467.495 189 468 C188.67 590.1 188.34 712.2 188 838 C183.58579293 836.89644823 182.52793927 835.90119584 179.39006042 832.7575531 C178.46912094 831.84218277 177.54818146 830.92681244 176.59933472 829.98370361 C175.58585542 828.9612014 174.57252421 827.93855239 173.55932617 826.91577148 C172.48700037 825.84423657 171.41402144 824.77335493 170.34043884 823.70307922 C167.42434929 820.79212904 164.51769538 817.87191949 161.61274505 814.94985843 C158.56749087 811.88956289 155.5141276 808.8373787 152.46174622 805.78419495 C147.33136099 800.65011481 142.20664751 795.5104297 137.08569336 790.36694336 C130.52901626 783.78147431 123.96318248 777.20521593 117.39432812 770.63189602 C111.73378217 764.96735493 106.07749714 759.29856449 100.42188096 753.62910199 C98.61146312 751.81460164 96.80047131 750.00067566 94.98940086 748.18682671 C92.13139799 745.32389312 89.27607861 742.45830788 86.42273903 739.59072685 C85.37996882 738.54347187 84.33638795 737.49702329 83.29190063 736.45148087 C77.64947799 730.80208478 72.1561264 725.09824696 67 719 C66.4232059 718.3235868 65.8464118 717.6471736 65.25213909 716.95026302 C7.2910516 648.83178101 -0.37667173 573.55179769 -0.23214546 487.44554597 C-0.22420224 481.47819728 -0.22599469 475.51085465 -0.22736086 469.54350264 C-0.22982121 457.43994195 -0.22335858 445.33640327 -0.21115112 433.23284912 C-0.19467466 416.8673034 -0.19093672 400.50178972 -0.18920898 384.13623047 C-0.17874559 344.84081588 -0.15082308 305.5454075 -0.125 266.25 C-0.063125 134.45625 -0.063125 134.45625 0 0 Z " fill="#FEFEFE" transform="translate(78,771)"/>
<path d="M0 0 C108.62662721 -0.02013078 108.62662721 -0.02013078 142.22496033 -0.02565002 C143.42323054 -0.02584736 144.62150075 -0.02604469 145.85608218 -0.02624801 C186.17261444 -0.03286955 226.48914675 -0.03812172 266.80567932 -0.04234314 C268.12082639 -0.0424812 269.43597346 -0.04261925 270.79097347 -0.04276149 C298.67306755 -0.04568116 326.55516165 -0.04840071 354.43725578 -0.05087968 C368.44266552 -0.0521251 382.44807525 -0.05341008 396.45348499 -0.05473244 C398.56619185 -0.05493169 400.67889871 -0.05512981 402.79160557 -0.05532788 C435.3370635 -0.05838906 467.88252105 -0.06230012 500.42797852 -0.06866455 C501.47818192 -0.0688699 501.47818192 -0.0688699 502.54960155 -0.0690794 C513.83837242 -0.07129186 525.12714328 -0.07357543 536.41591413 -0.07586844 C568.91795979 -0.08246927 601.42000517 -0.08854714 633.92205143 -0.09113979 C634.92392027 -0.0912201 634.92392027 -0.0912201 635.94602889 -0.09130202 C649.94764147 -0.09241526 663.94925406 -0.09330281 677.95086667 -0.09391499 C684.50701458 -0.09420317 691.06316248 -0.09452881 697.61931038 -0.09487724 C699.55492834 -0.09497838 699.55492834 -0.09497838 701.5296497 -0.09508156 C722.34655734 -0.09626574 743.16346286 -0.10091041 763.98036964 -0.10683203 C784.88121814 -0.11270431 805.78206453 -0.11497175 826.68291383 -0.11350138 C839.11803706 -0.11273771 851.55315258 -0.11479599 863.98827443 -0.12079754 C872.27845411 -0.12452719 880.56862869 -0.12467805 888.85880872 -0.12183181 C893.59296627 -0.12031149 898.32710914 -0.12042952 903.06126516 -0.12488318 C907.35811909 -0.12889506 911.65494674 -0.12840403 915.95180021 -0.12413998 C917.50612398 -0.12341889 919.06044962 -0.12441624 920.614771 -0.12723524 C922.70767311 -0.13079384 924.80047932 -0.12831894 926.8933782 -0.1241985 C928.0574616 -0.12435448 929.221545 -0.12451046 930.42090365 -0.12467116 C933 0 933 0 934 1 C934 62.38 934 123.76 934 187 C625.78 187 317.56 187 0 187 C0 125.29 0 63.58 0 0 Z " fill="#FEFEFE" transform="translate(79,492)"/>
<path d="M0 0 C1.8203125 0.08276367 1.8203125 0.08276367 4 1 C5.17748649 3.25729863 6.04325834 5.2919946 6.875 7.67578125 C7.12620605 8.35617966 7.37741211 9.03657806 7.63623047 9.7375946 C8.43918112 11.92407877 9.21956624 14.11789136 10 16.3125 C10.52462024 17.74856694 11.0506476 19.18412068 11.578125 20.61914062 C13.84227848 26.81190589 16.02547099 33.02133276 18.0625 39.29296875 C19.69081311 44.2437112 21.62145797 49.01048005 23.66162109 53.80419922 C25.92104051 59.19927405 27.99931937 64.66361682 30.0769043 70.13061523 C30.82432662 72.09356009 31.57912976 74.05357496 32.33398438 76.01367188 C32.81295125 77.27066148 33.29148378 78.5278167 33.76953125 79.78515625 C34.19854736 80.90801025 34.62756348 82.03086426 35.06958008 83.18774414 C36 86 36 86 36 89 C36.68955276 88.99279434 37.37910553 88.98558868 38.08955383 88.97816467 C46.48499251 88.92997201 54.84548731 89.23253538 63.23046875 89.62109375 C64.67473968 89.68616034 66.11901989 89.75102101 67.56330872 89.81568909 C70.57459152 89.95107354 73.58578659 90.08822298 76.59692383 90.22680664 C80.40447553 90.40200384 84.21216929 90.57383729 88.01992607 90.74451256 C117.80143454 92.08064871 117.80143454 92.08064871 132 93 C131.4362727 96.48832758 130.41039626 97.87308027 127.67578125 100.06640625 C126.98411865 100.62851807 126.29245605 101.19062988 125.57983398 101.76977539 C124.83161377 102.36137451 124.08339355 102.95297363 123.3125 103.5625 C122.54301025 104.18310303 121.77352051 104.80370605 120.98071289 105.44311523 C118.66281356 107.30705969 116.33403977 109.15632178 114 111 C113.36739258 111.50015625 112.73478516 112.0003125 112.08300781 112.515625 C109.80698874 114.31122121 107.52762071 116.10234686 105.24145508 117.88500977 C100.78037159 121.36631962 96.3835495 124.92171001 92 128.5 C86.37083984 133.09452757 80.69431621 137.61999489 74.96826172 142.09301758 C69.57651616 146.31240651 64.28162496 150.6435256 59 155 C61.63682062 166.67879522 64.65814238 178.1919648 68 189.6875 C68.43007168 191.17762355 68.85975969 192.66785789 69.2890625 194.15820312 C70.12460292 197.05697211 70.96185395 199.95523678 71.80078125 202.85302734 C72.95578374 206.84453202 74.10505181 210.83762942 75.25 214.83203125 C75.56453125 215.92878174 75.8790625 217.02553223 76.203125 218.15551758 C77.0070812 221.02527666 77.73812707 223.90251437 78.4296875 226.80078125 C79.55641792 231.14563895 80.89740808 235.4341209 82.1953125 239.73046875 C82.91581442 242.65794502 83.16899257 245.00883158 83 248 C78.56552919 247.07487001 75.25069092 244.75321436 71.52734375 242.27734375 C70.78467758 241.78999252 70.04201141 241.3026413 69.27684021 240.80052185 C67.67680979 239.74959332 66.07846159 238.69610007 64.48162842 237.64031982 C62.01110478 236.00734009 59.53585873 234.38177781 57.05908203 232.75830078 C52.76540274 229.94239795 48.47639301 227.11948131 44.18920898 224.29370117 C41.56878875 222.56664477 38.94753226 220.84086336 36.32617188 219.11523438 C35.4656723 218.54807709 34.60517273 217.9809198 33.71859741 217.39657593 C32.0045461 216.2679671 30.28908962 215.1414892 28.57217407 214.01724243 C24.29576037 211.20984426 20.06269192 208.35853034 15.88232422 205.40966797 C15.06489243 204.84094467 14.24746063 204.27222137 13.40525818 203.68626404 C11.85718083 202.60626852 10.31911165 201.511736 8.79310608 200.40077209 C6.88950383 199.0821539 5.12933617 197.90973439 3 197 C0.18478529 197.3823906 0.18478529 197.3823906 -2 199 C-2.60577881 199.33370605 -3.21155762 199.66741211 -3.83569336 200.01123047 C-4.41456299 200.37619629 -4.99343262 200.74116211 -5.58984375 201.1171875 C-6.27570557 201.54862061 -6.96156738 201.98005371 -7.66821289 202.42456055 C-8.41707764 202.90320557 -9.16594238 203.38185059 -9.9375 203.875 C-10.74888428 204.3903833 -11.56026855 204.9057666 -12.39624023 205.43676758 C-21.48409643 211.24802139 -30.43803105 217.26128102 -39.4050293 223.25634766 C-47.59683139 228.7331314 -55.79320511 234.20244454 -64.02706909 239.61587524 C-65.17004397 240.3682421 -66.31192354 241.12227573 -67.45266724 241.87802124 C-69.02284554 242.91785117 -70.59725066 243.95129012 -72.171875 244.984375 C-73.0597168 245.56928711 -73.94755859 246.15419922 -74.86230469 246.75683594 C-77 248 -77 248 -79 248 C-79.23163072 243.2443318 -78.44296462 239.58600423 -77 235.0625 C-74.40349174 226.67576876 -72.21999897 218.19512077 -70.0625 209.6875 C-67.61335981 200.05171747 -65.03517329 190.48481756 -62.09155273 180.98608398 C-59.35773208 172.08577906 -57.17586145 163.05004318 -55 154 C-55.58990723 153.72470459 -56.17981445 153.44940918 -56.78759766 153.16577148 C-58.9018124 152.05173756 -60.56316342 150.86807816 -62.3984375 149.34765625 C-63.03523438 148.82429687 -63.67203125 148.3009375 -64.328125 147.76171875 C-65.00359375 147.20097656 -65.6790625 146.64023437 -66.375 146.0625 C-67.81953475 144.87535508 -69.26486093 143.68917258 -70.7109375 142.50390625 C-71.7952002 141.61469482 -71.7952002 141.61469482 -72.90136719 140.70751953 C-75.9033487 138.26500456 -78.94743381 135.87877773 -82 133.5 C-87.04887355 129.55858871 -92.0376054 125.5497088 -97 121.5 C-103.20584416 116.43615681 -109.47203888 111.45761119 -115.78125 106.5234375 C-120.21721275 103.05285513 -124.61085988 99.5295159 -129 96 C-128.67 95.01 -128.34 94.02 -128 93 C-126.80754669 92.94695457 -126.80754669 92.94695457 -125.59100342 92.89283752 C-118.00367715 92.55522254 -110.41637502 92.21707196 -102.82909775 91.87835789 C-98.93083682 91.70434816 -95.03256769 91.53052713 -91.13427734 91.35717773 C-82.3569824 90.96676221 -73.57983583 90.57329989 -64.80297852 90.17315674 C-62.42264172 90.06477554 -60.04227511 89.95704492 -57.66186523 89.85028076 C-54.88378843 89.7250525 -52.10593544 89.59582746 -49.328125 89.46484375 C-48.57464783 89.43153458 -47.82117065 89.3982254 -47.04486084 89.36390686 C-42.31758539 89.13444771 -37.68606948 88.63425681 -33 88 C-32.52820313 86.65808594 -32.52820313 86.65808594 -32.046875 85.2890625 C-31.61890625 84.07992187 -31.1909375 82.87078125 -30.75 81.625 C-30.33234375 80.44164062 -29.9146875 79.25828125 -29.484375 78.0390625 C-28.46004399 75.20112722 -27.3649552 72.40109316 -26.23046875 69.60546875 C-23.17601777 62.02916184 -20.39200879 54.34984531 -17.5625 46.6875 C-14.12359433 37.38123907 -10.67068675 28.08355196 -7.09204102 18.82983398 C-5.59812117 14.95860105 -4.13901072 11.07479125 -2.6875 7.1875 C-2.29208008 6.13079102 -2.29208008 6.13079102 -1.88867188 5.05273438 C-1.25858619 3.36868719 -0.62920821 1.68437524 0 0 Z " fill="#E91938" transform="translate(544,126)"/>
</svg>
