<?xml version="1.0" encoding="UTF-8"?>
<svg version="1.1" xmlns="http://www.w3.org/2000/svg" width="1715" height="2000">
<path d="M0 0 C3.11622789 1.33938031 4.74803091 2.61274676 6.671875 5.39453125 C7.16300781 6.09191406 7.65414062 6.78929687 8.16015625 7.5078125 C8.94712891 8.64863281 8.94712891 8.64863281 9.75 9.8125 C14.69262931 16.82307997 19.76999296 23.70111651 25 30.5 C30.48249125 37.64481905 35.82962234 44.86513249 41.06640625 52.19140625 C45.26889302 58.04597627 49.6138039 63.78213147 54 69.5 C58.93384482 75.93178632 63.78595935 82.40533849 68.5 89 C73.19792289 95.5697801 78.02595675 102.02589105 82.9375 108.4375 C91.00364692 118.96718023 98.87311521 129.63242592 106.70898438 140.33398438 C114.1407912 150.47751091 121.67403343 160.53177932 129.31982422 170.51513672 C133.3673889 175.81446466 137.30760604 181.16747433 141.14038086 186.62329102 C144.89741358 191.93458392 148.85378893 197.08807844 152.8125 202.25 C157.80847678 208.76527568 162.72607163 215.32023574 167.5 222 C172.19785464 228.56982754 177.02595857 235.02589342 181.9375 241.4375 C190.00364692 251.96718023 197.87311521 262.63242592 205.70898438 273.33398438 C213.1407912 283.47751091 220.67403343 293.53177932 228.31982422 303.51513672 C232.3673889 308.81446466 236.30760604 314.16747433 240.14038086 319.62329102 C243.89741358 324.93458392 247.85378893 330.08807844 251.8125 335.25 C256.80847678 341.76527568 261.72607163 348.32023574 266.5 355 C271.19785464 361.56982754 276.02595857 368.02589342 280.9375 374.4375 C289.00364692 384.96718023 296.87311521 395.63242592 304.70898438 406.33398438 C312.1407912 416.47751091 319.67403343 426.53177932 327.31982422 436.51513672 C331.3673889 441.81446466 335.30760604 447.16747433 339.14038086 452.62329102 C342.89741358 457.93458392 346.85378893 463.08807844 350.8125 468.25 C356.35127829 475.47314557 361.76110515 482.76707593 367.05249023 490.17285156 C372.01069708 497.08201668 377.16396991 503.8367334 382.35742188 510.5703125 C386.73934187 516.26993525 390.91603779 522.08375041 395 528 C391.7240825 514.18348744 387.79828747 500.56284353 383.86830688 486.92083549 C382.90751714 483.58334447 381.94996764 480.24492376 380.99201965 476.90661621 C379.34111432 471.1550344 377.68826778 465.40401349 376.03405762 459.65338135 C373.62277458 451.27080965 371.21466323 442.88732929 368.80737233 434.50361037 C365.1880514 421.89892834 361.56714716 409.29470204 357.9449718 396.69084001 C352.91285515 379.18071053 347.88625371 361.66900463 342.86328125 344.15625 C342.32182685 342.26851962 342.32182685 342.26851962 341.76943398 340.34265327 C339.97200579 334.07604555 338.17467107 327.80941103 336.37741089 321.54275513 C332.83275609 309.18333095 329.28769991 296.82402194 325.7421875 284.46484375 C325.39136297 283.24188536 325.04053844 282.01892696 324.67908287 280.75890923 C319.86076467 263.96309467 315.03804224 247.16855105 310.21209431 230.37492752 C310.00453605 229.65265347 309.79697779 228.93037941 309.58312988 228.18621826 C309.37535258 227.46318386 309.16757528 226.74014946 308.9535017 225.99520493 C307.50117465 220.94117521 306.04922328 215.88703769 304.59753418 210.83282471 C304.39507615 210.12794544 304.19261812 209.42306618 303.984025 208.69682693 C302.97154057 205.17169556 301.95910902 201.64654901 300.94671631 198.1213913 C298.7828874 190.58721365 296.61777701 183.05340655 294.45101702 175.52007133 C292.81256039 169.82310685 291.17616148 164.12555266 289.54052353 158.42777824 C288.86862334 156.08850852 288.19602144 153.74944021 287.52267838 151.4105854 C286.60360506 148.21785388 285.68699387 145.02442557 284.77099609 141.83081055 C284.50221272 140.89935274 284.23342934 139.96789494 283.95650101 139.00821114 C283.71130093 138.15143209 283.46610085 137.29465305 283.21347046 136.41191101 C283.00174887 135.67530589 282.79002728 134.93870077 282.57188988 134.17977428 C281.94799539 131.80178295 281.46043548 129.41449162 281 127 C284.22417499 128.37196174 285.8673217 129.76919734 287.890625 132.61328125 C288.42695557 133.35586182 288.96328613 134.09844238 289.51586914 134.86352539 C290.08813232 135.67168701 290.66039551 136.47984863 291.25 137.3125 C292.5021959 139.04811025 293.75616893 140.78243944 295.01171875 142.515625 C295.66446777 143.41861328 296.3172168 144.32160156 296.98974609 145.25195312 C300.27559162 149.74375264 303.67127235 154.15005968 307.0625 158.5625 C312.52299612 165.6881474 317.84716798 172.891947 323.06884766 180.19384766 C327.25421396 186.02305222 331.57371211 191.74093987 335.9375 197.4375 C344.00364692 207.96718023 351.87311521 218.63242592 359.70898438 229.33398438 C366.39063523 238.45363782 373.13091852 247.52039901 380 256.5 C388.04102314 267.01162075 395.89059941 277.65630433 403.70898438 288.33398438 C410.39063523 297.45363782 417.13091852 306.52039901 424 315.5 C432.04102314 326.01162075 439.89059941 336.65630433 447.70898438 347.33398438 C454.40812081 356.47750355 461.16934315 365.56406022 468.0625 374.5625 C473.52176685 381.6891163 478.84713852 388.89190581 484.06884766 396.19384766 C488.9069697 402.93218333 493.93427348 409.51829657 498.97949219 416.10229492 C504.06076434 422.74201107 509.04685479 429.44571745 513.99194336 436.18725586 C517.63144881 441.14776315 521.29969841 446.08469235 525 451 C529.29082106 456.69972612 533.53034173 462.43492593 537.75 468.1875 C542.7779121 475.03891298 547.89351535 481.81698739 553.0625 488.5625 C558.52188808 495.68902103 563.84714135 502.89190977 569.06884766 510.19384766 C573.25421396 516.02305222 577.57371211 521.74093987 581.9375 527.4375 C590.00364692 537.96718023 597.87311521 548.63242592 605.70898438 559.33398438 C612.39063523 568.45363782 619.13091852 577.52039901 626 586.5 C634.04102314 597.01162075 641.89059941 607.65630433 649.70898438 618.33398438 C656.39063523 627.45363782 663.13091852 636.52039901 670 645.5 C678.04102314 656.01162075 685.89059941 666.65630433 693.70898438 677.33398438 C700.40812081 686.47750355 707.16934315 695.56406022 714.0625 704.5625 C719.52176685 711.6891163 724.84713852 718.89190581 730.06884766 726.19384766 C734.25421396 732.02305222 738.57371211 737.74093987 742.9375 743.4375 C751.00364692 753.96718023 758.87311521 764.63242592 766.70898438 775.33398438 C773.39063523 784.45363782 780.13091852 793.52039901 787 802.5 C794.45511516 812.24569303 801.74873569 822.10215583 809 832 C811.476998 835.37659775 813.95677769 838.75113792 816.4375 842.125 C817.27015381 843.26122803 817.27015381 843.26122803 818.11962891 844.42041016 C818.924729 845.51554932 818.924729 845.51554932 819.74609375 846.6328125 C820.26800293 847.3537207 820.78991211 848.07462891 821.32763672 848.81738281 C822.99820372 851.06120272 822.99820372 851.06120272 825.03564453 853.23730469 C825.6954834 853.98141602 826.35532227 854.72552734 827.03515625 855.4921875 C827.64883057 856.14300293 828.26250488 856.79381836 828.89477539 857.46435547 C831.82665829 864.19078263 826.43797367 873.6839967 824.01953125 880.09765625 C823.61881409 881.1759671 823.21809692 882.25427795 822.80523682 883.36526489 C821.93554666 885.7047169 821.06337565 888.04324783 820.18899536 890.38095093 C817.80514589 896.7567507 815.44159911 903.14006445 813.078125 909.5234375 C812.83117952 910.18986708 812.58423405 910.85629665 812.32980537 911.54292107 C805.70897309 929.41631259 799.28964985 947.36181224 792.87384701 965.30959129 C791.68901456 968.62341239 790.50309589 971.93684354 789.31640625 975.25 C789.08744471 975.88934101 788.85848316 976.52868202 788.62258339 977.187397 C785.61223658 985.58665565 782.54476046 993.96178454 779.40234375 1002.3125 C779.06050552 1003.22397293 778.7186673 1004.13544586 778.36647034 1005.07453918 C776.83355228 1009.15862495 775.28887156 1013.23735104 773.71899414 1017.30737305 C773.19762698 1018.68781748 772.67668073 1020.068421 772.15625 1021.44921875 C771.71087891 1022.60768311 771.26550781 1023.76614746 770.80664062 1024.9597168 C769.94031236 1028.22496675 769.90184643 1029.83358552 771 1033 C772.21225643 1035.0461482 772.21225643 1035.0461482 773.80859375 1036.93359375 C774.38528809 1037.65716064 774.96198242 1038.38072754 775.55615234 1039.1262207 C776.17699707 1039.88894287 776.7978418 1040.65166504 777.4375 1041.4375 C778.73264526 1043.06337277 780.02560138 1044.69099169 781.31640625 1046.3203125 C782.26797607 1047.51962402 782.26797607 1047.51962402 783.23876953 1048.74316406 C785.54985912 1051.70458798 787.7176774 1054.7369324 789.875 1057.8125 C794.67593375 1064.65456136 799.75260674 1071.27530877 804.83544922 1077.90942383 C809.28683498 1083.72810279 813.67228731 1089.58885654 818 1095.5 C824.35927103 1104.18207458 830.8660914 1112.74662653 837.40625 1121.29296875 C838.30923828 1122.47705322 838.30923828 1122.47705322 839.23046875 1123.68505859 C840.41463494 1125.23421199 841.60480128 1126.77879644 842.80078125 1128.31884766 C843.35121094 1129.03476074 843.90164063 1129.75067383 844.46875 1130.48828125 C844.95794922 1131.11903564 845.44714844 1131.74979004 845.95117188 1132.3996582 C847 1134 847 1134 847 1136 C848.19387329 1136.35529785 848.19387329 1136.35529785 849.41186523 1136.71777344 C853.92282692 1138.3297739 858.12117476 1140.39198474 862.41015625 1142.515625 C863.77739586 1143.18677086 863.77739586 1143.18677086 865.17225647 1143.87147522 C867.12388548 1144.82996036 869.07468247 1145.79014117 871.02471924 1146.75186157 C875.12263444 1148.77282514 879.22453585 1150.78563277 883.32629395 1152.79878235 C885.37458947 1153.80414316 887.42268572 1154.80991007 889.47058105 1155.81608582 C897.33968951 1159.68128375 905.2248848 1163.51109126 913.125 1167.3125 C924.07227855 1172.58415405 935.00792662 1177.87924825 945.9375 1183.1875 C946.7016925 1183.55847809 947.46588501 1183.92945618 948.25323486 1184.31167603 C950.42813027 1185.36754459 952.60278075 1186.42391579 954.77734375 1187.48046875 C955.41976517 1187.79233124 956.06218658 1188.10419373 956.72407532 1188.42550659 C960.4953385 1190.25892223 964.25277751 1192.11795311 968 1194 C967.44643516 1200.17616144 966.41679018 1205.81443381 964.66870117 1211.75390625 C964.43008865 1212.58656006 964.19147614 1213.41921387 963.94563293 1214.27709961 C963.15169545 1217.04095551 962.3473558 1219.80166891 961.54296875 1222.5625 C960.97017197 1224.54856286 960.39802987 1226.53481464 959.82649231 1228.52124023 C958.27825431 1233.89545948 956.7210193 1239.26703409 955.16217041 1244.63818359 C953.52400922 1250.28850098 951.89425138 1255.94124099 950.26367188 1261.59375 C947.54653526 1271.00908301 944.82456496 1280.42300598 942.09912109 1289.8359375 C938.15732259 1303.4505277 934.22751754 1317.06855909 930.30078125 1330.6875 C929.06168923 1334.98439935 927.82249874 1339.28127029 926.58325195 1343.578125 C926.28248969 1344.62096649 925.98172743 1345.66380798 925.67185116 1346.73825073 C923.65909675 1353.71650594 921.64488601 1360.69433935 919.62963867 1367.671875 C919.35796781 1368.6129158 919.08629694 1369.5539566 918.80639362 1370.52351379 C917.47093579 1375.14838301 916.1331205 1379.77254463 914.79023743 1384.39526367 C912.27481207 1393.06303109 909.78520166 1401.73634797 907.36685181 1410.43177795 C906.20176201 1414.61574549 905.02461442 1418.79627789 903.84649658 1422.97659302 C903.28767241 1424.97252889 902.73477177 1426.9701339 902.18817139 1428.9694519 C901.43198173 1431.73403797 900.65570849 1434.49225464 899.875 1437.25 C899.65776276 1438.0654982 899.44052551 1438.8809964 899.21670532 1439.72120667 C897.31104894 1446.32582182 893.88974179 1450.07358487 888.0234375 1453.69140625 C887.2806958 1454.15458252 886.5379541 1454.61775879 885.77270508 1455.0949707 C884.9814624 1455.57925537 884.19021973 1456.06354004 883.375 1456.5625 C881.65743274 1457.63001634 879.9399881 1458.69772998 878.22265625 1459.765625 C877.35012207 1460.30509766 876.47758789 1460.84457031 875.57861328 1461.40039062 C871.63939363 1463.84403455 867.72724888 1466.32992532 863.8125 1468.8125 C855.53828717 1474.04428979 847.23618061 1479.2310332 838.93212891 1484.4152832 C832.50740553 1488.42802435 826.09162925 1492.45447255 819.6875 1496.5 C818.9147876 1496.98758789 818.1420752 1497.47517578 817.34594727 1497.97753906 C814.03760102 1500.06778118 810.73503576 1502.16532471 807.453125 1504.296875 C805.96039062 1505.26367188 805.96039062 1505.26367188 804.4375 1506.25 C803.61121094 1506.79140625 802.78492188 1507.3328125 801.93359375 1507.890625 C800 1509 800 1509 798 1509 C797.6390625 1510.15113281 797.278125 1511.30226563 796.90625 1512.48828125 C794.44663983 1519.85138169 791.43275695 1527.00378056 788.5 1534.1875 C787.84846792 1535.788703 787.19702147 1537.38994084 786.5456543 1538.99121094 C781.00608748 1552.59310367 775.41366298 1566.17337981 769.8125 1579.75 C769.19592529 1581.24555923 769.19592529 1581.24555923 768.56689453 1582.77133179 C767.38588486 1585.63461216 766.20304072 1588.49712712 765.01953125 1591.359375 C764.67215408 1592.2017421 764.32477692 1593.04410919 763.96687317 1593.91200256 C761.72973768 1599.31394571 759.40006528 1604.66847384 757 1610 C719.27980814 1597.84049133 719.27980814 1597.84049133 711.89453125 1585.4140625 C709.69083317 1580.49928991 708.28418241 1575.38904358 706.94189453 1570.18212891 C705.27714273 1564.55787412 702.61334556 1559.42181254 700 1554.1875 C699.48735596 1553.1368335 698.97471191 1552.08616699 698.4465332 1551.00366211 C696.97713541 1547.99592599 695.49169585 1544.99672873 694 1542 C693.3822168 1540.75041504 693.3822168 1540.75041504 692.75195312 1539.47558594 C674.27611094 1502.35482147 649.3154916 1466.91721356 621.1953125 1436.40625 C619.3356811 1434.36793516 617.51729337 1432.30454654 615.70703125 1430.22265625 C597.04364313 1408.84974588 576.31805754 1389.74931121 553.86132812 1372.44042969 C551.92519547 1370.94211087 550.00146243 1369.4287615 548.078125 1367.9140625 C532.53454358 1355.75331039 516.10238996 1344.84274662 499 1335 C498.05084717 1334.44530029 498.05084717 1334.44530029 497.08251953 1333.87939453 C429.15935824 1294.29514629 350.36360136 1273.79526282 251.3125 1270.8125 C250.37457611 1270.81310425 249.43665222 1270.8137085 248.4703064 1270.81433105 C214.02379097 1270.87415747 179.73452073 1273.85800687 146 1281 C140.18794586 1274.01148777 134.85000766 1266.72845217 129.56958008 1259.33447266 C129.0361499 1258.58858887 128.50271973 1257.84270508 127.953125 1257.07421875 C127.44845703 1256.36571777 126.94378906 1255.6572168 126.42382812 1254.92724609 C125.20436076 1253.27661588 123.88420665 1251.70120232 122.546875 1250.14453125 C122.03640625 1249.43683594 121.5259375 1248.72914062 121 1248 C122.44033494 1243.67899518 125.74670727 1242.14178001 129.375 1239.6875 C130.93746509 1238.60860366 132.49861564 1237.52780166 134.05859375 1236.4453125 C134.87312012 1235.88102539 135.68764648 1235.31673828 136.52685547 1234.73535156 C140.54829422 1231.91359573 144.49247075 1228.98968073 148.4375 1226.0625 C154.59679838 1221.50156397 160.77885099 1216.97622586 167 1212.5 C173.34187887 1207.93513349 179.65041208 1203.32754099 185.9375 1198.6875 C186.73341553 1198.10081543 187.52933105 1197.51413086 188.34936523 1196.90966797 C191.76174411 1194.39355246 195.17129996 1191.87398993 198.5703125 1189.33984375 C200.05144531 1188.24349609 200.05144531 1188.24349609 201.5625 1187.125 C202.80193359 1186.20074219 202.80193359 1186.20074219 204.06640625 1185.2578125 C206 1184 206 1184 208 1184 C208 1183.34 208 1182.68 208 1182 C207.37053467 1181.95029053 206.74106934 1181.90058105 206.0925293 1181.84936523 C198.28968646 1181.19109057 190.56562281 1180.14865963 182.8125 1179.0625 C173.35137869 1177.7640152 163.89502295 1176.59797521 154.375 1175.8125 C153.51495361 1175.7410376 152.65490723 1175.6695752 151.76879883 1175.59594727 C148.84716564 1175.37137376 145.92444985 1175.18442671 143 1175 C142.34896301 1174.95297943 141.69792603 1174.90595886 141.02716064 1174.85751343 C131.51022981 1174.17850327 122.10151105 1173.95467501 112.56216431 1174.26811218 C107.53550037 1174.42878568 102.50846308 1174.51353941 97.47998047 1174.59594727 C94.89822942 1174.65726181 92.31707494 1174.7526416 89.73779297 1174.88110352 C68.76150044 1175.87574903 68.76150044 1175.87574903 62.49395752 1171.08407593 C58.17100656 1166.41034362 55.16390128 1161.16648453 52.3265686 1155.50028992 C50.30522134 1151.6904951 47.75327202 1148.3437432 45.125 1144.9375 C41 1139.4566259 41 1139.4566259 41 1136 C41.969375 1135.47792969 42.93875 1134.95585938 43.9375 1134.41796875 C79.22895558 1115.14949199 114.68922041 1087.83968155 127 1048 C128.16694101 1043.45040719 128.32360245 1038.85970941 128.5625 1034.1875 C128.62727539 1033.00510742 128.62727539 1033.00510742 128.69335938 1031.79882812 C128.79878321 1029.86605785 128.89983094 1027.93304974 129 1026 C89.96923288 1024.9962414 60.00319582 1033.68246001 31 1061 C30.03900391 1061.86431641 30.03900391 1061.86431641 29.05859375 1062.74609375 C16.36019506 1074.64918563 6.82438922 1090.14118823 -2 1105 C-2.36931641 1105.61987793 -2.73863281 1106.23975586 -3.11914062 1106.87841797 C-18.00978299 1132.2821955 -27.45340703 1161.19417301 -33 1190 C-33.16516113 1190.82290527 -33.33032227 1191.64581055 -33.50048828 1192.49365234 C-39.19372558 1222.10201883 -38.04097112 1255.56820354 -32 1285 C-31.79101074 1286.03995117 -31.58202148 1287.07990234 -31.36669922 1288.15136719 C-20.92883505 1338.64404643 2.3617782 1384.60572932 34 1425 C38.36913758 1423.46244258 42.737758 1421.92342538 47.10610962 1420.38363647 C49.43449586 1419.56355808 51.76348709 1418.74521526 54.0925293 1417.92700195 C61.29816986 1415.39185331 68.49206815 1412.83554491 75.6484375 1410.1640625 C77.35108765 1409.53262329 77.35108765 1409.53262329 79.08813477 1408.88842773 C81.19408448 1408.10405834 83.29635467 1407.30971789 85.39428711 1406.50415039 C86.33280518 1406.15602295 87.27132324 1405.80789551 88.23828125 1405.44921875 C89.445448 1404.99035278 89.445448 1404.99035278 90.67700195 1404.5222168 C93.50289139 1403.88694854 95.24334575 1404.14068894 98 1405 C99.77001953 1406.14819336 99.77001953 1406.14819336 101.3828125 1407.58984375 C101.98730225 1408.12206543 102.59179199 1408.65428711 103.21459961 1409.20263672 C103.84503174 1409.7751416 104.47546387 1410.34764648 105.125 1410.9375 C105.78443604 1411.52289551 106.44387207 1412.10829102 107.12329102 1412.71142578 C109.09180612 1414.46392219 111.04769966 1416.22947431 113 1418 C113.54092285 1418.48839355 114.0818457 1418.97678711 114.63916016 1419.47998047 C116.96170569 1421.57803084 119.275546 1423.68508356 121.58203125 1425.80078125 C123.73435879 1427.75839095 125.91772946 1429.66745634 128.125 1431.5625 C131.77852917 1434.73137734 135.16460973 1438.1235208 138.53125 1441.59375 C140.55434934 1443.56563164 142.60828712 1445.41116901 144.74609375 1447.25390625 C149.2104736 1451.1294166 153.39487356 1455.24724392 157.5625 1459.4375 C158.63661133 1460.50581055 158.63661133 1460.50581055 159.73242188 1461.59570312 C163.80861021 1465.67930945 167.69003491 1469.86861977 171.45678711 1474.23852539 C173.37591028 1476.42907652 175.4101978 1478.47257996 177.5 1480.5 C180.84933729 1483.80986698 183.99925956 1487.20746949 187.0625 1490.78125 C188.98568756 1492.98360994 190.9603053 1495.13240641 192.94921875 1497.27539062 C197.6862247 1502.38227238 202.19386643 1507.60166257 206.5625 1513.03125 C209.42925977 1516.52281638 212.39772022 1519.91529175 215.375 1523.3125 C221.0844994 1529.84727856 226.5020277 1536.56917859 231.79833984 1543.44140625 C233.58568194 1545.75964923 235.3875955 1548.06650525 237.1875 1550.375 C238.12537819 1551.58303982 239.06305076 1552.79123955 240 1554 C243.05784819 1553.38027497 245.26142938 1552.38434642 247.87890625 1550.69921875 C249.00039062 1549.98354736 249.00039062 1549.98354736 250.14453125 1549.25341797 C250.94246094 1548.73666504 251.74039063 1548.21991211 252.5625 1547.6875 C254.26160653 1546.60008505 255.96082884 1545.51285099 257.66015625 1544.42578125 C258.53559082 1543.8632666 259.41102539 1543.30075195 260.31298828 1542.72119141 C264.69354827 1539.91518124 269.09784139 1537.14695031 273.5 1534.375 C275.07324456 1533.38333251 276.64618555 1532.39118315 278.21875 1531.3984375 C278.87810547 1530.98255371 279.53746094 1530.56666992 280.21679688 1530.13818359 C281.82419811 1529.1122109 283.41334342 1528.05777105 285 1527 C289.93598448 1527.30811115 293.76160288 1528.55344478 298.18359375 1530.703125 C299.34640869 1531.26467285 300.50922363 1531.8262207 301.70727539 1532.40478516 C302.95104761 1533.01912033 304.19444724 1533.63421035 305.4375 1534.25 C306.73357885 1534.88473302 308.02972232 1535.51933409 309.32592773 1536.15380859 C321.40229946 1542.09477407 333.28537108 1548.3730493 345 1555 C345.8053418 1555.45455566 346.61068359 1555.90911133 347.44042969 1556.37744141 C393.36097447 1582.54773095 436.48526691 1615.31759308 475.10546875 1651.32421875 C477.4310835 1653.47407854 479.78184942 1655.56645732 482.1875 1657.625 C486.31512305 1661.18056442 490.09549753 1665.06380707 493.8984375 1668.9609375 C495.83096046 1671.04126091 495.83096046 1671.04126091 498 1672 C498 1672.66 498 1673.32 498 1674 C498.54011719 1674.21398438 499.08023437 1674.42796875 499.63671875 1674.6484375 C502.85050019 1676.48640176 505.24894031 1678.99686702 507.8125 1681.625 C508.34875 1682.16769531 508.885 1682.71039062 509.4375 1683.26953125 C512.79677488 1686.69387683 515.98688058 1690.21985951 519.09375 1693.875 C521.62251949 1696.69395615 524.30665002 1699.33917442 527 1702 C530.90547424 1705.8629844 534.67130611 1709.76738388 538.234375 1713.953125 C540.3943342 1716.45714849 542.63487993 1718.87997698 544.875 1721.3125 C548.94540056 1725.77522832 552.80176909 1730.36258 556.59375 1735.0625 C559.29779889 1738.3635467 562.08144477 1741.58735117 564.875 1744.8125 C570.28712662 1751.08650095 575.43990755 1757.52889244 580.5078125 1764.08251953 C582.10676178 1766.13719029 583.72389582 1768.1766197 585.34375 1770.21484375 C592.6593439 1779.45822306 599.49740317 1788.91891073 606.08203125 1798.6953125 C608.50491512 1802.2907622 610.99922206 1805.8158288 613.5625 1809.3125 C614.1709375 1810.14652344 614.779375 1810.98054688 615.40625 1811.83984375 C616.39203548 1813.17596966 617.38978338 1814.5034702 618.40625 1815.81640625 C620.08861408 1818.08418756 621.02353981 1819.45318751 620.89990234 1822.32519531 C619.68543599 1825.93498732 617.73959885 1827.74519581 615.0390625 1830.421875 C614.53386078 1830.92616028 614.02865906 1831.43044556 613.50814819 1831.95001221 C612.43511541 1833.01701128 611.35723416 1834.07915352 610.27490234 1835.13671875 C608.65495068 1836.7207141 607.05103395 1838.31956465 605.44921875 1839.921875 C599.6691203 1845.66146891 593.75212379 1851.03123042 587.36523438 1856.09570312 C585.11871859 1857.90441732 582.99021144 1859.79055994 580.875 1861.75 C574.66803972 1867.31865585 567.96881393 1872.26674099 561.3046875 1877.26904297 C559.80216422 1878.39752708 558.30203962 1879.52921417 556.8046875 1880.66455078 C489.0655668 1932 489.0655668 1932 476 1932 C474.86663818 1930.6539917 474.86663818 1930.6539917 473.60839844 1928.73730469 C473.13269913 1928.02034927 472.65699982 1927.30339386 472.16688538 1926.56471252 C471.65290695 1925.77507614 471.13892853 1924.98543976 470.609375 1924.171875 C470.0727977 1923.35996201 469.5362204 1922.54804901 468.98338318 1921.71153259 C467.83166398 1919.96767795 466.68296449 1918.22182601 465.53695679 1916.47421265 C462.57169844 1911.95368123 459.58347522 1907.44837216 456.59765625 1902.94140625 C456.01579056 1902.06188797 455.43392487 1901.18236969 454.83442688 1900.27619934 C448.72994001 1891.05877682 442.4379911 1881.98762831 436 1873 C434.94661152 1871.51823135 433.89322615 1870.03646048 432.83984375 1868.5546875 C425.7066539 1858.56366306 418.31622382 1848.78110232 410.84765625 1839.0390625 C407.9717971 1835.28448831 405.13558542 1831.50357468 402.32177734 1827.70239258 C396.01323001 1819.1891538 389.34460099 1811.01027617 382.55859375 1802.87451172 C380.45795261 1800.34808273 378.38481437 1797.79968679 376.3125 1795.25 C371.75774844 1789.67841277 367.11609477 1784.18312551 362.45019531 1778.70458984 C360.98196961 1776.97880671 359.51826467 1775.24925728 358.0546875 1773.51953125 C351.74751435 1766.08821546 345.26115805 1758.86649759 338.60375977 1751.74731445 C337.47720694 1750.51992238 336.36703555 1749.27739014 335.26928711 1748.02416992 C327.99422249 1739.75273968 320.17608557 1732.02529054 312.37963867 1724.24926758 C309.93618078 1721.81118368 307.49813193 1719.36778211 305.06054688 1716.92382812 C303.48729979 1715.35124167 301.91374263 1713.77896536 300.33984375 1712.20703125 C299.62191147 1711.48707474 298.90397919 1710.76711823 298.16429138 1710.02534485 C293.6028867 1705.48474528 288.89455779 1701.17849188 284 1697 C283.38275558 1696.47088516 282.76551117 1695.94177032 282.12956238 1695.3966217 C280.50769422 1694.00883888 278.8797989 1692.62845642 277.25 1691.25 C276.69957031 1690.78207031 276.14914062 1690.31414062 275.58203125 1689.83203125 C274.06234719 1688.54558407 272.53157822 1687.27226339 271 1686 C270.43011856 1685.42207703 269.86023712 1684.84415405 269.27308655 1684.24871826 C266.42519397 1682.68423077 264.78155655 1683.13511387 261.71503544 1683.95884323 C261.04264552 1684.15966129 260.3702556 1684.36047935 259.67749023 1684.56738281 C258.96915008 1684.76218861 258.26080992 1684.9569944 257.53100491 1685.1577034 C256.0616676 1685.56255806 254.59437776 1685.97491437 253.12919235 1686.39454651 C250.00303501 1687.28349526 246.85678289 1688.0921125 243.71118164 1688.90917969 C241.19382256 1689.57876134 238.6768296 1690.24972056 236.16015625 1690.921875 C234.747971 1691.29817362 233.33576425 1691.6743916 231.92353821 1692.05053711 C228.10488456 1693.06809715 224.28671301 1694.0874546 220.46868134 1695.10734558 C218.02838366 1695.75911195 215.58796715 1696.41043167 213.14752197 1697.06164551 C187.13551402 1704.00352128 161.13602458 1710.99155294 135.14279938 1718.00340271 C132.3762198 1718.74967097 129.60959342 1719.49576551 126.84295654 1720.24182129 C108.31124705 1725.23938804 89.78125398 1730.24318946 71.25714493 1735.26886368 C62.91063869 1737.53330664 54.56333161 1739.79478001 46.21549606 1742.05431747 C40.25321378 1743.66847476 34.29217213 1745.28711448 28.33201694 1746.90910721 C24.66027853 1747.90722601 20.9874251 1748.90119008 17.31424522 1749.89398956 C15.60802179 1750.35608358 13.90227244 1750.81993207 12.19703102 1751.2856369 C9.86980231 1751.92096718 7.54098668 1752.55011026 5.21166992 1753.17773438 C4.53343863 1753.36450619 3.85520733 1753.551278 3.15642357 1753.74370956 C-0.06756769 1754.60545841 -2.6222532 1755 -6 1755 C-7.42871094 1753.61401367 -7.42871094 1753.61401367 -8.734375 1751.66796875 C-9.22268799 1750.95656738 -9.71100098 1750.24516602 -10.21411133 1749.51220703 C-10.72095459 1748.74505371 -11.22779785 1747.97790039 -11.75 1747.1875 C-12.81020346 1745.62562658 -13.87140391 1744.06442946 -14.93359375 1742.50390625 C-15.45163574 1741.73578613 -15.96967773 1740.96766602 -16.50341797 1740.17626953 C-19.11603239 1736.37711049 -21.94425076 1732.74453894 -24.76953125 1729.1015625 C-25.17558594 1728.40804688 -25.58164062 1727.71453125 -26 1727 C-24.76398251 1723.29194754 -23.70616522 1722.91471085 -20.42578125 1720.91796875 C-18.97631104 1720.02549438 -18.97631104 1720.02549438 -17.49755859 1719.11499023 C-16.44648926 1718.47891846 -15.39541992 1717.84284668 -14.3125 1717.1875 C-12.10233738 1715.82898232 -9.89271311 1714.46958849 -7.68359375 1713.109375 C-6.56194824 1712.42166016 -5.44030273 1711.73394531 -4.28466797 1711.02539062 C0.54962495 1708.04447089 5.33946649 1704.99587792 10.125 1701.9375 C11.94009024 1700.77992608 13.75519442 1699.62237401 15.5703125 1698.46484375 C16.91270996 1697.60802002 16.91270996 1697.60802002 18.28222656 1696.73388672 C22.85213406 1693.81837441 27.42627575 1690.9095196 32 1688 C37.53588303 1684.47770268 43.07137541 1680.95479618 48.60546875 1677.4296875 C57.22774397 1671.93840607 65.85417826 1666.45414839 74.5 1661 C81.65071291 1656.48685766 88.79766189 1651.96783035 95.9375 1647.4375 C96.87980469 1646.84130859 97.82210937 1646.24511719 98.79296875 1645.63085938 C99.6746875 1645.07076172 100.55640625 1644.51066406 101.46484375 1643.93359375 C102.244646 1643.43915771 103.02444824 1642.94472168 103.82788086 1642.43530273 C105.95089921 1641.03244504 107.98134903 1639.54836932 110 1638 C95.21029573 1610.17384068 79.01358741 1583.41129059 59 1559 C58.5452832 1558.44231934 58.09056641 1557.88463867 57.62207031 1557.31005859 C53.70030529 1552.47555865 53.70030529 1552.47555865 49.58743286 1547.80740356 C48 1546 48 1546 46.25997925 1543.48336792 C43.39934388 1539.86161114 40.63747071 1536.62151355 35.97220802 1535.52215576 C29.63380583 1534.91408932 23.27453888 1535.61398204 16.94921875 1536.1171875 C14.6988827 1536.25540451 12.44817876 1536.38772891 10.19718933 1536.51486206 C5.75401974 1536.76988162 1.31241187 1537.04024347 -3.1286363 1537.32987463 C-13.52192849 1538.00347459 -23.92109051 1538.49229977 -34.32568359 1538.95410156 C-35.21815363 1538.99387414 -36.11062367 1539.03364673 -37.03013825 1539.07462454 C-40.72028512 1539.23899443 -44.41044776 1539.40299842 -48.10064852 1539.56615424 C-57.63999066 1539.98865826 -67.17821691 1540.43419162 -76.71636796 1540.8826766 C-79.6337603 1541.01985132 -82.55116798 1541.15669526 -85.46858025 1541.29344559 C-91.37490009 1541.57034821 -97.28120104 1541.84765233 -103.1875 1542.125 C-116.03336937 1542.72816312 -128.87926981 1543.33062697 -141.72535974 1543.92907703 C-147.2475024 1544.18645261 -152.76954598 1544.44583144 -158.29151857 1544.70682931 C-161.70289732 1544.86765518 -165.11435537 1545.02674691 -168.52583694 1545.18537521 C-170.09760386 1545.25881535 -171.6693376 1545.33296975 -173.24103355 1545.40791321 C-180.83103644 1545.76948084 -188.39948044 1546.09549634 -196 1546 C-197.88668249 1541.68382813 -199.75577942 1537.36061835 -201.60913086 1533.0300293 C-202.24174467 1531.55857443 -202.87907648 1530.08913847 -203.52124023 1528.62182617 C-204.4446865 1526.50955907 -205.35079582 1524.39055866 -206.25390625 1522.26953125 C-206.54342667 1521.61725052 -206.83294708 1520.96496979 -207.13124084 1520.29292297 C-208.75452779 1516.42548571 -209.45048902 1513.97897231 -208 1510 C-205.82397461 1508.68223572 -205.82397461 1508.68223572 -202.90234375 1507.69506836 C-201.80666077 1507.31336487 -200.71097778 1506.93166138 -199.58209229 1506.53839111 C-198.37937683 1506.14287048 -197.17666138 1505.74734985 -195.9375 1505.33984375 C-194.03440051 1504.68571788 -192.13130191 1504.03158941 -190.22824478 1503.37734032 C-188.20759259 1502.68713366 -186.18373763 1502.00724754 -184.15856934 1501.33041382 C-180.00933429 1499.94363801 -175.8695804 1498.53010027 -171.73144531 1497.1105957 C-167.63124134 1495.70520119 -163.53070876 1494.30089699 -159.42681885 1492.90629578 C-148.81845298 1489.29987176 -138.2658367 1485.55533531 -127.75 1481.6875 C-126.39717783 1481.19186014 -125.04431497 1480.69633132 -123.69140625 1480.20092773 C-120.79293652 1479.13751017 -117.89565063 1478.071064 -115 1477 C-116.22454044 1473.12822385 -117.61755327 1469.52487969 -119.43359375 1465.89453125 C-119.91183594 1464.92604248 -120.39007812 1463.95755371 -120.8828125 1462.9597168 C-121.39585937 1461.92113525 -121.90890625 1460.88255371 -122.4375 1459.8125 C-158.83031949 1384.73038642 -177.09270113 1299.20873383 -165 1216 C-164.75056641 1214.27354248 -164.75056641 1214.27354248 -164.49609375 1212.51220703 C-158.35914925 1171.68447901 -145.23817503 1132.49036251 -126 1096 C-125.60232422 1095.23655273 -125.20464844 1094.47310547 -124.79492188 1093.68652344 C-118.05881686 1080.815935 -110.43763122 1068.81778369 -102 1057 C-101.50725586 1056.3085791 -101.01451172 1055.6171582 -100.50683594 1054.90478516 C-99.33953745 1053.26868057 -98.17002811 1051.63415366 -97 1050 C-122.87444703 1064.68053732 -146.61867765 1082.82940427 -168.6015625 1102.8203125 C-170.2337364 1104.30362363 -171.87474918 1105.77725392 -173.5234375 1107.2421875 C-181.09118886 1113.97166486 -188.36717458 1120.91343816 -194.953125 1128.6171875 C-196.54914793 1130.47515313 -198.16381297 1132.30781689 -199.796875 1134.1328125 C-219.05339591 1155.7858742 -234.88428452 1179.75021605 -249 1205 C-249.38075684 1205.66966797 -249.76151367 1206.33933594 -250.15380859 1207.02929688 C-278.23130499 1256.57636411 -293.18726564 1314.59767435 -299 1371 C-299.08613556 1371.80451599 -299.17227112 1372.60903198 -299.26101685 1373.43792725 C-301.08048002 1390.8440915 -301.36293824 1408.19645589 -301.31805801 1425.67667389 C-301.31241912 1427.90698824 -301.30959769 1430.137295 -301.30697632 1432.36761475 C-301.27050193 1453.71198185 -300.88614889 1474.81443901 -298 1496 C-297.82063564 1497.37849587 -297.64194741 1498.75707984 -297.46386719 1500.13574219 C-290.63903646 1552.3587667 -273.72627207 1601.61742798 -251 1649 C-250.50951172 1650.03012207 -250.01902344 1651.06024414 -249.51367188 1652.12158203 C-241.26946223 1669.34439931 -231.97869918 1685.73927966 -222 1702 C-221.43861328 1702.91990723 -220.87722656 1703.83981445 -220.29882812 1704.78759766 C-214.09928767 1714.91591666 -207.56302017 1724.6771648 -200.39746094 1734.14648438 C-198.95286262 1736.06252044 -197.5257422 1737.99062264 -196.1015625 1739.921875 C-178.00528771 1764.39049791 -157.95789834 1787.06088696 -136.5 1808.625 C-135.54903442 1809.58297485 -135.54903442 1809.58297485 -134.57885742 1810.56030273 C-130.79547582 1814.33077346 -126.89002807 1817.90549827 -122.84814453 1821.39697266 C-120.41531015 1823.50714314 -118.05295476 1825.6898054 -115.6875 1827.875 C-110.28508543 1832.7957178 -104.69831141 1837.42792553 -99 1842 C-97.87979484 1842.91225289 -96.76002295 1843.82503803 -95.640625 1844.73828125 C-43.78775575 1886.86918007 15.54361645 1920.62282404 78.3125 1943.5 C79.3107933 1943.86543411 79.3107933 1943.86543411 80.32925415 1944.23825073 C90.45801059 1947.92839254 100.63279356 1950.95082164 111 1954 C111 1969.18 111 1984.36 111 2000 C62.32557261 2000.70885088 14.36564142 1994.06513975 -33 1983 C-33.67726135 1982.84229126 -34.35452271 1982.68458252 -35.05230713 1982.52209473 C-77.65802679 1972.55140388 -119.18706838 1958.12036214 -159 1940 C-160.68343506 1939.24130615 -160.68343506 1939.24130615 -162.40087891 1938.46728516 C-213.80239769 1915.23915314 -263.6979883 1886.35012411 -307 1850 C-309.85004364 1847.64082504 -312.70636903 1845.28929902 -315.5625 1842.9375 C-316.30371094 1842.32592041 -317.04492188 1841.71434082 -317.80859375 1841.08422852 C-321.55272512 1837.99824524 -325.31381278 1834.94063918 -329.125 1831.9375 C-345.1432123 1819.17171659 -360.00063137 1805.06861714 -374.5 1790.625 C-375.33684326 1789.79282959 -376.17368652 1788.96065918 -377.03588867 1788.10327148 C-381.34594976 1783.78196488 -385.50177011 1779.38860665 -389.48046875 1774.76025391 C-391.51040554 1772.40873651 -393.63160145 1770.14679983 -395.75 1767.875 C-400.49674642 1762.66935363 -404.84846218 1757.22705414 -409.15625 1751.65625 C-411.04436193 1749.21526551 -412.95946147 1746.80069579 -414.90625 1744.40625 C-426.44934734 1730.20816398 -437.06019127 1715.3601519 -447 1700 C-447.46229004 1699.2879541 -447.92458008 1698.5759082 -448.40087891 1697.84228516 C-456.39623178 1685.48485997 -463.87139315 1672.87570074 -471 1660 C-471.88026855 1658.41203613 -471.88026855 1658.41203613 -472.77832031 1656.79199219 C-513.95476025 1582.13665638 -541.47735503 1499.13050162 -558 1384 C-565.55345671 1389.42402477 -572.5359498 1395.13962264 -579.3125 1401.5 C-581.43363151 1403.47314559 -583.57581042 1405.35021927 -585.8125 1407.1875 C-589.6373149 1410.43446517 -592.77177277 1414.1727853 -596 1418 C-596.825 1418.93714844 -597.65 1419.87429688 -598.5 1420.83984375 C-605.72544443 1429.09451289 -612.05179664 1437.7869624 -618 1447 C-618.71325439 1448.10311523 -618.71325439 1448.10311523 -619.44091797 1449.22851562 C-646.56424027 1491.67610722 -663.36886723 1541.83232489 -667.67578125 1592.0546875 C-668 1595 -668 1595 -669 1596 C-670.41570123 1596.08651611 -671.835595 1596.10704904 -673.25390625 1596.09765625 C-674.53491211 1596.09282227 -674.53491211 1596.09282227 -675.84179688 1596.08789062 C-676.73962891 1596.07951172 -677.63746094 1596.07113281 -678.5625 1596.0625 C-679.46419922 1596.05798828 -680.36589844 1596.05347656 -681.29492188 1596.04882812 C-683.53001314 1596.03700225 -685.76497437 1596.0205222 -688 1596 C-693.89615358 1584.73782523 -698.8755032 1573.32216047 -703.375 1561.4375 C-703.6973764 1560.59140167 -704.01975281 1559.74530334 -704.35189819 1558.87356567 C-722.19801392 1511.95350744 -734.74938886 1463.39815502 -741.8125 1413.6875 C-741.99530518 1412.41825684 -742.17811035 1411.14901367 -742.36645508 1409.84130859 C-742.98177829 1405.23335416 -743.50998648 1400.62278906 -744 1396 C-744.18792114 1394.24384369 -744.18792114 1394.24384369 -744.37963867 1392.45220947 C-746.67906355 1370.31321783 -747.4812665 1348.35462745 -747.39111328 1326.10253906 C-747.37402274 1321.85126614 -747.38421915 1317.60055708 -747.40142822 1313.34930325 C-747.503278 1283.65547519 -745.63484328 1254.32500316 -741.25 1224.9375 C-741.06108185 1223.6437294 -741.06108185 1223.6437294 -740.86834717 1222.32382202 C-738.28793254 1204.72734383 -735.00874573 1187.3255539 -731 1170 C-730.70399902 1168.71689941 -730.40799805 1167.43379883 -730.10302734 1166.11181641 C-719.18710659 1119.70588424 -701.95684446 1074.23358836 -682 1031 C-681.72220703 1030.39798767 -681.44441406 1029.79597534 -681.15820312 1029.17572021 C-663.8516973 991.77031999 -643.41660613 954.79611761 -618.4453125 921.92089844 C-616.78573099 919.71522491 -615.15730522 917.48831291 -613.53125 915.2578125 C-607.24019194 906.63301565 -600.86209093 898.18023269 -594 890 C-592.49894691 888.14668577 -590.998966 886.29250268 -589.5 884.4375 C-585.82789034 879.94652268 -582.01453938 875.61316653 -578.109375 871.32421875 C-576.25373343 869.27957665 -574.43243624 867.21215851 -572.625 865.125 C-563.84863326 855.08121601 -554.66381916 845.50182504 -545.21948242 836.08911133 C-543.30074495 834.17577806 -541.38747246 832.25709496 -539.47460938 830.33789062 C-533.48484257 824.34487665 -527.47725655 818.47073038 -521 813 C-519.39231627 811.54554483 -517.78760285 810.08779105 -516.1875 808.625 C-511.9455915 804.80085522 -507.59448903 801.15110545 -503.15234375 797.5625 C-500.81140119 795.66979087 -498.49750788 793.74749825 -496.19140625 791.8125 C-481.37610694 779.41487762 -465.86281835 768.0540451 -449.8515625 757.25292969 C-448.11306785 756.07651163 -446.38385165 754.88764421 -444.65625 753.6953125 C-424.3186427 739.76953257 -402.86072746 727.35429509 -381 716 C-379.96166016 715.45891602 -378.92332031 714.91783203 -377.85351562 714.36035156 C-358.44522162 704.30225391 -338.61832968 695.29602921 -318 688 C-365.19317571 662.75378272 -448.61406186 680.64876177 -497.09033203 695.22583008 C-510.5510921 699.38166096 -523.82933032 704.00351767 -537 709 C-538.62683052 707.06401165 -540.25151469 705.12629031 -541.875 703.1875 C-542.33519531 702.64029297 -542.79539062 702.09308594 -543.26953125 701.52929688 C-545.31757962 699.08054339 -547.22718883 696.65921675 -549 694 C-548.67588764 690.68010481 -547.35882606 688.96619189 -545.0859375 686.609375 C-544.48910156 685.98160156 -543.89226562 685.35382812 -543.27734375 684.70703125 C-542.64957031 684.06121094 -542.02179688 683.41539062 -541.375 682.75 C-540.15234425 681.47520541 -538.93099158 680.19915976 -537.7109375 678.921875 C-536.89568604 678.08027832 -536.89568604 678.08027832 -536.06396484 677.22167969 C-534.26464684 675.28486944 -532.53796585 673.31019319 -530.81274414 671.30786133 C-526.82268569 666.73193374 -522.58244161 662.43833178 -518.28515625 658.15234375 C-517.06329872 656.92905113 -517.06329872 656.92905113 -515.8167572 655.68104553 C-514.10440807 653.96801992 -512.39081158 652.25624035 -510.67602539 650.5456543 C-508.06997985 647.94496448 -505.46931478 645.33898044 -502.86914062 642.73242188 C-501.19563301 641.05957514 -499.52181518 639.38703866 -497.84765625 637.71484375 C-497.0797023 636.94486557 -496.31174835 636.17488739 -495.52052307 635.38157654 C-491.37591178 631.25467763 -487.14927679 627.28624161 -482.71246338 623.47434998 C-480.31903091 621.41371782 -478.00720873 619.26793466 -475.6875 617.125 C-471.20337072 613.03562213 -466.59732762 609.15380979 -461.875 605.34375 C-459.30646808 603.24983811 -456.77968393 601.11829314 -454.26269531 598.96337891 C-447.36093918 593.05964058 -440.26930302 587.44436543 -433 582 C-432.32259766 581.49130371 -431.64519531 580.98260742 -430.94726562 580.45849609 C-412.85257402 566.90367676 -394.49598582 553.72395448 -375.02734375 542.20410156 C-373.07214103 541.04284677 -371.12824523 539.86491393 -369.1875 538.6796875 C-359.61069193 532.8431887 -349.86321361 527.33707723 -340 522 C-339.15501953 521.54254395 -338.31003906 521.08508789 -337.43945312 520.61376953 C-266.37141551 482.36151647 -188.70139833 457.99633518 -102.4375 446.8125 C-101.22223633 446.65749023 -100.00697266 446.50248047 -98.75488281 446.34277344 C-73.73251018 443.35881162 -48.72819821 442.62146483 -23.5625 442.6875 C-22.05714932 442.68972489 -20.55179857 442.69190128 -19.04644775 442.69403076 C3.74298539 442.73864161 26.35835412 443.20273149 49 446 C49.83370117 446.1018158 50.66740234 446.20363159 51.52636719 446.30853271 C76.46044415 449.37869626 100.9812918 453.47516831 125.36376953 459.5871582 C126.42500031 459.85301224 127.48623108 460.11886627 128.57962036 460.39277649 C129.37834564 460.59316025 130.17707092 460.79354401 131 461 C126.32568267 444.24327514 121.59384432 427.50382019 116.8125 410.77734375 C116.1231834 408.36420354 115.43390965 405.9510511 114.74467468 403.53788757 C112.88653164 397.03298682 111.02743718 390.52835841 109.16805649 384.02381134 C107.98557536 379.88717071 106.80339754 375.75044342 105.62124634 371.6137085 C89.29081114 314.46956254 72.91087369 257.3396352 56.52043152 200.212677 C48.19823958 171.20663734 39.87889008 142.19978277 31.56048298 113.19265747 C29.43705923 105.78808619 27.3135484 98.38353991 25.18978882 90.97906494 C24.98730996 90.27311597 24.7848311 89.567167 24.57621652 88.83982563 C23.37163884 84.64002696 23.37163884 84.64002696 22.16702068 80.44023991 C20.09255821 73.20793856 18.01865391 65.97547846 15.94657898 58.74249268 C15.24874036 56.3066779 14.55089011 53.87086645 13.85302734 51.43505859 C13.52050241 50.27438118 13.18797747 49.11370377 12.84537601 47.91785431 C11.05694449 41.67814347 9.26315974 35.44002349 7.46143246 29.20413876 C6.48810221 25.83466652 5.51740045 22.46444048 4.54709816 19.09409523 C3.91881282 16.91620111 3.28636742 14.73954568 2.6537323 12.56291199 C2.294673 11.31472183 1.93561371 10.06653168 1.56567383 8.78051758 C1.25930496 7.72254471 0.9529361 6.66457184 0.63728333 5.57453918 C0 3 0 3 0 0 Z M396 529 C397 531 397 531 397 531 Z M512 808 C509.29280368 825.07967873 507.08401538 842.22314423 504.9284668 859.37939453 C504.52048861 862.62039206 504.10416201 865.8601476 503.68041992 869.09912109 C497.17431582 916.93685022 497.17431582 916.93685022 514.0859375 961.046875 C515.98255083 963.44489186 517.95603371 965.72748896 520 968 C520.69996094 968.91072266 520.69996094 968.91072266 521.4140625 969.83984375 C530.85755416 982.01697774 545.69351931 988.33983871 559.11181641 995.05358887 C561.14275946 996.07155509 563.17120541 997.09437413 565.19921875 998.11816406 C580.29461897 1005.73719329 595.40722877 1013.30943215 610.69921875 1020.52758789 C621.81565178 1025.80809124 632.78907076 1031.37943581 643.78796387 1036.89910889 C655.9925852 1043.02188897 668.2207671 1049.06850935 680.57421875 1054.88671875 C685.3955712 1057.16349702 690.11232743 1059.61752201 694.79296875 1062.171875 C697.3351617 1063.12575979 698.49532673 1062.94429061 701 1062 C695.89013276 1050.78518611 686.55316739 1040.7481789 679.09716797 1031.02368164 C674.80553896 1025.4122084 670.60754821 1019.74735346 666.5 1014 C661.80214536 1007.43017246 656.97404143 1000.97410658 652.0625 994.5625 C643.99635308 984.03281977 636.12688479 973.36757408 628.29101562 962.66601562 C620.8592088 952.52248909 613.32596657 942.46822068 605.68017578 932.48486328 C601.63197193 927.1846985 597.69225108 921.83012984 593.85742188 916.37451172 C590.11688539 911.08877008 586.18685142 905.95297479 582.25 900.8125 C574.12232567 890.19866866 566.1884488 879.45165294 558.29101562 868.66601562 C550.86571221 858.53136546 543.34004132 848.48511021 535.69995117 838.51123047 C531.44234151 832.93768926 527.29805515 827.30171602 523.25317383 821.57250977 C518.34616414 814.61743133 518.34616414 814.61743133 513 808 C512.67 808 512.34 808 512 808 Z " fill="#000000" transform="translate(747,0)"/>
</svg>
