<?xml version="1.0" encoding="UTF-8"?>
<svg version="1.1" xmlns="http://www.w3.org/2000/svg" width="1565" height="2000">
<path d="M0 0 C17.6024152 10.93679474 24.72856986 27.18991927 32.00582886 45.73156738 C32.90378547 48.01862796 33.81057127 50.30203899 34.71899414 52.58496094 C37.51163235 59.61638338 40.26580421 66.6605343 42.94921875 73.734375 C52.85343443 99.73982673 65.01964967 124.34201702 79.125 148.3203125 C80.39338352 150.49991019 81.66160629 152.67960142 82.9296875 154.859375 C97.297053 179.43643265 112.72770655 203.28515147 129.109375 226.56640625 C137.5510263 238.68716891 143.7379689 251.37047644 141.8515625 266.515625 C140.13425528 275.81500562 134.90148294 283.03519484 129.125 290.3203125 C129.64449219 291.13113281 130.16398438 291.94195312 130.69921875 292.77734375 C140.11518145 307.72801281 148.15416792 324.1240703 144.125 342.3203125 C143.41475823 344.04555434 142.66499055 345.75510017 141.875 347.4453125 C139.71410347 352.29567019 140.38095592 355.092712 142.18359375 359.97265625 C142.64958984 361.13474609 142.64958984 361.13474609 143.125 362.3203125 C146.41610276 372.54005263 146.69180681 383.86099966 142.4375 393.83203125 C138.26061323 401.75071243 132.83459524 406.67031299 125.48046875 411.69140625 C123.07478261 413.25093345 123.07478261 413.25093345 121.125 415.3203125 C121.7540625 416.0009375 122.383125 416.6815625 123.03125 417.3828125 C128.15064643 423.18068316 132.29308828 428.88102378 135.75 435.8203125 C136.09224609 436.50222656 136.43449219 437.18414062 136.78710938 437.88671875 C138.43692059 441.33725946 139.125 443.42731514 139.125 447.3203125 C140.73375 447.61421875 140.73375 447.61421875 142.375 447.9140625 C220.60976169 462.65903017 297.57364817 492.25680428 366.53759766 531.84521484 C368.77947118 533.1233239 371.03031797 534.38028526 373.29296875 535.62109375 C393.33045665 546.61940263 412.38760143 559.25606253 431.125 572.3203125 C431.77581543 572.77180664 432.42663086 573.22330078 433.09716797 573.68847656 C450.00947275 585.44748616 466.28911418 598.1551784 482.125 611.3203125 C482.71249023 611.80870605 483.29998047 612.29709961 483.90527344 612.80029297 C490.34634413 618.17146032 496.67598535 623.65129998 502.8828125 629.29296875 C504.83708424 631.05998449 506.81559737 632.78944779 508.8125 634.5078125 C520.35252829 644.62230788 531.26773875 655.36009182 542.125 666.1953125 C542.71503815 666.78276245 543.30507629 667.3702124 543.91299438 667.97546387 C549.67658745 673.71912618 555.40585735 679.4425659 560.68847656 685.63867188 C562.88366057 688.20842501 565.19646675 690.65980008 567.5 693.1328125 C571.76895194 697.75330799 575.80531294 702.51138002 579.75 707.4140625 C581.96271279 710.12172421 584.22619835 712.77196159 586.51708984 715.41308594 C592.14951053 721.90861058 597.5325135 728.54840866 602.69677734 735.42382812 C604.29572734 737.54701506 605.90765016 739.66005247 607.51953125 741.7734375 C625.88957774 765.95072593 642.80852482 791.09927763 658.125 817.3203125 C658.5595752 818.05942871 658.99415039 818.79854492 659.44189453 819.56005859 C667.61126537 833.48970133 675.14877735 847.71246408 682.48046875 862.09863281 C683.97660219 865.02959732 685.48652158 867.95296918 687 870.875 C725.6617414 946.09699865 749.61509578 1030.57421685 763.36328125 1145.57421875 C763.42653091 1146.25300079 763.48978058 1146.93178284 763.5549469 1147.63113403 C763.75591783 1149.86004204 763.94121338 1152.08992142 764.125 1154.3203125 C764.21121109 1155.2950351 764.29742218 1156.26975769 764.38624573 1157.27401733 C765.23072885 1167.65492735 765.32497323 1178.00399475 765.36328125 1188.4140625 C765.36735678 1189.36983688 765.3714323 1190.32561127 765.37563133 1191.31034851 C765.39640098 1196.40139537 765.41072362 1201.49241626 765.42016602 1206.58349609 C765.42888743 1210.68423972 765.44943763 1214.78462899 765.48168945 1218.88525391 C765.80065949 1260.40308621 762.85430371 1301.34186605 756.125 1342.3203125 C756.0156311 1342.99416992 755.90626221 1343.66802734 755.7935791 1344.36230469 C742.38755142 1426.82146353 715.20949577 1508.06034804 668.125 1595.3203125 C667.54492188 1596.3501123 666.96484375 1597.37991211 666.3671875 1598.44091797 C641.17369394 1643.04546229 611.7636079 1684.65186376 578.55761719 1723.63330078 C577.13900845 1725.30381653 575.72906198 1726.98132292 574.3203125 1728.66015625 C561.0764738 1744.38011574 546.6346274 1758.90525707 532.125 1773.4453125 C531.39713287 1774.17585846 530.66926575 1774.90640442 529.91934204 1775.65908813 C527.80338175 1777.78094554 525.68361345 1779.89892014 523.5625 1782.015625 C522.93268723 1782.64741165 522.30287445 1783.2791983 521.65397644 1783.93013 C517.85704019 1787.70772664 513.94415301 1791.29940405 509.88703918 1794.79638672 C507.480672 1796.87756915 505.14929443 1799.03659416 502.8125 1801.1953125 C498.32351943 1805.28911459 493.71256524 1809.17500917 488.984375 1812.98828125 C486.48702575 1815.02505379 484.03287338 1817.1034595 481.59008789 1819.20507812 C474.04303581 1825.68490543 466.19813389 1831.7318029 458.25390625 1837.71484375 C456.2267792 1839.24355791 454.20639563 1840.78075225 452.1875 1842.3203125 C414.65489444 1870.84130633 374.19408527 1895.1286537 332.125 1916.3203125 C331.5198053 1916.62580017 330.9146106 1916.93128784 330.29107666 1917.24603271 C257.6590425 1953.86083348 178.78508502 1978.28803756 70.9375 1993.5703125 C69.64078369 1993.72153564 68.34406738 1993.87275879 67.00805664 1994.02856445 C63.52979905 1994.41162485 60.05195281 1994.76591712 56.56799316 1995.09146118 C54.86675228 1995.25082766 53.16601331 1995.41560589 51.46569824 1995.58456421 C30.69092063 1997.60355712 9.94784016 1997.66283993 -10.90429688 1997.63598633 C-14.78364715 1997.6313722 -18.66268257 1997.63822912 -22.54199219 1997.65649414 C-48.14414239 1997.77578492 -73.40152435 1996.93799774 -98.875 1994.3203125 C-100.42903534 1994.16328354 -100.42903534 1994.16328354 -102.01446533 1994.00308228 C-107.4387042 1993.44392127 -112.84561218 1992.79534566 -118.25 1992.0703125 C-119.41964294 1991.91690903 -119.41964294 1991.91690903 -120.61291504 1991.76040649 C-199.67946797 1981.33492291 -277.09261602 1958.88390193 -370.875 1914.3203125 C-372.01565918 1913.75199707 -373.15631836 1913.18368164 -374.33154297 1912.59814453 C-391.64151204 1903.92211971 -408.3565266 1894.41576114 -424.875 1884.3203125 C-425.91817383 1883.68448242 -426.96134766 1883.04865234 -428.03613281 1882.39355469 C-441.98361577 1873.86496136 -455.58995102 1864.90954883 -469.00927734 1855.57275391 C-470.84944467 1854.28008869 -470.84944467 1854.28008869 -472.875 1853.3203125 C-472.875 1852.6603125 -472.875 1852.0003125 -472.875 1851.3203125 C-473.52984375 1851.12050781 -474.1846875 1850.92070313 -474.859375 1850.71484375 C-479.11098054 1848.74875155 -482.48061808 1845.92386595 -486.125 1843.0078125 C-487.73372748 1841.73615958 -489.34311893 1840.46534624 -490.953125 1839.1953125 C-491.76974609 1838.54949219 -492.58636719 1837.90367188 -493.42773438 1837.23828125 C-496.49187273 1834.83685757 -499.59543891 1832.49068179 -502.70361328 1830.14672852 C-508.89502911 1825.47358095 -514.8609858 1820.71766525 -520.55078125 1815.43359375 C-523.10703678 1813.10933452 -525.75247276 1810.93175869 -528.4375 1808.7578125 C-534.22302025 1804.06884064 -539.92850704 1799.2943457 -545.17358398 1794.00024414 C-547.77296765 1791.42153339 -550.44547608 1788.96728803 -553.16796875 1786.51953125 C-560.35463611 1779.98840809 -567.21254139 1773.1338164 -574.06762695 1766.25805664 C-576.19824634 1764.12203893 -578.33421223 1761.99147132 -580.47070312 1759.86132812 C-581.8518835 1758.47948743 -583.23275389 1757.09733683 -584.61328125 1755.71484375 C-585.23946854 1755.09068069 -585.86565582 1754.46651764 -586.51081848 1753.82344055 C-590.27900402 1750.03550465 -593.86089386 1746.13094095 -597.3495636 1742.0838623 C-599.43136818 1739.67709788 -601.59080081 1737.34512744 -603.75 1735.0078125 C-608.67342507 1729.61227818 -613.29783383 1724.01010997 -617.875 1718.3203125 C-620.89736935 1714.26677194 -620.89736935 1714.26677194 -624.875 1711.3203125 C-625.205 1710.3303125 -625.535 1709.3403125 -625.875 1708.3203125 C-626.84701746 1707.29309195 -627.85009643 1706.29477269 -628.875 1705.3203125 C-629.79978721 1704.18646927 -630.70376745 1703.03543933 -631.58984375 1701.87109375 C-632.10474365 1701.19651123 -632.61964355 1700.52192871 -633.15014648 1699.8269043 C-633.69872314 1699.102854 -634.2472998 1698.37880371 -634.8125 1697.6328125 C-635.3887915 1696.87460205 -635.96508301 1696.1163916 -636.55883789 1695.33520508 C-637.7539613 1693.76116004 -638.9478807 1692.18620015 -640.140625 1690.61035156 C-641.72504746 1688.51830727 -643.31504107 1686.43063314 -644.90625 1684.34375 C-656.94425888 1668.49471319 -668.25857619 1652.1531974 -678.875 1635.3203125 C-679.37854004 1634.5257666 -679.88208008 1633.7312207 -680.40087891 1632.91259766 C-693.04371496 1612.91972772 -704.58313822 1592.36723873 -715.34814453 1571.30664062 C-716.37905785 1569.29031 -717.41399 1567.27602981 -718.45263672 1565.26367188 C-747.09955444 1509.69440004 -768.71455668 1449.45478564 -781.875 1388.3203125 C-782.12325531 1387.33200439 -782.12325531 1387.33200439 -782.37652588 1386.32373047 C-788.69138994 1360.94365236 -792.54710846 1334.59636758 -795.59637451 1308.63903809 C-795.87314238 1306.33577167 -796.1688831 1304.03565057 -796.46923828 1301.73535156 C-800.05804851 1273.80977926 -800.27325967 1245.84848485 -800.3080101 1217.7379837 C-800.31242312 1214.80884456 -800.32148577 1211.87974832 -800.33120728 1208.95062256 C-800.54459239 1127.76637103 -787.64225078 1046.99785122 -755.875 952.3203125 C-755.64468079 951.6560022 -755.41436157 950.99169189 -755.17706299 950.30725098 C-745.3880744 922.07555854 -733.42726439 894.90559586 -720.24365234 868.10449219 C-718.94086501 865.45429833 -717.65119783 862.79806871 -716.36328125 860.140625 C-699.56019849 825.72564684 -679.24732703 792.22732528 -656.45166016 761.46630859 C-654.82461313 759.2517308 -653.22727347 757.01825438 -651.63671875 754.77734375 C-644.84905015 745.2276771 -637.74390551 736.04020645 -630.27197266 727.01708984 C-628.40177561 724.7455293 -626.57488059 722.44085904 -624.75 720.1328125 C-617.82741866 711.4613685 -610.61740065 703.02999196 -603.140625 694.83203125 C-601.24320931 692.72851696 -599.37559836 690.60519893 -597.515625 688.46875 C-587.76760922 677.3120239 -577.39721157 666.74287713 -566.9375 656.2578125 C-566.44749512 655.76521942 -565.95749023 655.27262634 -565.45263672 654.7651062 C-560.34363795 649.63480566 -555.19206344 644.605185 -549.69165039 639.8918457 C-546.73231055 637.33180397 -543.90845467 634.62982661 -541.0625 631.9453125 C-536.09661297 627.29841474 -531.02249092 622.87735802 -525.7109375 618.625 C-523.02399434 616.44139606 -520.40134971 614.20128949 -517.78662109 611.93261719 C-511.2946625 606.30116691 -504.65716831 600.91988332 -497.78466797 595.75732422 C-495.6229864 594.13067404 -493.46989967 592.49294226 -491.31640625 590.85546875 C-474.30937456 577.96491752 -456.9238236 565.70911225 -438.875 554.3203125 C-438.10704102 553.83272461 -437.33908203 553.34513672 -436.54785156 552.84277344 C-363.71760558 506.69437253 -283.48222347 472.3075654 -137.87109375 440.51171875 C-137.2126799 440.4067659 -136.55426605 440.30181305 -135.87590027 440.19367981 C-132.40220381 439.65651025 -128.93586007 439.20784418 -125.43798828 438.85888672 C-124.71096207 438.7825853 -123.98393585 438.70628387 -123.23487854 438.62767029 C-121.22065821 438.42267467 -119.2042229 438.23978863 -117.18774414 438.05834961 C-111.85469957 436.87021535 -109.76815809 433.29956163 -106.6875 429.0703125 C-101.496683 422.34433898 -96.18471581 417.27678347 -88.3125 414.0078125 C-85.65381945 412.47833383 -84.23450766 411.31815556 -83.18310547 408.39990234 C-81.91107218 402.65647931 -81.76078922 396.87011579 -83.875 391.3203125 C-87.51898493 386.54003119 -92.80136737 383.605409 -97.88818359 380.56103516 C-102.37705715 377.75783346 -106.07535358 373.97060175 -109.875 370.3203125 C-110.37064453 369.8557666 -110.86628906 369.3912207 -111.37695312 368.91259766 C-124.08635798 356.97147092 -133.6800703 343.67902181 -141.875 328.3203125 C-142.40738281 327.35996094 -142.93976562 326.39960938 -143.48828125 325.41015625 C-168.08276454 279.20811659 -163.28977229 221.79765504 -148.82373047 173.37011719 C-143.50820086 156.28272761 -135.8807281 140.28895732 -127.875 124.3203125 C-127.44960938 123.46695313 -127.02421875 122.61359375 -126.5859375 121.734375 C-107.13588695 82.95975811 -72.5308467 15.51216968 -30.1484375 -1.79296875 C-20.97204614 -4.27869768 -8.58642831 -4.26340017 0 0 Z " fill="#ECBA57" transform="translate(799.875,2.6796875)"/>
<path d="M0 0 C-2.85471303 12.81262377 -6.29875752 25.40724566 -10 38 C-10.60658447 38.12528076 -11.21316895 38.25056152 -11.83813477 38.37963867 C-26.91158184 41.49667429 -41.9773187 44.64567873 -57 48 C-57.87720703 48.19561523 -58.75441406 48.39123047 -59.65820312 48.59277344 C-79.41513061 53.03993202 -98.72135177 58.82753923 -117.9375 65.1875 C-118.5759787 65.3976474 -119.2144574 65.6077948 -119.87228394 65.8243103 C-126.40471596 67.98089399 -132.78533795 70.2309781 -139.02954102 73.12182617 C-142.11067929 74.49499609 -145.29830616 75.50739635 -148.5 76.5625 C-186.86196489 89.72336431 -223.46200154 109.9616253 -258 131 C-259.32257813 131.804375 -259.32257813 131.804375 -260.671875 132.625 C-296.68500563 154.64576777 -330.40702464 180.75515746 -361.32885742 209.47241211 C-362.57618358 210.61259031 -363.83629561 211.73881033 -365.1027832 212.85766602 C-371.95192191 218.92404602 -378.4501707 225.29665897 -384.90551758 231.77514648 C-386.6917467 233.5667595 -388.48329347 235.35293055 -390.27539062 237.13867188 C-395.53869765 242.39892231 -400.74146207 247.65658727 -405.57006836 253.32495117 C-407.78146245 255.91541982 -410.11518876 258.38360518 -412.4375 260.875 C-416.39382333 265.16040132 -420.1362808 269.54357809 -423.73046875 274.140625 C-425.49728813 276.36663496 -427.28887523 278.55620755 -429.11328125 280.734375 C-441.53446341 295.5785153 -452.92489153 311.10595793 -463.74707031 327.1484375 C-464.92348837 328.88693215 -466.11235579 330.61614835 -467.3046875 332.34375 C-480.69254441 351.89575915 -492.59304402 372.48803726 -503.63769531 393.43554688 C-504.82680555 395.67397231 -506.04039164 397.89497035 -507.2734375 400.109375 C-530.14079946 441.4876584 -546.42873885 487.59673956 -559 533 C-559.44206787 534.59521484 -559.44206787 534.59521484 -559.89306641 536.22265625 C-570.08136352 573.5929895 -576.21315488 612.02423602 -579.6875 650.5625 C-579.77917953 651.57376953 -579.77917953 651.57376953 -579.87271118 652.60546875 C-586.86068239 730.95348114 -581.1254581 813.26081875 -558.84643555 888.97607422 C-558.16141598 891.42333479 -557.5958789 893.8055163 -557.15625 896.3046875 C-554.06608973 913.11663085 -541.6153937 926.86460786 -528.0625 936.75 C-519.53681024 942.43379317 -509.20488731 948.5650892 -498.61328125 947.734375 C-494.5360145 947.46524848 -491.85161128 947.57846852 -488 949 C-483.46162861 953.423088 -480.71424031 959.49222022 -477.70898438 964.99462891 C-474.88572433 969.95953336 -471.71192256 974.6898943 -468.55197144 979.44512939 C-466.70602498 982.22757055 -464.87968989 985.02273749 -463.05078125 987.81640625 C-462.00978271 989.40412842 -462.00978271 989.40412842 -460.94775391 991.02392578 C-458.32700211 995.02830838 -455.72217193 999.04279484 -453.125 1003.0625 C-452.69509766 1003.72765625 -452.26519531 1004.3928125 -451.82226562 1005.078125 C-450.09180462 1007.75703715 -448.36287306 1010.43693006 -446.63525391 1013.11767578 C-433.44212648 1033.58754388 -420.02863988 1053.81731706 -405 1073 C-404.4328125 1073.73863281 -403.865625 1074.47726562 -403.28125 1075.23828125 C-391.78683234 1090.19792776 -379.71656991 1104.79743364 -367.02734375 1118.7578125 C-365.26032801 1120.71208424 -363.53086471 1122.69059737 -361.8125 1124.6875 C-349.73777861 1138.51097414 -337.04552281 1152.43743024 -322.99609375 1164.28125 C-320.9082534 1166.07899903 -318.89970018 1167.95137059 -316.88964844 1169.83520508 C-310.4724244 1175.82937227 -303.74235642 1181.29845983 -296.77441406 1186.63720703 C-294.97542173 1188.01887671 -293.18604672 1189.41223668 -291.3984375 1190.80859375 C-284.43806421 1196.24805018 -284.43806421 1196.24805018 -277 1201 C-281.02307602 1177.94090572 -289.39223011 1155.52905302 -304 1137 C-304.79615723 1135.94220337 -304.79615723 1135.94220337 -305.60839844 1134.86303711 C-313.54555235 1124.68435396 -322.95651721 1115.8628189 -332.125 1106.8125 C-334.70506667 1104.26023056 -337.28356847 1101.70642766 -339.85910034 1099.14958191 C-341.45125514 1097.56949921 -343.04607304 1095.9920935 -344.64407349 1094.41792297 C-348.77726891 1090.32164378 -352.73168304 1086.13812193 -356.52098083 1081.72084045 C-358.60086805 1079.30088935 -360.77138416 1076.96772096 -362.9375 1074.625 C-366.69667833 1070.49948495 -370.25205881 1066.28502541 -373.6953125 1061.89453125 C-375.47668216 1059.65725172 -377.28132783 1057.45366716 -379.1171875 1055.26171875 C-387.27980235 1045.5043365 -394.98099524 1035.49389309 -402.42626953 1025.17919922 C-403.84883884 1023.2093181 -405.28024977 1021.24628529 -406.71484375 1019.28515625 C-452.72095433 956.08041608 -452.72095433 956.08041608 -451.91015625 937.99609375 C-450.60288101 935.12906521 -448.64449618 933.30319078 -446.4375 931.0625 C-428.65428315 912.23733513 -419.45347565 884.16759835 -415.19067383 859.06762695 C-414.18078109 853.18078109 -414.18078109 853.18078109 -412 851 C-411.21496094 852.05058594 -410.42992187 853.10117188 -409.62109375 854.18359375 C-406.42163726 858.46143848 -403.21257573 862.73200213 -400 867 C-399.04287109 868.27423828 -399.04287109 868.27423828 -398.06640625 869.57421875 C-384.83706678 886.89442629 -369.81217278 903.03463008 -353.58544922 917.56738281 C-351.93747877 919.05649439 -350.31222592 920.56734025 -348.69140625 922.0859375 C-342.89402833 927.51443009 -337.01635947 932.73813547 -330.8203125 937.71484375 C-327.1087599 940.72212668 -323.47707147 943.81941775 -319.85351562 946.93188477 C-316.08967677 950.14289465 -312.21747073 953.19443884 -308.30273438 956.21923828 C-306.13169702 957.89815542 -303.97227313 959.59073205 -301.81640625 961.2890625 C-292.19644213 968.84527862 -282.44777748 976.17476839 -272.46484375 983.24462891 C-269.81831785 985.12938735 -267.19094719 987.03934318 -264.5625 988.94921875 C-251.59130338 998.27865634 -238.27975669 1005.8746336 -224 1013 C-202.45393712 1023.83169646 -190.41651579 1043.56398806 -182.88867188 1065.9362793 C-180.16307162 1074.47670181 -178.30779344 1083.1335973 -177 1092 C-176.83529709 1093.03413528 -176.67059418 1094.06827057 -176.50090027 1095.13374329 C-174.92971962 1106.03769133 -174.76052309 1116.7503337 -174.84967041 1127.75459862 C-174.87565965 1131.00035085 -174.88834514 1134.24593567 -174.89794922 1137.49177551 C-174.92441245 1145.55157173 -174.97273725 1153.61120694 -175.02075195 1161.67089844 C-175.06061345 1168.50066095 -175.0917262 1175.33036161 -175.11187744 1182.16021156 C-175.12459584 1185.31763257 -175.14960436 1188.47478812 -175.17529297 1191.63212585 C-175.25786713 1207.94108032 -174.59363044 1224.42129585 -171.25 1240.4375 C-171.08371094 1241.24823975 -170.91742187 1242.05897949 -170.74609375 1242.89428711 C-167.99238119 1255.57611158 -167.99238119 1255.57611158 -160.8125 1265.87109375 C-159.9153125 1266.42990234 -159.9153125 1266.42990234 -159 1267 C-159.33 1266.01 -159.66 1265.02 -160 1264 C-160.13340348 1261.29623342 -160.21169174 1258.61916098 -160.23828125 1255.9140625 C-160.2480751 1255.10908325 -160.25786896 1254.304104 -160.26795959 1253.47473145 C-160.59450161 1219.64115827 -160.59450161 1219.64115827 -156 1204 C-155.79632812 1203.27876953 -155.59265625 1202.55753906 -155.3828125 1201.81445312 C-148.97728049 1179.81026446 -136.65253886 1161.44096304 -121 1145 C-120.36707031 1144.30261719 -119.73414063 1143.60523438 -119.08203125 1142.88671875 C-101.92262849 1124.5909317 -77.99131245 1113.03564191 -55 1104 C-54.30583984 1103.71962891 -53.61167969 1103.43925781 -52.89648438 1103.15039062 C-19.5673812 1089.79896947 17.37860145 1085.34687875 53 1084 C52.41621582 1083.86424561 51.83243164 1083.72849121 51.23095703 1083.58862305 C48.52820335 1082.95815839 45.82660892 1082.32285142 43.125 1081.6875 C41.74828125 1081.36749023 41.74828125 1081.36749023 40.34375 1081.04101562 C35.12428998 1079.80966414 29.99606663 1078.42604795 24.87109375 1076.8503418 C21.30494365 1075.79414275 17.71527184 1074.83400307 14.12109375 1073.87890625 C13.41811157 1073.69108078 12.71512939 1073.50325531 11.99084473 1073.30973816 C9.07124243 1072.52967522 6.1515783 1071.75011624 3.22875977 1070.98217773 C-18.48943583 1065.26584626 -18.48943583 1065.26584626 -22 1060 C-22.69697775 1053.60273997 -20.76229595 1048.21206766 -18.75 1042.1875 C-18.44964844 1041.25357422 -18.14929688 1040.31964844 -17.83984375 1039.35742188 C-15.80908497 1033.13120187 -13.50586084 1027.04979346 -11 1021 C-16.34647825 1023.64085803 -21.67830017 1026.30955979 -27 1029 C-27.68900391 1029.34740234 -28.37800781 1029.69480469 -29.08789062 1030.05273438 C-59.55111071 1045.50509239 -89.20996127 1065.3816475 -114.1875 1088.75 C-120.91398672 1095.03257954 -127.33158464 1100.49243468 -137.00390625 1100.26171875 C-140.46193984 1099.80831709 -141.78045094 1098.66345887 -144 1096 C-146.41752658 1089.85878088 -147.56506037 1083.36968725 -148.68432617 1076.89282227 C-153.66767782 1048.10466438 -164.99984083 1023.45031854 -183.6875 1000.9375 C-184.10757324 1000.42018311 -184.52764648 999.90286621 -184.96044922 999.36987305 C-196.27906543 986.15266331 -211.26927811 976.7689479 -225.625 967.25 C-227.53180493 965.97609065 -229.43805801 964.70135488 -231.34375 963.42578125 C-237.77583741 959.12461185 -244.21728032 954.83762647 -250.67285156 950.57177734 C-256.72519848 946.56351769 -262.66545865 942.44451867 -268.5 938.125 C-269.31533203 937.52276611 -270.13066406 936.92053223 -270.97070312 936.30004883 C-276.5784627 932.12808439 -282.00676719 927.8151966 -287.32421875 923.27734375 C-289.94621625 921.04577507 -292.62138956 918.89737216 -295.3125 916.75 C-301.87922511 911.39268614 -307.98564212 905.56141055 -314.14208984 899.74462891 C-316.43347926 897.59295101 -318.75128744 895.47145442 -321.07226562 893.35180664 C-329.94322709 885.24109837 -338.63908725 876.94683836 -346.43359375 867.78125 C-348.00773347 865.99120583 -349.6608315 864.34309782 -351.375 862.6875 C-355.14140094 858.98835622 -358.38192973 854.9221279 -361.6875 850.8125 C-363.84349735 848.19034106 -366.07567103 845.68391432 -368.375 843.1875 C-372.788566 838.3249678 -376.8832651 833.25773029 -380.8671875 828.04296875 C-383.19389908 825.00016918 -385.61444909 822.05266774 -388.0703125 819.11328125 C-400.10640111 804.42361079 -400.10640111 804.42361079 -399.75 797.75 C-399.24486304 795.48116452 -398.64834766 793.2321342 -398 791 C-397.44142953 788.46412232 -396.92880865 785.9205581 -396.41259766 783.37573242 C-396.00452162 781.37768724 -395.58582332 779.38178843 -395.15771484 777.38793945 C-388.60704446 746.83430173 -384.98256422 716.16590956 -383 685 C-378.13479144 688.89216685 -373.9940907 693.13005208 -369.82958984 697.75952148 C-365.29893578 702.75231739 -360.57567158 707.54200572 -355.8125 712.3125 C-355.06444092 713.06499023 -354.31638184 713.81748047 -353.5456543 714.59277344 C-349.43443865 718.69356028 -345.23276059 722.62232918 -340.83325195 726.41186523 C-338.2250219 728.67135871 -335.71261528 731.02293458 -333.1875 733.375 C-327.64678886 738.49234623 -321.87892582 743.27464247 -316 748 C-314.31200435 749.3952339 -312.62451652 750.79108236 -310.9375 752.1875 C-296.59195444 763.88245815 -281.84586917 774.82308121 -266.5546875 785.25634766 C-264.42675615 786.70872588 -262.30586897 788.1704683 -260.1875 789.63671875 C-240.16554047 803.37064805 -219.00892019 815.40424112 -197.51000977 826.64404297 C-194.95792101 828.0227319 -192.47575009 829.48915621 -190 831 C-190.06058594 832.01255859 -190.12117188 833.02511719 -190.18359375 834.06835938 C-190.64271643 841.7841197 -191.08663413 849.50039564 -191.5 857.21875 C-191.58331113 858.76302203 -191.66664454 860.30729286 -191.75 861.8515625 C-191.8762608 864.19231945 -192.00174315 866.53310624 -192.125 868.87402344 C-192.90921918 883.73130078 -192.90921918 883.73130078 -193.546875 888.61328125 C-194.27893952 894.57499562 -194.22349345 900.58365272 -194.24023438 906.58178711 C-194.24990152 908.66626508 -194.28099881 910.74973797 -194.3125 912.83398438 C-194.38287531 921.88621745 -193.1935589 930.19980928 -191 939 C-190.59986244 940.9574584 -190.20334848 942.91566569 -189.8125 944.875 C-185.09481982 963.25684196 -173.02709292 979.6321985 -160 993 C-159.43023438 993.64324219 -158.86046875 994.28648437 -158.2734375 994.94921875 C-145.26695931 1009.25634476 -122.94095927 1020.15867151 -103.8046875 1021.37890625 C-84.53907301 1022.17066583 -66.33438225 1018.4376245 -49 1010 C-47.95839722 1009.51067993 -47.95839722 1009.51067993 -46.89575195 1009.01147461 C-21.19898775 996.91133439 6.14445173 978.29130307 23 955 C34.50595623 960.29477632 43.54769054 972.40463754 48 984 C48.57396615 986.39438116 48.83913703 988.53343444 49 991 C39.88310149 990.27643663 30.98361723 988.65707093 22 987 C21.75507812 988.2375 21.51015625 989.475 21.2578125 990.75 C19.7085866 997.73381201 17.17841422 1004.40095313 14.74609375 1011.1171875 C12.21505826 1018.40434463 10.10156128 1025.05708882 13.625 1032.375 C18.60894958 1037.88357585 25.48599261 1039.08631422 32.4375 1040.8125 C34.51436955 1041.34096259 36.59119118 1041.86961354 38.66796875 1042.3984375 C39.72419434 1042.66495117 40.78041992 1042.93146484 41.86865234 1043.20605469 C45.73851622 1044.18724893 49.60110941 1045.19480945 53.46289062 1046.20727539 C56.28270075 1046.94606762 59.10421224 1047.67811371 61.92578125 1048.41015625 C66.34651757 1049.56061823 70.75819156 1050.74184161 75.16796875 1051.93359375 C76.37743164 1052.25658447 77.58689453 1052.5795752 78.83300781 1052.91235352 C81.17953796 1053.53903791 83.52407269 1054.17325817 85.86621094 1054.81616211 C95.81308417 1057.4550828 103.16535194 1057.26937843 113.125 1054.75 C113.97320313 1054.54503906 114.82140625 1054.34007812 115.6953125 1054.12890625 C120.63352766 1052.91639806 125.51814609 1051.56781231 130.3984375 1050.140625 C136.20221247 1048.46477014 142.03429848 1046.97978444 147.90625 1045.5625 C149.19932571 1045.24868378 149.19932571 1045.24868378 150.51852417 1044.92852783 C154.08626045 1044.06359955 157.65422268 1043.20023596 161.2265625 1042.35449219 C163.87254531 1041.72635722 166.51450431 1041.08319019 169.15625 1040.4375 C169.9563147 1040.25195557 170.75637939 1040.06641113 171.58068848 1039.87524414 C177.34821 1038.44713111 181.96636329 1036.44036405 185.875 1031.75 C188.61558715 1025.05078696 186.64014701 1018.9407122 184.25 1012.5 C181.28316721 1004.10659235 179.00746317 995.66751746 177 987 C176.32420898 987.12117188 175.64841797 987.24234375 174.95214844 987.3671875 C171.885388 987.91501142 168.81771713 988.45756017 165.75 989 C164.15478516 989.28617188 164.15478516 989.28617188 162.52734375 989.578125 C161.50253906 989.75859375 160.47773437 989.9390625 159.421875 990.125 C158.00793457 990.37636719 158.00793457 990.37636719 156.56542969 990.6328125 C154 991 154 991 150 991 C152.49375708 975.78808184 161.981919 964.192854 174 955 C178.06807999 956.5719747 180.50543061 959.49202188 183.3125 962.6875 C184.29719771 963.78213181 185.28287104 964.87588678 186.26953125 965.96875 C186.74213379 966.4946875 187.21473633 967.020625 187.70166016 967.5625 C193.58593391 974.07746876 200.13478111 979.54188211 207 985 C207.96679688 985.79535156 208.93359375 986.59070312 209.9296875 987.41015625 C238.29112029 1010.17868563 273.33926175 1024.28864294 309.95703125 1020.6015625 C319.47785049 1018.92589831 327.63547562 1014.64721374 336 1010 C336.95132813 1009.48050781 337.90265625 1008.96101563 338.8828125 1008.42578125 C365.26302448 993.33365371 382.13678213 967.99653136 390.39794922 939.22167969 C394.11838377 925.49258221 395.91763071 910.27926959 393.51635742 896.15527344 C392.95680994 892.73608114 392.72219589 889.39302586 392.53515625 885.93359375 C392.45761209 884.55655403 392.37997166 883.17951973 392.30224609 881.80249023 C392.26315125 881.08922577 392.2240564 880.3759613 392.18377686 879.64108276 C391.55597258 868.2339707 390.84441094 856.85661576 389.60961914 845.49584961 C389.09260561 840.6313406 388.92224043 835.89329864 389 831 C389.53028809 830.71503662 390.06057617 830.43007324 390.60693359 830.13647461 C397.42641552 826.46371932 404.21886452 822.74303988 411 819 C412.01046387 818.4436084 413.02092773 817.8872168 414.06201172 817.31396484 C427.85971403 809.67082544 441.14144252 801.44879488 454.25 792.6875 C454.93542877 792.22950012 455.62085754 791.77150024 456.32705688 791.29962158 C477.34814541 777.21729073 497.63664002 762.29441479 517 746 C517.63212402 745.46842285 518.26424805 744.9368457 518.91552734 744.38916016 C526.5520756 737.94828409 533.99768108 731.33328661 541.31933594 724.53710938 C542.59943367 723.36635178 543.89134091 722.20849246 545.18847656 721.05664062 C551.26131954 715.65909202 557.09211916 710.06391216 562.82421875 704.30615234 C564.25928616 702.86567886 565.69968825 701.4306935 567.140625 699.99609375 C571.08710844 696.04412908 574.97932494 692.12083193 578.546875 687.8203125 C579.35640625 686.88960937 580.1659375 685.95890625 581 685 C581.66 685 582.32 685 583 685 C583.04487549 685.73186523 583.08975098 686.46373047 583.13598633 687.21777344 C583.693404 696.15033951 584.3267894 705.07555952 585 714 C585.12084961 715.65733154 585.12084961 715.65733154 585.24414062 717.34814453 C587.29769304 744.05684761 592.3755233 771.00246741 598.64517212 797.03657532 C599.48976663 801.71010239 598.60081228 805.03265444 596.13671875 809 C595.32847656 809.99 594.52023437 810.98 593.6875 812 C593.24672119 812.54833496 592.80594238 813.09666992 592.35180664 813.66162109 C591.40499296 814.83732933 590.45224415 816.00827837 589.49414062 817.17480469 C587.97321304 819.03272211 586.47606405 820.90760954 584.984375 822.7890625 C582.46974812 825.95888916 579.93906793 829.11524092 577.39892578 832.26464844 C576.12629123 833.84333716 574.8578352 835.42539205 573.58984375 837.0078125 C569.01531517 842.67151455 564.24887535 848.10672726 559.3203125 853.46484375 C557.42718797 855.53325758 555.57748296 857.62405876 553.75 859.75 C545.2417027 869.50486179 536.25892864 878.83286805 527.125 888 C526.43615723 888.69343506 525.74731445 889.38687012 525.03759766 890.10131836 C521.10381049 894.02327672 517.06327451 897.75947933 512.85742188 901.38769531 C510.2428919 903.6571953 507.72090015 906.01521748 505.1875 908.375 C499.6433473 913.49005227 493.89020796 918.28627538 488 923 C486.86916043 923.92240375 485.73898485 924.84562196 484.609375 925.76953125 C467.2096427 939.93706814 448.67949405 952.30022803 429.86621094 964.49414062 C415.57643204 973.76817314 401.30903186 983.03063312 389.3125 995.25 C388.38207886 996.1939563 388.38207886 996.1939563 387.43286133 997.15698242 C373.01022281 1012.11510113 362.19919169 1030.17789323 356 1050 C355.45963942 1051.54212494 354.91812558 1053.0838467 354.375 1054.625 C352.04759021 1061.78926142 350.29846941 1069.01180139 349.09765625 1076.44921875 C348.85583618 1077.90968628 348.85583618 1077.90968628 348.60913086 1079.3996582 C348.2918026 1081.34987479 347.99120767 1083.30290443 347.70922852 1085.25854492 C346.72212622 1091.30447972 345.44742471 1094.71987654 341 1099 C337.43688165 1100.78155917 333.8837075 1100.6088613 330 1100 C323.57760992 1097.31823157 318.82879 1093.09621285 314.08984375 1088.11328125 C310.5528972 1084.53666801 306.63115256 1081.45882744 302.68896484 1078.34277344 C300.8499098 1076.88067417 299.02924882 1075.39708332 297.20703125 1073.9140625 C272.59146514 1054.10547937 245.21493993 1038.48436284 217.15039062 1024.15405273 C215 1023 215 1023 212 1021 C213.52873633 1026.20847625 215.11140312 1031.3918007 216.82421875 1036.54296875 C217.28344727 1037.93612305 217.28344727 1037.93612305 217.75195312 1039.35742188 C218.38030211 1041.25821035 219.01583134 1043.15663897 219.65820312 1045.05273438 C222.85542635 1054.83528304 222.85542635 1054.83528304 222 1060 C218.09755445 1066.10360024 211.42849226 1066.9017653 204.8125 1068.5 C202.45427574 1069.10096893 200.09620319 1069.70253351 197.73828125 1070.3046875 C196.58537598 1070.59311523 195.4324707 1070.88154297 194.24462891 1071.17871094 C189.9764084 1072.25909422 185.73703815 1073.42915079 181.5 1074.625 C180.08600297 1075.01976581 178.67194105 1075.41429932 177.2578125 1075.80859375 C175.83851644 1076.20563901 174.41924645 1076.60277744 173 1077 C169.79205974 1077.89724757 166.5836398 1078.7927577 163.375 1079.6875 C162.65248047 1079.89004395 161.92996094 1080.09258789 161.18554688 1080.30126953 C156.47524439 1081.61467713 151.74840841 1082.83157141 147 1084 C147.89082275 1084.0501123 148.78164551 1084.10022461 149.69946289 1084.15185547 C153.08256573 1084.34492546 156.46529093 1084.54316274 159.84790039 1084.74462891 C161.29732871 1084.82995519 162.74687149 1084.91336426 164.1965332 1084.99462891 C188.91358285 1086.38448036 212.52797974 1091.27896619 236.3125 1098 C237.0614856 1098.20915039 237.81047119 1098.41830078 238.58215332 1098.63378906 C247.40363473 1101.10951857 255.75779704 1103.94432526 264 1108 C265.86966012 1108.86248957 267.74079053 1109.72179812 269.61328125 1110.578125 C289.06153519 1119.64343122 305.25102624 1130.33546261 321 1145 C321.81339844 1145.73605469 322.62679687 1146.47210937 323.46484375 1147.23046875 C335.25379342 1158.34895682 343.50172738 1172.26913073 350 1187 C350.28214355 1187.63873047 350.56428711 1188.27746094 350.85498047 1188.93554688 C359.37380357 1208.71407547 361.18864369 1229.37873731 361.0625 1250.6875 C361.05747144 1252.17903494 361.05291095 1253.67057154 361.04882812 1255.16210938 C361.03793804 1258.77477462 361.02074936 1262.38737632 361 1266 C378.91737795 1239.32922727 376.15227427 1200.39134043 375.921875 1169.69921875 C375.90904441 1167.74529127 375.89639154 1165.79136261 375.88391113 1163.83743286 C375.80343564 1151.71746372 375.80343564 1151.71746372 375.67773438 1139.59790039 C375.19697221 1099.03923327 377.12776909 1056.81776786 406.5 1025.46484375 C415.12359337 1016.96251966 424.41687152 1012.23405631 435.29418945 1007.22241211 C443.5098754 1003.37973078 450.74940844 998.85952963 458.01806641 993.46533203 C460.13522593 991.90002143 462.27368188 990.36775855 464.41796875 988.83984375 C474.39551705 981.7162242 484.23262553 974.40847125 494 967 C494.83990479 966.36481445 494.83990479 966.36481445 495.69677734 965.71679688 C508.92090627 955.70248502 521.74194341 945.18485964 534.34960938 934.40771484 C536.11938198 932.89817212 537.89539278 931.39617027 539.671875 929.89453125 C545.11648131 925.27876264 550.49383241 920.69420599 555.453125 915.55078125 C557.10635222 913.89337921 558.84074578 912.3901415 560.625 910.875 C568.73916714 903.86802915 576.40485863 896.11871359 583.3359375 887.94140625 C585.29348772 885.65759766 587.33567323 883.46102266 589.375 881.25 C596.93251529 872.85846349 603.33049827 863.72163909 609.37109375 854.203125 C609.90863281 853.47609375 610.44617187 852.7490625 611 852 C611.66 852 612.32 852 613 852 C613.1451001 852.64735107 613.2902002 853.29470215 613.43969727 853.96166992 C623.57099695 898.77330672 623.57099695 898.77330672 650.4453125 935 C652 937 652 937 651.77050781 939.23974609 C650.88485013 942.41251092 649.64960051 945.19196264 648.2265625 948.1640625 C647.94758118 948.74867752 647.66859985 949.33329254 647.38116455 949.93562317 C646.47020583 951.83594434 645.54907235 953.73102346 644.625 955.625 C644.14815765 956.60522629 644.14815765 956.60522629 643.66168213 957.60525513 C627.35143754 991.04928233 606.06669261 1021.54956091 582.45605469 1050.22802734 C581.16496651 1051.79924095 579.88261416 1053.37762391 578.6015625 1054.95703125 C569.91269178 1065.66912277 560.93465327 1076.10726587 551.55859375 1086.22265625 C549.29358546 1088.6813141 547.08125552 1091.17634928 544.875 1093.6875 C540.54856572 1098.5068192 536.0076893 1103.10104843 531.4375 1107.6875 C530.72899902 1108.40059326 530.02049805 1109.11368652 529.29052734 1109.84838867 C525.89220688 1113.23686464 522.45472987 1116.51460316 518.8125 1119.640625 C502.964894 1133.32852042 489.83661114 1154.3867153 483.796875 1174.38671875 C483.12417554 1176.59277729 482.34121404 1178.63364926 481.4375 1180.75 C478.94270544 1187.16518602 478.15584569 1194.24527056 477 1201 C488.42411087 1192.78285 499.50953262 1184.38531279 510 1175 C510.92425781 1174.175 511.84851562 1173.35 512.80078125 1172.5 C514.46249872 1171.00722801 516.12034708 1169.51013246 517.7734375 1168.0078125 C519.82295952 1166.15964703 521.90418138 1164.35772312 524 1162.5625 C528.91029426 1158.28964759 533.43360829 1153.63343498 538 1149 C541.04881637 1145.94057906 544.11256773 1142.89651275 547.1796875 1139.85546875 C548.74485315 1138.29954101 550.3099557 1136.7435498 551.875 1135.1875 C552.65230469 1134.41857422 553.42960937 1133.64964844 554.23046875 1132.85742188 C559.03612472 1128.07195773 563.60427438 1123.16332937 568 1118 C568.97378252 1116.87094209 569.94773374 1115.74202966 570.921875 1114.61328125 C573.439255 1111.67860503 575.95159358 1108.73961585 578.46240234 1105.79931641 C579.45379386 1104.6391774 580.44622904 1103.47992905 581.43994141 1102.32177734 C591.787358 1090.26128442 601.58027502 1077.79929311 611 1065 C611.47131348 1064.36143066 611.94262695 1063.72286133 612.42822266 1063.06494141 C624.94239204 1046.06629485 636.47591529 1028.46461351 647.81640625 1010.66772461 C653.4686727 1001.80338623 659.20817972 992.99901386 664.97119141 984.20654297 C668.59273218 978.68114499 672.21006168 973.15356431 675.78808594 967.59985352 C676.70027205 966.19035729 677.61986372 964.78561781 678.54785156 963.38647461 C680.36425401 960.63782417 681.9822451 958.03845203 683.3671875 955.0390625 C684.69410415 952.28982997 685.52113684 950.80112155 688 949 C691.64850555 948.27178504 695.13100638 947.89620182 698.83447266 947.65893555 C711.74757084 946.78840427 722.04945327 941.1575099 732 933 C732.6703125 932.50371094 733.340625 932.00742188 734.03125 931.49609375 C746.60327016 921.62911891 753.59225419 908.60924974 757.20458984 893.35546875 C757.79174992 890.87851109 758.39526167 888.40937496 759.01806641 885.94140625 C764.37849331 864.69476017 768.83538693 843.39205456 772.36499023 821.7668457 C772.87559535 818.7379621 773.42793826 815.72405028 773.99609375 812.70581055 C774.97727648 807.33205009 775.6686799 801.96079368 776.25390625 796.53125 C776.41257423 795.09066223 776.41257423 795.09066223 776.57444763 793.62097168 C776.79568262 791.60104722 777.01490229 789.58090108 777.23217773 787.56054688 C777.55879077 784.53436724 777.89518723 781.50938705 778.23242188 778.484375 C780.58003392 757.10675145 781.23807439 735.94006766 781.25 714.4375 C781.25100708 713.1680957 781.25201416 711.89869141 781.25305176 710.59082031 C781.24121964 688.37984995 780.37793375 666.38309082 778.22137451 644.27850342 C778.00583798 642.06008762 777.79915295 639.84100109 777.59423828 637.62158203 C774.51044348 604.74728558 768.44273546 571.91390898 760 540 C759.78778809 539.1843457 759.57557617 538.36869141 759.35693359 537.52832031 C756.96797255 528.39329078 754.21312415 519.42550055 751.16674805 510.48901367 C749.19903152 504.69691914 747.5072876 498.86537037 745.86328125 492.97265625 C744.98310403 489.94181975 743.97956633 487.01626766 742.81225586 484.08618164 C741.92245549 481.80083623 741.09767394 479.49730453 740.2734375 477.1875 C719.49032589 419.94884388 690.69013209 365.32579742 655 316 C654.11199707 314.77192627 654.11199707 314.77192627 653.20605469 313.51904297 C642.77123991 299.13523427 631.97875751 285.12781699 620.40478516 271.64306641 C618.98400818 269.98129563 617.57497247 268.31016022 616.16796875 266.63671875 C604.15752047 252.39842777 591.21008022 239.11911554 578.0625 225.9375 C577.47636932 225.34869049 576.89023865 224.75988098 576.28634644 224.15322876 C570.03340329 217.87861619 563.75765324 211.73601736 557 206 C555.39231627 204.54554483 553.78760285 203.08779105 552.1875 201.625 C547.86874343 197.72758553 543.42237949 194.02699645 538.8984375 190.37109375 C536.37085342 188.30338009 533.88631321 186.19408131 531.41259766 184.0625 C523.55988921 177.31449054 515.34808356 171.11885315 507 165 C506.29746094 164.48179687 505.59492187 163.96359375 504.87109375 163.4296875 C478.47020708 143.97640259 450.80769431 126.65345538 422 111 C420.99485352 110.4534375 419.98970703 109.906875 418.95410156 109.34375 C391.86035279 94.71083927 363.81113014 82.77973787 335 72 C334.25782227 71.71962891 333.51564453 71.43925781 332.75097656 71.15039062 C330.83623165 70.42736735 328.91902622 69.71158087 327 69 C326.17669189 68.69457275 325.35338379 68.38914551 324.50512695 68.07446289 C306.24735037 61.37358135 287.76973823 56.21949752 268.92773438 51.48632812 C266.09509248 50.77171026 263.26684501 50.04004586 260.4375 49.3125 C243.45224648 45.02394152 226.25220614 41.98549723 209 39 C205.22236278 26.07611836 201.61005823 13.21790955 199 0 C209.57337257 0.39233293 219.66780136 2.33213242 230.01367188 4.40869141 C233.12550754 5.02485115 236.24135767 5.61518068 239.359375 6.19921875 C259.54169914 9.98594633 279.32969556 14.34407575 299.0078125 20.234375 C305.80522878 22.26140224 312.65217286 24.0963171 319.51953125 25.87084961 C324.71531165 27.24835187 329.61428561 28.97228258 334.58032227 31.02661133 C337.54144452 32.21781246 340.54500836 33.20734924 343.57861328 34.1953125 C387.14047292 48.67201036 429.67615548 68.40172901 469.34033203 91.45458984 C471.0127299 92.42634297 472.6878138 93.39350272 474.36669922 94.35400391 C499.5332121 108.76056521 524.06041614 125.2688054 547 143 C547.91966553 143.70672852 547.91966553 143.70672852 548.85791016 144.42773438 C552.94169524 147.5736639 556.9799614 150.77317263 561 154 C561.65629395 154.52480957 562.31258789 155.04961914 562.98876953 155.59033203 C571.209927 162.17305436 579.23402882 168.88119308 587 176 C588.32952503 177.17100474 589.66272954 178.33784829 591 179.5 C595.71551412 183.61313308 600.3646217 187.79690231 605 192 C605.90878906 192.8146875 606.81757812 193.629375 607.75390625 194.46875 C615.17650261 201.17666026 622.29337284 208.1861371 629.375 215.25 C630.08626038 215.95737808 630.08626038 215.95737808 630.81188965 216.67904663 C635.85693093 221.70235522 640.78240841 226.76729108 645.41748047 232.17236328 C647.98228508 235.13443167 650.68693517 237.96275634 653.375 240.8125 C658.05007368 245.80890983 662.5047169 250.91214612 666.78125 256.2578125 C668.73497839 258.67245568 670.74195902 261.02885392 672.77636719 263.37548828 C680.01544077 271.75991854 686.60957653 280.61105851 693.17724609 289.52587891 C694.32026086 291.07735381 695.46600174 292.62682797 696.61572266 294.17333984 C729.42674767 338.32308382 757.37722973 386.39906841 779.5 436.75 C779.79191223 437.41214508 780.08382446 438.07429016 780.38458252 438.75650024 C783.84589748 446.63503871 786.98120594 454.5680721 789.81030273 462.69995117 C790.90286215 465.73055361 792.10300674 468.67183369 793.37890625 471.62890625 C797.02482902 480.22907004 799.93843618 489.09639365 802.9375 497.9375 C803.24880859 498.85273437 803.56011719 499.76796875 803.88085938 500.7109375 C811.08512381 521.92266865 816.93963294 543.17759852 822 565 C822.23106445 565.98774414 822.46212891 566.97548828 822.70019531 567.99316406 C825.22466454 578.79529205 827.66904576 589.59728246 829.56689453 600.53027344 C829.88644521 602.35246885 830.21416813 604.17323561 830.54638672 605.99316406 C833.34619308 621.36615403 835.56536921 636.71098716 837.1875 652.25 C837.26604218 652.99614563 837.34458435 653.74229126 837.42550659 654.51104736 C837.90713778 659.13733394 838.34854312 663.76619121 838.76345825 668.39892578 C838.92623496 670.18886054 839.09527503 671.97823319 839.26950073 673.76708984 C841.1180823 692.89967819 841.27790384 711.91375882 841.19561768 731.11254883 C841.18474262 734.31095999 841.18520011 737.5093296 841.18561077 740.70775604 C841.18504686 761.765134 840.7008172 782.56039559 838.3125 803.5 C838.22829803 804.24836121 838.14409607 804.99672241 838.05734253 805.76776123 C832.81275073 852.12896081 825.70947389 898.55416634 811.52734375 943.1171875 C809.80154166 948.54294862 808.37337696 954.02202217 807.01953125 959.55078125 C805.94200131 963.1962178 804.56926214 966.61735105 803.13110352 970.13208008 C801.41552028 974.48195192 799.92340263 978.9046307 798.39916992 983.32446289 C776.85084022 1045.75387581 745.9362036 1104.99342329 708 1159 C707.32179199 1159.96969727 707.32179199 1159.96969727 706.62988281 1160.95898438 C701.0409623 1168.93601186 695.22504055 1176.71135503 689.24121094 1184.39550781 C688.00602895 1185.99220648 686.78606277 1187.59940713 685.5703125 1189.2109375 C680.71243261 1195.63330184 675.66316248 1201.83237615 670.38452148 1207.91430664 C667.40782402 1211.3446324 664.51760058 1214.82141506 661.6875 1218.375 C657.2184822 1223.8897843 652.38117867 1229.02822709 647.4909668 1234.16748047 C644.56353284 1237.24658087 641.6920718 1240.33972509 638.94140625 1243.578125 C633.76813911 1249.5373978 628.1074352 1255.04116166 622.52124023 1260.60913086 C620.56704376 1262.5579687 618.61824853 1264.51209272 616.66992188 1266.46679688 C605.59039571 1277.55224853 605.59039571 1277.55224853 599.63110352 1282.61401367 C597.0737347 1284.78706902 594.64306866 1287.08771507 592.1875 1289.375 C587.61567543 1293.59398254 582.92745156 1297.61147468 578.078125 1301.51171875 C575.77859241 1303.37060486 573.50086452 1305.24614776 571.234375 1307.14453125 C560.44338094 1316.16363893 549.32468456 1324.66396269 538 1333 C537.25137695 1333.5554248 536.50275391 1334.11084961 535.73144531 1334.68310547 C507.92467041 1355.29975439 478.19321535 1373.487959 447.58642578 1389.62890625 C445.28517157 1390.84882731 442.99741645 1392.08933876 440.71484375 1393.34375 C397.64292351 1416.89120939 348.88018043 1436.51813236 301.21630859 1448.44140625 C298.00719587 1449.25022426 294.81769808 1450.12894486 291.625 1451 C289.78983126 1451.48378087 287.95459991 1451.96734062 286.11816406 1452.44628906 C284.5880763 1452.84627051 283.05888794 1453.24969798 281.53027344 1453.65527344 C261.17842784 1459.03276363 240.59261056 1463.14827415 219.81665039 1466.52636719 C217.14275318 1466.97599539 214.48585687 1467.48346919 211.82421875 1468 C204.20532734 1469.39391546 196.50925327 1470.17650885 188.8125 1471 C187.6125238 1471.13023056 187.6125238 1471.13023056 186.38830566 1471.26309204 C171.07182486 1472.91494013 155.75692334 1473.99430304 140.37207031 1474.76635742 C137.8578284 1474.94056315 135.41702915 1475.19434049 132.92163086 1475.51196289 C126.84990618 1476.20555478 120.78071183 1476.18098959 114.67578125 1476.203125 C113.39279648 1476.21009399 112.10981171 1476.21706299 110.78794861 1476.22424316 C106.62946197 1476.24368014 102.47102705 1476.24842544 98.3125 1476.25 C97.60411484 1476.25058914 96.89572968 1476.25117828 96.1658783 1476.25178528 C73.69960844 1476.26498847 51.4553544 1475.66420724 29.10736084 1473.22460938 C26.96280908 1472.99603607 24.81721875 1472.78436704 22.67041016 1472.578125 C-8.56336832 1469.57680086 -39.44178379 1464.10313475 -70 1457 C-71.77081419 1456.597572 -73.54164775 1456.19522923 -75.3125 1455.79296875 C-94.69761701 1451.33960701 -113.58613588 1445.55866661 -132.5 1439.4375 C-133.36589752 1439.1580957 -134.23179504 1438.87869141 -135.12393188 1438.59082031 C-145.19865915 1435.33357138 -155.16947377 1431.94634714 -165 1428 C-166.05783691 1427.57968506 -167.11567383 1427.15937012 -168.20556641 1426.72631836 C-182.96532591 1420.83322353 -197.59792 1414.72133408 -212 1408 C-212.92361328 1407.57170898 -213.84722656 1407.14341797 -214.79882812 1406.70214844 C-260.07602495 1385.63002656 -303.05866242 1360.01045964 -343 1330 C-343.69899414 1329.47680176 -344.39798828 1328.95360352 -345.11816406 1328.41455078 C-358.35180049 1318.48188214 -371.44917007 1308.31763272 -383.63671875 1297.11328125 C-386.2304266 1294.79394911 -388.91213834 1292.61595389 -391.625 1290.4375 C-395.62428295 1287.20319944 -399.31601589 1283.84729004 -402.85546875 1280.1171875 C-404.64042683 1278.35498845 -406.45133627 1276.75171616 -408.359375 1275.12890625 C-414.24087848 1270.02105244 -419.68587851 1264.46317427 -425.18188477 1258.94848633 C-427.05829475 1257.06671726 -428.93998969 1255.19035262 -430.82226562 1253.31445312 C-436.24429551 1247.89543089 -441.62659781 1242.49202956 -446.59643555 1236.64868164 C-448.77723248 1234.08703236 -451.08205813 1231.64914179 -453.375 1229.1875 C-457.6687538 1224.53961458 -461.7353184 1219.75583652 -465.703125 1214.82421875 C-467.72569323 1212.33728537 -469.79247603 1209.89633224 -471.88305664 1207.46655273 C-478.39737278 1199.88183637 -484.45077517 1191.9800794 -490.47607422 1184.00439453 C-491.85694275 1182.18816085 -493.25272777 1180.38552836 -494.66015625 1178.58984375 C-501.15011374 1170.3036835 -507.1192063 1161.72478409 -513 1153 C-513.47695313 1152.29746094 -513.95390625 1151.59492187 -514.4453125 1150.87109375 C-527.17919449 1132.11074889 -539.00629003 1112.82983796 -550 1093 C-550.58007812 1091.95489258 -551.16015625 1090.90978516 -551.7578125 1089.83300781 C-572.51935806 1052.23031493 -589.23716433 1013.00035366 -603.14009094 972.37765503 C-604.41942195 968.64591106 -605.75542055 964.94115673 -607.13671875 961.24609375 C-609.14967391 955.74459358 -610.70312826 950.1640382 -612.1875 944.5 C-612.62533813 942.8442395 -612.62533813 942.8442395 -613.07202148 941.1550293 C-613.70975724 938.73602587 -614.34482127 936.31631687 -614.97753906 933.89599609 C-615.67719243 931.22225402 -616.38561304 928.55103362 -617.10058594 925.88134766 C-622.3226521 906.37922861 -626.81883097 886.91140841 -630.42285156 867.04345703 C-630.91606803 864.44259557 -631.46962787 861.87347571 -632.07421875 859.296875 C-633.20003094 854.36458368 -633.78967967 849.39598421 -634.375 844.375 C-635.19480596 837.49711254 -636.03955905 830.62779264 -637.01171875 823.76953125 C-647.24885565 750.84302482 -644.0189373 674.83850127 -630.6875 602.5625 C-630.5321579 601.72007751 -630.3768158 600.87765503 -630.21676636 600.00970459 C-627.79522664 586.9231912 -625.17069387 573.92780268 -622 561 C-621.52399868 559.02853195 -621.04800249 557.05706266 -620.57209778 555.08557129 C-619.87507975 552.20763031 -619.17062717 549.33154883 -618.46383667 546.45599365 C-618.11911436 545.05212017 -617.77589698 543.6478761 -617.43435669 542.2432251 C-615.65238671 534.93720338 -613.68402868 527.82103412 -611.00048828 520.78833008 C-609.85950599 517.60844752 -608.93676224 514.40197993 -608.02734375 511.1484375 C-599.57076229 480.91523376 -587.37080278 451.36895623 -574 423 C-573.49388184 421.92218262 -572.98776367 420.84436523 -572.46630859 419.73388672 C-560.32544888 393.97485813 -546.82993275 369.23706022 -531.86230469 345.01806641 C-530.31603575 342.51217015 -528.78248672 339.99952121 -527.2578125 337.48046875 C-516.96606655 320.58060566 -505.36424228 304.4460992 -493.33642578 288.74511719 C-492.05061623 287.06609514 -490.77256154 285.3814421 -489.49609375 283.6953125 C-475.7426383 265.59214449 -461.07508301 248.26401596 -445.54785156 231.66113281 C-443.95880072 229.9557855 -442.38092403 228.24063053 -440.8046875 226.5234375 C-434.05975022 219.19951441 -427.15422329 212.05176818 -420.125 205 C-419.3405249 204.21093262 -418.5560498 203.42186523 -417.74780273 202.60888672 C-413.58544649 198.45756419 -409.3399793 194.47448796 -404.88476562 190.63964844 C-401.90834911 188.05032028 -399.0568651 185.33157306 -396.1875 182.625 C-391.19454716 177.95316099 -386.09431243 173.50199685 -380.75390625 169.2265625 C-378.28832681 167.23311529 -375.87449322 165.19016142 -373.47167969 163.12182617 C-365.93006805 156.64226718 -358.08719438 150.59906622 -350.14648438 144.61865234 C-348.06670251 143.05030001 -345.99365302 141.47343469 -343.921875 139.89453125 C-335.42643487 133.44202244 -326.77456537 127.26833989 -317.93066406 121.30273438 C-316.08298614 120.05599571 -314.24051245 118.80187066 -312.3984375 117.546875 C-294.49951601 105.41595502 -275.93186982 94.43093769 -257 84 C-255.38544922 83.10643799 -255.38544922 83.10643799 -253.73828125 82.19482422 C-219.22907115 63.16165215 -182.96698698 46.11544785 -145.26953125 34.39453125 C-142.14361805 33.4154035 -139.1371311 32.26537713 -136.109375 31.015625 C-130.98072889 28.92529744 -125.77599253 27.39273933 -120.4375 25.9375 C-113.07901859 23.91461382 -113.07901859 23.91461382 -105.81640625 21.578125 C-99.14273634 19.31746414 -92.31737524 17.57873075 -85.5 15.8125 C-84.75355225 15.61879822 -84.00710449 15.42509644 -83.23803711 15.2255249 C-70.40910204 11.92101011 -57.5047605 9.14281293 -44.5 6.625 C-43.66170654 6.46214508 -42.82341309 6.29929016 -41.9597168 6.13150024 C-32.88108159 4.37836218 -23.78341355 2.75387396 -14.65625 1.2734375 C-13.87552124 1.14425934 -13.09479248 1.01508118 -12.29040527 0.88198853 C-8.1472757 0.22691942 -4.21094687 -0.13629554 0 0 Z " fill="#010000" transform="translate(683,483)"/>
<path d="M0 0 C0.84071045 0.06303314 1.6814209 0.12606628 2.54760742 0.19100952 C11.12729275 0.85197043 19.53488733 1.67877551 27.9375 3.625 C27.33427863 9.25506612 26.68194715 14.87894048 26 20.5 C25.84660156 21.77617188 25.69320312 23.05234375 25.53515625 24.3671875 C25.12322841 27.52743461 24.56587703 30.63998357 23.96484375 33.76953125 C22.75964311 40.29429607 22.06574092 46.83503553 21.4375 53.4375 C21.37036804 54.09853729 21.30323608 54.75957458 21.23406982 55.44064331 C20.29272142 64.77790203 19.84690236 74.03747741 19.7578125 83.421875 C19.7058064 86.49657526 19.65038777 89.57120307 19.5949707 92.64584351 C19.57357585 94.64998254 19.57513439 96.65451766 19.60131836 98.65859985 C19.74208112 109.63568031 19.36529274 117.68779362 11.703125 126.0625 C10.03844693 127.75578298 8.34190654 129.39653296 6.60310364 131.01345825 C3.85991667 133.66760731 1.48118261 136.61525677 -0.9375 139.5625 C-11.70177916 152.16649233 -23.30233453 163.95695373 -35 175.6875 C-35.53829437 176.22847321 -36.07658875 176.76944641 -36.63119507 177.32681274 C-42.59590014 183.31404373 -48.63497796 189.13097024 -55.0625 194.625 C-56.83820221 196.24467817 -58.60958307 197.86911718 -60.375 199.5 C-64.80746474 203.53779322 -69.33992177 207.39807434 -74.0078125 211.16015625 C-76.2456158 212.96585175 -78.46731899 214.78479312 -80.6796875 216.62109375 C-89.79533732 224.15859383 -99.1766558 231.21274619 -108.83203125 238.04296875 C-110.99994991 239.58063435 -113.15729881 241.13207651 -115.3125 242.6875 C-156.51524065 272.2998684 -201.62721525 294.90442068 -249.0625 312.625 C-239.48963947 312.82665183 -230.00848791 312.05335681 -220.46875 311.3359375 C-211.97095022 310.7289518 -203.58019507 310.50647003 -195.0625 310.625 C-195.7454734 314.45250503 -196.6451138 316.9184801 -198.875 320.125 C-199.37644531 320.8571875 -199.87789062 321.589375 -200.39453125 322.34375 C-217.91088932 346.30054886 -250.71331982 357.5425269 -278.0625 365.625 C-279.29613281 366.00527344 -280.52976562 366.38554688 -281.80078125 366.77734375 C-291.44060188 369.66683527 -301.17637093 371.70122586 -311.0625 373.5625 C-338.4656702 378.72270497 -365.23382779 384.24781344 -390.125 397.25 C-390.86419678 397.63446289 -391.60339355 398.01892578 -392.36499023 398.41503906 C-393.06052002 398.7859668 -393.7560498 399.15689453 -394.47265625 399.5390625 C-395.09277588 399.8685791 -395.71289551 400.1980957 -396.35180664 400.53759766 C-398.14715444 401.5880242 -398.14715444 401.5880242 -399.66186523 403.25537109 C-401.0625 404.625 -401.0625 404.625 -403.0625 404.625 C-402.58166592 398.89937575 -401.01038528 394.93403923 -398.125 390 C-397.72531006 389.30632324 -397.32562012 388.61264648 -396.91381836 387.89794922 C-388.99610342 374.47272649 -379.0122617 362.44185903 -366.0625 353.625 C-365.7325 352.965 -365.4025 352.305 -365.0625 351.625 C-366.29484375 351.40972656 -367.5271875 351.19445313 -368.796875 350.97265625 C-375.04818695 349.57600856 -380.58136333 346.86197151 -386.3125 344.0625 C-387.41843506 343.5260083 -388.52437012 342.9895166 -389.66381836 342.43676758 C-397.70617565 338.46028514 -405.04792473 334.22797344 -412.0625 328.625 C-413.21878906 327.72007812 -413.21878906 327.72007812 -414.3984375 326.796875 C-419.06827264 322.94295901 -422.64477026 318.60918921 -426.0625 313.625 C-424.24579958 329.59943469 -419.12419688 348.30069944 -407.0625 359.625 C-408.65823501 363.66689168 -411.54664692 366.25203814 -414.625 369.1875 C-435.39270112 389.52092507 -451.56583914 415.50132705 -464.0625 441.625 C-466.16320834 438.95123383 -467.83140166 436.31800556 -469.33984375 433.2734375 C-482.94187541 406.29396647 -500.6628179 382.89880161 -522.0625 361.625 C-520.63579607 358.5268145 -518.88417421 356.01407515 -516.8125 353.3125 C-509.412887 342.80535722 -503.0625 326.66062071 -503.0625 313.625 C-503.62904297 314.44291016 -503.62904297 314.44291016 -504.20703125 315.27734375 C-517.2277581 333.11604447 -541.07681829 345.54821087 -562.0625 351.625 C-563.0525 351.625 -564.0425 351.625 -565.0625 351.625 C-565.0625 352.285 -565.0625 352.945 -565.0625 353.625 C-564.35738281 353.85058594 -563.65226562 354.07617188 -562.92578125 354.30859375 C-559.47124168 355.89683364 -556.97672034 358.10199896 -554.25 360.6875 C-553.45843506 361.43157104 -553.45843506 361.43157104 -552.65087891 362.19067383 C-540.8674989 373.38614336 -530.46135811 387.08197165 -525.0625 402.625 C-525.0625 403.615 -525.0625 404.605 -525.0625 405.625 C-528.19269656 404.15323327 -530.95293704 402.37791772 -533.8125 400.4375 C-540.30838473 396.26343752 -547.1594778 393.29946721 -554.27490234 390.36669922 C-555.75001911 389.75465268 -557.21449268 389.11702117 -558.67578125 388.47265625 C-578.48575315 379.95334191 -601.00263615 376.62061059 -622.07348633 372.78198242 C-657.38374277 366.30120497 -696.94508975 354.69714611 -723.0625 328.625 C-723.81660156 327.8825 -724.57070313 327.14 -725.34765625 326.375 C-729.99201627 321.51991584 -732.5714363 317.19499942 -734.0625 310.625 C-725.16379364 310.37195622 -716.48455646 310.7753935 -707.625 311.625 C-698.39082239 312.50936587 -689.33712968 312.86729802 -680.0625 312.625 C-680.58755127 312.44549805 -681.11260254 312.26599609 -681.65356445 312.08105469 C-728.99010609 295.74442938 -773.2400367 271.48790783 -814.0625 242.625 C-814.80951172 242.09729004 -815.55652344 241.56958008 -816.32617188 241.02587891 C-825.50952049 234.51686516 -834.43220041 227.85391653 -843.0625 220.625 C-844.68420574 219.32919976 -846.30922403 218.03753452 -847.9375 216.75 C-857.81544491 208.85702186 -867.32643366 200.59939632 -876.58398438 191.99023438 C-877.99804153 190.68451977 -879.42836352 189.39648588 -880.859375 188.109375 C-888.61287546 181.09430315 -896.03710196 173.75850407 -903.4375 166.375 C-903.95969116 165.85539703 -904.48188232 165.33579407 -905.01989746 164.80044556 C-910.38768307 159.45364599 -915.68029061 154.08486971 -920.60888672 148.32373047 C-922.65723747 145.92997424 -924.79986065 143.62647661 -926.9375 141.3125 C-931.10764104 136.74248243 -935.07406591 132.04592858 -938.95703125 127.23046875 C-941.03085328 124.55012978 -941.03085328 124.55012978 -943.63134766 122.17163086 C-947.27293582 117.77060582 -946.92579839 112.76213412 -947.06640625 107.2734375 C-947.11493744 106.15799057 -947.16346863 105.04254364 -947.21347046 103.89329529 C-947.3161674 101.50287673 -947.408916 99.11201379 -947.49264526 96.72085571 C-947.71503056 90.46899343 -948.01933294 84.22115044 -948.3203125 77.97265625 C-948.37857712 76.7344664 -948.43684174 75.49627655 -948.49687195 74.2205658 C-949.00084399 63.9187001 -949.81709845 53.68293089 -951 43.4375 C-951.12405212 42.35512558 -951.12405212 42.35512558 -951.25061035 41.25088501 C-952.34903384 31.86086373 -953.75200474 22.54339092 -955.93139648 13.3371582 C-956.86394857 9.34859838 -957.00276659 6.58806847 -956.0625 2.625 C-934.11356283 -0.13720275 -912.50397077 -0.81970981 -890.40393066 -0.6975708 C-887.11333816 -0.68413483 -883.82288091 -0.68941367 -880.53227329 -0.69443798 C-847.36049961 -0.73259742 -814.1738884 0.92384828 -781.52392578 7.16845703 C-778.59212518 7.71224468 -775.65429744 8.21407989 -772.71484375 8.71484375 C-750.70361008 12.48846235 -729.12391722 17.10568033 -707.81640625 23.83203125 C-703.79848029 25.09928191 -699.76734374 26.29726096 -695.71484375 27.44921875 C-694.65539551 27.75093994 -693.59594727 28.05266113 -692.50439453 28.36352539 C-690.4977869 28.9319442 -688.48975882 29.49538605 -686.47998047 30.05249023 C-680.50256341 31.75578869 -674.85207909 33.87202193 -669.14135742 36.32177734 C-666.03362801 37.63722097 -662.90344705 38.86111794 -659.75 40.0625 C-610.21024784 58.99862982 -564.30301148 84.55368041 -522.0625 116.625 C-521.42231934 117.1106543 -520.78213867 117.59630859 -520.12255859 118.09667969 C-506.45357171 128.52261097 -493.66601953 139.94820985 -481.0625 151.625 C-478.91908733 153.60680616 -476.77261324 155.58524792 -474.625 157.5625 C-473.67753906 158.43777344 -472.73007812 159.31304688 -471.75390625 160.21484375 C-469.25703901 162.45079017 -466.70186536 164.56045105 -464.0625 166.625 C-463.2890625 165.83996094 -462.515625 165.05492187 -461.71875 164.24609375 C-456.69506323 159.16979869 -451.68562754 154.15374957 -446.2421875 149.5234375 C-443.92523879 147.50544991 -441.68110645 145.4223792 -439.43652344 143.32470703 C-433.18149026 137.48438219 -426.78284252 131.93053357 -420.0625 126.625 C-419.4221582 126.11743164 -418.78181641 125.60986328 -418.12207031 125.08691406 C-388.88513213 101.95394635 -358.04799629 82.01177941 -325.0625 64.625 C-324.13518066 64.13531738 -323.20786133 63.64563477 -322.25244141 63.14111328 C-301.03686525 52.02574923 -278.81769524 41.91439238 -255.88671875 34.87109375 C-252.94473157 33.9564201 -250.11929133 32.85794718 -247.26953125 31.6875 C-241.95596787 29.52821742 -236.55683591 27.82262412 -231.0625 26.1875 C-230.05340576 25.88529541 -229.04431152 25.58309082 -228.00463867 25.27172852 C-225.02561927 24.38365416 -222.04420598 23.50400301 -219.0625 22.625 C-217.89388428 22.27453613 -217.89388428 22.27453613 -216.70166016 21.91699219 C-203.4252109 17.94460623 -189.91896383 15.10478167 -176.35351562 12.30517578 C-173.47849906 11.71097725 -170.60614966 11.10571027 -167.734375 10.49609375 C-144.38500606 5.6011658 -120.82379643 2.62794868 -97.0625 0.625 C-95.8235498 0.51913574 -94.58459961 0.41327148 -93.30810547 0.30419922 C-62.25145186 -2.24779302 -31.07031596 -2.35230733 0 0 Z " fill="#000000" transform="translate(1247.0625,990.375)"/>
<path d="M0 0 C3.78270008 0.01343202 7.56528253 0.00815567 11.34799576 0.0031414 C64.26356166 -0.0500021 64.26356166 -0.0500021 90.21112061 4.3225708 C90.47812271 5.06207474 90.74512482 5.80157867 91.0202179 6.56349182 C113.20678717 67.93251856 141.40169458 126.95491823 179.21112061 180.3225708 C180.00099365 181.44236328 180.00099365 181.44236328 180.80682373 182.58477783 C190.95342902 196.93242292 201.61229727 210.90257239 212.82440186 224.43585205 C214.69074422 226.6931794 216.53909951 228.96186225 218.37908936 231.24053955 C225.34335016 239.8312669 232.55059001 248.07180803 240.16424561 256.09210205 C242.47878112 258.53048061 244.71788314 261.01280039 246.89862061 263.5725708 C250.12564591 267.33062558 253.64150929 270.78349701 257.16717529 274.25714111 C259.78900719 276.85378039 262.27886191 279.49508366 264.64862061 282.3225708 C268.01730305 286.27289626 271.80963605 289.70936207 275.65911865 293.17706299 C278.85301241 296.05851605 281.94156636 299.00599927 284.96112061 302.0725708 C288.20762348 305.35980041 291.55241512 308.44503224 295.05877686 311.45147705 C297.59164223 313.65336909 300.05444583 315.92452906 302.52362061 318.1975708 C307.41000059 322.64945735 312.44647604 326.8556021 317.5914917 331.00323486 C319.40096869 332.47721943 321.19145665 333.97247334 322.98065186 335.4710083 C332.97097702 343.81934978 343.22897903 351.73228337 353.70135498 359.46563721 C356.16444706 361.28803783 358.61836431 363.12217661 361.07049561 364.95928955 C371.55171456 372.7859654 382.25111181 380.18431731 393.21112061 387.3225708 C393.97827393 387.82482178 394.74542725 388.32707275 395.53582764 388.84454346 C397.82124244 390.34059902 400.10917235 391.83269615 402.39862061 393.3225708 C403.08134033 393.76753906 403.76406006 394.21250732 404.46746826 394.67095947 C408.64035806 397.36945573 412.87567799 399.89337338 417.21112061 402.3225708 C417.21112061 402.9825708 417.21112061 403.6425708 417.21112061 404.3225708 C416.33826416 404.33715332 415.46540771 404.35173584 414.56610107 404.36676025 C395.12495177 404.72612311 375.95592201 405.69337717 356.62469482 407.93292236 C353.45889931 408.29428766 350.29175086 408.6225549 347.12127686 408.9397583 C320.61846341 411.70511708 294.05723893 416.87282647 268.21112061 423.3225708 C267.00343018 423.6230835 265.79573975 423.92359619 264.55145264 424.23321533 C249.98813672 427.87161833 235.45117146 431.54725821 221.21112061 436.3225708 C220.11155029 436.68093018 219.01197998 437.03928955 217.87908936 437.4085083 C212.94924007 439.02545024 208.07280812 440.73493513 203.21990967 442.56817627 C201.43289067 443.23928574 199.63885721 443.8916499 197.84393311 444.5413208 C133.29524613 468.11812406 70.128509 502.89368977 18.46893311 548.61553955 C17.58020508 549.39441528 17.58020508 549.39441528 16.67352295 550.18902588 C15.56201501 551.16821144 14.46007777 552.1584103 13.36981201 553.16119385 C11.88299561 554.4710083 11.88299561 554.4710083 9.21112061 556.3225708 C4.65984051 555.78815298 1.86998599 552.6984064 -1.41387939 549.7600708 C-2.67851677 548.65347236 -3.94414479 547.54800504 -5.21075439 546.44366455 C-5.82628174 545.90467529 -6.44180908 545.36568604 -7.07598877 544.81036377 C-51.86417357 505.90796951 -106.02741777 475.37770597 -160.85137939 453.1975708 C-161.50402771 452.93348419 -162.15667603 452.66939758 -162.82910156 452.39730835 C-170.74777217 449.20833521 -178.72389762 446.22368963 -186.78155518 443.40509033 C-189.42814029 442.45242282 -192.01444158 441.42490756 -194.60137939 440.3225708 C-201.01356184 437.72247743 -207.67091611 435.93312422 -214.31622314 434.04083252 C-216.83684176 433.30863861 -219.34411749 432.54060047 -221.85137939 431.76397705 C-252.22729104 422.45289166 -283.27481826 416.21850503 -314.68084717 411.63183594 C-316.72573766 411.3318342 -318.76962623 411.02580423 -320.81329346 410.71759033 C-347.7820719 406.67329744 -374.56210888 404.99027946 -401.78887939 404.3225708 C-399.39589047 401.81823409 -397.16173645 399.75361064 -394.16387939 398.0178833 C-393.46746338 397.6065918 -392.77104736 397.19530029 -392.05352783 396.77154541 C-391.30619385 396.33463379 -390.55885986 395.89772217 -389.78887939 395.4475708 C-380.20896914 389.72181673 -371.11005683 383.4076597 -362.03253174 376.92266846 C-360.07890793 375.52940943 -358.11826467 374.14734218 -356.15216064 372.77178955 C-345.46583648 365.26762913 -335.12938231 357.29303045 -324.78887939 349.3225708 C-324.09665283 348.78922119 -323.40442627 348.25587158 -322.69122314 347.70635986 C-314.76751702 341.58460539 -307.04345181 335.26121528 -299.44512939 328.74053955 C-297.74202362 327.28245607 -296.03178666 325.83310228 -294.32012939 324.3850708 C-286.9500182 318.13405657 -279.77730495 311.71291748 -272.72027588 305.1104126 C-271.21794473 303.71974505 -269.70485724 302.34069395 -268.18756104 300.96636963 C-260.98455741 294.4398216 -254.0195388 287.70961195 -247.159729 280.8237915 C-245.46368213 279.12233302 -243.76228119 277.42635817 -242.06036377 275.73077393 C-236.97337344 270.64688361 -231.96993766 265.5521523 -227.29888916 260.07769775 C-224.76581437 257.13343346 -222.07840837 254.334863 -219.41387939 251.5100708 C-214.74204039 246.51711796 -210.29087625 241.41688323 -206.01544189 236.07647705 C-204.02210325 233.61103188 -201.97932959 231.19728797 -199.91094971 228.79473877 C-188.65508147 215.69226723 -178.47571352 201.7327213 -168.46124268 187.67022705 C-167.33201986 186.085029 -166.20011553 184.50173821 -165.06573486 182.92022705 C-156.07864041 170.37892862 -147.71258117 157.56058124 -139.78887939 144.3225708 C-139.21637451 143.36834229 -138.64386963 142.41411377 -138.05401611 141.43096924 C-129.42670808 126.995766 -121.39847227 112.31735267 -113.78887939 97.3225708 C-113.41037842 96.58071533 -113.03187744 95.83885986 -112.64190674 95.07452393 C-110.649899 91.16574779 -108.68739765 87.24388771 -106.75860596 83.30352783 C-106.09420974 81.94629952 -105.42673578 80.59057474 -104.75665283 79.23614502 C-94.18358963 57.80517353 -85.61562768 35.54273206 -77.78106689 12.98370361 C-76.56048201 9.70998923 -75.18404772 6.52574328 -73.78887939 3.3225708 C-49.15245602 0.47171527 -24.7824798 -0.11911315 0 0 Z " fill="#000000" transform="translate(774.7888793945313,546.6774291992188)"/>
<path d="M0 0 C14.66501645 5.69840639 32.42706727 1.1651928 46.17578125 -4.765625 C70.60678376 -15.26382767 98.74320955 -9.93144626 123.67773438 -3.78173828 C125.68680915 -3.29187128 127.70401636 -2.835544 129.72265625 -2.38671875 C136.64900729 -0.81662622 142.69656105 1.65235065 149.05078125 4.796875 C150.33671427 5.40475834 151.62320903 6.01145428 152.91015625 6.6171875 C175.08246572 17.19037516 194.12290549 33.32426628 203.05078125 56.796875 C206.29834411 66.38447552 206.57164425 75.79714588 206.48828125 85.796875 C206.48490753 86.58178314 206.48153381 87.36669128 206.47805786 88.17538452 C206.30870702 115.56139009 202.08911428 142.92457199 190.05078125 167.796875 C189.4784375 168.98152344 188.90609375 170.16617187 188.31640625 171.38671875 C173.76172446 200.49236086 147.86968222 219.57745918 117.34765625 229.83203125 C104.61133797 233.5593661 90.91276361 234.40652811 78.05078125 230.796875 C77.1690625 230.55195312 76.28734375 230.30703125 75.37890625 230.0546875 C65.09600849 226.77229358 55.30052422 220.48870817 50.05078125 210.796875 C47.44197835 205.203418 46.5276957 200.25816218 46.61328125 194.109375 C46.62230469 193.32336914 46.63132812 192.53736328 46.640625 191.72753906 C47.48450504 162.97701506 71.87165648 140.66665905 91.05078125 121.796875 C91.71078125 121.136875 92.37078125 120.476875 93.05078125 119.796875 C92.26960938 120.16039062 91.4884375 120.52390625 90.68359375 120.8984375 C46.98016196 139.87876979 -9.60295089 139.09134725 -53.94921875 122.796875 C-56.30584255 121.84077166 -58.62592555 120.83285534 -60.94921875 119.796875 C-60.07523438 120.56257813 -60.07523438 120.56257813 -59.18359375 121.34375 C-41.92547583 136.64811872 -15.64107146 160.14655598 -13.78808594 184.95410156 C-13.74246971 187.6518238 -13.71394222 190.34879925 -13.69921875 193.046875 C-13.66828125 194.44099609 -13.66828125 194.44099609 -13.63671875 195.86328125 C-13.58316226 205.32939066 -16.63857377 211.75142889 -22.94921875 218.796875 C-34.54733761 229.83891967 -49.8390532 233.20876787 -65.33666992 233.16577148 C-92.08354342 232.43730332 -120.18385953 215.60936498 -138.26171875 196.8125 C-148.5037467 185.52265651 -154.7909478 172.6418445 -160.94921875 158.796875 C-161.47644531 157.6728125 -162.00367188 156.54875 -162.546875 155.390625 C-171.08158255 133.51895106 -173.18820563 109.41922568 -173.32421875 86.171875 C-173.33225525 85.39878998 -173.34029175 84.62570496 -173.34857178 83.82919312 C-173.44668071 71.40685136 -172.20079492 60.06299682 -166.44921875 48.859375 C-166.10810059 48.18898193 -165.76698242 47.51858887 -165.41552734 46.82788086 C-152.05062206 21.75161366 -125.49941212 6.24206069 -99.1484375 -2.046875 C-65.10459178 -11.73312985 -33.04775774 -13.92686164 0 0 Z " fill="#EBB957" transform="translate(765.94921875,1638.203125)"/>
<path d="M0 0 C2.54903684 2.54903684 3.1784717 4.84829284 4.3984375 8.24609375 C4.8755571 9.55728162 5.35311579 10.86830977 5.83105469 12.17919922 C6.08189819 12.87237244 6.3327417 13.56554565 6.59118652 14.27972412 C12.1310666 29.53057138 18.29809623 44.39870417 25.12902832 59.12194824 C26.06331669 61.136528 26.99412944 63.15269404 27.92480469 65.16894531 C35.54685 81.65953355 43.23921321 98.07724663 52 114 C52.54446777 114.9998291 53.08893555 115.9996582 53.64990234 117.02978516 C65.56964394 138.90582651 78.29675762 160.19666162 92 181 C92.64839844 181.99257812 93.29679688 182.98515625 93.96484375 184.0078125 C97.07770915 188.73305005 100.26629092 193.38941562 103.53515625 198.0078125 C104.16639404 198.90137451 104.79763184 199.79493652 105.44799805 200.71557617 C106.71157823 202.50040519 107.97981657 204.28194753 109.25317383 206.05981445 C109.83736084 206.88441162 110.42154785 207.70900879 111.0234375 208.55859375 C111.54856934 209.29392334 112.07370117 210.02925293 112.61474609 210.78686523 C114.07245484 213.11575664 115.05674194 215.42457164 116 218 C107.52915356 220.82361548 97.6203421 220.22467063 89.54174805 216.54077148 C82.52844386 212.96577259 76.47358077 208.71685103 71 203 C71.43828125 203.75539062 71.8765625 204.51078125 72.328125 205.2890625 C76.53684443 212.59444134 80.61577846 219.9582704 84.625 227.375 C88.90304339 235.27213999 93.32495437 243.06903875 97.875 250.8125 C102.95208262 259.45749318 107.95643688 268.13892259 112.875 276.875 C113.48843262 277.9575708 114.10186523 279.0401416 114.73388672 280.15551758 C115.29350098 281.15349365 115.85311523 282.15146973 116.4296875 283.1796875 C116.92710449 284.06382324 117.42452148 284.94795898 117.93701172 285.85888672 C119 288 119 288 119 290 C100.47588873 288.61959748 83.80788815 273.01466917 72 260 C66.21046312 253.16809069 60.95996351 246.06582042 57 238 C57.40805204 245.20891946 59.81786024 250.57816239 63 257 C63.52980469 258.12019531 64.05960938 259.24039062 64.60546875 260.39453125 C70.65932056 272.95939073 78.51707554 283.96530152 87 295 C87.41620605 295.54914063 87.83241211 296.09828125 88.26123047 296.6640625 C94.89840362 305.41703755 102.02947117 313.51159577 109.57861328 321.48583984 C113.31882245 325.47017122 116.96705423 329.45058135 120 334 C103.79277719 334.58346002 91.36853333 331.63317743 78.8125 320.75 C67.76849299 310.24685273 59.74023434 297.51696766 55 283 C55.2865704 294.31953064 56.6839213 304.86591598 59.45605469 315.84521484 C59.97990973 317.9204144 60.47976036 320.00021782 60.9765625 322.08203125 C62.92086302 329.88294431 65.46634841 336.80310079 69 344 C69.73358305 345.59362218 70.4637279 347.18882923 71.19140625 348.78515625 C81.26191569 370.70842346 94.08042681 390.16840792 110.85546875 407.58203125 C112.72839209 409.69376084 113.92212466 411.41671216 115 414 C88.66150261 415.64615609 68.27798659 402.74850154 48 387 C46.78156393 386.0699011 45.56281396 385.14021328 44.34375 384.2109375 C36.89080971 378.48408934 29.84626649 372.44107929 23 366 C22.38136944 379.33492538 25.5468743 388.51736001 32.6875 399.625 C38.13678322 405.22156115 43.92674759 408.74185012 51.375 411 C55.08725336 412.4842094 56.65091767 413.20020039 58.27709961 416.92602539 C58.54530518 418.11703857 58.81351074 419.30805176 59.08984375 420.53515625 C59.24431473 421.19137466 59.39878571 421.84759308 59.55793762 422.5236969 C59.88791227 423.94009837 60.20707042 425.35905464 60.51647949 426.78009033 C61.00353971 429.01625131 61.5190537 431.2441452 62.04199219 433.47216797 C62.94220952 437.33355584 63.81026819 441.20126343 64.66479492 445.07299805 C65.19261698 447.4606471 65.72787926 449.84655025 66.26367188 452.23242188 C66.60721421 453.77854738 66.95032884 455.324768 67.29296875 456.87109375 C67.45024948 457.5702037 67.60753021 458.26931366 67.76957703 458.98960876 C68.78945726 463.64433673 69.46658971 468.26420398 70 473 C69.23300781 472.93941406 68.46601562 472.87882812 67.67578125 472.81640625 C63.78521466 472.52269332 59.89311991 472.25710595 56 472 C55.32403275 471.95473679 54.64806549 471.90947357 53.95161438 471.86283875 C37.0161262 470.77816681 20.0672922 470.84575456 3.10571289 470.86962891 C-1.00284692 470.87534886 -5.11134168 470.87201733 -9.21989918 470.86605644 C-12.44339977 470.86240512 -15.66688548 470.86360976 -18.89038658 470.86618423 C-20.40388688 470.86683968 -21.91738864 470.866075 -23.43088722 470.86370468 C-32.42566626 470.85268993 -41.33696415 471.12252631 -50.30912781 471.77981567 C-56.20678898 472.13164919 -62.09316683 472.08306484 -68 472 C-67.21418858 462.43405568 -64.90279472 453.22026867 -62.70751953 443.90063477 C-62.38384797 442.51983268 -62.06076378 441.13889277 -61.73828125 439.7578125 C-61.58057251 439.08352707 -61.42286377 438.40924164 -61.26037598 437.71452332 C-60.38063278 433.88326518 -59.65494583 430.07140952 -59.10546875 426.1796875 C-57.47796124 415.1398523 -57.47796124 415.1398523 -53.1484375 411.80078125 C-49.81291155 410.27870791 -46.48033075 409.14204865 -43 408 C-33.2898319 402.44685055 -27.68741784 393.34051693 -24 383 C-22.80138148 378.36467857 -21.86030982 373.70845237 -21 369 C-20.81179688 368.24074219 -20.62359375 367.48148437 -20.4296875 366.69921875 C-19.76691101 362.53577732 -19.85641931 358.39602638 -19.875 354.1875 C-19.87113281 353.32318359 -19.86726562 352.45886719 -19.86328125 351.56835938 C-19.46085688 342.12024201 -19.46085688 342.12024201 -22.75 333.70703125 C-23.86375 332.76923828 -23.86375 332.76923828 -25 331.8125 C-39.78543579 318.10663571 -50.86804162 296.09879478 -51.95703125 275.87890625 C-51.97121094 275.25886719 -51.98539063 274.63882812 -52 274 C-52.66 274 -53.32 274 -54 274 C-55.72520973 279.93040845 -56.19285062 285.42601117 -56.1875 291.5625 C-56.18814453 292.27011475 -56.18878906 292.97772949 -56.18945312 293.70678711 C-56.14022496 298.54065761 -55.67304313 303.21331724 -55 308 C-73.85894151 293.24082838 -86.06002625 269.85736277 -93.3125 247.4375 C-93.54291992 246.73133545 -93.77333984 246.0251709 -94.01074219 245.29760742 C-98.19736784 231.59578374 -99.55721339 218.19353822 -99.4375 203.9375 C-99.43346161 203.12951965 -99.42942322 202.32153931 -99.42526245 201.48907471 C-99.08920906 153.34750006 -76.87544695 109.26114374 -52 69 C-51.47293457 68.1430957 -50.94586914 67.28619141 -50.40283203 66.40332031 C-43.21693236 54.77056861 -35.72697983 43.53912678 -27.33886719 32.74023438 C-26.05933152 31.07711799 -24.80927422 29.39661101 -23.5703125 27.703125 C-18.72861876 21.10233838 -13.54326927 15.01696682 -8 9 C-6.09403893 6.84062463 -4.20198429 4.66987544 -2.3125 2.49609375 C-1.56450684 1.64347059 -0.80201622 0.80201622 0 0 Z " fill="#010100" transform="translate(782,43)"/>
<path d="M0 0 C0.91579834 0.45802002 0.91579834 0.45802002 1.85009766 0.92529297 C12.00205537 6.09006082 20.75797249 12.13996091 29 20 C29.87140625 20.82886719 30.7428125 21.65773438 31.640625 22.51171875 C42.74367106 33.91154434 50.42916968 47.83491465 55 63 C55.57972115 64.66792654 56.16259555 66.33476381 56.75 68 C63.61974119 87.81041645 60.43239356 115.05181438 51.6875 133.9375 C50.50585165 136.32155496 49.26189456 138.65571606 48 141 C47.46503906 142.03511719 46.93007813 143.07023438 46.37890625 144.13671875 C33.48585538 167.78943798 10.86747083 184.83858294 -14.56640625 193.16796875 C-41.98149838 200.57049585 -70.43312166 196.92817848 -95.0625 183.25 C-101.60150133 179.48888882 -107.38798475 175.04902646 -113 170 C-113.70640625 169.36449219 -114.4128125 168.72898437 -115.140625 168.07421875 C-133.80937354 150.32420784 -145.28791054 125.21971089 -146.32421875 99.56640625 C-146.63477774 86.48975339 -146.06547442 74.46388869 -142 62 C-141.649375 60.88109375 -141.29875 59.7621875 -140.9375 58.609375 C-131.88927268 32.59572145 -111.99107901 12.99067435 -88.0625 0.25 C-60.85890562 -12.70195844 -27.13521293 -13.58497856 0 0 Z " fill="#EAB957" transform="translate(826,750)"/>
<path d="M0 0 C1.29804565 0.00797607 1.29804565 0.00797607 2.62231445 0.01611328 C9.26278654 0.11417802 15.5693462 0.83183848 22.0625 2.25 C22.77535156 2.34796875 23.48820313 2.4459375 24.22265625 2.546875 C35.21228971 4.27235016 46.74724831 11.06224007 55.0625 18.25 C56.22265625 19.16265625 56.22265625 19.16265625 57.40625 20.09375 C68.96432461 29.6541327 75.87665774 42.37746297 81.0625 56.25 C81.44019531 57.19875 81.81789063 58.1475 82.20703125 59.125 C85.35952371 67.62610327 86.53028229 76.41286167 87.73706055 85.35571289 C88.05043906 87.46553526 88.05043906 87.46553526 89.0625 90.25 C90.22587199 99.13393154 90.18567327 108.05769356 90.125 117 C90.12048828 118.28132813 90.11597656 119.56265625 90.11132812 120.8828125 C90.0996772 124.00525931 90.08332025 127.12760318 90.0625 130.25 C87.1377924 128.81759136 84.47473967 127.22105153 81.75 125.4375 C68.07878516 117.32644397 54.14803844 115.19977473 38.5625 117.84375 C25.96944398 121.24387512 14.42030585 128.70140927 3.36425781 135.44970703 C-4.17762612 140.04560364 -11.8588686 144.40054141 -19.51879883 148.7956543 C-25.09536528 152.00399532 -30.62534092 155.24849688 -36.0625 158.6875 C-62.44921209 175.08622174 -94.1562346 186.6255699 -125.375 186.6875 C-126.68364014 186.69064209 -127.99228027 186.69378418 -129.34057617 186.69702148 C-155.81365766 186.37384234 -155.81365766 186.37384234 -161.9375 180.25 C-162.08900771 177.86404121 -162.1745361 175.50977154 -162.2109375 173.12109375 C-162.22351089 172.38834732 -162.23608429 171.65560089 -162.2490387 170.90065002 C-162.48946339 153.44765312 -161.91445818 137.12607213 -156.9375 120.25 C-156.68581055 119.38036621 -156.43412109 118.51073242 -156.17480469 117.61474609 C-149.00289608 93.5685544 -136.26681226 73.19035994 -118.9375 55.25 C-118.07511719 54.32445312 -117.21273437 53.39890625 -116.32421875 52.4453125 C-93.81531235 28.90266373 -62.65404496 14.90327863 -32 5.4375 C-31.06534912 5.14738037 -30.13069824 4.85726074 -29.16772461 4.55834961 C-19.48189251 1.65045615 -10.12905099 -0.11422612 0 0 Z " fill="#EBBA57" transform="translate(980.9375,1110.75)"/>
<path d="M0 0 C2.16959535 1.12339171 4.35679009 2.2085811 6.54443359 3.29638672 C16.678252 8.40621443 25.91287716 14.07754635 34.90771484 20.98779297 C36.15488281 21.90044922 36.15488281 21.90044922 37.42724609 22.83154297 C67.64048838 45.67936798 85.95486598 78.47189535 93.90771484 114.98779297 C94.07835449 115.76058594 94.24899414 116.53337891 94.42480469 117.32958984 C96.3330062 127.83338058 96.04059895 138.72937923 95.97021484 149.36279297 C95.96517911 150.69612458 95.96061995 152.02945808 95.95654297 153.36279297 C95.94491839 156.57117658 95.92858154 159.77945847 95.90771484 162.98779297 C75.44412601 168.89105321 53.87015072 170.51880395 32.90771484 165.98779297 C31.71533203 165.74287109 30.52294922 165.49794922 29.29443359 165.24560547 C3.03913731 159.28209094 -20.1116927 147.06556283 -42.92822266 133.12451172 C-50.63000235 128.422514 -58.44621978 123.91571963 -66.25244141 119.39013672 C-69.9467185 117.24700763 -73.62074516 115.07587702 -77.27587891 112.86669922 C-95.31596579 102.01560048 -110.50454638 95.92827788 -131.93212891 99.65576172 C-138.58938425 101.46849831 -144.08769857 104.50042356 -149.75244141 108.40185547 C-151.82111674 109.80399601 -153.85108436 110.89862783 -156.09228516 111.98779297 C-156.15835596 104.32052976 -156.15821848 96.6550779 -156.09228516 88.98779297 C-156.08648437 88.21064941 -156.08068359 87.43350586 -156.07470703 86.6328125 C-155.66007158 57.2144271 -147.21053389 25.10951365 -126.05712891 3.71435547 C-91.49230375 -29.23224446 -38.77238792 -20.14443345 0 0 Z " fill="#EBBA57" transform="translate(650.09228515625,1129.01220703125)"/>
<path d="M0 0 C12.62519243 10.58735988 21.27101112 24.112461 23.1875 40.6875 C24.50812881 60.71905626 21.58913398 76.56469422 8.359375 92.28125 C2.31486243 98.97804809 -3.78780305 104.02411614 -11.8125 108.125 C-12.45251953 108.45516113 -13.09253906 108.78532227 -13.75195312 109.12548828 C-27.15875615 115.58875785 -45.86677568 116.15250461 -60.0625 112.0625 C-62.00282633 111.33073435 -63.92246891 110.54080517 -65.8125 109.6875 C-67.23369141 109.05134766 -67.23369141 109.05134766 -68.68359375 108.40234375 C-84.9571591 100.29941732 -95.49465793 86.23023493 -101.63061523 69.45019531 C-103.76629993 63.04757868 -104.32238277 57.1634428 -104.25 50.4375 C-104.24097656 49.42896973 -104.23195313 48.42043945 -104.22265625 47.38134766 C-103.82321945 30.08074116 -97.04987232 16.48545664 -85.16015625 3.90234375 C-61.30006484 -18.60792552 -26.03071803 -19.1829159 0 0 Z " fill="#010000" transform="translate(822.8125,793.3125)"/>
<path d="M0 0 C3.98476738 1.44502553 7.29567666 3.4758524 10.6875 6 C20.07066415 11.66530666 30.25258965 12.63062208 40.9934082 12.46655273 C43.06477751 12.43746802 45.13358907 12.44602381 47.20507812 12.45898438 C57.94214632 12.4431719 67.85561978 11.10324827 77.4375 6 C78.38496094 5.505 79.33242188 5.01 80.30859375 4.5 C82.09239193 3.50583672 83.84699637 2.45725195 85.56640625 1.35546875 C89.75966656 -0.98010321 93.34461867 -0.97872471 98 0 C100.55271114 1.31470102 102.9098689 2.79498285 105.29833984 4.38452148 C125.76462333 17.8513015 150.54815405 26.85094446 174.31982422 32.24194336 C185.31630095 34.84939085 196.29675714 40.32442949 202.9375 49.75 C204 52 204 52 204 54 C198.54581213 52.83124546 193.14981976 51.52454512 187.75 50.125 C170.74109139 45.8406047 153.76747329 43.38687783 136.3203125 41.65234375 C131.83322633 41.20389548 127.39044186 40.65733647 122.9375 39.9375 C116.29762046 38.93145765 109.63082253 38.4373215 102.9375 37.9375 C101.87974365 37.85814209 100.8219873 37.77878418 99.73217773 37.69702148 C80.88799974 36.35794854 62.07767816 35.76507652 43.1875 35.75 C42.06591492 35.74832825 40.94432983 35.74665649 39.78875732 35.74493408 C19.74673037 35.74316193 -0.07610421 36.7574772 -20.02392578 38.6328125 C-23.38846084 38.94352481 -26.75154208 39.22021896 -30.12109375 39.46875 C-70.94075934 42.36014301 -70.94075934 42.36014301 -110.00390625 53.265625 C-112 54 -112 54 -115 54 C-112.69620268 46.66973581 -106.32116035 41.95072522 -100 38 C-92.96851127 34.34833768 -86.26333334 31.94176758 -78.5 30.375 C-60.84233922 26.71780392 -43.43001993 18.27081116 -27.1875 10.625 C-26.37764648 10.24520996 -25.56779297 9.86541992 -24.73339844 9.47412109 C-19.86056262 7.11168973 -15.47490825 4.39386911 -11.09130859 1.2109375 C-7.45064396 -0.89712888 -4.04018597 -0.84829528 0 0 Z " fill="#030201" transform="translate(738,1664)"/>
<path d="M0 0 C1.10844919 3.32534757 0.84454356 5.62182575 0 9 C-0.66 8.01 -1.32 7.02 -2 6 C-2.66 5.67 -3.32 5.34 -4 5 C-2.68 3.35 -1.36 1.7 0 0 Z " fill="#B79043" transform="translate(744,1303)"/>
</svg>
