<?xml version="1.0" encoding="UTF-8"?>
<svg version="1.1" xmlns="http://www.w3.org/2000/svg" width="320" height="320">
<path d="M0 0 C0.99 0 1.98 0 3 0 C12.83891568 29.88676621 22.6615321 59.7769798 32.20800781 89.75872803 C35.9447582 101.49404224 39.71214034 113.21815856 43.546875 124.921875 C43.92152893 126.06565613 44.29618286 127.20943726 44.68218994 128.38787842 C46.49202611 133.90957777 48.30629516 139.42977981 50.12597656 144.94824219 C50.77153526 146.91339474 51.41704579 148.87856312 52.0625 150.84375 C52.36162292 151.74631531 52.66074585 152.64888062 52.96893311 153.57879639 C53.23828674 154.40035217 53.50764038 155.22190796 53.78515625 156.06835938 C54.02113525 156.78358765 54.25711426 157.49881592 54.50024414 158.23571777 C55 160 55 160 55 162 C76.45 162 97.9 162 120 162 C118.80337667 166.78649332 116.92814203 167.86005349 113.0625 170.4375 C111.77544258 171.32595568 110.48901423 172.21532315 109.203125 173.10546875 C108.51798828 173.5751709 107.83285156 174.04487305 107.12695312 174.52880859 C103.48354648 177.04891516 99.90003463 179.65126416 96.3125 182.25 C95.18146851 183.06682251 95.18146851 183.06682251 94.02758789 183.90014648 C87.6913825 188.48181294 81.39804924 193.12044249 75.10888672 197.76635742 C66.04893979 204.45240175 56.90963888 211.02736019 47.77050781 217.60449219 C39.31406964 223.6923875 30.88111091 229.80868741 22.5 236 C12.64592179 243.27942622 2.71425666 250.44830324 -7.22949219 257.60449219 C-16.70921589 264.42906352 -26.15432175 271.29668646 -35.54467773 278.24389648 C-37.00891475 279.32653193 -38.47489518 280.40681467 -39.94287109 281.484375 C-41.30166298 282.48548822 -42.65374567 283.49577976 -43.99853516 284.515625 C-48.67087649 288 -48.67087649 288 -52 288 C-50.5552946 280.93745313 -48.56838658 274.1762435 -46.33984375 267.32421875 C-45.9899086 266.23663773 -45.63997345 265.1490567 -45.2794342 264.02851868 C-44.16926013 260.58027208 -43.05365395 257.13381513 -41.9375 253.6875 C-40.8187421 250.22302922 -39.70113597 246.75819235 -38.58485413 243.29292297 C-37.89204164 241.14328993 -37.19763236 238.99417073 -36.50144958 236.84562683 C-36.18764847 235.87394058 -35.87384735 234.90225433 -35.55053711 233.90112305 C-35.27455185 233.04890671 -34.99856659 232.19669037 -34.71421814 231.31864929 C-34.06906483 229.22421319 -33.5072881 227.1314857 -33 225 C-33.589021 224.71801758 -34.17804199 224.43603516 -34.78491211 224.14550781 C-36.80371049 223.10150891 -38.58841867 221.98171394 -40.44140625 220.671875 C-41.0974585 220.20918213 -41.75351074 219.74648926 -42.42944336 219.26977539 C-43.13335205 218.76824951 -43.83726074 218.26672363 -44.5625 217.75 C-45.30701416 217.22204834 -46.05152832 216.69409668 -46.81860352 216.15014648 C-53.21162318 211.59910438 -59.53262811 206.95276388 -65.84008789 202.28417969 C-71.19998372 198.31823749 -76.58774473 194.39414022 -82 190.5 C-89.22024214 185.30375889 -96.39371452 180.04668635 -103.54492188 174.75585938 C-104.65770508 173.93311523 -104.65770508 173.93311523 -105.79296875 173.09375 C-106.49856934 172.57039062 -107.20416992 172.04703125 -107.93115234 171.5078125 C-109.94629974 170.03913769 -111.99491481 168.62954774 -114.05078125 167.21875 C-115.02402344 166.4865625 -115.99726562 165.754375 -117 165 C-117 164.34 -117 163.68 -117 163 C-102.21517803 162.1516827 -87.49462842 161.8720964 -72.6875 161.9375 C-70.66341259 161.94253545 -68.63932394 161.94709467 -66.61523438 161.95117188 C-61.74345783 161.96199165 -56.87174346 161.97913806 -52 162 C-51.82345383 161.32997452 -51.64690765 160.65994904 -51.4650116 159.96961975 C-49.69206871 153.34231844 -47.70887758 146.81958724 -45.55078125 140.30859375 C-45.05670273 138.80551163 -45.05670273 138.80551163 -44.55264282 137.27206421 C-43.84428609 135.11734582 -43.13480209 132.96299775 -42.42428589 130.80899048 C-40.5026566 124.98165006 -38.59078745 119.15111317 -36.6796875 113.3203125 C-36.28754562 112.12406754 -35.89540375 110.92782257 -35.49137878 109.69532776 C-31.58204065 97.75284625 -27.7531452 85.78518112 -23.9375 73.8125 C-16.08065782 49.16822715 -8.0600059 24.57848261 0 0 Z M1 128 C-0.57232761 132.6428523 -2.13874495 137.28764033 -3.69970703 141.93432617 C-4.23161236 143.5149515 -4.76513164 145.09503465 -5.30029297 146.67456055 C-6.06902737 148.94439505 -6.83194572 151.21611294 -7.59375 153.48828125 C-7.83436157 154.19463211 -8.07497314 154.90098297 -8.32287598 155.6287384 C-9.29588092 158.54675212 -10 160.9013002 -10 164 C-22.54 164 -35.08 164 -48 164 C-44.04984447 168.04000803 -44.04984447 168.04000803 -39.80078125 171.4296875 C-39.23568848 171.82945801 -38.6705957 172.22922852 -38.08837891 172.64111328 C-37.20931885 173.25188721 -37.20931885 173.25188721 -36.3125 173.875 C-35.70325684 174.30409668 -35.09401367 174.73319336 -34.46630859 175.17529297 C-32.6474234 176.45486033 -30.82406972 177.72783864 -29 179 C-27.96488281 179.72703125 -26.92976563 180.4540625 -25.86328125 181.203125 C-23.57863284 182.80661575 -21.2910926 184.40573741 -19 186 C-20.50963749 193.50846012 -22.73130438 200.66760111 -25.125 207.9375 C-25.85937455 210.17492833 -26.591279 212.41316942 -27.3203125 214.65234375 C-27.64273926 215.63195068 -27.96516602 216.61155762 -28.29736328 217.62084961 C-29.09441237 219.90622718 -29.09441237 219.90622718 -29 222 C-24.66136809 220.54311622 -21.40566707 218.20261814 -17.875 215.375 C-16.72847686 214.47968413 -15.58133036 213.585166 -14.43359375 212.69140625 C-12.75148921 211.37384449 -11.07022359 210.05526245 -9.39111328 208.73388672 C-7.9162384 207.58095542 -6.42717071 206.44624938 -4.9375 205.3125 C-3.65166016 204.31669922 -3.65166016 204.31669922 -2.33984375 203.30078125 C0 202 0 202 1.89331055 202.24804688 C4.29129202 203.10397258 5.99538733 204.22334726 8.046875 205.73046875 C8.81 206.28669922 9.573125 206.84292969 10.359375 207.41601562 C11.14828125 208.00060547 11.9371875 208.58519531 12.75 209.1875 C13.5234375 209.75275391 14.296875 210.31800781 15.09375 210.90039062 C18.18091817 213.16137872 21.25905837 215.42944968 24.29101562 217.76416016 C25.00451172 218.31249512 25.71800781 218.86083008 26.453125 219.42578125 C27.08895508 219.92118408 27.72478516 220.41658691 28.37988281 220.92700195 C29.95403934 222.18405841 29.95403934 222.18405841 32 222 C29.99521695 212.94983652 27.2150608 204.19655969 24.33764648 195.39208984 C24.03673096 194.46605957 23.73581543 193.5400293 23.42578125 192.5859375 C23.01453003 191.33369385 23.01453003 191.33369385 22.5949707 190.05615234 C22 188 22 188 22 186 C23.98828043 184.43449723 25.97805467 182.99048578 28.0625 181.5625 C29.33785509 180.67014988 30.61257155 179.77688647 31.88671875 178.8828125 C32.55622559 178.41520508 33.22573242 177.94759766 33.91552734 177.46582031 C37.42985268 174.99451447 40.90468455 172.47007323 44.375 169.9375 C45.03508057 169.46062744 45.69516113 168.98375488 46.37524414 168.49243164 C47.93549279 167.35342315 49.47066992 166.1801973 51 165 C51 164.67 51 164.34 51 164 C38.46 164 25.92 164 13 164 C12.34 161.03 11.68 158.06 11 155 C10.31596903 152.72671489 9.59642265 150.46370699 8.8359375 148.21484375 C8.43632812 147.02568359 8.03671875 145.83652344 7.625 144.61132812 C7.2125 143.39896484 6.8 142.18660156 6.375 140.9375 C5.95476562 139.69033203 5.53453125 138.44316406 5.1015625 137.15820312 C4.07181153 134.10405535 3.03786449 131.05139815 2 128 C1.67 128 1.34 128 1 128 Z " fill="#E60000" transform="translate(158,16)"/>
</svg>
